<?xml version="1.0" encoding="utf-8"?>
<!-- Generator: Adobe Illustrator 18.0.0, SVG Export Plug-In . SVG Version: 6.00 Build 0)  -->
<!DOCTYPE svg PUBLIC "-//W3C//DTD SVG 1.1//EN" "http://www.w3.org/Graphics/SVG/1.1/DTD/svg11.dtd">
<svg version="1.1" id="Layer_1" xmlns="http://www.w3.org/2000/svg" xmlns:xlink="http://www.w3.org/1999/xlink" x="0px" y="0px"
	 viewBox="0 0 841.9 595.3" enable-background="new 0 0 841.9 595.3" xml:space="preserve">
<path id="path2346" fill="#010101" d="M416.7,431.8c0-3.9-0.1-11.9-0.2-17.8l-0.2-10.8h1.6h1.6l0.1,16.4l0.1,16.4l5.8,0.1l5.8,0.1
	v1.3v1.3h-7.3h-7.3L416.7,431.8z M446.2,435.4c0.1-1.1,0.4-9.6,0.8-18.8s0.8-16.9,0.9-17s0.8-0.4,1.6-0.6l1.4-0.4l10.5,15.3
	c5.8,8.4,10.5,15.5,10.6,15.7c0,0.2-0.5,0.5-1.4,0.7l-1.5,0.4l-2.9-4.3l-2.9-4.3l-6.8,1.9c-3.7,1.1-6.9,2-7,2.1
	c-0.1,0.1-0.3,2.5-0.3,5.2l-0.2,5.1l-1.4,0.4c-0.8,0.2-1.4,0.4-1.5,0.5C446.2,437.3,446.2,436.5,446.2,435.4z M457.1,420.9
	c2.2-0.6,4.1-1.2,4.2-1.3c0.1-0.1-1.3-2.4-3-5.2c-1.8-2.7-4.3-6.5-5.5-8.5c-1.3-1.9-2.4-3.4-2.5-3.3c-0.2,0.2-0.8,19.9-0.6,20.2
	c0,0.1,0.8,0,1.7-0.3C452.3,422.2,454.8,421.5,457.1,420.9z M387.9,435.4c-5.9-1.4-9.6-5-11-10.4c-1-3.8-0.8-8.1,0.4-12.3
	c1.7-6,5.7-10.6,10.7-12.5c2-0.8,6.2-1,8.4-0.4c1.9,0.5,5.3,2.1,6.5,3.2l0.9,0.8l-0.4,1.3c-0.2,0.7-0.5,1.4-0.5,1.5
	c-0.1,0.1-0.6-0.3-1.2-0.8c-4.1-3.6-9-4.4-13.4-2.4c-2.2,1.1-3.8,2.5-5.3,4.7c-2.2,3.4-3.5,7.6-3.5,11.8c0,4.2,1,7,3.4,9.4
	c2.1,2.2,5.8,3.6,8.7,3.5l1.5-0.1l1.8-6.1c1-3.4,1.8-6.1,1.8-6.1s-1.3-0.4-2.9-0.8c-1.6-0.4-3-0.9-3.1-1c-0.2-0.2,0.3-2.4,0.6-2.6
	c0.2-0.1,8.8,2.2,9,2.5c0.1,0.1-1,3.9-2.3,8.5l-2.4,8.4l-0.7,0.1C393.5,436.1,389.7,435.9,387.9,435.4z M478.1,407.2
	c-5.3-8.1-9.7-14.9-9.7-15.1c-0.1-0.2,0.5-0.7,1.6-1.4l1.7-1l13.9,8.6c15.8,9.8,16.1,10,15.9,9.5c-0.1-0.2-3.2-5.1-7-11
	c-3.8-5.8-7.6-11.7-8.5-13l-1.5-2.4l1.1-0.7c0.6-0.4,1.2-0.7,1.3-0.7c0.1,0,18.4,27.9,19.4,29.7c0.2,0.4-2.8,2.4-3.4,2.3
	c-0.2-0.1-7-4.1-15-9.1c-8-4.9-14.6-8.9-14.6-8.8c-0.1,0.1,2.9,4.8,12.9,20.2l4.1,6.3l-1.2,0.7c-0.7,0.4-1.2,0.7-1.3,0.7
	C487.8,422,483.4,415.3,478.1,407.2z M351.3,420.7c-1.2-0.8-1.5-1.1-1.4-1.5c0.3-1.5,5-33.3,4.9-33.7c0-0.3-3.1,4-8.8,12.5
	c-4.8,7.1-8.8,13-8.9,13c-0.2,0-2.2-1.5-2.2-1.6c0-0.1,19.7-29.3,19.9-29.6c0.2-0.2,3.3,2.3,3.3,2.6c0,0.2-1.2,7.9-2.6,17.1
	c-1.4,9.2-2.6,16.9-2.6,17.1c0,0.5,0.2,0.2,9.8-14l8.2-12.1l1.2,0.8c0.6,0.4,1.1,0.9,1.1,1c-0.3,0.7-19.8,29.3-20,29.4
	C352.9,421.7,352.1,421.3,351.3,420.7z M314.7,389.3c-2.5-3-4.8-5.8-5-6.1c-0.4-0.5-0.3-0.6,12.9-11.7c7.3-6.2,13.5-11.3,13.8-11.5
	c0.4-0.3,1,0.5,5.2,5.5c4.7,5.7,4.8,5.8,4.4,6.2c-0.2,0.3-0.7,0.7-1.1,1l-0.6,0.5l-3.8-4.5c-2.1-2.5-3.8-4.5-4-4.5
	c-0.2,0-9.2,7.4-9.6,7.9c-0.2,0.2,0.8,1.5,3.3,4.5c1.9,2.3,3.6,4.3,3.6,4.4c0,0.1-0.4,0.6-1,1.1l-1.1,0.9l-3.5-4.2
	c-1.9-2.3-3.7-4.3-3.9-4.3c-0.4,0-10.7,8.5-10.8,8.9c0,0.1,1.7,2.3,3.9,4.9c2.1,2.6,3.9,4.7,3.9,4.8c0,0.1-0.5,0.5-1.1,1l-1.1,0.9
	L314.7,389.3z M510.3,382.1c-7.7-6-14-11.1-14-11.2c0-0.5,3.7-5,5.8-7c4.8-4.6,9.9-5.6,15.6-3.3c4,1.7,8.9,5.7,11.3,9.2
	c1.8,2.6,2.5,4.8,2.6,7.8c0.2,4.5-0.9,7.2-4.8,12.2l-2.4,3.1L510.3,382.1z M526.1,386.1c3.4-4.7,3.5-9.5,0.2-14.2
	c-2.6-3.9-8.1-7.8-12.4-8.9c-3.2-0.8-6.8,0.2-9.6,2.6c-1.6,1.4-4.1,4.6-3.9,4.9c0.1,0.1,5.4,4.3,11.8,9.2c10.5,8.2,11.6,9,12,8.7
	C524.5,388.2,525.3,387.1,526.1,386.1z M295.1,315c-9.8-2.9-17.9-5.3-17.9-5.3c0,0-0.1-2.1-0.1-4.6l-0.1-4.6l17.6-6.3
	c9.7-3.5,17.6-6.3,17.7-6.2s0.2,2,0.2,4.3l0.1,4.2l-3.6,1.1c-2,0.6-3.8,1.2-4,1.2c-0.3,0.1-0.3,1.1-0.2,5.7c0.1,3.1,0.2,5.6,0.3,5.7
	s1.9,0.6,4.1,1.2l4,1.1l0,2.3c0,1.3,0.1,3.1,0.2,4c0.1,1.3,0.1,1.6-0.2,1.6C313.1,320.3,304.9,317.9,295.1,315z M299,304.8
	c-0.1-2.2-0.2-4-0.2-4.1c-0.1-0.1-14.3,3.9-14.6,4.1c-0.2,0.1,13.7,3.8,14.7,3.9C299,308.8,299.1,307.8,299,304.8z M529.1,319.1
	l-1.4-0.1l0.1-1.4c0.1-0.8,0.4-5.3,0.7-10c0.3-4.8,0.6-8.7,0.7-8.7c0.1-0.1,35.5,2.4,35.6,2.5c0.1,0.1-0.4,7.9-0.6,8.1
	c-0.1,0.1-6.6-0.3-14.6-0.9c-10-0.7-14.5-0.9-14.6-0.8c-0.1,0.1-0.3,2.5-0.5,5.2c-0.4,6.9-0.2,6.3-2.3,6.2
	C531.3,319.3,529.9,319.2,529.1,319.1z M527.3,281.7c-0.5-2.7-0.6-4-0.4-4.1c0.4-0.3,34.5-6.2,34.8-6.1c0.3,0.1,1.8,7.7,1.5,7.9
	c-0.1,0.1-34,6.2-34.7,6.2C528.1,285.6,528,285.3,527.3,281.7z M296.9,272.1c-9.4-3.1-16.6-5.5-16.6-5.7c0-0.6,4.2-13.2,4.9-14.7
	c0.9-1.9,2.9-4.1,4.5-4.9c3.4-1.7,8.7-0.4,11.2,2.7c1.1,1.4,1.7,3.1,1.7,5.2v1.5l0.6-0.9c1.2-1.7,1.5-1.8,10.7-1.9
	c4.5,0,8.2,0,8.2,0.1c0,0.1-0.6,1.9-1.3,4.2l-1.3,4l-6.7-0.1c-8-0.2-8-0.2-9.1,2.2c-0.4,0.8-0.7,1.5-0.6,1.5c0,0,3.2,1.1,7,2.3
	l6.9,2.2l-1.3,3.8c-1,3.1-1.4,3.8-1.7,3.9C313.7,277.5,306,275.1,296.9,272.1z M297.9,261.8c0.7-2.2,0.7-3.2,0-4.6
	c-0.7-1.3-2.2-2.4-3.9-2.6c-1.6-0.2-3.2,0.6-4,2c-0.6,1-1.7,4-1.5,4.1c0.1,0.1,8.4,2.8,8.6,2.8C297.3,263.6,297.6,262.8,297.9,261.8
	z M524,264.3c-1.2-1.4-2.7-3.7-3.7-5.5c-3-5.6-3-11.8,0.2-16.8c1.3-2,4.3-4.9,6.6-6.3c9.1-5.4,18.3-4.6,23.9,2.3
	c2.1,2.6,4.1,7.7,4.3,11l0.1,1.3l-3.1,1.3l-3.1,1.3l-0.2-1.9c-0.2-2.4-0.6-3.7-1.6-5.7c-2-3.8-5.7-5.4-10.2-4.4
	c-4.7,1-9,3.9-10.7,7.4c-2,4-1,8.1,2.9,12l1.8,1.7l-1,0.5c-0.6,0.3-2,1.1-3.2,1.7l-2.2,1.2L524,264.3z M317.3,233.8
	c-6.5-4.6-12-8.3-12.1-8.2c-0.1,0-1,1.2-2,2.5c-0.9,1.3-1.9,2.7-2.1,3l-0.4,0.6l-2-1.4c-1.1-0.8-2.3-1.6-2.6-1.9l-0.6-0.5l6.8-9.7
	c3.7-5.4,6.8-9.8,6.9-9.8s1.2,0.7,2.7,1.7c1.6,1.1,2.5,1.9,2.5,2.1c-0.1,0.2-1,1.6-2.1,3.1c-1.1,1.5-2,2.9-2,3c0,0.1,5.4,4,12,8.6
	c7.9,5.6,11.9,8.5,11.8,8.7c-0.7,1.1-4.5,6.5-4.7,6.5C329.2,242.1,323.8,238.3,317.3,233.8z M504.9,231.5l-3.4-3.5l5.6-12.5
	c3.1-6.9,5.6-12.6,5.6-12.7s-4.2,3.8-9.3,8.7l-9.2,8.9l-2.5-2.6l-2.5-2.6l1.5-1.5c2.7-2.7,23.5-22.7,23.9-23c0.4-0.3,0.7,0,3.8,3.2
	l3.4,3.5l-4.6,10.8c-2.5,5.9-4.9,11.5-5.3,12.4l-0.7,1.7l0.6-0.5c0.3-0.3,4.3-4.1,8.9-8.5s8.4-8.1,8.5-8.1s1.3,1.1,2.6,2.6l2.5,2.6
	l-12.8,12.3c-7,6.8-12.9,12.4-13,12.4C508.3,235,506.7,233.4,504.9,231.5z M342,222c-0.5-0.7-1.4-1.9-2-2.7s-1-1.5-1-1.6
	c0-0.1,0.8-0.5,1.7-0.8c2.8-0.9,4.4-1.7,5.8-3.2c1.3-1.3,1.9-2.6,1.9-3.8c0-0.9-1-2.6-2-3.2c-1.3-0.9-2.9-0.8-6.9,0.3
	c-2.8,0.8-3.6,0.9-5.7,0.9c-2.1,0-2.6-0.1-3.8-0.6c-2.1-1-4.2-3.1-5.3-5.3c-0.9-1.8-0.9-2-0.9-4.3c0-2.4,0-2.6,0.9-4.3
	c1.1-2.2,2.8-4.2,5.3-6c1.9-1.4,6-3.7,6.2-3.5c1.5,1.8,3.8,5.2,3.6,5.2c-5.8,1.7-9.3,5.1-8.1,7.9c0.8,2,2.5,3,4.6,2.6
	c0.6-0.1,2.3-0.5,3.9-1c4.9-1.4,7.4-1.3,10.1,0.1c1.5,0.8,3.7,2.9,4.6,4.4c2.2,3.7,1.8,8.1-0.9,11.9c-1.8,2.6-5.3,5.3-9.3,7.3
	l-1.8,0.9L342,222z M471.7,205c-3.9-1-7.6-3.7-9.4-6.7c-0.9-1.5-1.4-3.5-1.4-5.4c0-3.2,0.6-4.7,6.5-16.4c3-6,5.6-11,5.7-11.1
	c0.1-0.1,1.9,0.6,3.9,1.7l3.7,1.9l-3.2,6.2c-8.9,17.4-8.7,17-8.7,18.9c0,2.1,0.5,3,2.4,3.9c2.3,1.2,4.5,0.7,5.9-1.3
	c0.3-0.5,3.2-5.9,6.3-12c3.1-6.1,5.7-11.2,5.7-11.2c0.1-0.1,7.4,3.6,7.4,3.8c0,0.1-2.5,5-5.5,11c-3.4,6.7-6,11.5-6.7,12.4
	c-1.5,2-3.6,3.6-5.6,4.3C476.9,205.5,473.8,205.6,471.7,205z M393,194.6c-6.3-1.6-10.8-6.7-12.8-14.5c-0.7-2.8-0.8-8-0.1-10.3
	c1.6-5.7,5.7-9.8,11.6-11.3c2.2-0.6,8.1-0.9,9.1-0.5c0.6,0.2,0.7,0.5,1.1,2.9c0.2,1.5,0.5,2.9,0.6,3.3l0.1,0.6l-1.6-0.4
	c-2.1-0.5-5.2-0.3-7.1,0.4c-2.7,1-4.3,2.7-5.3,5.5c-0.6,1.7-0.6,6,0,8.2c1.4,5,4.9,8.7,8.8,9.2c2.4,0.3,5.9-0.8,8.5-2.7
	c0.7-0.5,1.2-0.8,1.3-0.7s0.5,1.7,1,3.5l0.9,3.3l-0.5,0.4c-0.7,0.6-3.7,1.8-6.3,2.5C399.7,194.9,395.2,195.1,393,194.6z
	 M431.8,193.1c-4-0.9-7.3-3.2-9.2-6.5c-1.7-3-2.6-7.8-2.1-12.4c0.9-9.2,4.5-15.1,10.7-17.2c2.1-0.7,6.4-0.8,8.8-0.1
	c5.3,1.4,8.7,4.9,10.3,10.2c0.7,2.3,0.9,6.9,0.5,9.8c-1.2,9.2-5.7,15.1-12.3,16.4C436.7,193.5,433.5,193.5,431.8,193.1z
	 M436.9,186.9c2-1,3.6-3.5,4.6-7.5c1.1-4.4,1.2-10.1,0.2-12.9c-1.3-3.5-4.6-5.1-7.7-3.5c-2.9,1.5-4.9,6.6-5.3,13.7
	c-0.3,5.4,0.9,8.7,3.7,10.2C433.5,187.5,435.9,187.5,436.9,186.9z"/>
</svg>
