<?xml version="1.0" encoding="utf-8"?>
<!-- Generator: Adobe Illustrator 18.0.0, SVG Export Plug-In . SVG Version: 6.00 Build 0)  -->
<!DOCTYPE svg PUBLIC "-//W3C//DTD SVG 1.1//EN" "http://www.w3.org/Graphics/SVG/1.1/DTD/svg11.dtd">
<svg version="1.1" id="Layer_1" xmlns="http://www.w3.org/2000/svg" xmlns:xlink="http://www.w3.org/1999/xlink" x="0px" y="0px"
	 viewBox="0 0 841.9 595.3" enable-background="new 0 0 841.9 595.3" xml:space="preserve">
<g>
	<path d="M600.1,220.5c25.7,0,51.4,0,77.1-0.1c2.5,0,3.2,0.7,3.2,3.2c-0.1,49.4-0.1,98.8,0,148.1c0,2.5-0.7,3.2-3.2,3.2
		c-51.6-0.1-103.1-0.1-154.7,0c-2.4,0-3-0.7-3-3.1c0.1-49.5,0.1-98.9,0-148.4c0-2.4,0.6-3.1,3-3.1
		C548.4,220.6,574.2,220.5,600.1,220.5z M644.9,323.4c-1.5,0.8-2.4,1.4-3.4,1.9c-13.4,7.7-27.6,11.4-43.1,9
		c-24.9-3.9-38.2-25.9-33.1-48.8c3.9-17.2,19.3-29.9,36.9-31.2c13.4-1,25.7,2.5,37.4,8.4c1.2,0.6,2.4,1.1,3.9,1.8
		c0-5-0.1-9.4,0-13.8c0-1.7-0.7-2.5-2.1-3.1c-3.9-1.4-7.8-3.1-11.8-4.3c-14.8-4.5-29.8-5.8-44.6,0c-17.2,6.7-29.5,18.5-34.7,36.7
		c-3.4,11.7-2.5,23.5,2,34.8c5.3,13.5,14.6,23.3,27.7,29.5c9.3,4.4,19.2,5.1,29.3,4.8c11.8-0.3,23.1-3.1,33.6-8.5
		c0.7-0.4,1.7-1.1,1.7-1.7C645,334,644.9,329,644.9,323.4z"/>
	<path d="M340.7,374.7c0-51.4,0-102.6,0-154c53.5,0,107,0,160.6,0c0,51.3,0,102.5,0,154C447.9,374.7,394.4,374.7,340.7,374.7z
		 M390.2,244c0,0.8-0.1,1.7-0.1,2.5c0,33.5,0,67,0,100.6c0,2.2,0.5,3,2.9,3c11.4-0.1,22.8,0,34.2-0.1c7.9-0.1,15.5-1.4,22.4-5.8
		c10.1-6.3,15.2-17,12.7-28.6c-2.5-11.5-10.2-18.2-21.4-21.2c-0.8-0.2-1.7-0.5-3.1-0.9c1.4-0.7,2.2-1.1,3-1.5
		c6.1-3.3,10.7-7.8,12.2-14.8c3.5-16.4-6.6-31.2-23.3-32.7c-12.7-1.1-25.5-0.7-38.3-1C391.1,243.7,390.7,243.8,390.2,244z"/>
	<path d="M322.3,374.8c-53.7,0-107.2,0-160.8,0c0-51.4,0-102.6,0-154.2c1.1,0,2,0,2.9,0c51.6,0,103.1,0,154.7-0.1
		c2.5,0,3.2,0.6,3.2,3.1c-0.1,49.4-0.1,98.8-0.1,148.2C322.3,372.7,322.3,373.7,322.3,374.8z M258.8,293.7c0.7-0.4,1.2-0.8,1.8-1.1
		c19.6-9.8,16-32.5,3.9-42.1c-6.1-4.8-13.2-6.5-20.7-6.7c-10.2-0.2-20.4-0.1-30.6-0.3c-2.2,0-2.8,0.7-2.8,2.8
		c0.1,33.6,0.1,67.2,0,100.8c0,2.1,0.6,2.9,2.8,2.9c11.5-0.1,23,0,34.5-0.1c7.9-0.1,15.6-1.3,22.5-5.7c8.6-5.5,13.4-13.3,13.2-23.7
		c-0.2-10.8-5.7-18.4-15-23.3C265.4,295.8,262.2,295,258.8,293.7z"/>
	<path fill="#FFFFFF" d="M225.8,319.4c0,5,0,9.9,0,14.9c0,1.3,0.2,2.2,1.8,2.1c8.8-0.3,17.6,0,26.3-0.9c12-1.2,17.7-15.1,10.6-24.9
		c-3.8-5.3-9.4-6.8-15.3-7.3c-7.2-0.5-14.4-0.3-21.6-0.4c-1.6,0-1.9,0.8-1.8,2.1C225.8,309.9,225.8,314.6,225.8,319.4z M225.8,273.1
		c0,3.8,0,7.7,0,11.5c0.1,5.2-0.7,4.7,4.6,4.5c5.8-0.2,11.7-0.3,17.3-1.6c6.9-1.5,11.2-8.5,10.8-15.7c-0.5-7.9-4.4-12.9-12.2-13.9
		c-6.2-0.8-12.5-0.6-18.7-0.9c-1.7-0.1-1.7,1-1.7,2.2C225.8,263.9,225.8,268.5,225.8,273.1z"/>
	<path d="M405.4,319.8c0-4.9-0.1-9.7,0.1-14.6c0-0.7,0.9-2.1,1.4-2.1c8.7,0.1,17.4,0.1,26,0.8c6.1,0.5,10.6,4.1,13,9.9
		c4,9.6-2,20.3-12.3,21.7c-3.7,0.5-7.4,0.7-11.2,0.8c-4.8,0.1-9.6-0.1-14.3,0.1c-2,0.1-2.8-0.5-2.7-2.6
		C405.5,329.2,405.4,324.5,405.4,319.8z"/>
	<path d="M405.5,289.1c-0.1-1.1-0.2-1.8-0.2-2.6c0-9,0.1-17.9,0-26.9c0-2.1,0.6-2.8,2.7-2.6c5.7,0.3,11.5,0,17.2,0.8
		c8.6,1.2,12.6,6.1,12.8,14.1c0.2,7.8-4.3,14-11.8,16C419.4,289.8,412.5,289,405.5,289.1z"/>
	<path d="M225.8,319.4c0-4.8,0-9.6,0-14.4c0-1.3,0.2-2.1,1.8-2.1c7.2,0.2,14.5-0.1,21.6,0.4c5.9,0.4,11.5,2,15.3,7.3
		c7.1,9.8,1.4,23.8-10.6,24.9c-8.7,0.8-17.5,0.6-26.3,0.9c-1.6,0.1-1.8-0.8-1.8-2.1C225.8,329.4,225.8,324.4,225.8,319.4z"/>
	<path d="M225.8,273.1c0-4.6,0-9.2,0-13.8c0-1.2,0-2.3,1.7-2.2c6.2,0.3,12.6,0.1,18.7,0.9c7.8,1.1,11.7,6,12.2,13.9
		c0.4,7.2-3.9,14.1-10.8,15.7c-5.6,1.2-11.5,1.3-17.3,1.6c-5.3,0.2-4.5,0.7-4.6-4.5C225.8,280.7,225.8,276.9,225.8,273.1z"/>
</g>
</svg>
