<?xml version="1.0" encoding="utf-8"?>
<!-- Generator: Adobe Illustrator 18.0.0, SVG Export Plug-In . SVG Version: 6.00 Build 0)  -->
<!DOCTYPE svg PUBLIC "-//W3C//DTD SVG 1.1//EN" "http://www.w3.org/Graphics/SVG/1.1/DTD/svg11.dtd">
<svg version="1.1" id="Layer_1" xmlns="http://www.w3.org/2000/svg" xmlns:xlink="http://www.w3.org/1999/xlink" x="0px" y="0px"
	 viewBox="0 0 841.9 595.3" enable-background="new 0 0 841.9 595.3" xml:space="preserve">
<g>
	<path d="M360.6,392.9c14.7,0,29.1,0,43.7,0c0-0.5,0-1,0-1.5c0-9.3,0-18.5,0-27.8c0-1.8,0.4-3.3,1.5-4.8c4.9-6.3,9.8-12.7,14.6-19.1
		c3.4-4.5,6.7-8.9,10.1-13.4c4-5.3,8-10.5,12-15.7c2.8-3.6,5.5-7.3,8.2-10.9c3.5-4.6,7-9.1,10.5-13.6c3-3.9,6-7.9,9-11.9
		c3.5-4.6,7-9.2,10.5-13.8c3-3.9,6-7.9,8.9-11.9c0.9-1.3,1.9-2,3.7-1.9c12.6,0.1,25.2,0.1,37.8,0.1c0.6,0,1.1,0,1.9,0
		c0,0.6,0,1.2,0,1.8c0,34.7,0,69.4,0,104.1c0,1.8,0,1.8,1.8,1.8c5.5,0,11,0,16.6,0c0.5,0,1,0,1.6,0c0,13.7,0,27.3,0,41.2
		c-0.5,0-0.9,0-1.4,0c-5.7,0-11.3,0-17,0c-1.2,0-1.6,0.3-1.6,1.6c0,12.2,0,24.5,0,36.7c0,0.5,0,1.1,0,1.7c-15.9,0-31.6,0-47.6,0
		c0-0.5,0-1,0-1.6c0-12.2,0-24.5,0-36.7c0-1.3-0.4-1.7-1.7-1.7c-19.4,0-38.8,0.1-58.2,0c-1.7,0-2.6,0.6-3.5,1.8
		c-4.6,6.2-9.2,12.4-13.9,18.6c-4.8,6.4-9.7,12.8-14.6,19.2c-0.2,0.3-0.6,0.4-1,0.5c-0.3,0.1-0.6,0-0.8,0c-36.8,0-73.6,0-110.5,0
		c-0.5,0-1.1,0-1.7,0c0-0.3-0.1-0.5-0.1-0.7c-0.1-6.8-0.2-13.6-0.2-20.4c0-0.6,0.4-1.4,0.8-1.9c4-4.4,8.1-8.7,12.2-13
		c2.3-2.5,4.6-5,6.9-7.5c3.9-4.2,7.8-8.3,11.7-12.5c2.9-3.1,5.8-6.3,8.6-9.5c4-4.5,8-9.1,12-13.6c3-3.4,5.9-6.7,8.8-10.2
		c3-3.6,5.9-7.2,8.7-10.9c3.1-4.2,6.1-8.5,9-12.8c2.8-4.3,5.4-8.8,6.6-13.8c1.1-5,0.5-9.9-2.2-14.3c-1.6-2.6-4.2-4.1-7.3-4.7
		c-4.2-0.9-8.2-0.7-11.9,1.5c-5.7,3.3-9.4,8.3-10.9,14.7c-0.4,1.7-0.5,3.4-0.6,5.2c-0.1,1.4,0,2.8,0,4.2c-16.7,0-33.3,0-50.2,0
		c0.1-2.5,0.2-5,0.4-7.4c0.1-2.2,0.2-4.5,0.6-6.7c0.7-3.6,1.4-7.2,2.6-10.7c1.7-5.1,4.2-9.9,7.4-14.2c1.9-2.5,3.9-4.9,5.9-7.2
		c3.6-4.2,8-7.7,12.6-10.7c7.7-4.9,16-8.2,24.9-10.1c7-1.5,14.1-1.9,21.2-1.6c5.8,0.3,11.6,0.9,17.1,2.7c4.1,1.4,8.1,2.8,12,4.7
		c4.7,2.2,8.8,5.3,12.6,8.8c5.4,5.1,9.5,11,12.5,17.8c1.8,4,3.1,8.1,3.6,12.5c0.4,3.1,0.7,6.2,0.8,9.3c0.1,4.6-0.8,9.1-2.1,13.6
		c-2.9,9.8-7.6,18.8-13.2,27.2c-3.8,5.7-7.7,11.3-11.8,16.8c-2.8,3.8-5.9,7.3-8.9,10.9c-4.2,5-8.6,9.9-12.9,14.8
		C364.7,388.2,362.7,390.4,360.6,392.9z M485.5,320c-0.1,0-0.2-0.1-0.3-0.1c-8.6,11.4-17.3,22.8-26,34.2c0.3,0.1,0.4,0.1,0.6,0.1
		c8.2,0,16.4,0,24.6,0c0.9,0,1.1-0.4,1.1-1.2c0-1.9,0-3.9,0-5.8C485.5,338.2,485.5,329.1,485.5,320z"/>
	<path d="M281.3,183.2c3.2,1.5,5.7,3.6,7.8,6.5c1.2-0.9,2.3-1.6,3.4-2.5c0.9-0.8,1.6-0.7,2.3,0.2c3.7,5.1,5.2,10.8,4.4,17.1
		c-0.5,4.3-1.8,8.2-4.1,11.8c-3.9,6-9.7,9.4-16.4,11.3c-6.3,1.8-12.7,3.3-19.1,4.9c-1.1,0.3-2.2,0.5-3.5,0.4c1-0.9,2-1.9,3.1-2.8
		c1.9-1.6,3.8-3.2,5.6-4.9c0.4-0.4,0.6-1.1,0.6-1.7c0-13.3,0-26.6,0-39.9c0-10.2,0-20.3,0-30.5c0-0.5,0-1,0-1.7c0.5,0,0.9,0,1.4,0
		c3.6,0,7.2-0.1,10.8,0c3.3,0.1,6.3,0.9,8.8,3.1c0.6,0.5,1.2,0.6,1.8,0.1c1.1-0.9,2.3-1.7,3.4-2.6c3.4,2.9,4.8,6.7,5.5,11
		c0.5,3.5,0.1,6.8-0.9,10.1c-1.3,4.2-3.9,7.3-7.5,9.8c-0.3,0.2-0.8,0.2-1.2,0.2C285.5,183.2,283.4,183.2,281.3,183.2z M266.3,224.4
		c0.1,0.1,0.2,0.2,0.2,0.3c0.4-0.1,0.9-0.2,1.3-0.3c4.9-1,9.8-2.3,14.2-5c3.2-1.9,5.8-4.3,7.4-7.7c2-4.3,2.8-8.8,2.4-13.4
		c-0.2-2.9-1.2-5.7-2.8-8.2c-0.9,0.6-1.8,1.2-2.6,1.8c-0.9,0.6-1.7,1.3-2.6,1.9c-0.2-0.4-0.4-0.6-0.5-0.8c-1.6-3.6-5.1-5.6-9.2-4.6
		c-1.1,0.2-1.1,0.7-1.1,1.5c0,8.4,0,16.9,0,25.3c0,0.7-0.3,1.6-0.7,2.1c-1.2,1.5-2.5,3-3.8,4.4C267.7,222.7,267,223.6,266.3,224.4z
		 M272.9,156.2c0,7.2,0,14.3,0,21.4c0,1.4-0.4,2.1-1.5,2.8c-1.7,1-3.3,2.2-5.2,3.5c3-0.2,5.8-0.3,8.6-0.5c1.3-0.1,2.6-0.1,3.8-0.5
		c4.5-1.5,8-4.4,10.1-8.6c2.1-4.1,2.5-8.4,1.3-12.9c-0.6-2.1-1.2-4.2-2.7-5.8c-1.7,1.3-3.4,2.5-5.2,3.8
		C280,155.9,276.6,156.1,272.9,156.2z"/>
	<path d="M560.3,226.3c-6.1-1.4-12.1-2.7-18.4-4.1c1.2-0.6,2.4-1.1,3.5-1.6c1.5-0.7,3.1-1.3,4.7-1.9c1-0.4,1.4-0.9,1.4-2.1
		c0-21.1,0-42.2,0-63.3c0-0.5,0-1.1,0-1.8c3.5,0,6.9,0,10.4,0c3.6,0,7,0.7,9.9,3c0.2,0.2,0.8,0.2,1,0c1.1-0.7,2.1-1.4,3.1-2.2
		c1.3-1,2-0.9,3,0.3c3.2,3.7,4.6,8,5.2,12.8c0.6,5.1-0.3,9.8-2.4,14.3c-1.6,3.4-4.1,6.1-7.5,8.3c6.2,14.9,9.5,30.9,16.4,45.8
		c-5.5-1.6-11-3.1-16.8-4.8c1.7-1.3,3.2-2.5,4.8-3.6c0.8-0.6,1.3-1.3,0.9-2.4c-2.2-6.6-4.4-13.1-6.6-19.7
		c-1.9-5.8-3.8-11.6-5.7-17.5c-1.3,1.5-2.6,2.8-3.7,4.2c-0.8,1-1.7,1.4-3,1.2c-0.7-0.1-1.4,0-2.3,0c0,0.5,0,1,0,1.5
		c0,8.3-0.1,16.5,0.1,24.8c0,2.2,0.6,4.5,1.1,6.7C559.4,224.9,559.9,225.5,560.3,226.3z M552,185.9c0.7,0.2,1.2,0.3,1.7,0.4
		c2.8,0,5.6,0,8.4,0c5.4,0,9.3-2.6,12.3-6.9c2.5-3.5,3.4-7.4,3.3-11.6c-0.1-4.9-1.8-9-5.4-12.4c-1.5,1.2-3.1,2.4-4.7,3.7
		c-2.6-2.9-6-2.3-9.4-2.3c0,0.7,0,1.2,0,1.7c0,7.3,0,14.7,0,22c0,0.9-0.3,1.5-1.1,2C555.4,183.5,553.8,184.7,552,185.9z"/>
	<path d="M466.2,190.3c-1.5,1.2-2.9,2.4-4.4,3.5c-0.5,0.3-1.2,0.6-1.8,0.6c-3.3,0-6.5-0.1-9.8-0.3c-1.1,0-1.6,0.2-1.7,1.5
		c-0.4,3.2-1.2,6.2-1.5,9.4c-0.2,1.5,0.3,3,0.5,4.5c-4.6,0-9.4,0-14.2,0c0-0.1,0-0.2-0.1-0.3c1.8-1.3,3.5-2.7,5.4-3.7
		c1.4-0.8,1.8-1.9,2.1-3.2c1.3-6.9,2.6-13.8,3.9-20.7c1.5-7.6,3.1-15.2,4.6-22.8c0.3-1.5,0.7-3,0.8-4.5c0.1-1.1,0.6-1.2,1.4-1.2
		c2,0,4.1,0,6.1,0c1,0,1.6-0.3,2.2-1c1.5-1.7,3-3.4,4.9-5.4c4.3,21.8,8.5,43.4,12.7,65c-5.5-0.4-10.9-0.8-16.4-1.2
		c1.2-0.7,2.4-1.4,3.5-2c1.2-0.6,2.4-1.3,3.7-1.8c0.7-0.3,1-0.8,0.8-1.5C468.1,200.1,467.1,195.2,466.2,190.3z M444,189
		c7.6,0.3,14.8,0.6,22.1,0.8c-2.4-12.3-4.7-24.3-7.1-36.5c-1.2,1.2-2.3,2.1-3.2,3.2c-0.7,0.9-1.3,1.9-1.5,3c-0.6,3-1,6-1.5,9
		c-0.7,4.5-1.5,9-2.2,13.5c-0.3,1.8-0.6,3.4-2.6,4.2C446.8,186.9,445.6,187.9,444,189z"/>
	<path d="M316.9,156.9c0,6,0,11.6,0,17.3c0,1.3-0.5,2-1.5,2.7c-1.7,1.1-3.2,2.4-4.8,3.9c1.2,0,2.4,0,3.6,0c3.6-0.2,7.2-0.3,10.7-0.6
		c0.6,0,1.2-0.5,1.6-0.9c1.2-1.3,2.3-2.7,3.6-3.9c-0.7,3-1.3,6.1-2,9.1c-0.1,0.3-0.4,0.6-0.7,0.7c-1,0.2-2.1,0.2-3.1,0.3
		c-2.4,0.1-4.9,0.2-7.5,0.4c0,0.5,0,1,0,1.5c0,6,0,12,0,17.9c0,0.9-0.3,1.5-0.9,2.2c-1.9,1.8-3.8,3.7-5.7,5.6
		c0.1,0.1,0.1,0.2,0.2,0.3c1.5-0.2,3-0.4,4.5-0.7c3.2-0.5,6.4-1,9.5-1.6c0.8-0.1,1.6-0.1,2.3-0.4c0.7-0.3,1.3-0.8,1.7-1.3
		c1.6-2.1,3.1-4.3,4.9-6.4c-0.3,1.8-0.6,3.5-0.9,5.3c-0.4,2.5-0.9,4.9-1.4,7.3c-0.1,0.5-0.8,1.1-1.2,1.2c-3.5,0.7-7,1.1-10.5,1.8
		c-4.7,0.9-9.4,1.8-14.2,2.7c-1.2,0.2-2.3,0.5-3.4,0.8c-0.4,0.1-0.8,0-1.5,0c1.6-1.5,2.9-2.8,4.3-4.1c1.5-1.4,3-2.7,4.5-4.1
		c0.3-0.3,0.3-1,0.3-1.5c0-19.7,0-39.4,0-59.1c0-0.5,0-1.1,0-1.8c0.6,0,1.1,0,1.6,0c5,0,9.9,0,14.9,0c0.7,0,1.6-0.4,2.2-0.8
		c1.5-1.2,2.9-2.5,4.6-4c-0.9,4.2-1.7,8.1-2.5,12.1C326,155.8,321.4,157.6,316.9,156.9z"/>
	<path d="M537.7,221.3c-9.8-2-19.5-3.9-29.2-5.8c0.6-0.4,1.2-0.9,1.9-1.3c1.9-1.1,3.8-2.2,5.8-3.1c1-0.5,1.2-1.1,1.2-2
		c0-18.6,0-37.2,0-55.8c0-0.5,0-1.1,0-1.8c1.5,0,2.9,0,4.2,0c4.1,0,8.2,0,12.2,0c1.1,0,1.8-0.3,2.6-1.1c1.2-1.2,2.6-2.4,4.1-3.5
		c-0.8,4-1.6,8.1-2.4,12.2c-3.9-3.4-8.6-1.8-13.2-2.2c0,0.7,0,1.2,0,1.6c0,5.2,0,10.4,0,15.6c0,0.9-0.3,1.4-1,1.9
		c-1.9,1.2-3.7,2.5-5.5,3.8c0.1,0.1,0.2,0.2,0.3,0.2c4.9,0.1,9.7,0.2,14.6,0.3c0.5,0,1.1-0.3,1.4-0.7c1.2-1.3,2.3-2.7,3.7-4
		c-0.6,3.4-1.2,6.8-1.8,10.3c-3.9-0.2-7.7-0.4-11.7-0.6c0,0.6,0,1.1,0,1.6c0,5.7,0,11.5,0,17.2c0,0.5-0.3,1.2-0.8,1.5
		c-1.9,1.5-3.8,3-6,4.7c1.7,0.3,3.1,0.6,4.5,0.9c3.5,0.7,7,1.4,10.5,2.1c0.9,0.2,1.6,0.2,2.2-0.8c1.2-2,2.6-3.8,3.9-5.7
		c0.2-0.3,0.4-0.6,0.6-0.9c0.2,0.1,0.3,0.2,0.5,0.3C539.3,211.2,538.5,216.2,537.7,221.3z"/>
	<path d="M343.6,151.5c5.5,0,10.9,0,16.2,0c1.1,0,1.8-0.3,2.6-1.1c1.2-1.2,2.6-2.4,4.2-3.5c-0.8,3.8-1.6,7.7-2.4,11.7
		c-4-2.9-8.6-1.6-13.3-2c0,0.6,0,1.1,0,1.6c0,4.8,0,9.6,0,14.5c0,1-0.3,1.6-1.2,2.1c-1.7,1.1-3.4,2.4-5.1,3.9
		c0.7-0.1,1.4-0.2,2.1-0.3c1.7-0.1,3.5-0.2,5.2-0.3c2.4-0.1,4.8-0.1,7.2-0.3c0.7-0.1,1.4-0.7,1.9-1.3c1-1,1.9-2.2,2.8-3.3
		c0.1,0.1,0.2,0.1,0.4,0.2c-0.3,1.6-0.6,3.3-0.9,4.9c-0.1,0.6-0.3,1.2-0.5,1.8c-0.6,2.6-0.6,2.6-3.3,2.8c-2.8,0.2-5.7,0.4-8.7,0.6
		c0,0.5,0,1,0,1.4c0,5.1-0.1,10.1,0.1,15.2c0,1.6-0.6,2.5-1.7,3.4c-1.7,1.5-3.3,3-5.1,4.6c2.3-0.3,4.5-0.5,6.8-0.7
		c2.8-0.3,5.5-0.8,8.3-0.8c3.3,0,4.2-2.5,5.5-4.6c0.5-0.8,1.1-1.6,1.6-2.3c0.1,0,0.2,0.1,0.4,0.1c-0.8,4-1.6,8-2.3,11.8
		c-10.1,1.5-20.1,3.1-30.5,4.6c1.3-1.1,2.4-2.1,3.5-3c1.7-1.4,3.4-2.8,5.1-4.1c0.8-0.6,1-1.4,1-2.4c0-17.8,0-35.6,0-53.4
		C343.6,152.7,343.6,152.2,343.6,151.5z"/>
	<path d="M417.3,156.7c0,5.2,0,10.2,0,15.2c0,1.1-0.4,1.6-1.3,2.1c-1.8,1-3.5,2.2-5.5,3.5c5.3,0,10.1,0,15,0c0.4,0,0.9-0.3,1.2-0.6
		c1.3-1.2,2.5-2.5,4-3.6c-0.2,1.4-0.5,2.8-0.7,4.3c-0.2,1.2-0.6,2.4-0.7,3.6c-0.1,1-0.5,1.1-1.3,1.1c-3.1,0-6.1,0-9.2,0
		c-0.5,0-0.9,0-1.5,0c0,2,0,3.9,0,5.8c0,3-0.1,5.9,0.1,8.9c0.1,1.7-0.7,2.6-1.9,3.4c-1.6,1-3.1,2-4.6,3.3c0.9-0.1,1.9-0.3,2.8-0.3
		c4.2,0.1,8.4,0.2,12.6,0.3c0.8,0,1.4-0.1,1.9-0.9c1.2-1.9,2.6-3.7,3.9-5.6c0.2-0.3,0.4-0.5,0.8-0.6c-0.8,4.1-1.7,8.2-2.5,12.5
		c-9.7,0-19.3,0-29.2,0c1.1-0.7,2.1-1.4,3.1-2c1.8-1.1,3.6-2.1,5.3-3.3c0.3-0.2,0.5-0.9,0.5-1.4c0-7.6,0-15.2,0-22.8
		c0-8.9,0-17.7,0-26.6c0-0.5,0-1,0-1.6c1.6,0,3.1,0,4.5,0c4.3,0,8.6,0,12.9,0c1,0,1.6-0.3,2.3-1c1.2-1.2,2.6-2.4,3.8-3.5
		c0.1,0,0.3,0.1,0.4,0.1c-0.8,3.8-1.5,7.6-2.3,11.6c-1.6-1.5-3.4-1.9-5.4-1.9C423.4,156.7,420.5,156.7,417.3,156.7z"/>
	<path d="M490,151.9c-2,1.5-3.8,2.9-5.7,4.2c-0.5,0.4-1.3,0.6-1.9,0.6c-3.7-0.1-7.3,0.1-10.8,1.7c0.9-1.4,2-2.8,2.7-4.3
		c1.1-2.4,2.8-2.8,5.2-2.8c7,0.2,13.9,0,20.9,0.1c1.4,0,2.6,0,3.5-1.5c0.7-1.1,1.7-2,2.9-3.4c0.2,4.2,0.3,8.1,0.5,11.8
		c-1.6-0.5-3.2-1.1-4.9-1.4c-1.7-0.3-3.5-0.3-5.4-0.4c0,0.7,0,1.2,0,1.8c0,15.9,0,31.7,0,47.6c0,2.9,0.6,5.7,2.3,8.2
		c-6.2-0.8-12.2-1.6-18.6-2.4c1.3-0.7,2.4-1.3,3.4-1.8c1.7-0.9,3.5-1.6,5.3-2.5c0.3-0.2,0.7-0.7,0.7-1.1
		C490,188.3,490,170.3,490,151.9z"/>
	<path d="M400.1,146.5c-0.9,4.3-1.7,8.2-2.5,12.2c-4.1-3.2-8.8-1.5-13.3-2c0,5.7,0,11.2,0,16.7c-1.9,1.3-3.9,2.7-6.1,4.2
		c0.7,0.1,1.1,0.1,1.5,0.1c3.9,0,7.8-0.1,11.7,0.1c2.1,0.1,3.2-0.8,4.3-2.3c0.6-0.8,1.3-1.5,2.2-2.5c-0.6,3.1-1.2,5.8-1.6,8.6
		c-0.2,1.1-0.7,1.2-1.6,1.2c-3.4,0-6.9,0-10.5,0c0,0.6,0,1,0,1.5c0,5.7,0,11.4,0,17.1c0,3.6,0.4,5.6,2.2,8.5
		c-6.2,0.6-12.3,1.1-18.7,1.7c0.6-0.4,1-0.9,1.6-1.2c2.3-1.3,4.5-2.7,6.9-3.9c0.9-0.5,1.1-1,1.1-1.9c0-17.1,0-34.1,0-51.2
		c0-0.5,0-1,0-1.7c0.6,0,1,0,1.5,0c4.2,0,8.4-0.2,12.5,0.1c2.3,0.1,4.1-0.6,5.7-2.2C397.9,148.4,398.9,147.6,400.1,146.5z"/>
	<path d="M564.2,259.3c0-2.7,0-5.2,0-8.1c-1.3,1.9-2.3,3.5-3.6,5.4c-1.2-1.8-2.3-3.5-3.6-5.4c0,2.9,0,5.5,0,8.1c-1,0-1.8,0-2.7,0
		c0-4.2,0-8.4,0-12.6c2.7-0.6,3-0.4,4.9,2.9c0.4,0.7,0.9,1.5,1.4,2.4c0.8-1.3,1.6-2.4,2.3-3.6c1.1-2,1.3-2,4.1-1.7
		c0,4.1,0,8.3,0,12.6C566.1,259.3,565.3,259.3,564.2,259.3z"/>
	<path d="M552.2,246.7c0.2,2.5,0.2,2.5-3.8,2.8c0,3.2,0,6.5,0,9.9c-1,0-1.8,0-2.8,0c0-3.3,0-6.5,0-9.9c-1.3,0-2.5,0-3.8,0
		c0-0.9,0-1.8,0-2.7C545.2,246.7,548.7,246.7,552.2,246.7z"/>
</g>
</svg>
