<?xml version="1.0" encoding="utf-8"?>
<!-- Generator: Adobe Illustrator 18.0.0, SVG Export Plug-In . SVG Version: 6.00 Build 0)  -->
<!DOCTYPE svg PUBLIC "-//W3C//DTD SVG 1.1//EN" "http://www.w3.org/Graphics/SVG/1.1/DTD/svg11.dtd">
<svg version="1.1" id="Layer_1" xmlns="http://www.w3.org/2000/svg" xmlns:xlink="http://www.w3.org/1999/xlink" x="0px" y="0px"
	 viewBox="0 0 841.9 595.3" enable-background="new 0 0 841.9 595.3" xml:space="preserve">
<image overflow="visible" enable-background="new    " width="2000" height="400" xlink:href="../client logos/2000px-Bloomberg_logo.svg.png"  transform="matrix(1 0 0 1 -8771 -8093.7197)">
</image>
<g>
	<path d="M147.1,242.6c11.5,0,22.9,0,34.4,0c4.9,0,9.7,1.2,14.1,3.5c12.4,6.4,12.8,22.9,5.5,30.3c-2.5,2.5-5.4,4.3-8.7,5.5
		c-0.3,0.1-0.6,0.2-1.1,0.4c1.5,0.4,2.8,0.6,4.1,1c1.3,0.4,2.6,0.9,3.8,1.6c7.5,4.3,10.7,11,10.3,19.5c-0.7,13.1-9.6,18.8-19.1,21
		c-4.2,1-8.6,1.4-13,1.5c-10.1,0.2-20.1,0.1-30.2,0.1C147.1,298.8,147.1,270.7,147.1,242.6z M162.3,313.9c0.4,0,0.7,0.1,1,0.1
		c4.5,0,9,0.1,13.5-0.1c2.5-0.1,4.9-0.3,7.3-0.7c6.3-1.2,9.7-4.6,10.2-10.4c0.5-6.2-1.8-10.1-7.3-11.8c-2.2-0.7-4.5-1.1-6.7-1.2
		c-5.7-0.2-11.4-0.1-17.1-0.1c-0.3,0-0.6,0.1-1,0.1C162.3,298,162.3,305.9,162.3,313.9z M162.3,255.4c0,7.3,0,14.3,0,21.4
		c0.2,0,0.4,0.1,0.5,0.1c4.7,0,9.3,0.1,14,0c1.7,0,3.5-0.2,5.2-0.6c6.7-1.5,10-6.4,8.5-12.8c-1-4.3-4.2-6.3-8.2-7.1
		C175.8,254.8,169.1,255.6,162.3,255.4z"/>
	<path d="M497.3,240.6c0,12.1,0,24.1,0,36.5c0.4-0.4,0.7-0.5,0.9-0.8c5.7-6.5,13.1-8.5,21.3-7.9c14.6,1.2,23.3,12.7,24.8,25.2
		c1,8.4-0.2,16.3-5.1,23.4c-6.2,8.9-15.1,12-25.5,11.2c-5.5-0.4-10.4-2.4-14.3-6.4c-0.9-1-1.7-2.1-2.8-3.3c0,2.9,0,5.6,0,8.4
		c-4.6,0-9,0-13.6,0c0-0.5-0.1-1-0.1-1.5c0-27.8,0-55.6,0-83.4c0-0.5,0.1-0.9,0.1-1.4C487.8,240.6,492.6,240.6,497.3,240.6z
		 M513.7,281.2c-9.6-0.1-16.8,7.2-16.9,17.1c-0.1,9.7,7.1,17.1,16.7,17.2c9.6,0.1,16.9-7.3,16.9-17.1
		C530.4,288.6,523.3,281.2,513.7,281.2z"/>
	<path d="M233.5,240.6c0,28.7,0,57.5,0,86.3c-4.8,0-9.4,0-14.3,0c0-28.8,0-57.5,0-86.3C224,240.6,228.8,240.6,233.5,240.6z"/>
	<path d="M703.4,319.3c-1.7,1.5-3,2.9-4.4,3.9c-4.6,3.3-9.7,4.6-15.3,4.5c-15.5-0.4-26.8-11.3-27.8-26.8c-0.5-6.7,0.6-13.1,4-19.1
		c5.9-10.5,16.7-14.3,27-13.3c4.8,0.4,9.3,2,13,5.3c1.4,1.3,2.6,2.8,4.1,4.4c0-2.7,0-5.4,0-8.2c4.6,0,9.1,0,13.6,0
		c0,0.4,0.1,0.8,0.1,1.3c0,17.5,0.1,35,0,52.5c0,6.8-1.4,13.4-5,19.3c-4,6.5-10.1,10.1-17.4,11.8c-0.2,0.1-0.5,0.1-0.7,0.1
		c-6.5,0-12.9,0.3-19.4-0.1c-5-0.3-9.5-2.4-13.7-5.1c-1.5-0.9-2.8-2.1-4.4-3.2c2.9-4,5.7-7.8,8.6-11.8c1.2,0.9,2.2,1.8,3.3,2.7
		c6.6,5,14.1,6.5,22.2,5c6.5-1.3,10.8-5.8,11.7-12.6C703.1,326.2,703.1,322.9,703.4,319.3z M687.1,281.2c-9.9-0.1-16.9,6.7-17,16.6
		c-0.1,9.4,7.1,16.8,16.3,16.9c10.3,0.1,17.3-6.5,17.4-16.4C704,288,697.4,281.3,687.1,281.2z"/>
	<path d="M382.8,269.7c4.5,0,8.9,0,13.5,0c0,2.9,0,5.7,0,8.5c4-7,10.2-10.1,18-10c7.8,0,14.1,2.7,17.6,10.4c0.2-0.3,0.5-0.5,0.6-0.7
		c4.9-7.9,12.3-10.3,21.2-9.5c5.9,0.6,10.7,3.1,13.9,8.2c2.5,4,3.6,8.5,3.6,13.2c0.2,12.3,0.1,24.6,0.1,37c-4.7,0-9.4,0-14.3,0
		c0-0.5,0-1.1,0-1.6c0-10.2,0.1-20.3-0.1-30.5c0-2.5-0.4-5-1.1-7.4c-1.2-3.8-4.1-5.7-8-6c-9.2-0.8-13.4,5.7-13.6,13.1
		c-0.2,10.2-0.1,20.4-0.1,30.6c0,0.6,0,1.1,0,1.8c-4.8,0-9.5,0-14.4,0c0-0.6,0-1.1,0-1.7c0-10.5,0.1-21,0-31.5
		c0-2.2-0.3-4.6-0.9-6.7c-1.1-3.5-3.8-5.4-7.4-5.6c-8.4-0.6-13.7,4.1-14.2,12.5c-0.2,3.4-0.1,6.8-0.2,10.3c0,7,0,14.1,0,21.1
		c0,0.6,0,1.1,0,1.7c-4.8,0-9.5,0-14.2,0C382.8,307.9,382.8,288.8,382.8,269.7z"/>
	<path d="M343.1,328.4c-11.7-0.4-21.3-4.5-27.3-14.8c-9.5-16.4-2.5-40.9,21.2-44.8c10.3-1.7,19.8,0.4,27.7,7.6
		c7.2,6.5,9.8,14.9,9.2,24.4c-0.8,13.2-10.2,24.9-25.9,27.3C346.3,328.3,344.6,328.3,343.1,328.4z M343,315.4
		c9.6,0,16.7-7.3,16.7-17.1c0-9.8-7.1-17.1-16.7-17.1c-9.7,0-16.8,7.3-16.7,17.2C326.2,308.2,333.4,315.5,343,315.4z"/>
	<path d="M243.1,298.3c-0.1-15.2,10.1-27.1,25.3-29.6c7.4-1.2,14.6-0.3,21.3,3.2c11.5,5.9,16.6,17.7,15.5,29.5
		c-1.2,13.1-10.3,23.7-24,26.2c-12.6,2.3-23.6-0.7-32-10.9C244.9,311.5,243.2,305.1,243.1,298.3z M274.3,315.4
		c9.6,0,16.7-7.3,16.7-17.1c0-9.9-7.2-17.2-16.8-17.1c-9.7,0.1-16.7,7.4-16.6,17.3C257.5,308.2,264.7,315.5,274.3,315.4z"/>
	<path d="M596.2,309.2c3.4,2.6,6.8,5.1,10.2,7.7c-2.2,2.9-4.8,5.1-7.7,7c-13.6,8.6-36.2,5.1-44.4-11.7c-8.1-16.5-0.9-39.4,22.1-43.3
		c7.3-1.2,14.2-0.5,20.5,3.5c6.5,4.1,9.9,10.4,11.2,17.8c0.8,4.3,0.9,8.7,1.3,13.2c-14.9,0-29.3,0-43.8,0c0,6.1,4.9,11.9,11.2,13.2
		c7,1.4,13-0.4,18-5.7C595.3,310.2,595.7,309.7,596.2,309.2z M595,292.4c-0.5-2-0.7-4-1.5-5.7c-2-4.7-5.9-6.8-10.7-7.5
		c-9-1.4-16.3,4.2-17.2,13.2C575.3,292.4,585,292.4,595,292.4z"/>
	<path d="M632.8,326.9c-4.9,0-9.5,0-14.3,0c0-19.1,0-38.1,0-57.2c4.8,0,9.4,0,14.3,0c0,2.9,0,5.8,0,9.1c5.2-8.9,12.6-12,22.3-9.9
		c0,4.7,0,9.3,0,13.9c-1.6-0.3-3.2-0.6-4.8-0.8c-11.3-1.3-17.5,6.1-17.5,14.8c0,9.4,0,18.8,0,28.2
		C632.8,325.7,632.8,326.2,632.8,326.9z"/>
</g>
</svg>
