<?xml version="1.0" encoding="utf-8"?>
<!-- Generator: Adobe Illustrator 18.0.0, SVG Export Plug-In . SVG Version: 6.00 Build 0)  -->
<!DOCTYPE svg PUBLIC "-//W3C//DTD SVG 1.1//EN" "http://www.w3.org/Graphics/SVG/1.1/DTD/svg11.dtd">
<svg version="1.1" id="Layer_1" xmlns="http://www.w3.org/2000/svg" xmlns:xlink="http://www.w3.org/1999/xlink" x="0px" y="0px"
	 viewBox="0 0 841.9 595.3" enable-background="new 0 0 841.9 595.3" xml:space="preserve">
<g>
	<path d="M385.9,448.6c-8.1-6.4-16.3-12.8-24.5-19.2c-1.4-1.1-1.9-2.1-1.9-3.9c0.1-7.8,0-15.6,0-23.4c0-0.7,0-1.5,0-2.4
		c0.8-0.1,1.5-0.1,2.1-0.1c8.1,0,16.3,0,24.4,0c1,0,2.2,0.5,3.1,1.1c2.6,1.8,5,3.9,7.9,6.1c0-18.3,0-36.2,0-54.3
		c18.2,0,36.2,0,54.3,0c0-9.4,0-18.6,0-27.9c-41.7,0-83.4,0-125.4,0c0,9.2,0,18.5,0,28.2c-3.2-2.4-5.9-4.5-8.6-6.6
		c-5.6-4.3-11.1-8.7-16.7-13c-1-0.8-1.5-1.6-1.4-2.9c0.1-8.2,0.1-16.4,0-24.6c0-1.7,0.5-2,2.1-2c5.4,0.1,10.8,0,16.5-0.4
		c-3.7-2.9-7.4-5.8-11.2-8.8c27-34.6,54-69.2,81.2-103.9c3,2.4,6,4.6,9.4,7.3c0-1.4,0-2.4,0-3.4c0-4.8,0-9.6,0-14.5
		c0-0.8,0.2-1.8,0.7-2.4c8.9-11.4,17.8-22.8,26.7-34.2c0.2-0.3,0.3-0.6,0.6-1c3.2,2.5,6.1,4.7,9.5,7.3c0-1.5,0-2.6,0-3.8
		c0-4.5-0.1-9.1,0-13.6c0-1.1,0.5-2.2,1.1-3.1c1.5-2.2,3.2-4.2,4.9-6.3c8.9,6.9,17.6,13.7,26.5,20.7c-1.8,2.3-3.5,4.5-5.2,6.7
		c-0.4,0.6-0.8,1.4-0.8,2.2c0,14.3,0,28.6,0,42.9c0,0.2,0.1,0.4,0.2,1c7-9,13.8-17.7,20.7-26.5c2.5,1.9,4.8,3.8,7.3,5.7
		c-2.8,3.7-5.5,7.3-8.3,10.9c-6.3,8.2-12.6,16.5-18.9,24.7c-0.6,0.8-1,2.1-1,3.1c0,64.7,0,129.4,0,194.2c0,0.7,0.1,1.3,0.1,2.1
		c9.3,0,18.5,0,27.9,0c0-3.7,0-7.2,0-11c2.9,0,5.6,0,8.3,0c0.4,0,0.7,0.3,1.1,0.5c8.3,6.5,16.6,12.9,24.8,19.4
		c0.2,0.1,0.3,0.3,0.6,0.7c-21,0-41.8,0-62.8,0c0,9.6,0,18.9,0,28.2c-0.1,0-0.3,0-0.4,0c-2.5-2-5-4.2-7.5-6.1c-1.3-1-1.7-2-1.7-3.6
		c0-24.7,0-49.4,0-74c0-0.9,0-1.7,0-2.6c-9.4,0-18.5,0-27.7,0c0,0.4-0.1,0.8-0.1,1.1c0,28.4,0,56.8,0,85.2c-0.1,0-0.3,0-0.4,0
		c-2.7-2.2-5.4-4.3-8-6.5c-0.6-0.6-1.2-1.6-1.2-2.5c-0.1-5.6-0.1-11.2-0.1-16.9c0-0.7,0-1.4,0-2.1c-9.5,0-18.6,0-27.8,0
		c0,9.4,0,18.7,0,28C386.2,448.6,386.1,448.6,385.9,448.6z M451.4,315.1c0-50.3,0-100.5,0-151c-0.6,0.7-0.9,1.1-1.3,1.5
		c-8.6,11-17.1,21.9-25.6,32.9c-0.6,0.7-0.8,1.8-0.8,2.8c0,37.2,0,74.5,0,111.7c0,0.7,0,1.4,0,2.1
		C433.2,315.1,442.2,315.1,451.4,315.1z M408.1,303.9c0.1-0.2,0.1-0.3,0.2-0.5c-3.2-2.5-6.5-5-9.7-7.7c-0.7-0.6-1.3-1.7-1.3-2.6
		c-0.1-4.3-0.1-8.5,0-12.8c0-1,0.5-2.1,1.1-2.9c4.9-6.4,9.8-12.6,14.7-19c0.6-0.8,1.1-1.9,1.1-2.9c0.1-13.8,0-27.7,0-41.5
		c0-0.6-0.1-1.1-0.2-2c-27,34.5-53.6,68.7-80.4,103c0.5,0.1,0.6,0.2,0.8,0.2c11.1,0,22.2,0,33.4,0c0.7,0,1.5-0.6,1.9-1.1
		c2.4-2.9,4.7-6,7.1-8.9c0.5-0.6,1.5-1.1,2.3-1.1c3.9-0.1,7.7-0.1,11.6-0.1C396.5,303.9,402.3,303.9,408.1,303.9z"/>
	<path d="M489.5,303.9c3.6,0,7.1,0,10.6,0c5,0,9.9,0,14.9,0c0.9,0,1.9,0.3,2.6,0.8c8.2,6.3,16.4,12.7,24.6,19.1
		c0.1,0.1,0.2,0.3,0.5,0.7c-14.7,0-29.1,0-43.9,0c0,9.4,0,18.7,0,28.4c-3.3-2.6-6.1-4.8-9-7c-0.3-0.3-0.5-0.9-0.5-1.4
		c0-13.3,0-26.6,0-39.9C489.3,304.4,489.4,304.3,489.5,303.9z"/>
</g>
</svg>
