<?xml version="1.0" encoding="utf-8"?>
<!-- Generator: Adobe Illustrator 18.0.0, SVG Export Plug-In . SVG Version: 6.00 Build 0)  -->
<!DOCTYPE svg PUBLIC "-//W3C//DTD SVG 1.1//EN" "http://www.w3.org/Graphics/SVG/1.1/DTD/svg11.dtd">
<svg version="1.1" id="Layer_1" xmlns="http://www.w3.org/2000/svg" xmlns:xlink="http://www.w3.org/1999/xlink" x="0px" y="0px"
	 viewBox="0 0 841.9 595.3" enable-background="new 0 0 841.9 595.3" xml:space="preserve">
<g>
	<path d="M473.8,309.8c-9.4,0-17.9,0-26.6,0c0-4.3,0-8.2,0-12.4c13.6,0,27,0,40.4,0c1.6,20.2-8.9,37.5-25.3,43.8
		c-19.2,7.4-47.1,4.3-61.7-18.7c-18.7-29.4,0.7-68.4,35.5-71.6c18.9-1.7,34.5,4.8,47.8,18.5c-3.3,3.1-6.4,6.1-9.7,9.2
		c-2.7-2.3-5.2-4.6-8-6.6c-14.2-10.4-31.3-11.2-44.7-1.8c-10.8,7.6-16.1,18.3-14.2,31.4c2.1,14.7,11,24.4,25.1,28.7
		c15,4.6,30.1-0.3,37.3-11.9C471.3,315.9,472.3,313.1,473.8,309.8z"/>
	<path d="M601.9,344.5c-26.5,0-46.9-20.3-46.9-46.7c0-26.3,20.4-47.3,46.1-47.3c26.9,0,47.4,20.4,47.3,47.2
		C648.3,324,627.9,344.5,601.9,344.5z M601.6,263.5c-18.4,0-33.4,15.3-33.4,34.3c0,18.8,14.7,33.9,33.2,34
		c18.7,0.1,33.5-14.9,33.6-34C635.2,278.9,620.2,263.5,601.6,263.5z"/>
	<path d="M207.3,342.5c0-30.2,0-59.8,0-89.9c15.4,0.4,30.8-1.4,45.7,2.6c15.7,4.2,27.2,18.4,29.1,35c1.2,10.3,0.5,20.3-4.1,29.8
		c-5.8,11.8-14.8,19.3-28,21.2c-5,0.7-10.1,1.1-15.2,1.2C225.7,342.7,216.7,342.5,207.3,342.5z M220.1,329.1c7.8,0,15.2,0.2,22.6,0
		c14.2-0.5,25.5-10,26.7-27.1c0.9-12.8-2.5-24.2-14.3-31.1c-10.9-6.3-23-4.8-35-5C220.1,287.3,220.1,308.2,220.1,329.1z"/>
	<path d="M549.8,287.6c0,4.7,0,8.6,0,13c-13.1,0-26,0-39.3,0c0,9.8,0,19.1,0,29c13,0,26,0,39.1,0c0,4.5,0,8.4,0,12.7
		c-17.4,0-34.8,0-52.3,0c0-29.8,0-59.4,0-89.2c17.5,0,34.8,0,52.4,0c0,4,0,8.1,0,12.6c-12.9,0-25.9,0-39.2,0c0,7.4,0,14.4,0,22
		C523.5,287.6,536.5,287.6,549.8,287.6z"/>
	<path d="M397.9,342.3c-13.6,1-13.6,1-19-10.6c-1.8-4-3.7-7.9-5.4-11.5c-6.7,1-13,2.6-19.4,2.6c-6.3,0.1-12.7-1.3-19.6-2.2
		c-2.7,5.8-5.9,12.4-8.9,19c-1,2.2-2.3,3.1-4.7,3c-3.4-0.2-6.9,0-10.8,0c0.4-1.3,0.6-2.3,1-3.2c13-27.8,26-55.7,39-83.5
		c0.8-1.8,1.7-3.8,4.1-3c1.4,0.5,3.1,1.6,3.7,2.9c13.1,28.1,26,56.3,39,84.4C397.3,340.7,397.5,341.3,397.9,342.3z M368.5,309.5
		c-4.8-10.4-9.5-20.3-14.4-30.9c-5.1,10.9-9.8,21-14.6,31.4C349.5,313.3,358.7,313,368.5,309.5z"/>
	<path d="M305.3,342.3c-4.1,0-8.1,0-12.3,0c0-29.9,0-59.5,0-89.4c4.1,0,8,0,12.3,0C305.3,282.6,305.3,312.3,305.3,342.3z"/>
</g>
</svg>
