<?xml version="1.0" encoding="utf-8"?>
<!-- Generator: Adobe Illustrator 18.0.0, SVG Export Plug-In . SVG Version: 6.00 Build 0)  -->
<!DOCTYPE svg PUBLIC "-//W3C//DTD SVG 1.1//EN" "http://www.w3.org/Graphics/SVG/1.1/DTD/svg11.dtd">
<svg version="1.1" id="Layer_1" xmlns="http://www.w3.org/2000/svg" xmlns:xlink="http://www.w3.org/1999/xlink" x="0px" y="0px"
	 viewBox="0 0 841.9 595.3" enable-background="new 0 0 841.9 595.3" xml:space="preserve">
<g>
	<path d="M652.5,268.4c1,54.2-45.1,99.5-99.2,99.1c-54.1-0.3-98.6-45.2-98.6-99.3c0-54.4,45.4-100.7,102.2-99.1
		C607.7,170.4,653.7,214.2,652.5,268.4z"/>
	<path d="M415.7,360.2c-1.3,0.8-2.2,1.2-2.7,1.8c-13.1,13.7-40,8.2-47.2-11.5c-5.2-14.4-4.6-28.5,2.8-42.1
		c7.8-14.5,26.5-19.5,40.5-10.9c1.4,0.9,2.4,2.4,3.8,3.5c0.7,0.5,1.7,0.7,2.5,1.1c0.2-0.8,0.7-1.5,0.7-2.3c0-4.4,0.7-5,5-4.9
		c3.4,0.1,6.7,0,10.1-0.1c2.5-0.1,3.6,0.8,3.6,3.4c0,22.2,0,44.3,0,66.5c0,2.4-1.2,3.2-3.5,3.2c-3.7-0.1-7.4-0.1-11.1-0.1
		c-3.4,0-4.2-0.8-4.1-4.2C416.1,362.6,415.9,361.8,415.7,360.2z M414.9,333c0.2-7.5-0.4-14.3-5.6-19.7c-6.2-6.5-18.2-4.9-22.2,3.2
		c-4.9,9.9-5,20.1-0.4,30.1c2.4,5.2,6.9,7.5,12.6,7.6c5.7,0.1,9.7-2.4,12.7-7.3C414.8,342.3,414.9,337.4,414.9,333z"/>
	<path d="M174.4,331c0-10.9,0-21.7,0-32.6c0-2.5,0.7-3.8,3.5-3.6c3.7,0.2,7.4,0.1,11.1,0c3.4-0.1,4.4,1,4.3,4.5
		c0,1.1,0.4,2.1,0.7,3.2c1-0.6,2.2-0.9,2.9-1.7c7.2-7.1,16-8.7,25.6-6.9c13.8,2.5,19.3,13.9,19.6,26c0.3,14.8,0.2,29.5,0.2,44.3
		c0,2.3-1.1,3.5-3.3,3.5c-4.8,0-9.6,0-14.3-0.1c-3.1,0-3.5-1.9-3.5-4.6c0-14,0.1-28-0.4-42c-0.3-7.1-3.5-10.4-8.8-11
		c-6.4-0.7-12.8,2.9-14.7,8.8c-1,3.3-1.8,6.8-1.8,10.2c-0.2,11.6-0.1,23.2,0,34.9c0,2.6-0.9,3.9-3.6,3.8c-4.6-0.1-9.1-0.2-13.7-0.1
		c-2.9,0.1-3.7-1.2-3.7-4C174.5,352.8,174.4,341.9,174.4,331L174.4,331z"/>
	<path d="M324.2,345.5c1.1-3.8,2.2-7.6,3.4-11.3c3.8-12,7.7-24,11.4-36c0.9-2.9,2.4-3.7,5.5-3.5c4.3,0.3,8.7,0,13-0.1
		c2.8-0.1,3.7,1.2,2.7,3.8c-5.8,15.3-11.6,30.6-17.4,45.9c-2.6,6.9-5,13.8-7.8,20.6c-0.5,1.1-2.4,2.3-3.7,2.4
		c-5.7,0.3-11.5,0.1-17.3,0.2c-2.3,0-3.5-1.3-4.2-3.4c-8.2-22-16.5-44-24.8-66c-0.9-2.3-0.6-3.5,2.2-3.5c5.5,0.1,11.1,0.1,16.6,0
		c2.3,0,3.5,0.9,4.2,3.1c4.4,14.2,9,28.3,13.5,42.4c0.5,1.7,0.9,3.4,1.3,5.2C323.3,345.5,323.7,345.5,324.2,345.5z"/>
	<path d="M277.1,331.2c0,10.9-0.1,21.7,0,32.6c0,2.9-1.3,3.9-3.9,3.8c-4.3,0-8.7,0-13-0.1c-3.3,0-4.1-1-3.9-4.4
		c0.2-4.8,0.2-9.5,0.2-14.3c0-16.8,0-33.6-0.1-50.5c0-2.5,0.7-3.9,3.5-3.8c4.4,0.1,8.9,0.1,13.3,0c2.8-0.1,4.1,0.9,4.1,4
		C277.1,309.5,277.1,320.4,277.1,331.2L277.1,331.2z"/>
	<path d="M159.5,331.3c0,10.9,0,21.7,0,32.6c0,2.4-0.9,3.7-3.4,3.7c-4.7,0-9.3,0-14-0.1c-2.1,0-3.6-0.7-3.5-3.2
		c0.2-13,0.4-26,0.4-39.1c0-8.9-0.1-17.8-0.3-26.7c-0.1-2.8,0.8-3.9,3.8-3.8c4.2,0.2,8.5,0.2,12.7,0.1c3.6-0.1,4.2,0.4,4.2,3.9
		C159.4,309.6,159.4,320.5,159.5,331.3C159.4,331.3,159.4,331.3,159.5,331.3z"/>
	<path d="M266.6,284.7c-2.3,0-4.5,0-6.8,0c-2.4,0-3.5-1.2-3.5-3.6c0.1-3.8,0-7.6,0-11.4c0-2.2,0.9-3.4,3.3-3.4
		c4.7,0.1,9.5,0,14.2-0.1c2.2,0,3.3,1.1,3.3,3.1c0.1,4,0.1,8,0,12c0,2.2-1.1,3.4-3.5,3.3C271.4,284.7,269,284.7,266.6,284.7
		L266.6,284.7z"/>
	<path d="M149,284.7c-2.3,0-4.5,0-6.8,0c-2.5,0.1-3.6-1.1-3.5-3.5c0-3.9,0-7.8,0.1-11.7c0-2.4,1.4-3.1,3.6-3.1c4.6,0.1,9.3,0,13.9,0
		c2.1,0,3.3,0.9,3.3,3c0,3.9,0,7.8,0,11.7c0,2.6-1.1,3.8-3.7,3.7C153.6,284.7,151.3,284.8,149,284.7L149,284.7z"/>
</g>
</svg>
