<?xml version="1.0" encoding="utf-8"?>
<!-- Generator: Adobe Illustrator 18.0.0, SVG Export Plug-In . SVG Version: 6.00 Build 0)  -->
<!DOCTYPE svg PUBLIC "-//W3C//DTD SVG 1.1//EN" "http://www.w3.org/Graphics/SVG/1.1/DTD/svg11.dtd">
<svg version="1.1" id="Layer_1" xmlns="http://www.w3.org/2000/svg" xmlns:xlink="http://www.w3.org/1999/xlink" x="0px" y="0px"
	 viewBox="0 0 841.9 595.3" enable-background="new 0 0 841.9 595.3" xml:space="preserve">
<g>
	<path d="M619,196c-8,49.6-16.1,98.9-24.1,148.2c-0.1,0-0.3,0-0.4,0.1c-10.5-24.7-20.9-49.5-31.6-74.7
		c-10.6,25.2-21.1,49.9-31.6,74.6c-0.1,0-0.3,0-0.4,0c-8-49.3-16-98.6-24-148.1c7.5,0,14.7,0,22.3,0c3.9,24.1,7.8,48.3,11.7,72.6
		c0.1,0,0.3,0.1,0.4,0.1c7.2-16.9,14.3-33.7,21.6-51c7.3,17.2,14.4,34.1,21.6,50.9c0.1,0,0.3,0,0.4,0c3.9-24.2,7.8-48.4,11.7-72.7
		C604.1,196,611.3,196,619,196z"/>
	<path d="M343.8,342.5c0-49.2,0-97.7,0-146.5c3.1,0,6.2,0,9.3,0c32.4-0.4,63,21.4,72.5,52.3c7.5,24.2,2.6,46.3-13.3,65.8
		c-12.1,14.8-27.9,23.8-46.7,26.9C358.6,342.2,351.3,342,343.8,342.5z M365.8,319.7c18.3-2.9,40-20.9,41-48.5
		c1.2-30.7-22.4-50-41-52.9C365.8,252.1,365.8,285.9,365.8,319.7z"/>
	<path d="M176.7,342c-7.4,0-14.5,0-21.8,0c0-48.6,0-97.2,0-145.9c7.2,0,14.3,0,21.6,0c0,16.6,0,33.3,0,49.9c0.2,0.1,0.3,0.1,0.5,0.2
		c0.4-0.6,0.8-1.3,1.2-1.9c9.2-15.4,18.4-30.9,27.5-46.3c0.9-1.5,1.9-2.1,3.6-2c6.9,0.1,13.8,0,20.7,0c0.7,0,1.3,0.1,2.3,0.1
		c-0.4,0.7-0.6,1.3-0.9,1.8c-11.5,19.4-23,38.8-34.6,58.2c-0.8,1.3-1.1,2.4-0.3,4c10.4,20.3,20.8,40.6,31.1,60.9
		c3,5.9,6.1,11.9,9.1,17.8c0.5,1,1,2,1.6,3.2c-0.8,0.1-1.3,0.1-1.8,0.1c-7,0-14.1,0-21.1,0c-1.3,0-2-0.4-2.6-1.6
		c-11.1-21.9-22.3-43.8-33.4-65.7c-0.8-1.6-1.6-3.2-2.8-4.7C176.7,294.1,176.7,317.9,176.7,342z"/>
	<path d="M299.4,278.9c0-3.4,0-6.5,0-9.7c7.4,0,14.6,0,21.9,0c0,24.3,0,48.4,0,72.7c-7.2,0-14.3,0-21.8,0c0-2.9,0-5.9,0-9.2
		c-2.3,2-4.2,3.9-6.3,5.4c-13.6,9.8-31.5,7.4-42.4-5.6c-13.3-15.8-12.7-40,1.3-55.1c12.4-13.3,32.1-13.7,45-0.8
		C297.8,277.4,298.5,278,299.4,278.9z M281.1,285.6c-12.9,0-22.3,13.4-18.4,26.1c3.7,11.8,15.9,17.5,26.5,12.3
		c6.2-3,12-10.6,10.9-20.8C299.2,293.6,290.7,285.6,281.1,285.6z"/>
	<path d="M502.2,333.2c-7.7,8.9-24.2,14.3-39.6,8.9c-15.6-5.4-25.9-20.3-25.7-37.1c0.2-16.6,11.2-31.2,27.3-36.2
		c15.7-4.9,33,1.1,42.9,15.1c-13.2,13-26.4,26-39.8,39.3c8.6,3.8,15.8,2.5,22.6-3.2C494,324.5,498,328.8,502.2,333.2z M482.7,287.5
		c-7.3-2.7-16-0.5-20.8,5.1c-5.2,5.9-6.7,14.1-4,19.2C466,303.8,474.2,295.7,482.7,287.5z"/>
	<path d="M647.4,323.2c8.7,3.8,15.9,2.5,22.6-3.1c4.1,4.4,8.2,8.7,12.3,13.1c-6.9,8.2-23,14.1-38.3,9.3c-16-5-27-20.1-27-36.9
		c0-16.8,11.4-32.1,27.3-36.8c16.1-4.8,33.9,1.4,42.8,15.1C674.1,296.8,661,309.9,647.4,323.2z M662.8,287.6
		c-6.8-3-15.6-0.7-21.1,5.5c-4.6,5.1-6.4,13.7-3.4,18.9C646.4,303.9,654.5,295.8,662.8,287.6z"/>
	<path d="M419.3,398.9c-2.3,0-4.6,0.1-6.9-0.1c-0.6,0-1.3-0.7-1.7-1.2c-2.3-3.3-4.6-6.6-6.7-10.1c-1-1.7-2.2-2.2-4.1-1.5
		c0,3.1-0.1,6.3,0.1,9.5c0,0.7,1.3,1.2,1.9,1.8c0.3,0.3,0.6,0.6,0.9,0.9c-0.4,0.2-0.7,0.7-1.1,0.7c-3.1,0.1-6.1,0-9.2,0
		c-0.3,0-0.7-0.5-1-0.7c0.3-0.3,0.5-0.7,0.8-0.8c1.8-0.2,2.1-1.4,2.1-2.8c0.1-6.9,0.2-13.8,0.2-20.7c0-1.5-0.4-2.9-2.3-3.2
		c-0.4-0.1-0.7-0.7-1.1-1.2c5.7,0,11.1-0.2,16.4,0.1c3,0.1,5.4,1.8,6.1,5.1c0.7,3.5-0.5,6.3-3.4,8.4c-0.6,0.5-1.3,0.8-2.2,1.3
		c3.5,5,6.3,10.5,11.7,14C419.7,398.6,419.5,398.7,419.3,398.9z M399.9,371.4c0,4.2,0,8.2,0,12.3c2.8,0.4,5.3,0.4,7.1-2
		c1.5-2,1.7-6.1,0.4-8.1C405.6,370.8,402.8,371.4,399.9,371.4z"/>
	<path d="M350.5,383.1c0.7,0.2,1.1,0.3,1.5,0.5c3,1,5.1,2.9,5.5,6.1c0.4,3.2-1.3,6.1-4.3,7.7c-3.1,1.7-6.6,1.6-10,1.6
		c-2.4,0-4.7,0-7.1,0c-0.5,0-1.1-0.4-1.6-0.6c0.4-0.3,0.8-0.7,1.2-1.1c0.6-0.7,1.6-1.4,1.6-2.1c0.2-7.2,0.2-14.5,0.3-21.7
		c0-1.4-0.6-2.6-2.2-2.8c-0.6-0.1-1.1-0.2-1.6-0.3c0.3-0.4,0.6-0.8,0.9-1.2c3.2,0,6.5,0,9.7,0c2,0,4,0,6,0.3
		c2.7,0.4,4.6,1.8,5.2,4.7c0.6,3.1-0.4,5.6-2.9,7.5C352,382.2,351.4,382.5,350.5,383.1z M342.9,384.8c0,3.3,0,6.5,0,9.7
		c0,1.5,0.8,2.2,2.3,2.5c4.7,1,8.2-3.5,6.6-8.5C350.7,385.3,347.7,384,342.9,384.8z M342.8,371.5c0,3.4-0.1,6.6,0.1,9.9
		c0,0.4,0.9,1.1,1.5,1.1c4.6,0.2,7.2-3.3,5.8-7.8C349.3,372,347.4,371.2,342.8,371.5z"/>
	<path d="M492.7,388.8c0-5.6,0.1-10.7-0.1-15.9c0-0.7-1.1-1.4-1.8-2c-0.5-0.4-1-0.7-1.6-1c0.1-0.2,0.2-0.4,0.3-0.6c3,0,6,0,9.5,0
		c-0.5,0.6-0.8,1.2-1.1,1.3c-2.3,0.4-2.3,2.2-2.3,3.8c-0.1,7.5-0.1,14.9-0.1,22.4c0,0.8,0,1.5-0.4,2.5c-6.7-7.8-13.4-15.6-20.2-23.6
		c0,6.5,0,12.8,0,19c0,1.4,0.6,2.4,2.2,2.6c0.3,0,0.6,0.5,0.9,0.8c-0.4,0.2-0.8,0.7-1.2,0.7c-2.2,0.1-4.4,0.1-6.7,0
		c-0.4,0-0.8-0.5-1.3-0.7c0.3-0.3,0.6-0.8,0.9-0.8c1.7-0.2,2.2-1.5,2.2-2.8c0.1-7.1,0.1-14.2-0.1-21.3c0-0.8-1.6-1.5-2.5-2.2
		c-0.5-0.4-0.9-0.8-1.3-1.2c0.1-0.2,0.3-0.3,0.4-0.5c2.3,0,4.6-0.1,6.9,0.1c0.7,0.1,1.6,0.8,2.1,1.4c4.9,5.7,9.7,11.4,14.5,17
		C492.3,388,492.4,388.3,492.7,388.8z"/>
	<path d="M385.1,392.8c0,1.9,0,3.9,0,6c-6.9,0-13.7,0-21.3,0c0.7-0.7,1.1-1,1.4-1.4c0.6-0.7,1.8-1.4,1.8-2.2
		c0.2-7.1,0.2-14.2,0.2-21.3c0-1.6-0.4-2.9-2.3-3.2c-0.3,0-0.6-0.6-1.3-1.3c7.1,0,13.6,0,20.2,0c0,1.8,0,3.6,0,5.4
		c-0.1,0.1-0.3,0.3-0.4,0.4c-0.3-0.4-0.9-0.8-1-1.3c-0.3-1.5-1.2-2.2-2.6-2.2c-2.1-0.1-4.2-0.2-6.2-0.1c-0.4,0-1.2,0.8-1.2,1.2
		c-0.1,3.1-0.1,6.1-0.1,9.4c2.2,0,4.2,0.2,6.1-0.1c0.7-0.1,1.4-1.1,2-1.7c0.4-0.4,0.7-0.9,1.1-1.3c0.2,0.1,0.3,0.2,0.5,0.3
		c0,2.6,0,5.2,0,8.5c-0.8-0.6-1.5-0.9-1.6-1.3c-0.3-1.5-1.4-2.1-2.7-2.1c-1.7-0.1-3.5,0-5.4,0c0,3.5-0.1,6.8,0.1,10.1
		c0,0.6,0.9,1.7,1.4,1.8c2.4,0.1,4.9,0.2,7.2-0.2c0.9-0.1,1.5-1.6,2.2-2.4c0.4-0.4,0.8-0.8,1.2-1.2
		C384.8,392.5,385,392.7,385.1,392.8z"/>
	<path d="M423.7,369.3c4.3,0,8,0,12.2,0c-0.7,0.7-1,1.3-1.4,1.4c-1.6,0.2-2,1.3-2.1,2.7c0,7,0,13.9,0,20.9c0,1.3,0.6,2.2,2,2.2
		c1.5,0,2.9,0.1,4.4,0c1.9-0.1,3.2-1.1,3.9-2.9c0.2-0.5,0.8-0.9,1.2-1.3c0.2,0.1,0.3,0.2,0.5,0.4c0,2,0,4,0,6.2c-2.9,0-5.7,0-8.5,0
		c-3.3,0-6.7,0-10,0c-0.5,0-1-0.4-1.5-0.6c0.4-0.3,0.9-0.6,1.2-1c0.5-0.6,1.3-1.3,1.4-2.1c0.3-2.8,0.4-5.7,0.4-8.5
		c0-4.2,0-8.4-0.1-12.5c0-1.7-0.3-3.2-2.5-3.5C424.5,370.6,424.3,370,423.7,369.3z"/>
	<path d="M450.3,369.4c4.2,0,7.8,0,11.9,0c-0.5,0.7-0.8,1.3-1.2,1.3c-1.8,0.3-2,1.6-2.1,2.9c-0.1,2.9-0.1,5.7-0.1,8.6
		c0,4.1,0.1,8.2,0.2,12.3c0,1.3,0.3,2.7,2.1,2.9c0.3,0,0.5,0.5,0.7,0.8c-0.4,0.2-0.7,0.7-1.1,0.7c-3,0.1-6,0-9,0
		c-0.3,0-0.6-0.4-1-0.5c0.2-0.3,0.5-0.9,0.7-1c1.9-0.3,2.1-1.8,2.1-3.2c0.1-6.9,0.1-13.8,0-20.7c0-1.4-0.6-2.4-2.1-2.8
		C451.3,370.6,451,370.1,450.3,369.4z"/>
</g>
</svg>
