<?xml version="1.0" encoding="utf-8"?>
<!-- Generator: Adobe Illustrator 18.0.0, SVG Export Plug-In . SVG Version: 6.00 Build 0)  -->
<!DOCTYPE svg PUBLIC "-//W3C//DTD SVG 1.1//EN" "http://www.w3.org/Graphics/SVG/1.1/DTD/svg11.dtd">
<svg version="1.1" id="Layer_1" xmlns="http://www.w3.org/2000/svg" xmlns:xlink="http://www.w3.org/1999/xlink" x="0px" y="0px"
	 viewBox="0 0 841.9 595.3" enable-background="new 0 0 841.9 595.3" xml:space="preserve">
<g>
	<path d="M261.7,229.8c0,32,0,63.9,0,96c-3.7,0-7.2,0-10.9,0c0-39.5,0-79.1,0-118.7c0.3,0,0.6-0.1,0.9-0.1c3.2,0,6.3,0,9.5,0
		c0.7,0,1.1,0.2,1.4,0.9c13.8,26.7,27.7,53.4,41.6,80.2c0.1,0.2,0.3,0.5,0.5,0.9c1.2-2.2,2.2-4.2,3.3-6.3
		c12.8-24.8,25.7-49.5,38.5-74.3c0.5-1,1.1-1.4,2.2-1.4c3.2,0.1,6.4,0,9.7,0c0,39.6,0,79.2,0,118.8c-3.6,0-7.1,0-10.8,0
		c0-32.1,0-64.2,0-96.3c-0.1,0-0.2,0-0.3-0.1c-0.9,1.8-1.9,3.6-2.8,5.4c-11.8,22.9-23.6,45.7-35.3,68.6c-0.5,1-1.1,1.4-2.3,1.4
		c-1.7-0.1-3.3-0.1-5,0c-0.9,0-1.3-0.2-1.7-1c-3.6-7-7.2-13.9-10.8-20.9c-9-17.5-18.1-35-27.1-52.5c-0.1-0.2-0.2-0.4-0.4-0.6
		C261.9,229.8,261.8,229.8,261.7,229.8z"/>
	<path d="M411.6,260.5c-3.1-3.8-6.4-7.5-9.3-11.5c-3.5-4.9-5.6-10.3-5.5-16.5c0.2-9.3,4.5-16.3,12.2-21.2c10.1-6.3,24.1-5,32.9,3
		c9,8.2,10.7,21.9,3.9,32.4c-3.8,5.9-9.1,10.3-14.8,14.2c-0.7,0.5-1.5,1-2.4,1.6c8.1,8.9,16.2,17.7,24.4,26.6
		c4.8-7.9,9.6-15.6,14.5-23.5c3,1.9,5.8,3.7,8.7,5.5c-5.3,8.7-10.6,17.3-16,26c7.3,7.8,14.6,15.5,22,23.3c-2.7,2.3-5.3,4.6-8.1,7
		c-6.6-7-13.1-14-19.6-20.9c-2.3,2.8-4.3,5.7-6.7,8.2c-6.5,6.9-14.6,10.5-24.1,10.9c-9.2,0.4-17.7-1.7-25.2-7.1
		c-11.4-8.2-15.9-23.2-10.7-35.8c2.4-5.9,6.6-10.4,11.6-14.1C403.4,265.9,407.6,263.2,411.6,260.5z M418.9,268.1
		c-1,0.6-1.9,1.1-2.8,1.6c-5.2,3-10.2,6.2-14.3,10.7c-7.2,8-6.9,20.1,0.7,27.8c7,7.1,15.6,9,25.1,7.3c9.7-1.7,15-8.7,19.8-16.4
		C437.9,288.7,428.5,278.4,418.9,268.1z M421.5,255.3c0.2,0,0.3,0,0.4-0.1c4.8-2.8,9.2-5.9,12.8-10.2c3.5-4.3,5.2-9.2,4.4-14.8
		c-2-13.7-17.2-15.8-24.8-10.6c-6.1,4.2-9.2,13.1-4.6,21.1C412.9,246.2,417.3,250.6,421.5,255.3z"/>
	<path d="M490.5,299.7c3.1-1.9,6.1-3.8,9.2-5.6c0.9,1.5,1.7,3.1,2.6,4.5c5.1,8.4,12,14.5,21.7,17c9.8,2.5,19.6,2.1,28.7-2.5
		c7.2-3.6,10.6-9.8,11.3-17.7c0.6-6.3-1.4-11.5-6.5-15.3c-2.1-1.6-4.4-3.1-6.9-4c-6.6-2.4-13.3-4.6-20-6.8
		c-6.7-2.2-13.5-4.2-19.6-7.7c-6.1-3.5-11.1-8.1-13.2-15.1c-3.8-12.4-0.6-28.3,14.6-36.1c8.1-4.1,16.8-5.5,25.8-4.8
		c7.3,0.5,14.1,2.4,20.4,6.2c7.8,4.8,12.8,11.7,15.6,20.6c-3.3,1.2-6.5,2.4-9.9,3.6c-0.4-1.1-0.8-2.1-1.3-3.2
		c-4.3-9.4-11.7-14.8-21.7-16.6c-7.5-1.4-14.8-0.9-21.8,2.2c-10.5,4.7-13.6,14.9-11.7,23.2c0.9,3.8,3.3,6.6,6.4,8.9
		c4.7,3.3,10,5.1,15.4,6.8c7.2,2.3,14.5,4.3,21.7,6.8c6.1,2.1,11.7,5,16.3,9.7c4.6,4.7,6.8,10.3,7.2,16.7c0.5,7.7-1.1,14.9-5.7,21.3
		c-4.8,6.8-11.5,11-19.4,13.1c-12.9,3.4-25.7,2.9-37.8-3.1c-7.9-3.8-13.7-10-18.4-17.3C492.5,303.1,491.5,301.4,490.5,299.7z"/>
	<path d="M473.3,386c0.1,0,0.1,0.1,0.3,0.2c2.8,1.5,4,3.8,3.5,6.9c-0.5,3.1-2.4,4.9-5.4,5.7c-2.5,0.7-5.1,0.6-7.6-0.3
		c-2.7-1.1-4.2-3.1-4.4-5.9c-0.3-2.8,1-4.8,3.3-6.2c0.1-0.1,0.3-0.2,0.4-0.3c0,0,0-0.1,0.1-0.2c-1.3-1-2.5-2-2.9-3.8
		c-0.9-3.8,1-6.9,4.9-7.9c2.2-0.6,4.4-0.5,6.6,0.2c2.3,0.8,3.8,2.4,4.2,4.9c0.4,2.5-0.4,4.7-2.6,6.2c-0.1,0.1-0.3,0.2-0.4,0.3
		C473.3,385.8,473.3,385.8,473.3,386z M468.9,396.4c0.5-0.1,1.4-0.2,2.2-0.5c1.8-0.7,2.7-2.1,2.7-4c0-1.9-0.9-3.3-2.7-4
		c-2.1-0.8-4.2-0.8-6.2,0.4c-2.3,1.4-2.7,4.6-0.9,6.6C465.3,396.1,466.8,396.4,468.9,396.4z M463.6,380.4c0,2.4,1.9,4.1,4.8,4.1
		c2.8,0,4.8-1.6,4.9-3.9c0.1-2.6-1.8-4.2-4.8-4.2C465.5,376.5,463.7,378,463.6,380.4z"/>
	<path d="M448.6,385.9c1.8,1,3.3,2.2,3.8,4.1c0.9,3.3-0.7,6.8-3.8,8.2c-3.1,1.4-6.2,1.4-9.3,0.1c-2.6-1.1-4-3.2-4.2-6
		c-0.2-2.6,0.9-4.6,3.2-5.9c0.2-0.1,0.5-0.3,0.7-0.6c-2.2-1.4-3.3-3.3-3.1-5.9c0.2-2.4,1.3-4.2,3.4-5.2c2.9-1.4,5.9-1.4,8.8-0.1
		c4.5,2.1,5.1,7.8,1.1,10.8C449.1,385.6,448.9,385.7,448.6,385.9z M443.8,396.5c0,0,0-0.1,0-0.1c0.3,0,0.7,0,1,0
		c2.7-0.3,4.4-1.9,4.5-4.3c0.1-2.2-1.2-4.1-3.6-4.5c-1.4-0.2-3-0.1-4.4,0.2c-1.9,0.5-2.9,2.1-2.9,4c0,2,1,3.5,3,4.1
		C442.2,396.2,443,396.3,443.8,396.5z M448.7,380.5c-0.1-1.3-0.5-2.6-1.9-3.3c-1.9-1-3.9-1-5.7-0.1c-2.6,1.3-2.8,5-0.4,6.5
		c1.8,1.2,3.8,1.2,5.7,0.3C447.9,383.4,448.7,382.2,448.7,380.5z"/>
	<path d="M341.9,384.5c0,1.2,0,2.1,0,3.1c-3.7,0-7.4,0-11.1,0c0,2.7,0,5.3,0,8.1c4.3,0,8.7,0,13.1,0c0,1.1,0,2.1,0,3.2
		c-5.4,0-10.9,0-16.4,0c0-8.3,0-16.5,0-24.8c5.2,0,10.4,0,15.7,0c0,1,0,2,0,3.1c-4.1,0-8.2,0-12.4,0c0,2.5,0,4.9,0,7.4
		C334.4,384.5,338.1,384.5,341.9,384.5z"/>
	<path d="M368.3,379.8c-1,0.4-1.8,0.7-2.9,1.1c-0.8-2.1-2.3-3.5-4.5-4c-1.6-0.4-3.2-0.3-4.7,0.7c-2.2,1.4-2.2,4.5,0.2,5.7
		c1.5,0.7,3.2,1.2,4.8,1.7c1.3,0.5,2.6,0.9,3.8,1.5c3.9,2,4.7,6.9,1.6,10.2c-3.6,3.9-13.7,4.2-16.7-3.3c0.8-0.5,1.7-1.1,2.6-1.6
		c0.2,0.3,0.4,0.5,0.5,0.8c2,3.7,5.6,4.4,9.1,3.5c0.9-0.2,1.7-0.9,2.3-1.6c1.4-1.7,1-3.8-0.9-4.8c-1.5-0.7-3.1-1.2-4.6-1.7
		c-1.3-0.5-2.7-0.9-3.9-1.5c-2.3-1-3.6-2.8-3.6-5.4c0-2.6,1-4.6,3.3-6c4.9-2.8,11.6-0.6,13.5,4.4
		C368.3,379.4,368.3,379.5,368.3,379.8z"/>
	<path d="M500.5,390.1c0,1,0,1.8,0,2.8c-0.9,0.1-1.7,0.1-2.6,0.2c0,1.9,0,3.8,0,5.7c-1.1,0-2.1,0-3.2,0c0-1.9,0-3.7,0-5.7
		c-3.9,0-7.7,0-11.7,0c0-1.6-0.3-3,0.8-4.4c3.2-4.2,6.3-8.5,9.4-12.7c1.6-2.2,1.6-2.2,4.5-1.8c0,5.2,0,10.5,0,15.9
		C498.7,390,499.6,390.1,500.5,390.1z M494.6,378.6c-2.8,3.9-5.4,7.5-8.2,11.3c2.9,0,5.5,0,8.2,0
		C494.6,386.2,494.6,382.6,494.6,378.6z"/>
	<path d="M381.7,377.2c-2.8,0-5.4,0-8,0c0-1.1,0-2,0-3.1c6.4,0,12.9,0,19.3,0c0,1,0,2,0,3.1c-2.6,0-5.2,0-7.9,0c0,7.3,0,14.4,0,21.6
		c-1.2,0-2.2,0-3.4,0C381.7,391.7,381.7,384.5,381.7,377.2z"/>
	<path d="M423,376.9c-0.7,0-1.2,0-1.7,0c-0.4,0-0.9,0-1.4,0c0-1,0-1.9,0-2.9c2.1,0,4.1,0,6.2,0c0,8.2,0,16.4,0,24.7c-1,0-2,0-3.1,0
		C423,391.6,423,384.3,423,376.9z"/>
	<path d="M401.3,397c0,1.3-0.9,2.1-2.1,2.1c-1.2,0-2-0.9-2-2.1c0-1.3,0.8-2.1,2.1-2.1C400.5,394.9,401.3,395.7,401.3,397z"/>
</g>
</svg>
