<?xml version="1.0" encoding="utf-8"?>
<!-- Generator: Adobe Illustrator 18.0.0, SVG Export Plug-In . SVG Version: 6.00 Build 0)  -->
<!DOCTYPE svg PUBLIC "-//W3C//DTD SVG 1.1//EN" "http://www.w3.org/Graphics/SVG/1.1/DTD/svg11.dtd">
<svg version="1.1" id="Layer_1" xmlns="http://www.w3.org/2000/svg" xmlns:xlink="http://www.w3.org/1999/xlink" x="0px" y="0px"
	 viewBox="0 0 841.9 595.3" enable-background="new 0 0 841.9 595.3" xml:space="preserve">
<g>
	<g>
		<polygon points="198.9,368.9 199.5,259.2 241.2,259.2 241.5,292.5 297.9,293.3 333,259.4 389,259.7 333.7,311.2 394.2,369.2 
			338.1,369.1 298,328.8 241.4,328.9 241.2,368.9 		"/>
		<rect x="384.3" y="293.6" transform="matrix(1.900032e-03 -1 1 1.900032e-03 123.6633 752.7829)" width="109.4" height="41.7"/>
		<polygon points="490.1,331.6 495.9,292.6 565.6,292.8 560.3,331.6 		"/>
		<path d="M718.8,369.1l41.6,0.3l-3.1-71.3c0,0-1-8.2-1.4-9.8c-8.3-40.6-47.8-29.1-47.8-29.1l-71.8,13.3l-42.1-0.1v96.9l41.6,0.3
			l0.1-59.8l58.5-11.3c0,0,17.5-4.8,19.5,9.1L718.8,369.1z"/>
		<rect x="755.6" y="294.1" transform="matrix(1.699999e-03 -1 1 1.699999e-03 494.1449 1124.4957)" width="109.4" height="41.4"/>
	</g>
	<path d="M113.8,288.9c5.6,0.1,17,2,17,15.3c0,7.5,0,12.3,0,15.3c0,4.1,0.2,5.8,0.1,7c-0.4,4-3.5,12.8-21.9,12.8l-18.8,0.2
		c-5.8-0.1-12.3-0.2-19.3-0.4c-17.2-0.4-19.9-11.2-20.2-16.2c0,0-0.4-15.5,0.1-18.6c0.7-4.5,3-14.7,20.5-15.1L113.8,288.9z
		 M120.1,257.4c-16-0.2-41.4,0.2-67.8,0.8c-34.9,0.8-39.5,23.5-41,33.5c-1,6.8-0.2,41.2-0.2,41.2c0.6,11.2,6,35,40.2,36
		c13.9,0.4,27,0.7,38.5,0.8l37.8,0.2c30.3,0.6,40.1-18.8,42.2-28.7c0.6-2.6,1.2-6.7,1.2-15.8c-0.1-6.7,0-15-0.2-31.6
		c-0.3-19.9-16.9-31.4-30.7-34.9C136.7,258,129.7,257.6,120.1,257.4l-0.5,1.9"/>
</g>
</svg>
