<?xml version="1.0" encoding="utf-8"?>
<!-- Generator: Adobe Illustrator 18.0.0, SVG Export Plug-In . SVG Version: 6.00 Build 0)  -->
<!DOCTYPE svg PUBLIC "-//W3C//DTD SVG 1.1//EN" "http://www.w3.org/Graphics/SVG/1.1/DTD/svg11.dtd">
<svg version="1.1" id="Layer_1" xmlns="http://www.w3.org/2000/svg" xmlns:xlink="http://www.w3.org/1999/xlink" x="0px" y="0px"
	 viewBox="0 0 841.9 595.3" enable-background="new 0 0 841.9 595.3" xml:space="preserve">
<g>
	<path d="M353.6,238.4c0,47.9,0,95.8,0,143.9c-11.4,0-22.5,0-33.9,0c0-61.2,0-122.4,0-183.7c18.3,0,36.5,0,55.2,0
		c10.9,41.5,21.9,83.2,32.9,124.9c0.2,0,0.4,0,0.6,0c0.3-1,0.7-2,1-3c10.4-39.7,20.7-79.5,31.1-119.2c0.4-1.6,0.6-2.9,2.9-2.9
		c17.3,0.1,34.6,0.1,51.8,0.1c0.4,0,0.8,0.1,1.4,0.2c0,61.2,0,122.4,0,183.7c-11.3,0-22.5,0-34,0c0-48.1,0-96.1,0-144.2
		c-0.3-0.1-0.6-0.1-0.9-0.2c-11.9,48.1-23.7,96.2-35.6,144.4c-11.6,0-22.9,0-34.2-0.1c-0.7,0-1.8-1.3-2-2.2
		c-3.9-15-7.6-30.1-11.4-45.2c-7.9-31.7-15.9-63.4-23.8-95c-0.2-0.6-0.4-1.2-0.7-1.8C353.9,238.3,353.8,238.3,353.6,238.4z"/>
	<path d="M221.6,386c-16.5-0.6-32.5-3.2-47-11.3c-20.5-11.4-32.4-29.3-38.1-51.6c-7.1-27.9-6-55.5,6.1-82
		c11.3-24.8,31.3-38.9,57.7-43.8c18.2-3.4,36.4-2.8,54.1,3.1c25.1,8.4,41.6,25.7,49.7,50.6c9.9,30.3,9.1,60.4-4.3,89.5
		c-11.4,24.6-31.3,38.6-57.8,43.2C235.3,384.9,228.4,385.3,221.6,386z M272.5,290.3c-0.8-7-1.3-14-2.5-20.9
		c-1.7-9.6-5.2-18.5-11.4-26.1c-9.3-11.4-21.8-15.6-36-15.8c-24.2-0.4-40.7,11-47.7,33.6c-5.7,18.4-6,37.1-0.8,55.7
		c5.9,21,21.1,35.3,43.4,36.8c18.8,1.3,37.7-6.4,47.2-26C270.4,315.9,272,303.3,272.5,290.3z"/>
	<path d="M682.9,382.6c-13.1,0-26,0-38.9-0.1c-0.8,0-2.1-1.3-2.4-2.3c-4.7-12.1-9.4-24.2-13.9-36.3c-0.9-2.3-2-3.1-4.5-3.1
		c-22.3,0.1-44.7,0.1-67,0c-2.5,0-3.4,0.9-4.2,3c-4.3,12.1-8.8,24.2-13.2,36.3c-0.5,1.3-0.7,2.5-2.6,2.5c-12.4-0.1-24.8,0-37.6,0
		c0.4-1.2,0.6-2.2,1-3.1c23.1-59.4,46.3-118.8,69.3-178.2c0.9-2.2,2-2.9,4.3-2.8c11.2,0.1,22.4,0.1,33.7,0c1.9,0,2.8,0.5,3.5,2.3
		c23.9,59.8,47.9,119.6,71.8,179.5C682.4,380.9,682.6,381.6,682.9,382.6z M564.4,309.5c16.9,0,33.4,0,50.2,0
		c-8.5-22.7-16.8-45-25.4-68C580.8,264.5,572.7,286.9,564.4,309.5z"/>
</g>
</svg>
