<?xml version="1.0" encoding="utf-8"?>
<!-- Generator: Adobe Illustrator 18.0.0, SVG Export Plug-In . SVG Version: 6.00 Build 0)  -->
<!DOCTYPE svg PUBLIC "-//W3C//DTD SVG 1.1//EN" "http://www.w3.org/Graphics/SVG/1.1/DTD/svg11.dtd">
<svg version="1.1" id="Layer_1" xmlns="http://www.w3.org/2000/svg" xmlns:xlink="http://www.w3.org/1999/xlink" x="0px" y="0px"
	 viewBox="0 0 841.9 595.3" enable-background="new 0 0 841.9 595.3" xml:space="preserve">
<g>
	<path d="M163.9,294.4c0.7,0,1.3-0.1,2-0.1c51.4,0,102.9,0,154.3,0c0.7,0,1.3,0,2.1,0c0-12,0-23.9,0-36c-0.6,0-1.2,0-1.8,0
		c-51.6,0-103.2,0-154.7,0c-0.6,0-1.2,0-1.8,0c0-2.2,0-4.3,0-6.5c55,0,110,0,165,0c0,6.7,0,13.4,0,20.1c0,9,0,18,0,27
		c0,0.6,0,1.1,0,1.8c-52.9,0-105.6,0-158.4,0c0,14.2,0,28.2,0,42.6c-2.3,0-4.4,0-6.6,0C163.9,327.1,163.9,310.7,163.9,294.4z"/>
	<path d="M693.3,251.9c0,16.3,0,32.5,0,48.9c-52.8,0-105.5,0-158.4,0c0,14.2,0,28.2,0,42.4c-2.3,0-4.3,0-6.5,0c0-16.3,0-32.5,0-48.8
		c52.8,0,105.5,0,158.3,0c0-12,0-23.9,0-35.9c-52.7,0-105.4,0-158.4,0c0-2.3,0-4.4,0-6.6C583.3,251.9,638.3,251.9,693.3,251.9z"/>
	<path d="M504.1,251.9c0,2.1,0,4.2,0,6.5c-28.2,0-56.1,0-84.2,0c0,28.4,0,56.5,0,84.8c-30.4,0-60.6,0-90.9,0c0-2.1,0-4.2,0-6.5
		c28,0,55.9,0,83.9,0c0-0.6,0.1-1,0.1-1.5c0-27.4,0-54.7,0-82.1c0-0.4-0.1-0.8-0.1-1.3C443.2,251.9,473.7,251.9,504.1,251.9z"/>
	<path d="M725.5,335.4c-0.8,2.3-1.5,4.6-2.3,6.9c-0.2,0.4-0.7,1-1,1c-0.4,0-0.9-0.6-1-1c-0.8-2.3-1.6-4.6-2.6-6.9c0,2.6,0,5.1,0,7.8
		c-0.5,0.1-0.9,0.1-1.4,0.2c0-3.6,0-7.2,0-10.8c1.3-0.4,2.1,0,2.5,1.4c0.7,2.4,1.6,4.8,2.7,7.2c0.5-1.6,1.1-3.1,1.6-4.7
		c0.3-0.9,0.6-1.8,0.9-2.7c0.5-1.6,0.5-1.6,2.3-1.3c0,3.5,0,7,0,10.6c-0.4,0-0.8,0-1.3,0c0-2.6,0-5.2,0-7.7
		C725.7,335.4,725.6,335.4,725.5,335.4z"/>
	<path d="M715.8,332.4c-0.8,2.1-2.5,0.6-3.7,1.5c0,1,0,2.3,0,3.6c0,1.5,0,3.1,0,4.6c0,1-0.3,1.3-1.5,0.9c0-3.1,0-6.2,0-9.5
		c-1.3,0-2.3,0-3.4,0c-0.1-0.1-0.2-0.2-0.3-0.4c0.3-0.3,0.6-0.8,0.9-0.8C710.4,332.4,712.9,332.4,715.8,332.4z"/>
</g>
</svg>
