<?xml version="1.0" encoding="utf-8"?>
<!-- Generator: Adobe Illustrator 18.0.0, SVG Export Plug-In . SVG Version: 6.00 Build 0)  -->
<!DOCTYPE svg PUBLIC "-//W3C//DTD SVG 1.1//EN" "http://www.w3.org/Graphics/SVG/1.1/DTD/svg11.dtd">
<svg version="1.1" id="Layer_1" xmlns="http://www.w3.org/2000/svg" xmlns:xlink="http://www.w3.org/1999/xlink" x="0px" y="0px"
	 viewBox="0 0 841.9 595.3" enable-background="new 0 0 841.9 595.3" xml:space="preserve">
<g>
	<path d="M187.3,264.8c4,8.1,7.8,15.8,11.7,23.4c3.2,6.3,6.4,12.6,9.6,18.8c1.7,3.4,1.1,4.2-2.6,4.6c-6.3,0.8-9.8-1.3-12.5-7.4
		c-5.4-12-11.8-23.6-17.7-35.4c-1-1.9-2.1-2.9-4.3-2.8c-11.1,0.1-22.2,0.1-33.2,0c-2.6,0-3.5,0.9-3.4,3.5c0.1,12.4,0.1,24.8,0,37.3
		c0,4.3-0.5,4.8-4.9,4.8c-7.8,0-7.8,0-7.8-7.9c0-29.7,0-59.3,0-89c0-5.6,0.2-5.8,5.9-5.8c17.7,0.1,35.4-0.1,53,0.5
		c10.6,0.4,19.2,5.3,24.1,15.2c6.5,13.1,2.8,32.3-14.8,38.9C189.5,263.9,188.7,264.3,187.3,264.8z M158.2,255.4c6.5,0,13,0,19.5,0
		c4.4,0,8.4-1.2,11.8-4.1c5.5-4.6,7.4-12.3,4.9-19.6c-2.4-6.9-8.4-11.3-16.5-11.4c-13.3-0.2-26.6,0-39.9-0.1c-2.3,0-3.2,0.8-3.1,3.1
		c0.1,9.6,0.1,19.2,0,28.8c0,2.5,0.9,3.3,3.3,3.3C144.7,255.3,151.4,255.4,158.2,255.4z"/>
	<path d="M275.6,260.3c0-15.6,0-31.1,0-46.7c0-4.1,0.5-4.6,4.7-4.6c23.8,0,47.7,0,71.5,0c4.1,0,4.7,0.6,4.7,4.6c0,0.7,0,1.3,0,2
		c0,4.2-0.4,4.7-4.6,4.7c-9.1,0-18.1,0-27.2,0c-11,0-21.9,0.1-32.9,0c-2.7,0-3.7,0.8-3.7,3.6c0.2,8.2,0.2,16.3,0,24.5
		c-0.1,2.9,1,3.5,3.7,3.5c14.2-0.1,28.4,0,42.6,0c4.9,0,5.2,0.4,5.2,5.1c0,0.8-0.1,1.6,0,2.3c0.2,2.9-1.1,4-4,3.9
		c-10.4-0.1-20.8,0-31.2,0c-4.4,0-8.7,0.1-13.1,0c-2.5-0.1-3.3,0.9-3.3,3.3c0.1,10.1,0.1,20.1,0,30.2c0,2.9,1.1,3.6,3.7,3.5
		c20.3-0.1,40.5,0,60.8,0c5.5,0,8.3,4.6,5.7,9.6c-0.5,1-2.3,1.6-3.6,1.7c-5.1,0.2-10.3,0.1-15.4,0.1c-19.6,0-39.2,0-58.8,0
		c-4.6,0-4.9-0.4-4.9-5C275.6,291.2,275.6,275.8,275.6,260.3z"/>
	<path d="M543.6,313.1c-12.9-0.7-26-2.9-37.1-11.5c-0.8-0.6-1.5-1.3-2.3-1.9c-2-1.6-2.4-3.4-0.5-5.4c0.4-0.4,0.7-0.9,1-1.3
		c3.6-4.4,3.6-4.2,8.3-1c15.6,10.7,32.3,13.2,50,6.3c5.6-2.1,9.7-6,10.7-12.3c0.9-5.9-1.9-10.2-6.9-12.6c-6-2.7-12.2-4.8-18.5-6.9
		c-8.7-2.8-17.7-4.9-26.2-8.1c-8.4-3.1-14.8-8.7-16.7-18.2c-2.2-11.1,2.2-20.6,12.6-26c12.5-6.5,25.9-7.4,39.5-5.2
		c7.6,1.2,14.8,3.5,21.3,7.7c3.4,2.1,3.5,3,1.6,6.5c-0.4,0.7-0.9,1.3-1.2,2c-1.4,2.9-3.3,3.1-6,1.5c-8.7-5.2-18.2-7.9-28.4-7.6
		c-6.5,0.2-12.9,1.1-18.8,4.2c-4.8,2.5-8.5,6-8.5,11.9c0,5.8,3.5,9.5,8.4,11.5c7.3,2.9,14.8,4.9,22.2,7.3c8.1,2.6,16.4,4.5,24.1,8.1
		c17.7,8.1,19.6,30.2,4,41.9C566.7,311,555.7,312.8,543.6,313.1z"/>
	<path d="M686.8,313.2c-12.6-0.5-25.1-2.8-36.1-10.5c-0.4-0.3-0.7-0.5-1.1-0.8c-5.3-4.1-5.1-8.6,0.9-11.8c0.9-0.5,2.8,0.1,3.8,0.8
		c11.8,9,25.2,12.6,39.8,10.6c5.3-0.7,10.8-2.5,15.3-5.2c10.6-6.3,9.9-18.6-1.3-23.6c-8.2-3.6-17.1-5.7-25.7-8.5
		c-6.8-2.2-13.8-4-20.2-7c-9.7-4.4-14.9-12.2-14.4-23.3c0.5-10.4,6.6-16.7,15.5-20.9c2.4-1.1,5-2,7.6-2.7c15.8-4,31.3-2.8,46.2,3.9
		c1,0.5,2,1,3,1.6c5.2,3,5.5,8,0.5,11.4c-0.9,0.6-3.1,0.3-4.2-0.4c-7.5-4.3-15.5-7-24.1-7.5c-8-0.5-15.9,0.5-23.2,4
		c-7.5,3.6-10.9,10.6-7.5,16.5c1.8,3.1,5,6,8.3,7.3c8.3,3.2,17,5.3,25.5,8.1c7.3,2.4,14.8,4.5,21.6,7.9c17,8.6,15.7,30.4,3.1,40.2
		C710.3,310.8,699.1,312.9,686.8,313.2z"/>
	<path d="M424.6,259.9c0-15.8,0-31.5,0-47.3c0-4.3,0.6-4.9,4.8-4.9c7.8-0.1,7.8-0.1,7.8,7.7c0,30.3,0,60.6,0,90.9
		c0,4.9-0.4,5.3-5.4,5.3c-7.2,0-7.2,0-7.2-7.1C424.6,289.7,424.6,274.8,424.6,259.9z"/>
</g>
</svg>
