<?xml version="1.0" encoding="utf-8"?>
<!-- Generator: Adobe Illustrator 18.0.0, SVG Export Plug-In . SVG Version: 6.00 Build 0)  -->
<!DOCTYPE svg PUBLIC "-//W3C//DTD SVG 1.1//EN" "http://www.w3.org/Graphics/SVG/1.1/DTD/svg11.dtd">
<svg version="1.1" id="Layer_1" xmlns="http://www.w3.org/2000/svg" xmlns:xlink="http://www.w3.org/1999/xlink" x="0px" y="0px"
	 viewBox="0 0 841.9 595.3" enable-background="new 0 0 841.9 595.3" xml:space="preserve">
<g>
	<path d="M395.1,135.5c-2,1.3-3.9,2.7-6,3.8c-7,3.7-11.1,9.7-14.5,16.5c-0.7,1.4-1.7,2.8-2.9,3.8c-4.9,3.9-7.9,9.3-11.1,14.5
		c-1.5,2.4-2.7,5-4.1,7.4c-3,4.8-3.1,10-2,15.3c1.6,8.2,3.6,16.4,4.8,24.7c1.2,8.1,4.9,14.6,10.3,20.5c1.3,1.4,2.3,3.1,3.3,4.8
		c1,1.7,0.4,2.7-1.7,2.6c-4.3-0.2-7.5-2.7-10.5-5.4c-1-0.9-1.9-1.8-3.1-2.4c1.3,1.5,2.6,2.9,3.7,4.6c0.5,0.7,0.8,2.1,0.4,2.6
		c-0.5,0.7-1.8,1.1-2.7,1c-3.1-0.2-3.1-0.3-3.6,2.4c-2.2-0.3-4.4-0.6-6.5-1.1c-0.8-0.2-1.8-0.7-2.2-1.3c-1.4-1.9-3.2-2.8-5.6-3.3
		c-10.8-2.1-21.5-3.8-32.6-3.4c-7.9,0.3-13.3,4.7-18,10.4c-0.2,0.2-0.2,0.5-0.6,1.5c11.7-5.6,23.4-8.3,35.7-8.8
		c-9.3,2.4-18.5,4.9-27.8,7.3c0,0.1,0.1,0.2,0.1,0.3c4.7,0.5,9.5,0.7,14.2,1.5c8.2,1.3,16.3,3.4,23.7,7.5c0.7,0.4,1.5,0.7,2.1,1.3
		c4.8,5.1,10.5,4.1,16.4,2.5c4.6-1.3,9-3,12.8-6c0.4-0.3,1-0.5,2-1c-0.1,1-0.1,1.6-0.3,2.2c-0.8,2.5-1.6,4.9-2.5,7.3
		c-1,2.3-1.1,2.3,1,4.1c-0.8,0.3-1.5,0.5-2,0.9c-0.9,0.6-2.6,0-2.5,2.4c0.1,1.3-2.3,2.7-3.7,4.2c1.1,0.1,2.1,0.1,3,0.1
		c0.1,0.1,0.1,0.3,0.2,0.4c-4.1,1.8-8.3,3.6-12.4,5.4c0,0.1,0,0.2,0,0.3c0.6,0,1.3,0,1.9,0c0.1,0.1,0.1,0.3,0.2,0.4
		c-3.1,1.8-6.2,3.5-9.3,5.3c-3.5,2-6.9,4.1-10.3,6.2c-0.5,0.3-0.8,1.1-1.4,2c2,0,3.6,0,5.8,0c-2.3,1.4-4.1,2.5-5.9,3.6
		c0.1,0.2,0.2,0.4,0.2,0.7c8-0.6,16.2-0.5,23.8-4c7.5-3.5,14-8.4,20-14.8c0.4,2.9-0.4,5-1.9,6.3c-3.6,3.2-7.4,6.2-11.2,9.2
		c-4.6,3.6-10.1,4.5-15.6,5.4c-9.1,1.5-18.3,2.3-26.9,5.9c-3.8,1.6-7.4,3.8-11.1,5.7c0.1,0.2,0.2,0.3,0.3,0.5
		c2.6-1.2,5.3-2.4,7.9-3.6c0.1,0.2,0.2,0.4,0.2,0.6c-3.6,2.2-7.1,4.8-11.6,4.8c-5.4,0-10.8,0-16.1,0c-0.7,0-1.4-0.1-2.3-0.6
		c3.9-2.5,7.7-4.9,11.7-7.4c-5.9-2.2-11.2,0-16.5,1.5c-4,1.1-7.9,2.3-10.4,5.9c-0.4,0.5-1.6,0.6-2.4,0.6c-10.7,0-21.4,0-32.1,0
		c-31.1,0-62.2,0-93.3,0c0-61.9,0-123.8,0-185.7C227.4,135.5,311.3,135.5,395.1,135.5z M290.8,268.7c0,0.2,0.1,0.4,0.1,0.7
		c-1.4,0.4-2.8,0.7-4.1,1.2c-0.8,0.3-1.7,0.8-2.1,1.4c-0.5,0.7-0.4,1.7-0.7,2.6c1.3,0.3,3,0.6,4.8,1c-2.1,2.4-3.8,4.6-5.7,6.5
		c-2.8,3-5.7,5.8-8.5,8.8c-2.8,3-5.6,6.1-8.4,9.2c0.2,0.2,0.3,0.4,0.5,0.6c1.2-0.6,2.4-1,3.5-1.7c6.4-3.9,13.1-7.4,20.4-9.4
		c2.3-0.6,4.8-0.3,7.2-0.3c0.2,0,0.5,0.8,0.9,1.5c13.2-3.4,27.3-4.5,40-11.1c-10.8-7.8-23.4-10.6-35.9-14.4c0.7-0.2,1.2-0.4,2.1-0.7
		c-1.4-0.4-2.4-0.7-3.3-0.9c-0.7-0.2-1.9-0.1-2.1-0.5c-0.8-2.2-2.9-1.6-4.4-2.2c-1.4-0.5-2.9-0.7-4.1-1c1-1.5,1.8-2.9,2.7-4.2
		c-0.2-0.2-0.5-0.3-0.7-0.5c-4.6,2.5-7.8,6.4-9.8,11.2c-0.1,0.3,0.9,1.4,1.5,1.5C286.6,268.5,288.7,268.6,290.8,268.7z M243.1,285.8
		c0.1,0.1,0.2,0.2,0.4,0.3c0.4-0.4,0.7-0.9,1.1-1.3c7.7-8.4,15.6-16.4,25-23c1.8-1.2,3.5-2.4,5.9-2.7c2.8-0.3,4.6-2.8,5.7-5.3
		c3.1-7,9-11.4,14.8-15.7c0.4-0.3,1.1-0.8,1.3-0.7c2.2,1.6,3.3-0.6,4.8-1.2c-3.3-0.9-6.7-1.5-9.8,0.1c-3.2,1.6-6.4,3.3-9.1,5.6
		c-7,6-13.3,13-20.7,18.5c-6.1,4.6-10.2,10.3-13.8,16.8c-1,1.9-2.4,3.6-3.6,5.4C244.5,283.6,243.8,284.7,243.1,285.8z M313.9,295.3
		c0-0.3,0-0.6,0-0.9c-1.2-0.3-2.5-1.1-3.5-0.9c-2.1,0.5-4,1.6-6,2.4c0.1,0.3,0.3,0.7,0.4,1C307.8,296.3,310.8,295.8,313.9,295.3z"/>
	<path d="M694.8,321.2c-78.6,0-157.1,0-235.9,0c2.6-8.5,6.9-15.8,13.9-21.2c3.5-2.7,7.8-2.5,11.9-1.9c6.4,0.9,12.8,2.2,19.2,3.2
		c7.9,1.3,15.1-2.1,15.7-10.9c0.1-1.4-0.2-3-0.7-4.3c-0.6-1.8-0.5-3.2,0.9-4.5c0.4-0.4,0.8-0.9,1.3-1.3c3.3-3.3,3-5.6-1-8.1
		c-0.3-0.2-0.6-0.5-1-0.8c1.4-1,2.8-1.8,4.1-2.8c1.7-1.3,2.3-2.8,1.2-4.9c-0.6-1-1-2.2-1.3-3.3c-0.9-2.8-0.2-4.1,2.6-5.1
		c1.1-0.4,2.3-0.7,3.4-1.1c3.6-1.2,5.1-4,3.3-7.3c-2.6-4.7-5.7-9.1-8.6-13.6c-1.6-2.6-3.2-5.2-4.6-7.9c-1.2-2.3-1.6-4.7-1-7.4
		c1.4-6.7,0.4-13.4-1.6-19.9c-1.8-5.9-3.9-11.7-5.6-17.6c-0.3-1,0.2-2.5,0.8-3.4c0.7-1.1,2-1.8,2.9-2.7c1.9-1.7,2.1-3.9,0.5-5.9
		c-1-1.3-2-1.3-3,0.1c-0.2,0.2-0.3,0.5-0.5,0.8c-0.7,1.1-1.4,2.4-2.9,1.5c-0.4-0.2,0-1.8,0.1-2.6c-4.2-3.3-8.5-6.7-12.9-10
		c-1.6-1.2-3.6-1.9-5.4-2.8c2.9,0,5.7,0,8.5,0c3.6,0,5.2-1.2,6.4-4.5c1.9-5.2,1.8-5.6-2.2-9.3c-2.1-1.9-4-4-6-5.9
		c65.9,0,131.9,0,197.8,0C694.8,197.4,694.8,259.3,694.8,321.2z"/>
	<path d="M694.8,446.4c-0.7,4.5-3.7,4.8-7.5,4.6c-5-0.3-10-0.1-15.7-0.1c0.6-0.9,0.9-1.8,1.4-2c1.6-0.7,2.1-1.9,2.1-3.4
		c0-6.4,0-12.8,0-19.3c0-1.8-0.5-3.4-2.4-4.2c-0.4-0.2-0.6-1-1-1.7c7.5,0,14.5,0,21.8,0c0,2.5,0,4.9,0,8.1c-1-1-1.9-1.4-2.3-2.2
		c-0.8-1.7-2.1-2.3-3.9-2.4c-1.8-0.1-3.7-0.3-5.7-0.5c0,3.4,0,6.5,0,9.6c3.9,1.5,6.6-0.8,9.6-3.5c0,3.8,0,6.9,0,10.6
		c-1.6-1.3-2.7-2.6-4.1-3.1c-1.6-0.6-3.5-0.5-5.8-0.7c0.2,3.4,0.3,6.5,0.6,9.5c0,0.5,0.6,1.2,1.1,1.4c3.8,1.1,7.3-0.2,9.8-3.3
		c0.4-0.5,1.4-0.4,2.1-0.6C694.8,444.3,694.8,445.3,694.8,446.4z"/>
	<path d="M143.5,372.8c2-0.1,2.8-1.6,3.2-3.2c1.3-5.6,2.4-11.3,3.6-16.9c0.2-0.7,0.2-1.5,0.3-2.2c0.3-1.6,0.2-3.1-1.4-4.1
		c-0.3-0.2-0.5-0.6-0.9-1.2c4,0,7.7,0,11.4,0c0,0.3,0.1,0.4,0.1,0.4c-4.5,2.2-4.4,6.8-5.4,10.7c-1,3.7-1.5,7.5-2.3,11.3
		c-0.6,3.4,0.4,4.2,3.8,4.1c3.6-0.1,6.3-1.4,8.2-5.3c0.4,1.3,0.8,1.9,0.7,2.3c-0.5,1.6-1.2,3.2-1.9,4.7c-0.2,0.4-0.8,0.8-1.2,0.8
		c-5.7,0.1-11.5,0.2-17.2,0.2c-0.3,0-0.6-0.2-0.8-0.3C143.5,373.7,143.5,373.2,143.5,372.8z"/>
	<path d="M145.4,395.5c0-1.2,0-2.1,0-3.3c182.2,0,364.3,0,546.6,0c0,1.1,0,2.1,0,3.3C509.8,395.5,327.7,395.5,145.4,395.5z"/>
	<path d="M161.8,450.8c-5.4,0-10.3,0-15.8,0c0.8-1,1.1-1.8,1.7-2.1c1.9-0.9,2.5-2.4,2.5-4.4c0-7.8,0-15.7,0-23.5
		c0-2-0.5-3.7-2.6-4.5c-0.4-0.2-0.7-0.8-1-1.3c0.4-0.3,0.8-0.8,1.2-0.8c6.6,0,13.1-0.2,19.6,0.2c3.8,0.2,6,3.1,6.9,6.7
		c1,4.2-1,7.4-4,10c-0.9,0.8-2.1,1.4-3.7,2.4c4,5.1,7.9,10.2,11.9,15.2c1,1.3,0.9,2.1-0.6,2.6c-3.4,1-7.7-0.2-9.8-3.2
		c-2.7-3.9-5.1-8-7.8-12c-0.6-0.9-1.7-1.4-2.5-2.1c-0.2,0.1-0.5,0.3-0.7,0.4c0.2,3.6,0.3,7.3,0.8,10.8c0.2,1.2,1.6,2.3,2.4,3.4
		C160.9,449.3,161.2,449.9,161.8,450.8z M157.5,431c3.7,0,6.9-0.4,8.7-4c1.3-2.6,0.6-5.8-1.4-7.8c-1.9-1.9-4.7-2.3-7.4-1.1
		c0,3.9,0,7.9,0,11.8C157.4,430.1,157.5,430.4,157.5,431z"/>
	<path d="M363.1,450c4.8,1.9,9,3.9,13.4,5.4c1.5,0.5,3.5-0.2,5.2-0.2c0.7,0,1.4,0.2,2.1,0.3c-0.5,0.7-0.8,1.7-1.4,1.9
		c-5.1,2-10.3,1.8-15.3-0.5c-2.3-1.1-4.4-2.5-6.5-3.9c-1.7-1.3-3.4-1.8-5.6-1.7c-3.4,0.1-6.6-0.4-9.5-2.4c-4.6-3.1-6.2-7.6-6.2-12.8
		c0-14.2,14-19.4,24.5-14.2c4.1,2,6.3,5.6,7,10c1.1,6.9-1.1,12.6-6.6,16.9C364.1,448.9,363.9,449.2,363.1,450z M345.7,435.7
		c0,2.1,1,5.2,2.9,8.1c3.5,5.2,10.3,5.3,14.1,0.3c3.9-5.2,2.4-15-2.8-18.7c-2-1.4-4.3-2.3-6.9-1.6
		C348.3,425,345.6,428.9,345.7,435.7z"/>
	<path d="M395.3,299.2c-1,0.8-1.9,1.6-2.9,2.4c0.1,0.1,0.1,0.2,0.2,0.3c1.2-0.6,2.4-1.3,3.6-1.9c0.1,0.2,0.3,0.4,0.4,0.5
		c-1,1.1-2.1,2.2-3.1,3.3c-5.4,5.4-10.9,10.8-16.4,16.2c-0.6,0.6-1.6,1.2-2.4,1.2c-17.9,0.1-35.9,0-53.8,0c-0.2,0-0.4-0.1-0.6-0.2
		c8.8-1.6,17.4-4.3,26.5-4.3c4.5,0,8.8-1.4,13.2-2.6c5-1.4,8.6-4.5,12.7-6.9c2.5-1.4,4.8-3.3,8-3.1c0.7,0,1.5-0.8,2.2-1.4
		c2.6-2.1,5.4-4.1,8.8-4.5c1.2-0.2,2.5,0.2,3.7,0.3C395.3,298.7,395.3,299,395.3,299.2z"/>
	<path d="M458.7,433.3c0.2,4.3,0.3,8.3,0.7,12.3c0.1,1,1.3,2,2.1,2.9c0.5,0.6,1.1,1.1,1.6,1.7c-0.1,0.2-0.2,0.3-0.4,0.5
		c-4.8,0-9.6,0-15.1,0c0.6-0.9,0.9-1.8,1.5-2.2c1.9-1.1,2.5-2.8,2.5-4.9c0-7.1,0.1-14.2-0.1-21.3c0-2.4,0.3-5.2-3-6.2
		c-0.4-0.1-0.5-1.1-0.9-1.9c8.6,0,16.8,0,25.2,0c0,2.9,0,5.8,0,9.5c-0.9-0.7-1.9-1-2.1-1.6c-0.9-2.5-2.7-3.7-5.2-3.9
		c-2.2-0.2-4.4,0-6.8,0c0,3.6,0,7.5,0,11.6c1.9,0,4,0.2,5.9-0.1c1.1-0.2,2-1.4,3-2.1c0.7-0.5,1.5-1.1,2.7-1.9c0,4.4,0,8,0,12.1
		c-1-0.6-2.2-0.8-2.5-1.5c-1.2-2.4-3.4-2.7-5.6-2.8C461.4,433.3,460.2,433.3,458.7,433.3z"/>
	<path d="M268.1,450.4c0.8-0.8,1.3-1.2,1.8-1.8c0.6-0.6,1.5-1.3,1.5-1.9c0.1-7.1,0.1-14.2-0.2-21.2c-0.1-1.5-1.5-2.9-2.4-4.5
		c0.3-0.1,0.9-0.4,1.5-0.4c5.4,0,10.7-0.1,16.1,0.3c3.3,0.2,5,2.2,5.5,4.9c0.6,3.3-0.5,5.6-3.3,7.3c-0.5,0.3-1,0.6-1.7,0.9
		c0.4,0.2,0.7,0.5,1.1,0.6c3.8,1.7,5.3,4.6,4.8,9.1c-0.3,3.1-3.2,6.4-6.6,6.6C280.4,450.6,274.6,450.4,268.1,450.4z M277.5,436
		c0.2,3.2,0.5,6.3,0.5,9.4c0,1.6,1,2,2.2,2.2c4.6,0.7,7.6-3.1,6.1-7.6C285.2,436.8,282.6,435.6,277.5,436z M277.7,423.3
		c0,3.2,0,6.3,0,9.5c2.8-0.3,5.8,0.1,7.4-2.6c0.7-1.1,0.7-3.2,0.1-4.3C283.8,423,280.7,423.4,277.7,423.3z"/>
	<path d="M478.1,420.6c2.6-0.1,5.2-0.3,7.8-0.3c2.5,0,5.1,0.1,7.6,0.1c3.2,0,5.7,1.2,6.9,4.3c1.2,3.1,1.1,6.1-1.4,8.6
		c-1.1,1.1-2.5,2.1-4.1,3.5c3.2,4.1,6.5,8.2,9.7,12.2c0.8,1,0.5,1.9-0.8,2.3c-2.8,0.7-6.4-0.5-8.1-2.9c-1.9-2.8-3.7-5.8-5.5-8.7
		c-0.6-0.9-1.3-1.7-2.3-2.3c-0.8,4.8-1.9,9.5,3.2,13.4c-4.8,0-8.8,0-13.3,0c0.4-0.7,0.6-1.7,1.1-1.8c2.2-0.7,2.2-2.5,2.3-4.1
		c0.1-6.6,0.1-13.2,0-19.7c0-0.8-1-1.7-1.6-2.4c-0.4-0.4-1-0.7-1.6-1C478,421.3,478.1,420.9,478.1,420.6z M487.2,434.4
		c1.6-0.3,2.9-0.3,4.1-0.7c2.3-0.7,3.9-3.6,3.4-6.1c-0.4-2.5-2.9-4.7-5.3-4.6c-1,0-2.2,0-2.2,1.6
		C487.2,427.7,487.2,430.9,487.2,434.4z"/>
	<path d="M543.8,429.6c0.2,5.8,0.4,11.5,0.7,17.3c0,0.6,0.9,1.2,1.4,1.8c0.5,0.5,0.9,1.1,1.7,2c-3.8,0-7,0-10.8,0
		c0.6-0.9,1-1.4,1.4-2c0.6-0.9,1.6-1.8,1.7-2.7c0.3-6.2,0.4-12.4,0.5-18.6c0-2.2-0.2-4.3-2.6-5.4c-0.3-0.1-0.4-0.5-0.9-1.3
		c2.9-0.1,5.4-0.3,7.9-0.2c0.7,0,1.4,1,1.9,1.7c4.6,5.6,9.2,11.1,13.8,16.7c0.2,0.2,0.4,0.4,0.5,0.5c0-5,0.2-9.9-0.1-14.8
		c-0.1-1.1-1.6-2.2-2.7-3.7c3.4,0,6.7,0,10,0c-0.1,0.5,0,0.8-0.1,0.9c-2.6,1.1-2.8,3.4-2.8,5.8c-0.1,6.9-0.1,13.7-0.2,20.6
		c0,0.9,0,1.8,0,2.6c-2.2,0.6-3.6,0-4.8-1.6c-4.7-6-9.5-11.8-14.3-17.8c-0.5-0.6-1-1.2-1.5-1.8C544.2,429.5,544,429.6,543.8,429.6z"
		/>
	<path d="M202.6,428.2c-0.7-0.7-1.6-1.2-2.1-2c-0.9-1.5-2-2.3-3.7-2.3c-1.8-0.1-3.7-0.3-5.7-0.5c0,3.4,0,6.6,0,9.9
		c2.9-0.1,5.9,0.8,7.7-2.6c0.2-0.4,1.1-0.4,1.9-0.7c0,3.3,0,6.3,0,9.6c-0.7-0.1-1.8-0.2-1.8-0.4c-0.8-2.9-3.3-2.3-5.3-2.7
		c-0.7-0.1-1.5,0-2.4,0c0,3.3,0,6.4,0.1,9.6c0,0.4,0.7,1,1.2,1.1c3.7,1.1,7.3-0.2,9.8-3.4c0.4-0.5,1-0.7,1.6-1
		c0.2,0.6,0.7,1.3,0.5,1.9c-1.1,6.1-1.1,6.1-7.3,6.1c-5.2,0-10.4,0-15.6,0c-0.1-0.2-0.2-0.4-0.4-0.6c0.5-0.5,0.8-1.2,1.4-1.4
		c1.5-0.6,1.9-1.6,1.9-3.1c0-6.7,0.1-13.4-0.1-20.2c0-1.1-1.1-2.2-1.8-3.2c-0.4-0.6-1-1-1.5-1.5c0.1-0.2,0.2-0.3,0.3-0.5
		c7.2,0,14.4,0,21.7,0c0,2.5,0,5,0,7.4C202.9,427.9,202.7,428.1,202.6,428.2z"/>
	<path d="M394.7,420.7c3.1,0,6.3,0,9.4,0c0.1,0.5,0.1,0.7,0.1,0.8c-3.5,2.4-2.2,6.1-2.5,9.3c-0.4,3.3-0.2,6.7-0.2,10.1
		c0,4.3-2.5,8.1-6.7,9.5c-3.8,1.3-7.7,1.5-11.5-0.3c-3.4-1.7-5-4.5-5.2-8.2c-0.2-5.2-0.2-10.5-0.5-15.7c-0.1-1.3-1.2-2.5-1.8-3.8
		c-0.2-0.5-0.5-0.9-0.8-1.4c0.5-0.2,1-0.6,1.5-0.6c3-0.1,6-0.1,9,0c0.5,0,1,0.4,1.6,0.6c-0.3,0.5-0.5,1.1-0.9,1.3
		c-1.9,0.8-2,2.6-2,4.2c0,5.4,0,10.9,0.3,16.3c0.2,2.8,2.3,4.6,4.9,4.9c3.4,0.4,6.3-0.9,7.1-3.7c0.7-2.3,1-4.8,1.1-7.2
		c0.1-3.7,0-7.3-0.1-11c0-1.5-0.3-3-2-3.6c-0.3-0.1-0.5-0.6-0.8-0.9C394.6,421.2,394.6,420.9,394.7,420.7z"/>
	<path d="M254.3,420.7c3.6,0,6.7,0,9.8,0c0.1,0.4,0.1,0.7,0.1,0.7c-3.2,2.1-2.3,5.5-2.6,8.4c-0.3,3.3-0.4,6.7-0.1,10.1
		c0.5,6.2-4.5,11-10.3,11.3c-4.7,0.3-9-0.3-11.7-4.7c-0.8-1.3-1.2-2.9-1.3-4.4c-0.3-5.2-0.4-10.4-0.5-15.7c0-1.8-0.4-3.2-2-4.2
		c-0.4-0.2-0.5-0.9-0.7-1.4c0.5-0.2,0.9-0.5,1.4-0.5c3.1,0,6.1-0.1,9.2,0c0.5,0,1,0.5,1.5,0.7c-0.3,0.4-0.6,1-1,1.2
		c-1.5,0.9-2.1,2.1-2,3.9c0.2,5.4,0.2,10.7,0.4,16.1c0.1,2.9,1.3,4.4,4,5.2c2.7,0.8,6,0.1,7.2-2c0.9-1.6,1.6-3.5,1.7-5.4
		c0.2-4.4,0-8.8,0.1-13.2c0-2.1-0.3-3.9-2.5-4.8C254.8,422,254.7,421.6,254.3,420.7z"/>
	<path d="M429.7,420.4c0,1.9,0,3.7,0,5.5c0,0.7-0.1,1.3-0.8,2.3c-0.5-0.6-0.9-1.2-1.4-1.7c-0.8-0.8-1.6-2.1-2.6-2.3
		c-2.1-0.5-4.4-0.5-6.8-0.7c-0.2,1.8-0.5,3.4-0.6,5c-0.1,1.6,0,3.1,0,5.1c2-0.2,3.9-0.1,5.6-0.7c1.5-0.5,2.7-1.8,4.4-3.1
		c0,3.6,0,6.6,0,9.8c-0.5-0.1-1.3,0.1-1.6-0.2c-3.5-3.2-3.5-3.2-8.5-2.7c0.2,3.1,0.4,6.2,0.7,9.2c0,0.5,0.7,1.1,1.3,1.3
		c4,1.1,7.3-0.2,9.7-3.4c0.4-0.5,1.2-0.6,1.8-0.9c0.2,0.7,0.4,1.3,0.5,2c0,0.2-0.2,0.4-0.2,0.6c-1.7,6.7-1.4,5.3-6.9,5.3
		c-5.1,0.1-10.3,0-16.1,0c0.5-0.9,0.7-1.9,1.2-2c1.7-0.5,1.9-1.7,1.9-3.1c0.1-6.3,0.3-12.5,0.4-18.8c0-1.9-0.5-3.7-2.4-4.8
		c-0.4-0.3-0.6-1-1.1-1.8C415.6,420.4,422.5,420.4,429.7,420.4z"/>
	<path d="M588,452.3c0.4,0.2,0.8,0.4,1.1,0.6c0.8,0.9,2.4,2,2.3,2.7c-0.2,1.3-1.2,2.9-2.4,3.6c-1.2,0.7-2.9,0.5-4.3,0.5
		c-0.4,0-1.1-0.7-1.1-1c0-0.5,0.5-0.9,0.9-1.3c0.1-0.1,0.5,0,0.6,0c0.8-0.4,1.6-0.9,2.4-1.4c-0.8-0.4-1.5-0.9-2.6-1.5
		c0.1-0.5,0.2-1.7,0.3-2.7c-2.4-1.1-4.9-2-7-3.4c-3.8-2.5-5.7-6.1-5.9-10.7c-0.2-4.3,0-8.4,2.8-12.1c2.9-3.7,6.9-5.4,11.4-5.7
		c3.2-0.2,6.5,0.4,9.7,0.8c0.5,0.1,1.2,0.7,1.2,1.1c0.3,1.9,0.3,3.8,0.5,6.5c-1.3-0.6-2.4-0.8-2.7-1.4c-2.4-5.5-12.8-4.5-15.4,1.1
		c-2.3,5-1.4,12.4,2.2,16.6c3.4,3.9,11,4.6,13.6-0.9c0.2-0.5,1.1-0.7,1.6-1.1c0.2,0.6,0.5,1.2,0.5,1.7c-0.1,1.6-0.2,3.1-0.5,4.6
		c-0.1,0.5-1,1.1-1.6,1.2c-1.9,0.4-3.9,0.7-5.9,1c-0.6,0.1-1.2,0.2-1.8,0.4C588.1,451.9,588,452.1,588,452.3z"/>
	<path d="M514.8,450.7c-3,0-6.1,0-9.5,0c0.3-0.7,0.4-1.3,0.7-1.7c1-1.4,2.4-2.7,3-4.3c3.1-7.6,6.1-15.3,8.9-23
		c0.5-1.3,1.1-1.5,2.2-1.6c1.2-0.1,1.9,0.3,2.3,1.5c2.8,7.2,5.6,14.5,8.6,21.7c1,2.4,2.5,4.6,3.9,7.2c-4.1,0-8.1,0-12.7,0
		c0.5-0.6,1-1.2,1.3-1.8c0.5-0.8,1.2-1.7,1.1-2.5c-0.2-1.5-0.8-3-1.4-4.4c-0.2-0.4-0.9-0.8-1.3-0.8c-1.2-0.1-2.4-0.2-3.6,0
		c-1.3,0.2-3.3-1.1-3.9,0.9c-0.7,2.3-3,4.9,0,7.3c0.2,0.2,0.3,0.5,0.3,0.8C514.9,450.2,514.8,450.4,514.8,450.7z M519.1,429.5
		c-1.1,2.9-2,5.2-2.9,7.7c2,0,3.7,0,5.7,0C520.9,434.7,520.1,432.4,519.1,429.5z"/>
	<path d="M600,450.7c0.1-0.6,0.1-1.4,0.4-1.6c2.9-1.9,3.6-5,4.7-7.9c2.5-6.4,4.9-12.9,7.4-19.3c0.3-0.7,1.1-1.4,1.8-1.6
		c1.2-0.4,2.2,0,2.7,1.5c2.8,7.5,5.7,14.9,8.8,22.3c0.7,1.7,2.1,3.1,3.2,4.7c0.3,0.5,0.5,1.1,0.9,1.8c-4.4,0-8.5,0-13,0
		c0.4-0.7,0.5-1.5,1-1.7c1.6-0.7,1.6-1.8,1.2-3.3c-1.3-4.8-1.2-4.8-6.2-4.8c-1.1,0-2.2,0-3.6,0c-0.5,1.7-0.9,3.5-1.6,5.2
		c-0.9,2.2,2.2,2.6,1.8,4.5C606.4,450.7,603.4,450.7,600,450.7z M616.4,437.2c-0.9-2.5-1.7-4.8-2.7-7.7c-1.2,2.9-2.1,5.2-3.1,7.7
		C612.7,437.2,614.4,437.2,616.4,437.2z"/>
	<path d="M220.1,438c-0.5-1.2-0.9-2-1.1-2.5c2-1.4,4.1-2.6,5.6-4.2c0.7-0.7,0.6-2.4,0.4-3.6c-0.3-2.9-2.4-4.2-6.8-4.4
		c0,4.5,0,8.9,0,13.4c0,2.6,0.1,5.2,0.2,7.8c0,1.8-0.1,3.6,2.1,4.4c0.4,0.1,0.6,1,1,1.8c-4.4,0-8.4,0-12.9,0
		c0.5-0.8,0.7-1.7,1.2-1.8c1.6-0.5,1.9-1.7,1.9-3.1c0.1-6.3,0.3-12.5,0.3-18.8c0-1.8-0.2-3.7-2.3-4.7c-0.5-0.2-0.6-1.1-1.2-2.2
		c6.3,0.3,12,0.4,17.7,0.9c2.8,0.3,5.2,3.8,5.6,7.1c0.3,3-1.7,6.7-4.7,8C225,436.9,222.6,437.3,220.1,438z"/>
	<path d="M665.9,428.3c-0.7-0.6-1.6-1.2-2-1.9c-1.7-2.7-4.1-4.1-6.4-2.9c-1.2,0.7-2.6,2-2.8,3.2c-0.2,1.1,0.8,2.8,1.8,3.7
		c2.7,2.3,5.7,4.3,8.5,6.5c2.7,2.2,3.5,5.2,2.3,8.4c-1.1,3.1-3.5,5.2-6.7,5.4c-3.2,0.2-6.5-0.2-9.7-0.3c-1.4-0.1-1.8-0.9-1.9-2.2
		c-0.1-1.7-0.4-3.4-0.7-5.1c1.2-0.6,1.9-0.4,2.6,0.9c1.5,2.6,3.6,4.4,6.8,4.1c1.9-0.1,3.6-0.9,4.2-2.8c0.6-1.9-0.3-3.5-1.9-4.7
		c-2.1-1.5-4.2-2.8-6.3-4.2c-3-2.1-4.8-4.9-4.7-8.6c0.2-4.2,3.2-7.4,8-7.8c2.7-0.2,5.5,0.4,8.1,0.8c0.6,0.1,1.3,1.2,1.3,1.8
		c0.2,1.7,0.1,3.4,0.1,5.1C666.4,428,666.1,428.1,665.9,428.3z"/>
	<path d="M330.3,345.1c6.6,0,13.2,0,19.8,0c0.2,2.9-0.6,5.5-1.8,6.1c-0.9-1.1-1.6-2.7-2.6-2.9c-2.3-0.5-4.8-0.4-7.3-0.5
		c-0.3,0-0.9,0.7-1,1.2c-0.6,2.8-1.2,5.6-1.8,8.5c2,0,3.9,0.4,5.7-0.1c1.6-0.4,2.9-1.8,4.7-3c0.2,3.3-0.7,6.1-1.9,9.1
		c-1.6-3.5-4.6-3.3-7.4-3.2c-0.6,0-1.5,0.8-1.6,1.3c-0.7,2.7-1.2,5.3-1.5,8.1c-0.1,0.5,0.9,1.7,1.5,1.7c3.5,0.5,7,0.6,9.6-2.6
		c0.5-0.6,1.1-1.1,1.8-1.7c0.7,3.6-1.3,7.1-4.3,7.2c-5.8,0.3-11.5,0.1-17.3,0.1c0.1-0.7,0-0.9,0.1-1c3.2-1.8,3.9-5,4.5-8.2
		c0.8-4.5,1.8-9,2.5-13.5c0.4-2.2,0.9-4.7-2.2-6.1C329.9,345.4,330.1,345.3,330.3,345.1z"/>
	<path d="M310.7,421.2c-0.1,0.2-0.1,0.3-0.1,0.3c-3.6,1.3-3.5,4.3-3.4,7.4c0.2,5.3,0.1,10.6,0,15.9c0,1.8,0.7,2.4,2.3,2.4
		c3.3,0,6.6,0.2,8.4-3.6c0.2-0.4,1.1-0.5,1.6-0.8c0.2,0.6,0.4,1.1,0.6,1.7c0,0.1-0.1,0.1-0.1,0.2c-1.3,6-1.3,6-7.4,6
		c-4.3,0-8.5,0-12.8,0c-0.7,0-1.4,0-2.2,0c-0.1-0.2-0.2-0.4-0.3-0.6c0.5-0.5,0.8-1.3,1.4-1.5c1.6-0.7,2.2-2,2.2-3.6
		c0-6.3,0.1-12.5,0-18.8c0-1.8-0.5-3.6-2.6-4.3c-0.3-0.1-0.6-0.6-0.6-1c0-0.2,0.4-0.7,0.7-0.7c3.9,0,7.8,0,11.6,0.1
		C310.3,420.5,310.6,421,310.7,421.2z"/>
	<path d="M487.2,214.3c3.2-1.4,6.4-2.9,9.7-4c5-1.7,10.1-2.2,15.3-0.4c1.7,0.6,2.2,1.6,1.6,3c-0.8,1.8-2.1,3.5-3.3,5.5
		c0.1,0.2,0.5,0.7,1,1.3c-0.2,0.2-0.4,0.7-0.7,0.7c-4.1,1.1-4.2,4.3-4.1,7.7c0.1,3.5-0.4,4.1-3.8,4.3c-2.2,0.1-4.4,0-7.1,0
		c1.7-1.7,4.9,0,4.8-3.2c-2.7-1.9-6.5-1.7-9-4.5c1.9-1.1,4.2-0.5,5.5-2.8c0.9-1.7,3.4-2.5,5.2-3.7c1.6-1.2,3.2-2.5,5.3-4.2
		c-7.3-2.6-13.7-0.8-20.1,0.9C487.4,214.8,487.3,214.5,487.2,214.3z"/>
	<path d="M354.1,373.5c-2.1-2-2.1-2,1.5-5.5c-2.1-5.5-0.6-9.9,4.2-11.1c2.5-0.6,5.2-0.1,7.8-0.1c0.7,0,1.4,0.1,2,0.3
		c0.6,0.2,1.1,0.6,1.6,0.9c-0.5,0.4-1.1,0.9-1.7,1.3c-0.3,0.2-0.7,0.1-1.3,0.1c0,3,0.6,6.5-2.7,8.1c-2.6,1.2-5.5,1.7-8.7,2.6
		c2.2,0.8,4.1,1.5,6,2.2c2.3,0.8,5,1.4,5.3,4.4c0.3,2.9-1.2,5.1-3.6,6.8c-3.8,2.6-7.9,2.6-11.9,1.1c-2-0.8-3.2-2.6-3.2-5
		c0-2.4,1-4.1,3.1-5.3C353,374.1,353.5,373.8,354.1,373.5z M358.1,383.6c2-0.2,4.2-0.9,5.8-3c1.3-1.7,1-3.1-0.9-4
		c-1.5-0.7-3-1.2-4.6-1.5c-2.5-0.5-5.4,2.1-5.5,4.6C352.9,381.9,354.9,383.6,358.1,383.6z M358.4,363.7c-0.2,1.8,0.6,3.1,2.5,3.2
		c1.8,0.1,3.7-2.4,3.8-4.8c0-1.7-0.5-3.1-2.5-3.3C360.2,358.6,358.4,361,358.4,363.7z"/>
	<path d="M512.4,345.3c6.6,0,13.1,0,19.9,0c-0.3,1.6-0.6,3.3-1.1,5c-0.1,0.4-0.6,0.9-1,0.9c-0.3,0-0.9-0.6-0.9-0.9
		c-0.1-2.2-1.7-2.4-3.2-2.6c-0.1,0-0.1,0-0.2,0c-5.9-0.3-5.9-0.3-7.3,7.2c-0.1,0.8-0.2,1.6-0.3,2.4c3.3,0.5,3.3,0.5,10.1-3.1
		c-0.7,3.4-1.2,6.3-1.8,9.2c-0.2,0.1-0.5,0.1-0.7,0.2c-1.3-3.4-4-3.6-6.8-3.3c-0.6,0.1-1.6,0.9-1.7,1.5c-0.6,2.4-0.9,5-1.4,7.4
		c-0.4,2.1,0.5,3.4,2.5,4.2c-0.1,0.2-0.1,0.4-0.2,0.6c-3.7,0-7.5,0-11.7,0c0.7-0.6,1.2-0.9,1.5-1.3c0.8-0.9,2.1-1.7,2.3-2.8
		c1.5-6.4,2.8-12.8,4-19.3c0.4-1.9,0.7-4.2-2.5-4.9C512.1,345.7,512.2,345.5,512.4,345.3z"/>
	<path d="M184.8,347.1c1-2.3,3.3-3,7.2-2.2c-0.8,4.3-1.7,8.6-2.5,13c2.3-0.5,4.4-1.1,6.5-1.2c3.8-0.2,4.5,1.6,4.3,4.5
		c-0.2,3.4-1.3,6.6-3.4,9.5c-3.5,4.8-8.7,4.8-13.2,3.9c-1.6-0.3-1.7-1.5-1.3-3c1.7-7.3,3-14.6,4.8-21.9
		C187.7,347.1,186.5,347.1,184.8,347.1z M196.6,362c-0.4-2.5-1.5-3.4-3.7-2.6c-2.2,0.8-4.1,2.1-4.7,4.6c-0.5,2.1-1.1,4.3-1.6,6.4
		c-0.3,1.3,0.3,2.3,1.5,2.1c1.6-0.3,3.8-0.8,4.6-1.9C194.4,368,195.4,364.9,196.6,362z"/>
	<path d="M644.5,450.8c-4.7,0-8.7,0-13.4,0c0.7-0.9,1-1.6,1.5-1.8c1.7-0.6,2.1-1.9,2.1-3.5c0-6.6,0.1-13.3-0.1-19.9
		c0-1.1-1.1-2.2-1.8-3.2c-0.3-0.4-0.8-0.5-1.2-0.8c1.3-1.4,10.6-1.6,12.7-0.2c-0.6,0.5-1.2,0.9-1.6,1.5c-0.5,0.6-1.2,1.3-1.2,2
		c-0.1,7.2-0.1,14.4,0,21.7c0,0.8,1.1,1.6,1.6,2.4C643.5,449.3,643.9,449.9,644.5,450.8z"/>
	<path d="M335.4,450.7c-4.7,0-8.7,0-13.1,0c0.5-0.8,0.8-1.6,1.2-1.8c2-0.7,2.1-2.2,2.1-3.9c0-6.3,0-12.7,0.1-19c0-1.6-0.6-2.8-2-3.7
		c-0.4-0.2-0.6-0.9-0.8-1.3c0.4-0.2,0.9-0.6,1.3-0.6c3.1-0.1,6.3-0.1,9.4,0c0.5,0,0.9,0.4,1.3,0.6c-0.3,0.5-0.4,1.1-0.8,1.3
		c-1.4,0.7-1.8,1.8-1.8,3.3c0.1,6.8,0,13.6,0,20.4c0,1.4,0.4,2.4,1.9,3C334.7,449.1,334.9,449.9,335.4,450.7z"/>
	<path d="M640.4,371.6c1.4,0.3,2.3,0.6,3.2,0.8c0,0.2,0,0.5,0,0.7c-2.3,1.6-4.8,1.9-7.9,1.4c0.9-5,1.9-9.9,2.8-14.9
		c-3.1-0.3-6.5,2.1-7.3,5c-0.6,2.1-1,4.2-1.4,6.3c-0.7,3.8-0.8,4-4.8,3.5c1-4.9,2-9.8,2.9-14.4c-1.3-0.7-2.2-1.1-3-1.5
		c0.9-0.5,1.8-1.2,2.7-1.5c3-0.9,3.3-0.8,4.6,1.6c2.8-0.7,5.5-1.5,8.2-2c1.8-0.4,2.8,0.3,2.4,2.3c-0.6,3.3-1.3,6.7-2,10
		C640.6,369.8,640.5,370.7,640.4,371.6z"/>
	<path d="M385.5,373.1c-2.9,0.7-5.5,1.5-8.2,1.8c-2.3,0.3-3.5-1-3.9-3.3c-1-6.8,6-15,12.9-15c1.1,0,2.2,0,3.4,0.1
		c0.6,0.1,1.2,0.4,2,0.6c-0.9,4.8-1.9,9.7-2.8,14.5c1.6,0.2,2.6,0.3,3.8,0.4C390.4,375.1,386.8,375.3,385.5,373.1z M377.4,370.6
		c0.4,0.5,1,1.6,1.7,1.8c1.6,0.5,5.2-1.8,5.7-3.4c0.8-2.6,1.5-5.2,2.2-7.9c0.4-1.5-0.8-2.5-2.4-2.1c-0.9,0.2-1.8,0.7-2.5,1.4
		C379.4,362.9,378.2,366.3,377.4,370.6z"/>
	<path d="M567.8,357.3c-0.8,3.6-1.6,6.9-2.2,10.3c-0.3,1.3-0.2,2.7-0.3,4.1c1,0.1,1.9,0.2,2.9,0.3c0.3,2.1-1.5,2-2.6,2.4
		c-2.3,0.7-3.2,0.4-4.4-1.4c-1.8,0.6-3.5,1.2-5.3,1.7c-5,1.4-7.7-1.1-6.4-6.1c1-3.9,2.9-7.3,6.1-9.9
		C559.4,355.7,563.5,356.4,567.8,357.3z M563.5,359.8c-2.4-1.3-3.5-1.3-5.1,0.1c-3,2.8-4.3,6.5-4.9,10.4c-0.3,1.5,0.6,2.3,2.1,1.9
		c2.4-0.6,4.7-1.3,5.5-4.1C561.9,365.5,562.7,362.7,563.5,359.8z"/>
	<path d="M204.5,369.7c0.3-4.9,1.9-9.2,6.3-11.9c1.2-0.7,2.7-1,4.2-1.3c1.8-0.3,3.8,0.1,4.3,1.9c0.4,1.4,0.2,3.4-0.5,4.8
		c-1.6,3.2-5,3.8-8.2,4c-2.3,0.2-2.1,1.4-2,2.8c0.2,1.7,1.6,2.6,3.2,2.1c1.2-0.4,2.3-1.1,3.5-1.5c0.4-0.1,1,0.2,1.6,0.4
		c-0.2,0.5-0.3,1.2-0.7,1.4c-2.4,1.5-4.9,2.5-7.8,2.4C206,374.7,204.1,373.3,204.5,369.7z M209,364.8c2.9,0.5,5.7-0.6,6.4-2.7
		c0.3-0.9-0.2-2-0.3-3c-0.9,0.2-2.2,0.1-2.7,0.7C211.1,361.3,210.2,363,209,364.8z"/>
	<path d="M591.2,367.4c0.5,5.5,1.1,5.9,5.8,3.7c0.5-0.2,0.9-0.5,1.4-0.6c0.3-0.1,0.9,0.1,1,0.3c0.1,0.4,0,0.9-0.2,1.2
		c-1.5,2-7.9,3.8-9.9,2.3c-1.1-0.8-2-2.6-2.2-4.1c-0.7-5.5,4-12.2,9.3-13.7c2.2-0.6,4,0.1,5.4,1.6c1,1.1,0.6,4.1-0.7,5.6
		c-2.1,2.7-5.2,3.3-8.3,3.6C592.4,367.5,591.9,367.4,591.2,367.4z M591.6,365.1c2.9,0.2,4.8-0.6,6.2-2.4c0.9-1,1.5-2.2,0.2-3.3
		c-1.3-1.1-2.5-0.3-3.3,0.7C593.7,361.5,592.8,363.1,591.6,365.1z"/>
	<path d="M259.4,367.5c0,0.8-0.1,1.5,0,2.1c0.4,2.8,1.3,3.3,3.9,2.3c1-0.4,1.9-0.9,2.9-1.2c0.4-0.1,0.9,0.1,1.4,0.2
		c-0.1,0.5-0.1,1.1-0.4,1.3c-2.8,2-5.9,3.2-9.4,2.4c-2.2-0.5-2.3-2.6-2.5-4.3c-0.7-5.4,4-12.3,9.3-13.7c2-0.5,4.9,0.2,5.5,1.7
		c0.8,2,0.5,3.9-0.9,5.6C266.7,366.9,263.2,367.2,259.4,367.5z M259.5,365.1c3.3,0.2,5.4-0.7,6.7-2.9c0.4-0.7,0.3-2.2-0.2-2.7
		c-0.4-0.4-2.2-0.4-2.6,0.1C262.1,361.1,261,363,259.5,365.1z"/>
	<path d="M453,360.3c0,3.1-2.6,5.8-6.1,6.6c-1,0.2-2.1,0.5-3.1,0.5c-1.5,0-2.4,0.5-2,2.1c0.4,1.5,0.6,3.3,2.9,2.8
		c1.3-0.3,2.5-1,3.7-1.4c0.5-0.1,1.1,0.1,1.7,0.2c-0.3,0.5-0.4,1.2-0.8,1.4c-2.7,1.8-5.7,2.5-8.9,2.1c-1.6-0.2-2.2-1.5-2.5-3
		c-0.8-4.8,1.8-12.1,6.8-14.1c1.6-0.6,3.5-0.9,5.1-0.7C451.9,356.9,453.3,358.2,453,360.3z M442.1,364.9c3.4,0.3,6-0.8,6.8-2.9
		c0.3-0.8,0.2-2.3-0.4-2.6c-0.5-0.4-2.2-0.3-2.6,0.3C444.5,361.1,443.5,362.9,442.1,364.9z"/>
	<path d="M405,371.9c-0.8,2.4-3.3,3.2-7.8,2.5c1-9.1,4.2-17.8,5.5-27c-0.9-0.1-1.7-0.2-2.7-0.3c0.6-2.4,2.7-2.2,4.2-2.5
		c2.9-0.5,3.2-0.1,2.6,2.7c-1.6,7.5-3.2,15-4.8,22.5c-0.1,0.6-0.1,1.3-0.2,2.1C402.9,371.9,403.9,371.9,405,371.9z"/>
	<path d="M676.8,369.2c0-5.7,2.7-10.2,7.4-12.1c0.7-0.3,1.6-0.5,2.4-0.5c1.9-0.2,3.9,0,4.7,2.1c0.9,2.1,0.2,4.1-1.3,5.7
		c-2,2.2-4.7,2.8-7.4,3c-1.9,0.1-2.4,0.9-2.1,2.5c0.3,1.9,1.6,2.9,3.2,2.4c1.1-0.4,2.2-1,3.3-1.4c0.5-0.2,1.2,0.1,1.7,0.2
		c-0.3,0.5-0.4,1.3-0.8,1.6c-2.6,1.7-5.4,2.4-8.5,2c-1.6-0.2-2.6-1.1-2.6-2.8C676.8,371,676.8,370.1,676.8,369.2z M680.8,364.9
		c3.2,0.4,5.9-0.8,6.7-2.9c0.3-0.7,0.1-2.1-0.5-2.6c-0.4-0.4-2.1-0.3-2.5,0.2C683.2,361.1,682.1,362.9,680.8,364.9z"/>
	<path d="M606.9,374.4c1-4.9,2-9.5,2.9-14c-1.3-0.7-2.1-1.1-2.9-1.6c0.9-0.6,1.7-1.3,2.6-1.7c1.7-0.6,3.6-1.5,4.7,1
		c2.5-0.9,4.8-3.2,7.5-0.3c-0.7,1.6-0.4,3.8-2.5,4.8c-0.4-0.3-0.5-0.4-0.6-0.5c-0.4-0.9-0.8-1.8-1.2-2.7c-0.9,0.7-2.4,1.1-2.7,2
		c-1.1,3-1.9,6.2-2.8,9.3c0,0.1,0,0.3,0,0.4C611,374.8,610.8,374.9,606.9,374.4z"/>
	<path d="M532.7,374.4c1-5,2.1-9.9,3.1-15.1c-1.3,0.1-2,0.2-2.8,0.3c-0.3-1.8-0.2-2,3.1-2.8c1.4-0.3,3.2-1.1,3.6,1.6
		c2.4-1.5,4.8-3,7.8-0.7c-0.4,1.2-0.8,2.5-1.4,3.8c-0.2,0.4-0.8,0.7-1.3,0.8c-0.2,0-0.5-0.7-0.8-1.1c-0.4-0.6-0.8-1.7-1-1.7
		c-0.8,0.2-1.9,0.6-2.1,1.2c-1.2,2.9-2.1,5.9-3.1,8.9c-0.2,0.5-0.2,1-0.3,1.5C536.6,374.7,536.6,374.8,532.7,374.4z"/>
	<path d="M224.1,374.4c1-4.9,2-9.9,3.1-15.1c-1.3,0.1-2,0.2-3.2,0.3c0.3-2.6,2.5-2.4,3.9-2.9c1.3-0.4,3.1-0.9,3.2,1.8
		c2.3-1.5,4.4-3,6.9-1.3c0.4,0.3,0.5,1.5,0.4,2.1c-0.5,2.2-1,2.7-2.6,2.9c-0.3-1-0.7-2-1-3c-2.4,0.4-3.2,1.9-3.8,3.6
		c-0.9,2.7-1.5,5.5-2.2,8.3C228,374.8,228,374.8,224.1,374.4z"/>
	<path d="M249.9,372.8c-1.2,0.6-2.4,1.3-3.6,1.7c-0.8,0.3-1.8,0.1-2.7,0.1c-1.6,0-2.1-0.6-1.7-2.2c0.9-3.7,1.6-7.5,2.4-11.3
		c0.1-0.5,0.1-1,0.1-1.7c-0.7-0.1-1.3-0.2-2-0.3c0-0.3,0-0.6,0.1-0.7c2.2-2.2,4.4-4.5,6.6-6.7c0.2,0.2,0.5,0.3,0.7,0.5
		c-0.2,1.5-0.3,3-0.5,4.7c0.6,0.1,1.2,0,1.8,0.2c0.5,0.2,0.9,0.7,1.4,1c-0.4,0.4-0.9,1.2-1.3,1.1c-2.5-0.3-2.9,1.2-3.2,3.2
		c-0.4,2.6-0.9,5.1-1.4,7.6c-0.3,1.6-0.2,2.5,1.8,1.9c0.4-0.1,0.8,0.1,1.2,0.2C249.7,372.3,249.8,372.6,249.9,372.8z"/>
	<path d="M427.1,359.5c-0.8-0.1-1.3-0.2-1.9-0.3c0-0.3-0.1-0.6,0-0.7c2.9-1.5,3.6-5.4,7.3-6.9c-0.3,2.1-0.5,3.6-0.7,5.3
		c1.2,0.1,2.1,0.2,3.2,0.3c0.2,3.2-2.4,1.6-4.1,2.5c-0.7,3.8-1.5,8-2.3,12.5c1.3-0.1,2.2-0.2,3.8-0.4c-0.8,1-1.1,1.7-1.5,2.1
		c-0.4,0.3-1,0.3-1.5,0.4c-4.8,1.3-5.6,0.5-4.6-4.2C425.5,366.6,426.3,363.2,427.1,359.5z"/>
	<path d="M574.8,358.7c1.6-2,3.1-4,4.7-5.9c0.4-0.5,1.2-0.6,2.3-1c-0.2,2-0.4,3.5-0.6,5.1c0.6,0.1,1.2,0,1.8,0.2
		c0.5,0.2,0.9,0.7,1.4,1c-0.4,0.4-0.9,1.2-1.3,1.1c-2.6-0.4-2.9,1.3-3.2,3.2c-0.4,2.5-0.8,5-1.4,7.4c-0.5,2,0,2.7,2,2.1
		c0.3-0.1,0.6,0.1,0.9,0.1c-0.5,2.3-2.5,2.9-7.7,2.4c0.5-2.9,0.9-5.7,1.4-8.6c0.2-1,0.5-2,0.7-3
		C576.4,360.1,576.4,360.1,574.8,358.7z"/>
	<path d="M665.6,359.5c-0.7-0.1-1.2-0.2-1.7-0.3c-0.2-1,5.6-6.9,7.1-7c-0.2,1.6-0.4,3.1-0.7,4.8c1,0.1,2.1,0.1,3.3,0.2
		c0.2,1.3,0,2.4-1.6,2.1c-2.2-0.3-2.7,0.8-2.9,2.7c-0.3,2.8-1.1,5.7-1.6,8.5c-0.1,0.5,0,1,0.1,1.6c1-0.1,1.8-0.2,2.7-0.3
		c0.2,0.2,0.3,0.3,0.5,0.5c-0.5,0.6-0.9,1.4-1.6,1.6c-1.2,0.4-2.4,0.6-3.7,0.7c-2.3,0.2-2.9-0.4-2.4-2.6c0.8-3.7,1.6-7.4,2.4-11
		C665.5,360.6,665.5,360.1,665.6,359.5z"/>
	<path d="M475.9,361.2c0-3.4,2-5.4,5.4-5.5c2.9,0,5.5,2.6,5.5,5.6c0,2.9-2.7,5.7-5.5,5.6C478.1,366.8,475.3,363.8,475.9,361.2z"/>
	<path d="M304.1,361.3c0,3.3-2.3,5.7-5.3,5.6c-2.9-0.1-5.5-2.7-5.5-5.6c0-2.9,2.7-5.6,5.5-5.5C302.1,355.8,304.1,357.9,304.1,361.3z
		"/>
	<path d="M653.7,371.8c1.4,0.1,2.4,0.2,3.9,0.3c-0.8,0.8-1.1,1.4-1.7,1.7c-0.5,0.3-1.1,0.5-1.6,0.6c-4.3,1.2-5.2,0.4-4.4-3.9
		c0.6-2.9,1.3-5.7,2-8.6c0.2-0.8,0.2-1.6,0.3-2.6c-0.9,0.1-1.6,0.2-2.7,0.4c0.2-0.6,0.2-1.3,0.5-1.5c0.5-0.4,1.1-0.8,1.7-0.9
		c1.6-0.2,3.2-0.3,4.8-0.5c-0.1,1.5,0,3-0.3,4.5C655.4,364.7,654.6,368.1,653.7,371.8z"/>
	<path d="M413.4,359.4c-0.9,0-1.6,0-2.5,0c0.7-2,5.1-3.7,6.8-2.7c0.3,0.2,0.5,1,0.4,1.5c-0.8,4.1-1.8,8.1-2.6,12.1
		c-0.1,0.4-0.1,0.9-0.2,1.4c1,0.1,2,0.1,3.4,0.3c-0.4,0.7-0.6,1.2-1,1.6c-0.3,0.3-0.8,0.4-1.2,0.5c-1.7,0.1-3.5,0.2-5.2,0.2
		c0.1-1.6,0-3.2,0.3-4.7c0.5-2.6,1.3-5.2,1.8-7.8C413.6,361.1,413.4,360.3,413.4,359.4z"/>
	<path d="M176.7,372c-0.6,2.2-4.2,3.3-7.9,2.3c0.8-3.6,1.5-7.3,2.3-11c0.1-0.4,0.2-0.7,0.3-1.1c0.6-2,0.4-3.4-2.2-3
		c0.6-1.7,5.3-3.4,6.4-2.5c0.4,0.3,0.5,1.3,0.4,2c-0.7,3.6-1.5,7.1-2.2,10.7c-0.1,0.7-0.1,1.4-0.2,2.3
		C174.6,371.8,175.6,371.9,176.7,372z"/>
	<path d="M189.8,417c1.1-1.8,1.9-3,2.6-4.1c2.3-3.5,3.6-3.8,7.8-1.7c-2.4,2.1-4.5,4.2-7,6C192.6,417.6,191.2,417.1,189.8,417z"/>
	<path d="M348.6,336.3c-2.4,1.8-4.7,3.6-7.1,5.3c-0.4,0.3-1.3,0-2,0c0.1-0.6,0.1-1.3,0.4-1.8c1.3-1.5,2.5-3.3,4.1-4.3
		c1.1-0.7,2.9-0.1,4.4-0.1C348.5,335.6,348.6,336,348.6,336.3z"/>
	<path d="M265.5,354.4c-2-1.3-1.1-2.3-0.3-3.3c3.8-4.9,4.3-5.1,8.3-3.2C270.6,350.2,268,352.3,265.5,354.4z"/>
	<path d="M684.7,352.6c1.7-1.8,3.2-3.8,5.2-5.2c1-0.7,2.9-0.1,4.4-0.1c0.1,0.2,0.1,0.5,0.2,0.7c-2.4,1.9-4.7,3.8-7.2,5.6
		c-0.5,0.4-1.6-0.1-2.5-0.2C684.8,353.2,684.8,352.9,684.7,352.6z"/>
	<path d="M445.7,353.3c2.1-2.3,3.6-4.1,5.2-5.7c1.1-1.2,2-1.1,5.1,0.4c-2.6,2-4.9,4-7.4,5.8C448.1,354,447.1,353.5,445.7,353.3z"/>
	<path d="M655.7,353.6c-1.1-1.6-2.1-2.4-2.4-3.5c-0.3-1.3,1.4-3,2.8-2.9c1.5,0.1,2.8,1.1,2.5,2.5C658.4,351,657.1,351.9,655.7,353.6
		z"/>
	<path d="M178,350c-0.2,1.4-1.1,2.7-2.8,2.5c-0.9-0.2-2.1-1.3-2.5-2.3c-0.4-1.3,1.6-3.1,3-2.9C177.1,347.5,178.1,348.2,178,350z"/>
	<path d="M414.7,350.9c0.3-2.3,1.1-3.7,2.7-3.5c1,0.1,1.9,1.5,2.8,2.4c-1,1-1.9,2.3-3.1,2.7C416.6,352.7,415.4,351.3,414.7,350.9z"
		/>
</g>
</svg>
