<?xml version="1.0" encoding="utf-8"?>
<!-- Generator: Adobe Illustrator 18.0.0, SVG Export Plug-In . SVG Version: 6.00 Build 0)  -->
<!DOCTYPE svg PUBLIC "-//W3C//DTD SVG 1.1//EN" "http://www.w3.org/Graphics/SVG/1.1/DTD/svg11.dtd">
<svg version="1.1" id="Layer_1" xmlns="http://www.w3.org/2000/svg" xmlns:xlink="http://www.w3.org/1999/xlink" x="0px" y="0px"
	 viewBox="0 0 841.9 595.3" enable-background="new 0 0 841.9 595.3" xml:space="preserve">
<g>
	<path d="M214,216.6c0-0.5,0-0.9,0-1.4c20.9-9.3,41.7-18.6,63-28.2c-2.6,14.2-5.1,27.8-7.6,41.6c3.8,0,7.3,0,11,0
		c0.5-3.7,0.9-7.3,1.6-10.8c0.2-0.9,1.3-2.2,2.1-2.3c2.9-0.3,5.8-0.1,8.7-0.1c0.7,4.7,1.3,8.9,1.9,13.3c3.7,0,7.2,0,11,0
		c-3.1-16.9-6.2-33.5-9.3-50.9c5.1,0,9.9,0,14.9,0c0,16.8,0,33.8,0,50.9c3.8,0,7.4,0,11.3,0c0-17.2,0-34.2,0-51.7c3.5,0,6.7,0,10,0
		c0-3.6,0-6.6,0-10.1c-3.1,0-5.9,0-8.7,0c1-1.1,2-1.6,3-2c55.7-24.8,111.4-49.6,167-74.4c1.8-0.8,3.4-1.8,5.1-2.7c0.5,0,0.9,0,1.4,0
		c22.3,50,44.6,100.1,66.9,150.1c0.2,0.5,0.3,1.1,0.7,2.2c-9.2,0-18.1,0-26.9,0c0,3.6,0,6.6,0,10.1c3.4,0,6.5,0,9.9,0
		c0,17.4,0,34.4,0,51.5c3.9,0,7.4,0,11.3,0c0-17.2,0-34.2,0-51.6c2.7,0,5,0.2,7.3,0c2.4-0.2,3.5,0.9,4.4,3
		c17.4,39.1,34.8,78.2,52.3,117.2c0.5,1,1.2,1.9,1.7,2.9c0,0.5,0,0.9,0,1.4c-0.4,0.2-0.8,0.4-1.2,0.6
		c-92.9,41.4-185.9,82.8-278.8,124.2c-1.8,0.8-3.4,1.8-5.1,2.7c-0.5,0-0.9,0-1.4,0c-17.3-38.9-34.5-77.8-52.1-116.5
		c-3.3-7.3-5.2-14.5-4.6-22.5c0.3-5,0.1-9.9,0.1-14.8c3.7,0,6.9,0,10.4,0c0,9,0,17.7,0,26.4c3.9,0,7.4,0,10.9,0c0-20.6,0-41,0-61.3
		c-3.8,0-7.3,0-11.1,0c0,8.2,0,16.1,0,24.2c-3.5,0-6.7,0-10.3,0c0-8.2,0-16.2,0-24.3c-3.9,0-7.5,0-11.3,0c0,11.7,0,23.2,0,34.6
		c-1-0.9-1.6-1.9-2-2.9c-18.3-41-36.5-82-54.8-123C215.9,219.9,214.9,218.3,214,216.6z M357.4,261.7c0.3,0,0.5-0.1,0.8-0.1
		c2.4,12.2,4.8,24.4,7.2,36.6c0.4,1.9,0.5,3.9,3.5,3.6c2.2-0.2,3.2-0.5,3.7-3c2.4-12.8,5.1-25.5,7.6-38.3c0.2,0,0.4,0,0.6,0
		c0,13.6,0,27.2,0,40.8c3.5,0,6.7,0,9.9,0c0-20.6,0-40.9,0-61.6c-4,0-7.9,0.1-11.7,0c-2.2-0.1-2.9,0.7-3.4,2.9
		c-2,10-4.2,20-6.5,30.8c-0.5-2-0.8-3.1-1.1-4.2c-1.9-8.9-3.7-17.8-5.6-26.7c-0.2-1-1.3-2.5-2-2.6c-4.3-0.2-8.6-0.1-13-0.1
		c0,20.8,0,41.1,0,61.6c3.4,0,6.6,0,10,0C357.4,288,357.4,274.8,357.4,261.7z M455.8,275.1c7.5-5.8,9.9-15,7-24.8
		c-1.6-5.3-5.1-9-10.4-9.7c-7.1-0.9-14.3-0.8-21.7-1.1c0,21.1,0,41.4,0,61.9c3.8,0,7.3,0,11.2,0c0-8.3,0-16.3,0-24.3
		c0.3-0.3,0.7-0.5,1-0.8c1,0.9,2.3,1.6,2.8,2.6c3.1,6.6,6,13.4,9.1,20.1c0.5,1,1.5,2.4,2.4,2.5c3.3,0.3,6.6,0.1,10.5,0.1
		C463.5,292.4,459.7,283.8,455.8,275.1z M309.1,270.6L309.1,270.6c0,6.3-0.3,12.6,0.1,18.9c0.5,6.3,4.8,10.9,10.7,12.4
		c12.5,3.3,21.8-3.6,22-16.5c0.2-9.8,0.1-19.6,0-29.4c0-2.2-0.3-4.4-0.9-6.5c-2.1-7.3-8.8-11.2-17.7-10.4c-7.8,0.6-13.5,5.6-14.1,13
		C308.7,258.2,309.1,264.4,309.1,270.6z M311.8,343.4c0,5.5-0.1,11,0,16.5c0.2,9.5,6.3,15.4,16.1,15.6c9.6,0.2,16.5-5.6,16.7-15
		c0.3-11.2,0.3-22.4,0-33.6c-0.3-9.8-7-15.3-17.3-15c-9.4,0.3-15.4,6.3-15.5,15.8C311.8,332.9,311.8,338.2,311.8,343.4z
		 M350.1,312.9c0,5.4,0,10.6,0,15.8c0.1,11,0,21.9,0.4,32.9c0.3,7.2,4.9,12,11.7,13.4c12.8,2.5,21-4.2,21.1-17.2
		c0-13.8,0-27.6,0-41.3c0-1.1-0.1-2.3-0.2-3.5c-3.8,0-7.4,0-11.3,0c0,1.6,0,3,0,4.4c0,13,0,25.9,0,38.9c0,1.7-0.1,3.5-0.4,5.2
		c-0.5,2.6-2.2,4-5,3.8c-3.2-0.2-4.7-2.1-4.7-6.4c0-14,0-28,0-42c0-1.2,0-2.5,0-3.9C357.7,312.9,354.2,312.9,350.1,312.9z
		 M396.3,240c0,20.6,0,41.1,0,61.5c10,0,19.8,0,29.8,0c0-3.4,0-6.5,0-10.1c-6.2,0-12.2,0-18.3,0c0-5.7,0-11,0-16.8
		c4.5,0,8.9,0,13.4,0c0-2.7-0.1-4.9,0-7.1c0.2-2.3-0.7-3.1-3-3c-3.4,0.1-6.9,0-10.3,0c0-5.2,0-9.8,0-14.8c5.8,0,11.3,0,17,0
		c0-3.5,0-6.5,0-9.8C415.2,240,405.8,240,396.3,240z M421.2,327.6c-1.8-4.1-2.8-7.8-4.9-10.6c-4.4-5.9-10.7-6-17.2-4.3
		c-5.8,1.5-9.4,5.8-10.2,12c-0.9,6.6,1,12.3,5.7,16.9c3.2,3.2,7,5.9,10,9.2c2.1,2.3,3.9,5.2,5.1,8.1c1,2.6-0.2,5.1-3.2,6.1
		c-3.1,1-5.6-0.2-6.8-3.2c-0.6-1.4-0.9-2.8-1.3-4.1c-3.7,0-7.1,0-11.4,0c1.2,3.6,1.9,7,3.5,9.9c3.6,6.8,10.8,9.3,19,7.1
		c7.1-1.9,11-7.3,11.2-15c0.2-7.1-3.4-12.2-8.2-16.7c-3-2.8-6.4-5.2-9.1-8.2c-1.8-2-3.1-4.6-3.8-7.2c-0.6-2.3,0.4-4.7,3.2-5.4
		c2.7-0.6,4.7,0.4,5.9,3.1c0.4,0.9,1.3,2.2,2.1,2.2C413.9,327.8,416.9,327.6,421.2,327.6z M501.1,254.7c-0.5-2.1-0.8-3.6-1.2-5
		c-2.5-7.9-8.2-11.5-16.6-10.6c-8.3,0.9-13.2,5.7-13.9,14c-0.6,6.9,2.2,12.5,7.2,17.1c3.4,3.2,7.1,6.1,10.3,9.5
		c1.7,1.8,2.9,4.3,3.5,6.6c0.8,2.7-0.4,5.2-3.4,6c-2.9,0.8-5.4-0.1-6.6-3.1c-0.6-1.4-0.9-2.8-1.4-4.3c-3.6,0-7,0-10.8,0
		c0.3,1.9,0.5,3.7,0.9,5.3c2.1,8.2,9.2,13.3,17.1,12.4c9.7-1.1,14.9-6.4,15.3-15.5c0.2-6-2.3-10.9-6.4-15c-3.2-3.2-7-5.9-10-9.2
		c-2.1-2.3-3.8-5.3-4.7-8.2c-0.7-2.4,0.6-4.9,3.7-5.4c2.8-0.5,4.3,0.9,5.4,3.3c0.4,0.9,1.3,2.1,2.1,2.2
		C494.5,254.9,497.5,254.7,501.1,254.7z M303.5,254.7c-0.6-2.4-0.8-4.1-1.4-5.7c-2.6-7.5-8.7-11-16.8-9.9
		c-8.1,1.1-12.7,5.7-13.5,13.6c-0.7,6.5,1.6,12,6.2,16.4c3.2,3.2,7,5.9,10.1,9.2c2,2.2,3.7,5.1,4.7,7.9c0.9,2.6-0.3,5.2-3.4,5.9
		c-2.9,0.7-5.4,0-6.5-3.1c-0.5-1.4-0.9-2.8-1.4-4.2c-3.6,0-7.1,0-11.3,0c1.2,3.6,1.9,6.9,3.4,9.8c3.4,6.6,10,9.1,18.3,7.4
		c6.9-1.4,11.2-6.3,12-13.6c0.7-6.6-1.9-11.9-6.3-16.4c-3.2-3.2-7-5.9-10-9.2c-2.1-2.3-3.8-5.3-4.7-8.3c-0.7-2.4,0.6-4.9,3.7-5.4
		c2.7-0.5,4.4,0.9,5.4,3.3c0.4,0.9,1.3,2.1,2.1,2.2C296.9,254.9,299.9,254.7,303.5,254.7z M455.7,364.4c-6.4,0-12.3,0-18.2,0
		c0-5.7,0-11.1,0-16.9c4.5,0,8.7,0,13,0c0-3.5,0-6.6,0-10.1c-4.4,0-8.7,0-13.1,0c0-5,0-9.7,0-14.8c5.8,0,11.4,0,17,0
		c0-3.6,0-6.7,0-9.7c-9.6,0-18.9,0-28.4,0c0,20.6,0,40.9,0,61.4c10.1,0,19.9,0,29.7,0C455.7,370.9,455.7,367.9,455.7,364.4z
		 M535.2,240.1c-9.7,0-19.1,0-28.5,0c0,20.6,0,41,0,61.3c10.1,0,19.8,0,29.6,0c0-3.4,0-6.5,0-10c-6.2,0-12.2,0-18.3,0
		c0-5.7,0-11,0-16.7c4.4,0,8.7,0,13,0c0-3.6,0-6.7,0-10.2c-4.4,0-8.6,0-12.9,0c0-5,0-9.7,0-14.8c5.8,0,11.4,0,17.1,0
		C535.2,246.3,535.2,243.3,535.2,240.1z"/>
	<path fill="#FFFFFF" d="M291.1,205.1c-1.1-7.1-2.2-13.8-3.2-20.5c-0.3,0-0.5,0-0.8,0c-1.1,6.8-2.1,13.6-3.2,20.5
		C286.4,205.1,288.4,205.1,291.1,205.1z"/>
	<path fill="#FFFFFF" d="M442.1,267.1c3.6,0,7.4,1,9.1-2.6c2-4,1.9-8.6-0.1-12.5c-1.8-3.5-5.6-2.4-9-2.4
		C442.1,255.4,442.1,261,442.1,267.1z"/>
	<path d="M291.1,205.1c-2.7,0-4.7,0-7.2,0c1.1-7,2.2-13.8,3.2-20.5c0.3,0,0.5,0,0.8,0C288.9,191.3,290,198,291.1,205.1z"/>
	<path d="M442.1,267.1c0-6,0-11.7,0-17.5c3.4-0.1,7.2-1.1,9,2.4c2.1,3.9,2.1,8.5,0.1,12.5C449.5,268.1,445.7,267,442.1,267.1z"/>
	<path d="M330.3,270.5c0,5.4,0.1,10.7,0,16.1c-0.1,4.1-1.5,5.7-4.9,5.8c-3.4,0-5-1.5-5-5.6c-0.1-10.6-0.1-21.2,0-31.8
		c0-4,1.8-5.9,4.9-5.9c3.3,0,5,2,5,6.2C330.3,260.3,330.3,265.4,330.3,270.5z"/>
	<path d="M323.2,343.7c0-5.1-0.3-10.3,0.1-15.4c0.2-2,1.3-4.8,2.8-5.7c3.2-2,6.5,0.1,7,4c0.3,2.3,0.2,4.6,0.2,7
		c0,8.6,0.1,17.2,0,25.9c0,4.2-1.5,5.8-4.8,5.8c-3.6,0.1-5.2-1.5-5.3-5.8C323.1,354.2,323.2,348.9,323.2,343.7L323.2,343.7z"/>
</g>
</svg>
