<?xml version="1.0" encoding="utf-8"?>
<!-- Generator: Adobe Illustrator 18.0.0, SVG Export Plug-In . SVG Version: 6.00 Build 0)  -->
<!DOCTYPE svg PUBLIC "-//W3C//DTD SVG 1.1//EN" "http://www.w3.org/Graphics/SVG/1.1/DTD/svg11.dtd">
<svg version="1.1" id="Layer_1" xmlns="http://www.w3.org/2000/svg" xmlns:xlink="http://www.w3.org/1999/xlink" x="0px" y="0px"
	 viewBox="0 0 841.9 595.3" enable-background="new 0 0 841.9 595.3" xml:space="preserve">
<g>
	<path d="M446.6,433.7c1.8-11.9-3-21.6-7.6-31.3c-1.7-3.7-3.5-7.3-4.9-11.1c-2.6-7.1-0.3-13.6,3.3-19.7c2.9-4.8,6.2-9.4,9.2-14.1
		c7.3-11.5,6.8-19.5-1.6-30.1c-4-5-7.7-10-8.6-16.6c-0.3-2.2-2.1-3.3-4.3-2.6c-7.5,2.4-14.9,2.7-22.5,0c-2.5-0.9-4.4,0.5-4.7,3
		c-0.7,6.4-4.6,11.2-8.3,16c-8.6,10.9-9.1,17.7-2,29.7c2.7,4.5,5.5,8.9,8.5,13.2c6.3,9,6.4,18.2,1.6,28c-3.3,6.7-6.4,13.6-8.7,20.7
		c-1.5,4.5-1.4,9.6-2,14.8c-2.3-0.5-5-0.9-7.6-1.8c-0.8-0.3-1.7-1.8-1.6-2.6c0.7-4.7,1-9.5,2.6-13.9c2.1-5.9,5.2-11.5,8.1-17.1
		c5.2-10.2,4.3-19.9-1.9-29.4c-3.7-5.6-7.3-11.2-10.4-17.1c-3.5-6.6-2.9-13.4,1.3-19.6c1.5-2.2,3-4.4,4.7-6.3
		c9.9-11.1,10.7-23.3,4.8-36.6c-2.7-6.1-5.7-12.2-7.4-18.6c-3.3-12.7-0.7-24.6,6.9-35.3c0.8-1.1,1.5-2.1,2.2-3.2
		c0.1-0.1,0-0.4-0.2-1.3c-0.9,0.5-1.7,0.7-2.3,1.2c-14.7,11.5-19.5,30.5-12.4,48.7c1.7,4.4,3.6,8.8,5.4,13.2
		c4.1,10.5,2.2,19.8-5.1,28.3c-2,2.4-3.8,4.9-5.7,7.3c-6.2,8.2-6.3,16.8-1.4,25.5c3.2,5.7,6.8,11.2,10.3,16.8
		c4.7,7.6,4.8,15.2,0.7,23.1c-2.6,5-5.4,9.9-7.5,15c-2.2,5.6-3.8,11.4-5.8,17.5c-1.7-0.7-4.3-1.5-6.7-2.8c-0.7-0.4-1.3-2.1-1.1-2.9
		c1.2-4.2,2.3-8.5,4.1-12.5c2.6-5.9,5.9-11.4,8.7-17.3c3.2-6.8,2.7-13.7-1-20.3c-2.7-4.8-5.7-9.4-8.6-14.1
		c-7.5-12-6.9-19.6,1.9-30.6c3.1-3.8,6.2-7.7,8.5-11.9c4.4-8.1,2.4-16.5-0.4-24.6c-2.5-7.3-5.7-14.4-6-22.3
		c-0.4-11.4,3.3-21.3,10.2-30.2c0.5-0.7,1-1.3,1.5-2c0.1-0.2,0.1-0.4,0.4-1.5c-1.7,1.2-2.9,1.9-4,2.8
		c-13.9,11.8-18.4,31.2-11.7,49.7c1.7,4.7,3,9.5,4.3,14.4c1.4,5.6-0.4,10.6-3.6,15.1c-3.4,4.8-7,9.4-10.3,14.2
		c-5.1,7.4-5.3,15.2-1.3,23c2.5,5,5.2,9.9,8.4,14.5c6.2,9.1,5.6,17.9,0.5,27.2c-3.4,6.1-6,12.7-8.8,19.1c-0.7,1.6-0.8,3.4-1.3,5.6
		c-2.2-1.2-4.4-2.1-6.2-3.4c-0.7-0.6-1.2-2.4-0.9-3.3c1.3-3.4,2.8-6.8,4.4-10.1c2.7-5.3,5.8-10.4,8.2-15.8
		c2.3-5.3,0.7-10.5-2.2-15.5c-0.3,0.4-0.6,0.7-0.6,0.9c1.3,6.1-0.8,11.3-3.9,16.3c-2.2,3.4-4.8,6.5-6.9,10c-2.4,3.9-4.4,8-6.7,12.3
		c-2.8-2-5.9-4.4-9.5-7c2.3-2.7,4.3-5.2,6.6-7.9c-1.1-1.4-2.3-2.9-4.2-5.4c-2.8,2.9-5.3,5.4-8.2,8.3c-2-1.8-4.5-4.2-7.8-7.3
		c2.9-3.7,5.7-7.2,8.4-10.7c0.7,0.6,1.5,1.1,2.2,1.7c-1-1.8-1.9-3.7-3.4-6.5c-4.2,3.4-8,6.5-12.1,9.9c-1.9-2.3-4.1-5-6.7-8.2
		c3.9-3,7.4-6,11.2-8.6c2.1-1.4,3.8-1.1,4.9,1.8c1.7,4.4,3.3,5.1,8.1,4.2c9.2-1.6,16.8-6.3,23.3-12.4c-2-5-3.9-9.6-5.7-14.2
		c-2.3-6-0.9-11.6,2.5-16.6c3-4.5,6.2-8.8,9.5-13c5.4-6.9,6.6-14.5,4.3-22.9c-1.7-6-3.5-11.9-4.6-18c-2.3-12.9,2.2-24.2,9.5-34.5
		c0.5-0.8,1.1-1.5,1.2-2.9c-0.9,0.7-1.9,1.3-2.7,2.1c-13.1,13.2-17.2,28.7-12.2,46.6c0.9,3.2,1.5,6.5,2.5,9.7
		c1.9,6.2,0.3,11.5-3.5,16.4c-2.9,3.8-5.9,7.5-8.7,11.4c-3.3,4.5-5.9,9.2-5.9,15.1c0,1.1-1.2,2.5-2.2,3.3c-6.1,4.7-13,7.4-21.4,7.5
		c0.7,2.9,1.3,5.4,1.7,7c-5.6,3.7-10.8,7.3-16.5,11.1c-1.7-2.7-3.6-5.8-5.7-9.1c7.5-2.4,11.3-11,20.4-10.3c-0.4-2.8-0.8-5.3-1.2-7.9
		c-4.4-0.9-8.2,0.3-11.8,2.8c-2.7,1.9-5.4,4-8.2,5.8c-2.1,1.3-3.9,1.5-4.8-1.6c-0.8-2.6-2-5-3.3-8.1c7,0,11.6-4.5,16.9-7.5
		c2.8-1.6,6.2-2.4,9.8-3.7c0-2.4,0-5.4,0-8.8c-5.7-0.6-10.3,2.2-15.1,4.9c-3.8,2.1-7.9,3.7-12,5.2c-1.8,0.7-3.1-0.3-3.5-2.3
		c-0.5-2.8-1.2-5.5-2-8.5c7.3,0.6,13-2.3,18.9-5.5c4.1-2.3,8.8-3.6,13.1-5.5c1.2-0.5,2.4-1.7,2.8-2.8c0.9-2.6,1.2-5.3,2.1-9
		c-4.1,0.9-7.8,1.3-11.1,2.6c-3.9,1.5-7.3,4-11.2,5.6s-8,2.8-12.2,3.9c-2.8,0.7-4.6-0.6-4.6-3.7c0-2-0.2-4-0.3-6.3
		c9.1,0.8,16.5-2.7,23.9-6.9c5.3-2.9,10.7-5.1,17-5c0.9,0,2.2-0.5,2.6-1.2c1.7-3.4,3.2-6.9,4.9-10.8c-6.4-1.2-12.3-0.7-17.9,1.8
		c-4.8,2.1-9.4,4.7-14.2,6.8c-5.2,2.4-10.6,3.6-16.8,2.4c3.2-49.8,24.3-89.7,66.6-116c50.4-31.3,102.7-31.4,153.1-0.1
		c42.3,26.2,63.5,66.2,66.8,116c-6.7,1.3-12.4-0.4-18-2.9c-5.7-2.6-11.3-5.6-17.3-7.6c-4.1-1.3-8.6-1-14-1.5
		c2.2,4.7,3.8,8.4,5.7,12.1c0.3,0.6,1.6,0.8,2.5,0.8c5.9-0.1,11.2,2,16.3,4.7c6,3.2,11.9,6.7,18.9,7c1.6,0.1,3.3,0,5.4,0
		c-0.2,2.9,0,5.6-0.6,8.2c-0.2,0.9-2.7,2.1-3.9,1.8c-4.4-1-8.7-2.2-12.9-3.9c-5.1-2-9.9-4.7-14.9-6.7c-1.9-0.8-4.2-0.6-7-0.9
		c0.9,3.8,1.5,7,2.3,10.1c0.1,0.5,0.9,1,1.5,1.2c5.3,2.2,10.9,4.1,16,6.7c5.3,2.7,10.5,5.1,16.9,4.3c-0.6,2.6-1.1,4.8-1.6,7
		c-1.1,4.4-2.1,5.2-6.5,3.6c-3.3-1.2-6.5-3-9.5-4.9c-4.6-2.8-9.2-5.4-15.2-4.9c0,3.2,0,6.2,0,8.2c9,4.4,17.4,8.6,26.3,13
		c-1.1,2.6-2.5,6.1-4.3,10.2c-2.5-1.4-4.6-2.6-6.7-3.8c-4-2.2-7.9-4.7-12.1-6.5c-2.7-1.2-5.2-0.3-5,3.6c0.1,1.3-0.4,2.6-0.7,4.3
		c9-0.9,12.7,7.9,20.3,10.3c-1.9,3.2-3.7,6.3-5.6,9.4c-5.4-3.7-10.6-7.3-16.4-11.3c0.3-1.4,0.8-4,1.5-6.9c-8.1-0.2-14.9-2.8-21-7.3
		c-1.7-1.3-2.2-2.8-2.8-4.9c-1.3-4.6-3.1-9.2-5.5-13.4c-1.9-3.5-4.6-6.7-7.4-9.7c-6-6.6-7-14-4.2-22.2c2.8-8.1,4.5-16.4,3.5-25
		c-1.4-12.1-7.2-21.9-16.3-29.7c-0.3,0.2-0.5,0.3-0.8,0.5c1.6,2.5,3.4,4.9,4.9,7.4c7.5,12.7,8.8,26,4,39.9c-0.9,2.6-1.5,5.3-2.3,7.9
		c-2.8,9-0.6,16.9,5.3,24.1c2,2.4,3.7,5,5.7,7.3c7.5,8.8,8,18.2,2.7,28.2c-3.8,7.2-3.7,7.3,3.2,12.1c5.4,3.7,11.2,6.3,17.7,7.4
		c3.6,0.6,6.2-0.4,7.3-4c0.9-3.3,2.9-3.7,5.3-1.9c3.6,2.6,7.1,5.5,10.9,8.4c-2.5,3.1-4.7,5.8-7.1,8.7c-2.3-2.4-4.2-4.8-6.5-6.7
		c-4.8-4.1-6.4-3.5-8.2,2.3c3.3,3.1,6.5,6.1,10,9.4c-2.9,2.9-5.4,5.3-8,7.9c-2.6-2.8-5.1-5.4-7.9-8.4c-1.6,1.9-2.8,3.5-4,4.9
		c2.2,2.6,4.3,5.2,6.6,7.9c-3.5,2.6-6.7,4.9-10.2,7.5c-1.4-7.6-6.2-12.9-10.2-18.6c-4.4-6.3-8.6-12.7-6.8-21.1
		c-4,5.2-4.6,11-2.2,16.7c2,4.8,5,9.2,7.4,13.9c1.6,3.1,3.1,6.2,4.5,9.3c1.2,2.6,0.6,4.5-2.3,5.6c-1.5,0.6-2.9,1.5-3.6,1.8
		c-3.7-8.1-6.7-16.2-11-23.7c-5.6-10-5.7-19.3,1-28.8c2.4-3.4,4.4-7.1,6.5-10.7c5.7-9.8,5.2-19.3-1.8-28.3c-2.3-3-4.6-6.1-7-9.1
		c-5.6-6.8-7-14.4-4.2-22.8c1.9-5.6,4.1-11.3,5.2-17.1c3.3-16.8-1.5-31.1-14.5-42.5c-0.6-0.5-1.3-1-2-1.4c-0.3-0.2-0.6-0.1-1.4-0.3
		c2,2.9,3.9,5.4,5.6,8.1c8,12.9,8.4,26.4,3.4,40.5c-1.9,5.2-3.7,10.6-5,16c-1.9,7.7,0.3,14.6,5,20.8c3.1,4.1,6.2,8.2,9.1,12.4
		c4.2,6.1,4.3,12.6,1.1,19c-2.8,5.4-6,10.6-9.3,15.7c-6.4,9.6-6.7,19.2-1.2,29.3c3.5,6.5,7,13.1,9.6,20c2.7,7.2,2.2,7.4-4.9,10.1
		c-0.9,0.3-1.8,0.5-3.1,0.9c0.4-12-6.1-21.3-11.2-31.1c-5.1-9.8-4.5-18.8,1.8-27.8c3.7-5.3,6.9-10.9,9.8-16.6c3.6-7.2,3-14.3-1.6-21
		c-2.2-3.2-4.5-6.5-7.1-9.5c-7.7-9.1-8.5-18.9-4.2-29.7c2.7-6.7,5.6-13.5,7.4-20.5c3.6-13.7-4.1-32.6-15.6-40.2
		c-0.4-0.3-1-0.2-2.1-0.4c0.5,1.1,0.7,1.7,1.1,2.2c10.9,14.8,12.6,30.4,5,47.2c-3,6.6-5.3,13.5-7.3,20.5c-1.9,6.7,0.1,13,3.7,18.8
		c2.1,3.3,4.6,6.4,7,9.5c6.7,8.6,7.5,16,2.1,25.5c-3,5.3-6.5,10.3-9.7,15.4c-5.4,8.5-6.4,17.3-1.9,26.5c3,6.2,6.2,12.4,8.7,18.8
		c1.6,4,2.1,8.5,2.9,12.8c0.4,2.3-0.5,3.8-3.1,4.2C451.6,432.4,449.4,433.1,446.6,433.7z M355.1,205.4c5,8.5,9.9,16.6,14.5,24.9
		c1.4,2.6,2.7,2.6,5.1,1.6c5.3-2.2,10.5-4.6,16-6.2c26.1-7.4,51.6-5.4,76.3,6.1c2.7,1.2,3.8,0.8,5.3-1.8c4.1-7.3,8.6-14.3,12.9-21.4
		c0.6-0.9,1.2-1.8,2.2-3.4c-10,0.8-18.3,3.8-25.9,9.2c-0.3-0.2-0.5-0.4-0.8-0.6c3.7-7.3,7.4-14.6,11.3-22.3
		c-12.4,1.2-23.1,5.6-32.3,14.2c-1.6-4.1-2.7-8-4.6-11.6c-2-3.7-0.6-5.8,2.2-8c3.4-2.7,6.5-5.7,10.5-9.3c-5.6-0.4-10.1-1-14.5-0.9
		c-3.8,0.1-5.5-1.6-6.7-4.8c-1.6-4.3-3.6-8.4-5.8-13.6c-2.4,5.5-4.5,10-6.2,14.6c-1,2.6-2.4,3.7-5.2,3.7c-4.8,0.1-9.6,0.6-15.5,1
		c4.6,4.1,8.3,7.3,11.9,10.7c0.9,0.9,2.1,2.6,1.8,3.4c-1.6,4.8-3.5,9.5-5.4,14.4c-14.5-9.8-24.2-13.9-32.2-13.5
		c3.7,7.3,7.3,14.6,11,21.8c-0.3,0.2-0.6,0.4-0.9,0.5C372.4,209.1,364.2,206,355.1,205.4z M426.7,266.6c-2-6-3.3-12.1,0-16.7
		c5.3-7.4,13.6-6,21.5-3.9c-1.9-11.3-15.5-19.3-30.4-18.4c-12,0.7-24,9.7-24.3,18.4c2.1-0.5,4.1-1.2,6.2-1.5
		c5.7-0.6,11.4,0.1,14.9,4.9c2.8,3.8,1.9,8.7,0.6,13.8c-3.3-2.8-6.3-2.4-9.6-1.5c-2,0.6-4.5,0.2-6.6-0.4c-4.7-1.5-6.5-0.5-6.5,4.6
		c0.1,14.3,6.6,25.4,18.2,33.4c5.9,4.1,12.5,4.3,18.9,0.6c9.8-5.8,15.5-14.7,18.3-25.4c0.8-3.3,1.1-6.8,0.8-10.2
		c-0.3-3.5-2.2-4.1-5.5-3.1c-2.1,0.6-4.7,1.3-6.5,0.6c-4.4-1.7-7-0.8-8.6,3.6C428.1,265.7,427.5,265.9,426.7,266.6z M515.9,243.4
		c-10.5-5.6-21.5-7.5-33.4-3c0.5,0.6,0.7,1,1,1.2c9.8,7.2,18.2,15.7,25.3,25.5c0.6,0.9,2.5,1.5,3.6,1.2c6.2-1.4,12.1-0.9,17.9,1.4
		c5.4,2.1,10.7,4.7,16.1,6.7c4.3,1.6,8.8,3,13.8,0.7c-2.2-2.6-4.3-4.9-6.2-7.2c-11.6-14-21-29-19.9-48.3c0.2-3-1.7-3.1-3.3-1.6
		c-3.2,3.1-6.6,6.3-9,10.1C519.3,234.2,517.9,238.8,515.9,243.4z M359,240.3c-11.9-4.3-23-2.7-33.5,3.1c-0.3-0.3-0.5-0.3-0.5-0.4
		c-0.1-0.5-0.2-0.9-0.3-1.4c-2.2-8.4-6.4-15.7-13.2-21.1c-0.8-0.6-2.1-0.7-3.2-1c-0.3,1-0.7,1.9-0.8,2.9c-0.5,4.7-0.3,9.6-1.4,14.2
		c-3.3,14.5-11.9,26.1-21.5,37c-1,1.2-2,2.4-3.7,4.4c3.7,0,6.5,0.6,8.8-0.1c6.2-2,12.3-4.5,18.3-6.9c6.9-2.8,13.8-4.4,21.3-2.6
		c1.1,0.3,3.1-0.8,4-1.8c3.9-4.2,7.3-8.8,11.3-12.9C349,249.1,354,245,359,240.3z M410.3,255.2c-1.7-5.4-11.9-8.7-15.6-5.1
		c-0.8,0.8-0.5,2.9-0.6,4.4c1.1,0.1,2.2,0.2,3.3,0.2c2-0.1,4-0.6,6-0.5C405.6,254.2,407.9,254.8,410.3,255.2z M447.1,254.7
		c1.8-1.9,1.6-4.5-1.5-5.3c-4-1.1-8.1-0.7-11.5,1.8c-1,0.7-1.4,2.2-2.2,3.6C437.3,254.7,441.8,254.7,447.1,254.7z"/>
	<path d="M406.5,210.6c0.7-0.6,1.1-1,1.5-1.4c4.2-3.2,8.3-6.3,12.8-9.7c4.8,3.7,9.6,7.3,14.5,11.1
		C425.5,210.6,416.2,210.6,406.5,210.6z"/>
	<path d="M410.2,283.3c7.1,0,14,0,21,0C425,293.3,417.4,293.4,410.2,283.3z"/>
	<path d="M414.4,275c2.5-2,10.2-2,12.9-0.1C423,278.2,419,278.2,414.4,275z"/>
</g>
</svg>
