<?xml version="1.0" encoding="utf-8"?>
<!-- Generator: Adobe Illustrator 18.0.0, SVG Export Plug-In . SVG Version: 6.00 Build 0)  -->
<!DOCTYPE svg PUBLIC "-//W3C//DTD SVG 1.1//EN" "http://www.w3.org/Graphics/SVG/1.1/DTD/svg11.dtd">
<svg version="1.1" id="Layer_1" xmlns="http://www.w3.org/2000/svg" xmlns:xlink="http://www.w3.org/1999/xlink" x="0px" y="0px"
	 viewBox="0 0 841.9 595.3" enable-background="new 0 0 841.9 595.3" xml:space="preserve">
<g>
	<path d="M330.4,329.1c-2.7,3.8-5.3,5.1-8.7,4c-2.9-0.9-4.8-3.4-4.8-6.5c0-3.1,1.9-5.8,4.8-6.7c3.5-1,5.9,0.2,8.9,4.4
		c0.6-1,1.1-2,1.8-2.9c0.7-0.8,1.5-1.5,2.2-2.1c-1.4-1.7-2.8-3.4-4.3-5.3c-1.4,2.5-3.5,4.8-6.9,4.3c-1.7-0.3-3.5-1.1-4.7-2.2
		c-2.8-2.7-2.2-7.4,0.9-9.7c3.6-2.7,7.5-1.6,10.7,3c1.4-1.7,2.8-3.5,4.1-5c-1.4-1.9-2.8-3.9-4.1-5.6c-0.9,1.1-1.9,2.9-3.5,3.7
		c-1.5,0.8-3.7,0.9-5.4,0.5c-2.8-0.7-4.4-3.7-4-6.8c0.3-2.8,2.6-5.1,5.5-5.5c3.4-0.4,5.8,1.2,7.3,5.3c0.7-1.4,1.2-2.7,2-3.7
		c0.8-1,1.9-1.8,2.9-2.8c-6.1-4.7-6-10.4,0.5-14.7c-2.8-1.9-4.9-4.2-4.6-7.9c0.3-3.6,2.4-5.7,5.8-7.1c-4-1.8-6-4.6-5.1-8.8
		c0.6-2.9,2.5-4.8,5.4-5.4c3.8-0.8,6.6,0.9,8.3,4.1c1.9-1.8,3.7-3.5,5.5-5.2c-3.8-2.7-5.1-5.4-4-8.8c0.9-2.9,3.7-4.8,6.8-4.8
		c3,0.1,5.9,2.3,6.6,5.1c0.9,3.5-0.5,6.2-4.3,8.6c1.6,1.4,3.3,2.8,5,4.2c1.5-1.3,3.3-2.7,4.3-3.5c-0.9-1.2-2.3-2.6-3-4.4
		c-0.6-1.6-0.7-3.7-0.2-5.4c0.8-2.9,3.8-4.6,6.7-4.4c2.9,0.2,5.5,2.3,6.2,5.1c0.9,3.5-0.5,6-4.2,8.3c1.9,1.8,3.8,3.6,5.8,5.5
		c1.6-2.9,4.2-5,8.2-4.1c3,0.7,5.1,3.1,5.3,6.1c0.3,3.6-1.2,5.8-5.6,7.9c3.4,1.3,5.8,3.3,6.1,7c0.3,3.7-1.6,6.1-4.6,7.8
		c6.5,4.6,6.7,10,0.9,14.7c1.5,1.8,3,3.6,4.5,5.4c-0.4-0.3-0.8-0.6-1.2-0.8c1.5-0.9,2.9-2.1,4.6-2.6c1.6-0.5,3.5-0.8,5.2-0.5
		c3,0.6,4.8,3.4,4.7,6.4c0,3-2,5.5-4.9,6.4c-3.2,0.9-5.8-0.4-8.5-4.4c-0.6,1-1.2,2-1.8,3c-0.6,0.9-1.3,1.7-1.9,2.6
		c1,1.1,2.3,2.6,3.6,4.1c2.1-3.3,5.1-5,9.2-3.7c2.8,0.9,4.4,3.1,4.7,6c0.3,3.8-1.6,6.3-5.5,7.9c3.6,1.4,5.7,3.6,5.9,7.2
		c0.2,3.5-1.6,6-4.9,7.7c3.1,1.8,5.2,4.2,5.1,7.8c-0.1,3.5-2.1,5.8-5.4,7.3c3.9,2.2,6,5.2,4.6,9.6c-0.9,2.9-3.6,5-6.7,5
		c-4.1,0-6.4-2.3-7.5-5.9c-1.1,1.4-1.8,3.3-3.2,4.2c-1.5,0.9-3.5,1.4-5.3,1.3c-2.9,0-5.3-2.6-5.9-5.4c-0.7-3.3,0.7-5.9,4.2-8.2
		c-1.6-1.4-3.2-2.9-4.8-4.3c-4.8,6.3-11.5,4.8-14.8-0.8c-1.7,2.9-4.1,4.8-7.5,4.7c-3.5-0.2-5.8-2.2-7.2-5.6c-1.9,3.9-4.7,6-8.9,5.1
		c-2.9-0.6-4.8-2.5-5.4-5.4c-0.9-4,0.9-6.8,4-8.5C333.7,332.7,332.1,330.9,330.4,329.1z M386,349.1c1.4,1.8,2.9,3.6,4.1,5.1
		c1.4-1.7,3.1-3.7,4.6-5.5c-1.3-1.1-2.8-2.5-4.2-3.7C388.9,346.4,387.3,347.9,386,349.1z M380.8,259.7c-1.5-1.4-3.3-3-4.9-4.4
		c-1.1,1.4-2.4,3-3.7,4.5c1.2,1.2,2.6,2.5,3.7,3.6C377.6,262.1,379.4,260.8,380.8,259.7z M345.7,263.5c1.2-1.2,2.4-2.5,3.5-3.7
		c-1.3-1.5-2.6-3-3.6-4.2c-1.6,1.5-3.2,2.9-4.6,4.2C342.4,260.9,344,262.2,345.7,263.5z M345.8,330.7c-1.5,1.3-2.9,2.5-4.1,3.5
		c1.4,1.5,2.9,3.1,4.2,4.5c1.2-1.5,2.5-3,3.8-4.5C348.3,333.1,347,331.8,345.8,330.7z M390.7,314.9c-1.1,1.4-2.4,2.8-3.5,4.2
		c1.2,1.3,2.4,2.6,3.4,3.7c1.7-1.3,3.3-2.6,4.7-3.8C393.9,317.7,392.3,316.4,390.7,314.9z M387,334.1c1.2,1.3,2.4,2.5,3.4,3.6
		c1.5-1.4,2.9-2.7,4.2-3.9c-1.3-1.2-2.7-2.5-4-3.6C389.4,331.4,388.2,332.7,387,334.1z M375.8,270.9c-1.2,1.3-2.3,2.6-3.3,3.8
		c1.1,1.2,2.2,2.3,3.3,3.4c1.4-1.2,2.8-2.4,4.1-3.5C378.5,273.4,377.2,272.2,375.8,270.9z M345.6,271c-1.4,1.3-2.7,2.5-3.9,3.7
		c1.4,1.2,2.7,2.4,4,3.5c1.1-1.2,2.1-2.3,3.2-3.5C347.8,273.5,346.7,272.3,345.6,271z M357,334.3c1.2,1.3,2.4,2.6,3.6,3.8
		c1.2-1.4,2.4-2.7,3.5-3.9c-1.1-1-2.3-2.1-3.4-3.2C359.4,332.1,358.2,333.2,357,334.3z M345.6,286.1c-1.3,1.2-2.5,2.4-3.6,3.4
		c1.3,1.2,2.5,2.3,3.7,3.3c1.1-1.2,2.1-2.3,3.1-3.3C347.7,288.3,346.7,287.2,345.6,286.1z M375.6,337.4c0.9-1,2.1-2.2,3.2-3.4
		c-1.1-1.1-2.2-2.1-3-2.8c-1.3,1.2-2.4,2.2-3.3,3.1C373.4,335.2,374.5,336.3,375.6,337.4z M379.3,289.4c-1.2-1.2-2.4-2.2-3.6-3.3
		c-1.1,1.1-2.1,2.3-3,3.2c1.1,1.1,2.2,2.1,3.2,3.1C376.9,291.6,378.1,290.5,379.3,289.4z M363.8,260.1c-1.2-1.3-2.3-2.5-3.4-3.6
		c-0.9,1-2,2.2-3.1,3.3c1.2,1.1,2.3,2.2,3.4,3.2C361.9,261.9,363,260.9,363.8,260.1z M348.8,319.3c-1.2-1.2-2.2-2.2-3.1-3.1
		c-0.9,1.1-1.9,2.3-2.9,3.4c0.8,0.8,1.9,1.8,3,2.9C346.9,321.3,347.8,320.3,348.8,319.3z M348.9,304.4c-1.1-1.2-2.2-2.3-3.2-3.4
		c0.2,0.2,0.3,0.5,0.5,0.7c-1.3,0.9-2.6,1.8-3.8,2.6c1.2,1.1,2.3,2.2,3.2,2.9C346.6,306.3,347.7,305.4,348.9,304.4z M375.6,301.1
		c-1.1,1.2-2.1,2.3-2.7,3c1.1,1.1,2.1,2.1,2.7,2.8c0.8-0.8,1.9-1.9,2.7-2.7C377.7,303.3,376.7,302.3,375.6,301.1z M363.4,274.7
		c-0.9-0.9-1.9-1.8-2.9-2.8c0.3,0.2,0.6,0.4,0.9,0.6c-1.3,0.8-2.6,1.5-3.8,2.3c1.2,1.1,2.2,2.1,3,2.9
		C361.6,276.5,362.6,275.6,363.4,274.7z M378.6,318.9c-1-0.9-2-1.9-2.6-2.5c-1.1,1-2.2,2-3,2.7c0.9,0.9,1.8,1.9,2.5,2.6
		C376.4,320.8,377.4,319.9,378.6,318.9z M360.5,322c1.2-1,2.2-1.9,2.9-2.5c-1-1.1-2-2-2.7-2.8c-0.8,0.8-1.8,1.8-2.7,2.6
		C358.7,320.2,359.6,321.1,360.5,322z M358.1,289.6c0.8,0.8,1.7,1.7,2.4,2.5c1-0.8,2-1.8,2.8-2.5c-1-1-1.9-1.9-2.7-2.8
		C359.9,287.7,359,288.6,358.1,289.6z M360.8,307.1c0.9-1,1.8-1.9,2.4-2.5c-1-1.1-1.8-2-2.3-2.6c-1,0.7-2,1.4-3.2,2.3
		C358.7,305.3,359.7,306.1,360.8,307.1z"/>
	<path d="M636.1,304.5c3.7,1.8,5.7,4.4,5.1,8.3c-0.4,2.9-2.2,5-5.1,5.7c-4,1-7-0.6-8.2-2.9c-1.5,1.4-3.2,3-4.8,4.4
		c2.3,1.4,4.2,4.1,3.3,8c-0.7,3.1-2.8,5-5.9,5.6c-3.8,0.7-6.3-1.3-8.1-4.3c-1.5,1.6-2.9,3.2-4.2,4.5c1.4,1.7,2.8,3.5,4.2,5.2
		c2.3-4,5.1-5.5,8.7-4.5c3,0.8,5.1,3.7,5,6.9c0,3.1-2.1,5.8-5,6.5c-3.7,0.9-6.4-0.5-8.7-4.8c-0.7,1.1-1.3,2.3-2.1,3.2
		c-0.8,0.9-1.9,1.6-2.6,2.2c1.5,1.7,3,3.4,4.6,5.2c1.3-2.7,3.4-5.2,7.1-4.8c1.8,0.2,3.9,1,5.2,2.3c3,2.8,2.5,7.9-0.8,10.4
		c-3.8,3-8.2,1.7-11.8-3.7c-1.5,3.7-4.1,6-8.2,5.6c-3.2-0.3-5.6-2.2-6.4-5.4c-1.2-4.3,0.8-7.3,4.1-9.2c-1.6-1.8-3.2-3.5-4.8-5.2
		c-2.7,3.9-5.4,5.3-8.7,4.3c-3-0.9-5.1-3.4-5.3-6.5c-0.2-3.2,1.7-5.8,5.8-7.6c-3.3-1.4-5.8-3.4-6-7.2c-0.2-3.7,1.9-6,5-7.7
		c-6.9-4.3-7-10.1-0.6-14.8c-6.3-5.3-6.5-10-0.3-14.8c-1-0.9-2-1.7-2.8-2.7c-0.8-1.1-1.3-2.3-1.8-3.3c-1,1.2-1.9,3-3.4,3.8
		c-1.5,0.8-3.6,1.1-5.4,0.8c-2.8-0.5-4.7-3.5-4.6-6.5c0.1-2.9,2.4-5.6,5.2-6.1c3.5-0.7,6,1,7.8,4.9c1.4-1.9,2.8-3.9,4.3-5.9
		c-1.2-1.3-2.6-2.9-4-4.6c-1.9,3.3-4.7,5.2-8.8,4c-2.8-0.8-4.8-3.2-5-6.1c-0.3-3.5,1.3-5.8,5.7-8c-3.8-1.4-6.3-3.9-6-8
		c0.2-3.1,1.9-5.5,4.9-6.5c4.1-1.3,7.4,0.2,8.9,3c1.4-1.5,2.9-3.1,4.4-4.6c-2.2-1.4-4.2-4.2-2.9-8.4c0.9-3,3-4.7,6-5
		c3.9-0.4,6.5,1.6,8.1,5.5c1.6-3.4,3.7-5.7,7.4-5.8c3.7,0,6,2,7.5,5.5c2-3.8,4.7-6.1,9-5.2c3.1,0.7,5.1,2.8,5.6,5.9
		c0.7,4-1.3,6.7-4.9,8.4c6.9,4.5,7.2,10.5,0.4,15.1c3,1.6,4.9,3.8,5,7.1c0.1,3.2-1.5,5.6-4.2,7.3c1.5,1.6,2.9,3.2,4.5,5
		c1.6-2.5,3.8-4.8,7.3-4.2c1.7,0.3,3.7,1.3,4.8,2.5c3.3,3.6,2,7.8-3.3,11.7c3.6,1.4,5.7,4,5.7,7.7
		C641.9,300.6,639.8,303.1,636.1,304.5z M596.9,338.6c1.2-1.4,2.6-3,3.9-4.6c-1.3-1.4-2.7-2.9-3.9-4.1c-1.9,1.5-3.7,3-5.1,4.1
		C593.5,335.5,595.3,337,596.9,338.6z M582.2,256c-1.9,1.5-3.8,3-5.3,4.1c1.5,1.3,3.3,2.8,5,4.2c1.2-1.4,2.6-3,3.9-4.4
		C584.6,258.5,583.3,257.2,582.2,256z M612.6,248.4c1.1-0.9,2.6-2.2,4.1-3.5c-0.2,0.2-0.5,0.5-0.7,0.7c-1.7-1.5-3.4-3-5.2-4.5
		c0.4-0.3,0.8-0.7,1.3-1c-1.4,1.6-2.8,3.2-4.1,4.9c0.3-0.3,0.5-0.5,0.8-0.8C610.1,245.6,611.4,247,612.6,248.4z M597.1,248.5
		c1.3-1.2,2.7-2.5,3.9-3.6c-1.4-1.6-2.8-3.3-4-4.7c-1.4,1.5-2.8,3.2-4.2,4.6C594.3,246,595.7,247.2,597.1,248.5z M631.6,289.2
		c-1.4-1.3-3-2.8-4.5-4.1c-1.2,1.4-2.4,2.9-3.6,4.4c1.1,1.2,2.3,2.4,3.4,3.6C628.5,291.8,630.1,290.4,631.6,289.2z M631.5,304.6
		c-1.5-1.2-3-2.5-4.6-3.8c-1.1,1.2-2.3,2.5-3.4,3.6c1.3,1.5,2.5,3,3.6,4.3C628.6,307.3,630.1,305.9,631.5,304.6z M596.9,323.3
		c1.2-1.4,2.5-2.8,3.6-4c-1.3-1.3-2.5-2.7-3.6-3.8c-1.5,1.3-3,2.6-4.3,3.7C594,320.6,595.5,321.9,596.9,323.3z M608.9,319.5
		c1.1,1.2,2.3,2.6,3.6,4.1c-0.2-0.3-0.5-0.5-0.7-0.8c1.3-1.3,2.6-2.7,3.8-3.9c-0.8-0.7-2.3-2-3.2-2.8
		C611.1,317.3,610,318.4,608.9,319.5z M616.2,259.9c-1.3-1.3-2.7-2.5-4-3.8c-1.2,1.3-2.3,2.5-3.2,3.5c1.3,1.2,2.5,2.4,3.7,3.5
		C613.5,262.3,614.8,261.2,616.2,259.9z M596.9,300.8c-1.3,1.2-2.7,2.5-3.9,3.6c1.4,1.3,2.7,2.5,3.9,3.7c1-1.2,2.2-2.4,3.3-3.7
		C599.1,303.2,597.9,302,596.9,300.8z M609.1,274.5c1.2,1.1,2.3,2.1,3.4,3.2c1-0.9,2.2-2.1,3.3-3.1c-1.3-1.2-2.5-2.4-3.6-3.4
		C611,272.4,610,273.6,609.1,274.5z M596.9,262.8c1.1-1,2.2-2,3.4-3.1c-1.1-0.9-2.3-1.9-3.3-2.7c-0.8,0.9-1.9,2.1-2.6,2.9
		C595.1,260.8,596.1,261.9,596.9,262.8z M600.1,289.5c-1.1-1.1-2.2-2.3-3.2-3.4c-1.3,1.2-2.5,2.4-3.7,3.5c1.3,1.2,2.5,2.3,3.6,3.4
		C598,291.8,599.1,290.7,600.1,289.5z M600.2,274.6c-1.1-0.9-2.4-1.8-3.4-2.6c-0.8,0.8-1.9,2-2.6,2.8c0.8,0.9,1.8,2,2.7,3
		C597.8,276.8,599,275.8,600.2,274.6z M611.8,307.6c1.2-1.1,2.3-2.1,3.5-3.1c-1.1-1.1-2.3-2.1-2.9-2.7c-1.3,1-2.4,1.8-3.5,2.7
		C609.9,305.5,611,306.6,611.8,307.6z M612.2,292.4c0.9-0.9,2-1.9,2.9-2.8c-1-1.1-2.1-2.1-3.2-3.2c-0.9,1-1.9,2-2.8,3
		C610.2,290.4,611.2,291.4,612.2,292.4z"/>
	<path d="M509,240.7c-1.5,1.6-3,3.1-4.7,4.9c2.6,1.8,4.7,4.2,4.2,8c-0.5,3.6-2.9,5.6-6,6.5c1.4,1,3.1,1.7,4,3.1
		c0.9,1.4,1.4,3.3,1.5,5c0.1,2.8-2.1,5.2-5,6c-3.4,1-5.9-0.2-8.6-4.1c-1.5,1.7-3,3.4-4.5,5.1c5.9,5.4,5.6,10.5-1.2,14.7
		c3.2,1.7,5.2,4.1,4.9,7.9c-0.3,3.7-2.6,5.8-5.8,6.7c1.4,1.1,3.4,2,4.3,3.5c0.9,1.6,1.3,3.8,1.1,5.6c-0.5,3.3-3.6,5.5-7.1,5.4
		c-3.2-0.1-6-2.4-6.6-5.4c-0.9-3.9,0.9-6.8,5.7-9c-3.6-1.2-6.1-3.4-6.2-7.3c-0.1-3.4,1.7-5.7,4.6-7.1c-1.7-1.9-3.4-3.7-5.1-5.5
		c-2.3,3.9-4.7,5.3-8.4,4.6c-2.8-0.5-5-2.9-5.6-5.9c-0.6-3.3,1.1-5.9,5.5-8.3c-3.3-1.3-5.6-3.3-5.8-6.9c-0.3-3.5,1.5-6,4.2-7.5
		c-1.7-2.2-3.4-4.4-5-6.3c-1.7,3.7-3.9,5.3-7.4,4.9c-2.9-0.4-5.2-2.6-5.6-5.4c-0.5-3.5,1-5.7,4.7-7.5c-2.1-1.8-4.3-3.8-5.5-4.8
		c-1.1,0.7-2.5,1.9-4.3,2.5c-1.7,0.6-3.7,0.9-5.4,0.5c-3.2-0.7-4.9-3.6-4.8-6.9c0.1-3.1,2.3-5.7,5.3-6.4c3.3-0.8,6.1,0.7,8.6,5
		c1.1-3.5,3.5-5.4,7.1-6.2c-4.5-1.9-6.4-4.5-5.7-8c0.6-3.1,3.4-5.4,6.5-5.4c3,0.1,5.6,2.3,6.2,5.1c0.8,3.6-1,6.4-5.1,8
		c1.9,1.3,3.9,2.7,6.1,4.1c1.2-1.1,2.6-2.4,4.2-3.9c-3.3-2.3-5.2-5.4-3.4-9.7c1.1-2.7,3.3-4.2,6.3-4.3c3.2-0.2,5.4,1.4,7.5,5.3
		c1.5-3.4,3.8-5.7,7.5-5.7c3.7,0,6.2,1.9,7.6,5.8c1.9-3.9,4.7-6.1,8.9-5.2c3.1,0.7,5,2.8,5.5,5.9c0.6,3.8-1.3,6.3-3.3,7.4
		c1.5,1.5,3.1,3.2,4.7,4.7c2.3-3,5.1-4.3,8.6-3.1c3,1,4.9,3.8,4.9,7c0,3.1-2,5.9-4.8,6.8C514.6,245.9,511.7,244.6,509,240.7z
		 M458.6,245.7c1.6,1.6,3.4,3.4,5,5c1.1-1.5,2.5-3.5,3.6-5.1c-1.2-1.2-2.3-2.4-3.3-3.5C462.1,243.2,460.1,244.6,458.6,245.7z
		 M473.6,275c0.4-0.5,0.7-1,1.1-1.4c1.7,1.8,3.3,3.6,5,5.4c-0.4,0.3-0.8,0.6-1.2,0.9c1.5-1.7,2.9-3.5,3.9-4.6
		c-1.4-1.3-2.9-2.7-4.2-4C477.1,272.1,475.4,273.6,473.6,275z M494,264.5c1.9-1.5,3.8-3.1,5.3-4.3c-1.5-1.1-3.5-2.6-5.3-3.9
		c-1.2,1.3-2.4,2.6-3.5,3.8C491.8,261.7,493.1,263.3,494,264.5z M494.1,233.4c1.5-1.2,2.9-2.3,4.1-3.3c-1.5-1.6-3-3.2-4.3-4.7
		c-1.2,1.5-2.3,3-3.4,4.4C491.6,231,492.8,232.2,494.1,233.4z M478.8,225.4c-1.3,1.5-2.7,3-4,4.5c1.3,1,2.6,2.1,3.9,3.2
		c1.2-1.1,2.4-2.2,3.5-3.3C481,228.3,479.8,226.8,478.8,225.4z M474.5,260.2c0.3-0.3,0.6-0.6,0.9-0.9c1.2,1.5,2.5,3,3.6,4.4
		c0.8-0.9,2-2.3,2.7-3c-1.1-1.4-2.2-2.7-3.2-3.9C477.3,257.8,475.9,259,474.5,260.2z M498.1,245.4c-1.4-1.1-2.7-2.2-4-3.3
		c-1.1,1.1-2.1,2.2-3.1,3.3c1.1,1.3,2.2,2.6,3.2,3.7C495.5,247.8,496.7,246.7,498.1,245.4z M481.7,245.4c-1.1-1.1-2.1-2.1-3-3.1
		c-1.2,1.1-2.2,2.1-3.1,2.9c1.1,1.2,2.1,2.3,3.2,3.4C479.6,247.6,480.6,246.6,481.7,245.4z"/>
	<path d="M242.5,219.5c5-6.5,11-6,15.3,1.2c1.8-3.3,4.3-5.3,8.2-4.6c2.9,0.5,4.7,2.3,5.4,5c1,3.9-0.8,6.8-4,8.5
		c1.8,1.6,3.4,3.2,5.1,4.7c3.3-3.8,6-4.9,9.5-3.6c3,1.1,4.8,3.6,4.8,6.8c0.1,3.8-1.6,6-6.4,8c4.3,1.5,6.5,4.2,5.7,8.7
		c-0.5,2.8-2.5,4.6-5.3,5.1c-4.1,0.7-6.7-1.3-7.9-4.4c-2.1,2-4.2,4-6.2,5.8c0.9,0.8,2.8,1.9,3.6,3.4c0.8,1.5,0.9,3.7,0.5,5.4
		c-0.6,2.8-3.8,4.6-6.7,4.4c-3-0.3-5.5-2.6-6.1-5.6c-0.6-3.2,1.3-5.9,5.4-7.7c-1.2-0.6-2.3-1.1-3.3-1.7c-0.9-0.7-1.7-1.6-2.2-2
		c-1.2,1.2-2.6,2.5-3.8,3.7c4.6,3.4,5.9,10.3-2.2,14.6c4.3,2.5,5.7,5.5,4.5,9.1c-0.9,3-3.9,5-7.1,4.8c-3-0.2-5.7-2.5-6.3-5.4
		c-0.8-3.6,0.8-6.4,4.9-8.4c-1.1-0.7-2.2-1.2-3.1-2c-0.9-0.8-1.6-1.9-2.3-2.7c-1.7,1.5-3.4,3-5.2,4.6c3.9,2,5.9,5.2,4.1,9.8
		c-1.1,2.9-4,4.4-7.2,4.1c-3-0.3-5.4-2.5-6.1-5.6c-0.7-3.3,0.8-6,5.1-8.5c-3.2-1.3-5.4-3.4-5.8-6.8c-0.4-3.5,1.4-6,4-7.8
		c-1.5-1.6-2.9-3.2-4.5-4.8c-2,3-4.6,4.9-8.6,3.8c-2.9-0.8-4.6-2.7-5.1-5.6c-0.6-3.9,1.2-6.5,4.3-8c-1.8-2-3.6-4-5.3-5.8
		c-0.9,0.9-1.9,2.8-3.4,3.6c-1.6,0.8-3.9,0.9-5.7,0.5c-2.9-0.6-4.7-3.9-4.4-6.9c0.3-2.9,2.4-5.3,5.4-6c3.4-0.8,5.9,0.8,7.9,4.5
		c2-2,4-4.1,6.1-6.1c-2.9-1.3-5.2-3.7-4.4-8c0.6-2.9,2.4-4.7,5.2-5.2c3.8-0.7,6.4,1.1,8.1,4.8c1.4-3.5,3.5-5.8,7.2-6.2
		C237.8,214.7,240.4,216.3,242.5,219.5z M277.6,245.4c-1.6-1.2-3.6-2.7-5.5-4.2c0.3,0.2,0.7,0.5,1,0.7c-1.5,1.2-3,2.5-4.3,3.6
		c1,1.3,2.4,3.1,3.6,4.5C274,248.6,275.9,246.9,277.6,245.4z M227.1,225.5c-1.5,1.4-3.3,3.1-4.8,4.4c1.7,1.2,3.5,2.6,5.3,4
		c1.1-1.1,2.2-2.3,3.3-3.4C229.5,228.7,228.2,227,227.1,225.5z M261.3,230.3c-1.4-1.3-3-2.6-4.5-4c0.3-0.2,0.6-0.4,1-0.7
		c-1.3,1.6-2.6,3.1-3.5,4.3c1.1,1.2,2.2,2.4,3.2,3.5C258.8,232.3,260.3,231.1,261.3,230.3z M230.9,245.1c-1.2-1.2-2.3-2.4-3.3-3.5
		c-1.6,1.4-3.2,2.7-4.6,3.9c1.4,1.3,2.9,2.7,4.2,3.9C228.4,248,229.6,246.6,230.9,245.1z M238.7,260.2c1.3,1.4,2.6,2.7,3.7,3.9
		c1.2-1.4,2.4-2.7,3.5-3.9c-1.2-1.1-2.5-2.3-3.6-3.4C241.1,258,239.9,259.1,238.7,260.2z M242.1,227.1c-0.8,0.8-1.9,2-3.1,3.2
		c1.2,1.1,2.3,2.2,3.1,3c1.3-1.2,2.5-2.2,3.4-3C244.5,229.2,243.3,228.2,242.1,227.1z M254.2,245c1.3,1.1,2.5,2.2,3.5,3.1
		c0.8-0.9,1.9-2,3-3.2c-0.9-0.9-2.2-2-3-2.8C256.4,243.2,255.2,244.2,254.2,245z M242.4,248c0.9-0.9,2-1.9,2.9-2.8c-1-1-2-2-2.8-2.7
		c-1,0.9-2.1,1.8-3.1,2.6C240.4,246,241.5,247,242.4,248z"/>
	<path d="M626.5,370.8c0,3.9-3.2,7.3-7.1,7.3c-3.9,0-7.2-3.3-7.2-7.2c0-4.1,2.9-7,7.1-7.4C622.9,363.2,626.5,367,626.5,370.8z"/>
	<path d="M611.3,370.9c0,3.8-3,6.8-6.8,6.8c-3.8,0-6.9-3.1-6.8-6.8c0-3.7,3.2-6.8,6.9-6.8C608.3,364,611.3,367.1,611.3,370.9z"/>
	<path d="M575.1,244.5c-3.8,0.1-6.9-3-7-6.7c0-3.7,3.1-6.9,6.9-6.9c3.6,0,6.7,3,6.8,6.7C582,241.3,578.9,244.5,575.1,244.5z"/>
	<path d="M486.3,319.8c3.9,0,6.8,2.9,6.7,6.8c-0.1,3.7-3,6.7-6.6,6.7c-3.7,0-6.9-3-6.9-6.8C479.5,322.8,482.5,319.8,486.3,319.8z"/>
	<path d="M471.4,303.7c-3.8-0.1-6.7-3.1-6.6-7c0.1-3.7,3.1-6.5,6.8-6.5c3.7,0,6.7,3,6.7,6.7C478.3,300.7,475.2,303.7,471.4,303.7z"
		/>
	<path d="M640.8,237.7c0,3.8-2.8,6.7-6.5,6.7c-3.8,0.1-6.9-3-6.9-6.7c0-3.6,3.1-6.7,6.7-6.7C637.8,231,640.8,234,640.8,237.7z"/>
	<path d="M634.1,364.2c3.7,0,6.7,3,6.7,6.7c0,3.7-3,6.7-6.7,6.7c-3.7,0-6.7-3-6.7-6.7C627.4,367.2,630.4,364.2,634.1,364.2z"/>
	<path d="M655.5,296.9c0,3.7-2.9,6.7-6.6,6.7c-3.6,0-6.7-3.1-6.6-6.7c0-3.5,3-6.5,6.5-6.6C652.4,290.2,655.4,293.2,655.5,296.9z"/>
	<path d="M589.6,362.6c-3.6-0.1-6.5-3-6.5-6.6c0-3.6,3.2-6.6,6.9-6.5c3.6,0.1,6.5,3.2,6.3,6.7C596.2,359.9,593.3,362.6,589.6,362.6z
		"/>
	<path d="M560.3,259c-3.7,0-6.5-2.7-6.5-6.4c0-3.6,2.8-6.6,6.4-6.6c3.5,0,6.6,2.9,6.6,6.4C566.8,256,563.9,259,560.3,259z"/>
	<path d="M507.6,282.1c0,3.7-2.7,6.5-6.3,6.6c-3.7,0.1-6.8-2.9-6.7-6.5c0-3.5,3-6.4,6.6-6.4C504.7,275.6,507.5,278.4,507.6,282.1z"
		/>
	<path d="M294.2,244.3c-3.6,0-6.4-2.9-6.4-6.5c0-3.7,2.7-6.5,6.5-6.5c3.6,0,6.5,2.9,6.5,6.5C300.7,241.3,297.7,244.3,294.2,244.3z"
		/>
	<path d="M323.8,334.9c3.6,0,6.6,3,6.5,6.5c-0.1,3.4-3,6.3-6.4,6.4c-3.6,0.1-6.5-2.8-6.5-6.5C317.3,337.6,320.1,334.9,323.8,334.9z"
		/>
	<path d="M634.1,259c-3.7,0-6.4-2.8-6.4-6.5c0-3.6,2.8-6.4,6.3-6.4c3.5-0.1,6.6,2.9,6.6,6.4C640.7,256.1,637.7,259,634.1,259z"/>
	<path d="M235.1,303.4c-3.6,0-6.6-2.9-6.6-6.4c0-3.6,3-6.5,6.5-6.5c3.5,0,6.3,2.8,6.4,6.3C241.6,300.4,238.8,303.3,235.1,303.4z"/>
	<path d="M368.1,362.5c-3.5,0-6.3-2.8-6.4-6.3c-0.1-3.5,2.9-6.7,6.4-6.7c3.4,0,6.5,3.2,6.5,6.6C374.4,359.7,371.6,362.5,368.1,362.5
		z"/>
	<path d="M524.3,237.7c0-3.6,3-6.4,6.6-6.3c3.5,0.1,6.3,3,6.2,6.5c0,3.4-2.9,6.3-6.3,6.4C527.2,244.3,524.2,241.3,524.3,237.7z"/>
	<path d="M477.9,311.7c0,3.6-2.8,6.5-6.4,6.5c-3.5-0.1-6.2-2.9-6.2-6.4c0-3.7,2.8-6.5,6.4-6.4C475.2,305.4,477.9,308.1,477.9,311.7z
		"/>
	<path d="M553.9,237.9c-0.1-3.5,2.7-6.4,6.2-6.5c3.5-0.1,6.4,2.7,6.4,6.2c0.1,3.5-2.7,6.4-6.2,6.5
		C556.9,244.2,554,241.4,553.9,237.9z"/>
	<path d="M412.5,349.7c3.4,0.1,6.3,3.1,6.3,6.5c-0.1,3.4-3,6.3-6.4,6.3c-3.4-0.1-6.3-3.1-6.3-6.4
		C406.1,352.6,409.2,349.7,412.5,349.7z"/>
	<path d="M522.1,252.4c0.1,3.6-2.6,6.4-6.1,6.5c-3.5,0.1-6.3-2.6-6.4-6.2c-0.1-3.6,2.6-6.4,6.1-6.4
		C519.3,246.2,522.1,248.9,522.1,252.4z"/>
	<path d="M412.4,347.5c-3.5,0-6.4-2.8-6.3-6.3c0.1-3.4,3-6.3,6.5-6.2c3.3,0.1,6.1,2.9,6.2,6.2C418.8,344.7,415.9,347.5,412.4,347.5z
		"/>
	<path d="M279.3,229.2c-3.4,0-6.1-2.8-6.1-6.2c0-3.5,2.8-6.3,6.4-6.2c3.4,0.1,6.1,2.9,6,6.3C285.5,226.5,282.7,229.2,279.3,229.2z"
		/>
	<path d="M329.9,267.4c0,3.5-2.8,6.1-6.2,6.1c-3.4,0-6.2-2.8-6.1-6.2c0.1-3.4,2.9-6.2,6.3-6.1C327.2,261.2,329.9,264,329.9,267.4z"
		/>
	<path d="M515.9,216.8c3.4,0,6.1,2.7,6.2,6.1c0,3.4-2.7,6.2-6.1,6.2c-3.3,0-6.2-2.8-6.2-6.1C509.7,219.7,512.5,216.8,515.9,216.8z"
		/>
	<path d="M329.9,282.3c-0.1,3.4-2.9,6.2-6.2,6.1c-3.4,0-6.1-2.9-6.2-6.2c0-3.5,2.9-6.3,6.4-6.2C327.4,276.1,329.9,278.8,329.9,282.3
		z"/>
	<path d="M403.8,282c0.1,3.4-2.6,6.2-6,6.4c-3.4,0.1-6.4-2.7-6.4-6.2c0-3.4,2.7-6.1,6.1-6.2C401,275.9,403.8,278.6,403.8,282z"/>
	<path d="M249.9,290.8c3.4,0,6.1,2.7,6.1,6.2c0,3.5-2.7,6.2-6.1,6.2c-3.3,0-6.2-2.9-6.2-6.2C243.7,293.6,246.5,290.8,249.9,290.8z"
		/>
	<path d="M492.4,341.3c0,3.5-2.6,6.1-6.1,6.1c-3.4,0-6.2-2.7-6.2-6.1c0-3.4,2.8-6.2,6.2-6.2C489.7,335.1,492.4,337.9,492.4,341.3z"
		/>
	<path d="M226.3,267.4c0,3.5-2.7,6.1-6.1,6.1c-3.4,0-6.1-2.8-6-6.3c0.1-3.3,2.7-6,6-6C223.6,261.1,226.4,263.9,226.3,267.4z"/>
	<path d="M545.4,243.8c-3.5,0-6.1-2.7-6.1-6.2c0-3.3,2.7-6,6-6c3.4-0.1,6.2,2.7,6.3,6.1C551.6,241.1,548.9,243.9,545.4,243.8z"/>
	<path d="M581,297c0,3.4-2.8,6.1-6.2,6.1c-3.3-0.1-5.9-2.7-5.9-6.1c0-3.5,2.6-6.2,6-6.2C578.4,290.8,581,293.5,581,297z"/>
	<path d="M507.1,297c0,3.3-2.6,6-5.9,6.1c-3.3,0.1-6.2-2.8-6.1-6.1c0-3.4,2.9-6.2,6.2-6.1C504.5,290.9,507.1,293.6,507.1,297z"/>
	<path d="M471.5,332.5c-3.3,0-6-2.7-6-6c0-3.2,2.7-6,6-6.1c3.3-0.1,6.2,2.8,6.2,6.1C477.5,329.9,474.8,332.5,471.5,332.5z"/>
	<path d="M323.6,258.5c-3.3-0.1-6-2.8-6-6c0-3.2,2.8-6,6.1-6c3.4,0,6.2,2.9,6.1,6.2C329.7,256,326.9,258.6,323.6,258.5z"/>
	<path d="M344.5,237.9c0,3.3-2.7,5.9-6,5.9c-3.3,0-5.9-2.6-5.9-6c0-3.5,2.6-6.1,6.1-6C342.1,231.9,344.5,234.5,344.5,237.9z"/>
	<path d="M642.9,311.7c0-3.4,2.7-5.9,6-5.9c3.4,0,5.9,2.6,5.9,6c0,3.3-2.7,6-6,5.9C645.5,317.7,642.9,315,642.9,311.7z"/>
	<path d="M235.2,305.8c3.4,0,5.9,2.7,5.8,6.1c-0.1,3.2-2.7,5.8-5.9,5.8c-3.3,0-6-2.8-6-6C229.1,308.4,231.8,305.8,235.2,305.8z"/>
	<path d="M294.3,258.4c-3.4,0-6-2.5-6-5.9c0-3.3,2.7-6,6-6c3.1,0,5.8,2.7,5.9,5.8C300.2,255.7,297.6,258.4,294.3,258.4z"/>
	<path d="M442,228.9c-3.3,0-5.8-2.5-5.9-5.7c-0.1-3.4,2.5-6.1,5.9-6.1c3.2,0,6.1,2.9,6,6.1C447.9,226.3,445.2,228.9,442,228.9z"/>
	<path d="M391.7,370.9c0-3.3,2.5-5.9,5.7-6c3.3-0.1,6.1,2.6,6.1,5.9c0,3.3-2.8,6-6.1,6C394.3,376.8,391.8,374.2,391.7,370.9z"/>
	<path d="M530.6,258.4c-3.2,0-5.8-2.6-5.8-5.8c0-3.2,2.6-5.8,5.8-5.9c3.3,0,6,2.8,5.9,6C536.4,255.9,533.8,258.4,530.6,258.4z"/>
	<path d="M634,362c-3.3-0.1-5.8-2.8-5.7-6.1c0.1-3.2,2.8-5.7,6-5.7c3.2,0.1,5.8,2.7,5.8,5.9C640,359.4,637.3,362,634,362z"/>
	<path d="M634.2,332.4c-3.4,0-5.9-2.5-5.9-5.9c0-3.2,2.5-5.8,5.7-5.9c3.2-0.1,6,2.7,6,6C640,329.8,637.5,332.3,634.2,332.4z"/>
	<path d="M388.7,237.7c0,3.2-2.6,5.9-5.8,5.9c-3.2,0-5.9-2.6-5.9-5.8c0-3.2,2.6-5.8,5.8-5.9C386,231.9,388.6,234.5,388.7,237.7z"/>
	<path d="M205.4,217.2c3.3,0,5.8,2.4,5.9,5.6c0.1,3.3-2.3,5.9-5.6,6c-3.4,0.1-6-2.3-6-5.8C199.7,219.7,202.1,217.2,205.4,217.2z"/>
	<path d="M580.8,311.8c-0.1,3.2-2.8,5.8-6,5.7c-3.1-0.1-5.6-2.7-5.6-5.8c0-3.2,2.7-5.8,5.9-5.8C578.2,305.9,580.9,308.7,580.8,311.8
		z"/>
	<path d="M397.7,261.6c3.3,0,5.7,2.5,5.7,5.8c0,3.3-2.5,5.8-5.8,5.8c-3.3,0-5.7-2.5-5.7-5.8C391.9,264,394.4,261.6,397.7,261.6z"/>
	<path d="M359,356.2c-0.1,3.2-2.7,5.8-5.9,5.7c-3.2-0.1-5.7-2.8-5.5-6.1c0.1-3.1,2.7-5.6,5.8-5.6C356.6,350.3,359.1,353,359,356.2z"
		/>
	<path d="M619.6,217.3c3.2,0.1,5.7,2.8,5.5,6.1c-0.2,3.2-2.9,5.6-6.2,5.4c-3.1-0.2-5.4-2.7-5.3-5.9
		C613.7,219.5,616.2,217.1,619.6,217.3z"/>
	<path d="M539.7,252.7c-0.1-3.3,2.4-5.8,5.7-5.9c3.2,0,5.7,2.4,5.8,5.5c0.1,3.3-2.4,5.9-5.6,6C542.4,258.4,539.8,255.9,539.7,252.7z
		"/>
	<path d="M412.3,332.3c-3.2-0.1-5.8-2.8-5.7-6c0.1-3.2,2.8-5.7,6.1-5.6c3.1,0.1,5.6,2.7,5.5,5.8
		C418.2,329.8,415.5,332.4,412.3,332.3z"/>
	<path d="M456.9,273c-3.2,0.1-5.9-2.5-5.9-5.7c0-3.2,2.6-5.8,5.8-5.8c3.1,0,5.6,2.5,5.8,5.6C462.7,270.3,460.1,273,456.9,273z"/>
	<path d="M648.9,365.2c3.1,0,5.7,2.5,5.7,5.6c0.1,3.2-2.6,5.8-5.8,5.8c-3.1-0.1-5.6-2.6-5.6-5.7
		C643.2,367.7,645.7,365.2,648.9,365.2z"/>
	<path d="M649,287.9c-3,0.1-5.7-2.5-5.8-5.5c-0.1-3,2.4-5.7,5.4-5.9c3.1-0.2,5.9,2.5,6,5.6C654.7,285.1,652,287.8,649,287.9z"/>
	<path d="M610.1,222.9c0.1,3.2-2.3,5.7-5.5,5.8c-3.1,0.1-5.7-2.5-5.8-5.5c-0.1-3,2.5-5.7,5.6-5.8
		C607.6,217.3,610.1,219.7,610.1,222.9z"/>
	<path d="M501.1,317.3c-3.2,0-5.6-2.4-5.6-5.6c0-3.2,2.5-5.6,5.6-5.6c3,0,5.5,2.5,5.5,5.5C506.8,314.7,504.3,317.2,501.1,317.3z"/>
	<path d="M205.5,247c3,0,5.5,2.5,5.5,5.4c0.1,3.1-2.5,5.7-5.6,5.7c-3,0-5.5-2.5-5.5-5.5C199.8,249.6,202.4,247,205.5,247z"/>
	<path d="M639.7,222.9c0,3.1-2.6,5.7-5.6,5.6c-2.9,0-5.5-2.6-5.5-5.5c0-3,2.6-5.7,5.7-5.6C637.2,217.4,639.6,219.9,639.7,222.9z"/>
	<path d="M249.9,317.2c-3.1,0-5.7-2.4-5.6-5.6c0-3,2.4-5.4,5.5-5.4c3.2,0,5.6,2.4,5.6,5.5C255.4,314.8,253,317.2,249.9,317.2z"/>
	<path d="M397.3,258c-3-0.2-5.4-2.8-5.2-5.8c0.2-3,2.8-5.3,5.8-5.2c3,0.1,5.4,2.7,5.3,5.7C403.1,255.9,400.4,258.2,397.3,258z"/>
	<path d="M649,243.3c-3.2,0.1-5.6-2.3-5.6-5.5c0-3.1,2.3-5.4,5.4-5.5c3.2-0.1,5.6,2.3,5.6,5.5C654.4,240.9,652.1,243.2,649,243.3z"
		/>
	<path d="M338.6,361.5c-3.1,0-5.5-2.3-5.5-5.4c0-3.1,2.3-5.5,5.4-5.5c3.1,0,5.4,2.3,5.5,5.4C344,359.2,341.7,361.5,338.6,361.5z"/>
	<path d="M554.8,267.4c0-3.1,2.3-5.5,5.4-5.5c3,0,5.5,2.4,5.5,5.4c0,3-2.5,5.5-5.4,5.5C557.2,272.9,554.8,270.5,554.8,267.4z"/>
	<path d="M536.1,222.8c0.1,3-2.3,5.5-5.3,5.7c-3.1,0.1-5.6-2.4-5.6-5.5c0-3,2.4-5.5,5.4-5.5C533.6,217.4,536.1,219.8,536.1,222.8z"
		/>
	<path d="M314.4,252.5c0,3.1-2.2,5.5-5.4,5.5c-3.1,0-5.5-2.3-5.5-5.4c0-3,2.4-5.5,5.4-5.5C311.9,247,314.3,249.4,314.4,252.5z"/>
	<path d="M575.1,331.9c-3.1,0-5.5-2.3-5.5-5.4c0-3,2.5-5.5,5.5-5.5c2.9,0,5.3,2.4,5.3,5.3C580.4,329.5,578.2,331.9,575.1,331.9z"/>
	<path d="M432.6,237.9c0,3.1-2.5,5.4-5.5,5.3c-2.9-0.1-5.3-2.5-5.3-5.4c0-3,2.4-5.4,5.5-5.4C430.4,232.4,432.6,234.7,432.6,237.9z"
		/>
	<path d="M407,370.8c0.1-3,2.6-5.5,5.5-5.4c2.9,0.1,5.2,2.6,5.2,5.4c0,3-2.4,5.5-5.4,5.4C409.4,376.3,407,373.8,407,370.8z"/>
	<path d="M314.3,237.9c-0.1,2.9-2.4,5.3-5.3,5.3c-2.9,0-5.5-2.6-5.4-5.5c0.1-3,2.6-5.3,5.7-5.2C312.2,232.5,314.3,234.9,314.3,237.9
		z"/>
	<path d="M471.7,336c3,0.1,5.2,2.4,5.2,5.3c0,3-2.5,5.5-5.5,5.4c-2.8-0.1-5.3-2.6-5.3-5.4C466.1,338.4,468.6,335.9,471.7,336z"/>
	<path d="M240.4,326.5c0,3-2.2,5.3-5.2,5.3c-3,0.1-5.5-2.3-5.6-5.3c0-2.9,2.6-5.5,5.5-5.4C238.1,321.2,240.4,323.5,240.4,326.5z"/>
	<path d="M589.9,376.2c-3.1,0.1-5.5-2.4-5.5-5.4c0-2.9,2.4-5.3,5.3-5.4c3-0.1,5.5,2.4,5.5,5.4C595.1,373.9,592.8,376.2,589.9,376.2z
		"/>
	<path d="M595,223c0,3-2.3,5.2-5.3,5.2c-3,0-5.2-2.3-5.2-5.3c0-3,2.3-5.2,5.3-5.2C592.8,217.7,595,220,595,223z"/>
	<path d="M521.1,267.3c0,3-2.3,5.3-5.3,5.2c-2.9,0-5.1-2.2-5.1-5.1c-0.1-3,2.2-5.3,5.2-5.4C518.8,262.1,521.1,264.3,521.1,267.3z"/>
	<path d="M634,346.5c-2.9,0-5.1-2.3-5.1-5.1c0-3,2.3-5.3,5.3-5.3c3,0,5.2,2.4,5.1,5.4C639.2,344.4,636.9,346.5,634,346.5z"/>
	<path d="M614.2,385.7c0-2.9,2.1-5.2,5-5.3c2.8-0.1,5.4,2.4,5.3,5.3c0,2.8-2.3,5.1-5.2,5.1C616.4,390.8,614.3,388.7,614.2,385.7z"/>
	<path d="M639.2,385.7c0,2.9-2.2,5.1-5.1,5.1c-2.9,0-5.2-2.2-5.2-5c-0.1-2.9,2.4-5.4,5.3-5.3C637,380.5,639.2,382.8,639.2,385.7z"/>
	<path d="M225.4,282c0.1,2.8-2.2,5.2-5,5.3c-2.8,0.1-5.4-2.4-5.4-5.2c0-2.8,2.4-5.1,5.2-5.1C223.1,277,225.4,279.2,225.4,282z"/>
	<path d="M441.9,247.4c2.9,0,5.1,2,5.2,4.9c0.1,3-2.1,5.4-5.1,5.4c-2.9,0-5.3-2.3-5.3-5.3C436.8,249.7,439,247.5,441.9,247.4z"/>
	<path d="M328.9,237.7c0,2.9-2.1,5.1-5,5.2c-2.9,0.1-5.2-2.1-5.3-4.9c-0.1-2.9,2.3-5.4,5.2-5.4C326.6,232.6,328.8,234.8,328.9,237.7
		z"/>
	<path d="M382.8,376c-2.8,0-5.1-2.3-5.1-5.1c0-2.9,2.2-5.1,5.1-5.1c3,0,5.3,2.4,5.2,5.3C388,373.8,385.6,376.1,382.8,376z"/>
	<path d="M496,326.5c0-2.9,2.1-5.1,5.1-5.1c2.9,0,5.2,2.3,5.2,5.1c0,2.7-2.4,5.2-5.1,5.2C498.3,331.7,496,329.4,496,326.5z"/>
	<path d="M639.2,267.3c0,2.9-2.3,5.1-5.1,5.1c-2.7,0-5-2.2-5.1-4.9c-0.1-2.7,2.3-5.2,5-5.3C636.8,262.1,639.2,264.5,639.2,267.3z"/>
	<path d="M269.8,282.1c0,2.8-2.3,5.2-5.1,5.2c-2.8,0.1-5.1-2.2-5.2-5.1c0-2.9,2.1-5.1,5-5.2C267.4,277,269.7,279.2,269.8,282.1z"/>
	<path d="M299.2,223c0,2.9-2.3,5.1-5.1,5.1c-2.8,0-5.2-2.4-5.2-5.2c0-2.8,2.4-5.1,5.2-5.1C297.1,217.9,299.3,220.1,299.2,223z"/>
	<path d="M284.5,267.4c-0.1,2.8-2.4,5-5.2,4.9c-2.8-0.1-5-2.5-4.9-5.3c0.1-2.7,2.5-4.9,5.1-4.9C282.2,262.2,284.5,264.7,284.5,267.4
		z"/>
	<path d="M417.4,311.8c0,2.9-2.3,5-5.2,4.9c-2.8-0.1-4.9-2.3-5-5c0-2.7,2.5-5.2,5.2-5.2C415.3,306.6,417.5,308.9,417.4,311.8z"/>
	<path d="M491.3,356.3c-0.1,2.9-2.4,5-5.3,4.9c-2.7-0.2-4.9-2.5-4.9-5.1c0-2.8,2.4-5,5.3-5C489.3,351.1,491.4,353.4,491.3,356.3z"/>
	<path d="M195.7,237.8c0,2.8-2.1,4.9-4.9,5c-2.9,0.1-5.1-2.1-5.1-5c0-2.8,2.1-4.9,4.9-5C193.4,232.7,195.7,234.9,195.7,237.8z"/>
	<path d="M580,341.3c0,2.7-2.2,4.9-4.9,5c-2.8,0.1-5.1-2.2-5.1-5.1c0-2.8,2.1-5,4.9-5C577.7,336.2,580,338.5,580,341.3z"/>
	<path d="M328.7,356.1c0,2.7-2.2,4.9-5,4.9c-2.8,0-5-2.1-5-4.9c0-2.8,2.2-4.9,5-4.9C326.5,351.2,328.7,353.4,328.7,356.1z"/>
	<path d="M575,218.1c2.8,0,4.9,2.3,4.8,5.1c-0.1,2.7-2.2,4.7-4.9,4.7c-2.8,0-5-2.3-4.9-5C570.2,220.2,572.4,218.1,575,218.1z"/>
	<path d="M249.8,321.6c2.7,0,5,2.2,5,4.9c0,2.6-2.1,4.8-4.7,4.9c-2.9,0.1-5-1.9-5.1-4.7C244.9,323.9,247,321.6,249.8,321.6z"/>
	<path d="M649,247.7c2.6,0,4.8,2.3,4.8,4.9c0,2.7-2.2,4.9-5,4.8c-2.6-0.1-4.7-2.3-4.6-4.9C644.1,249.8,646.4,247.6,649,247.7z"/>
	<path d="M309,331.3c-2.7,0-4.9-2-5-4.6c-0.1-2.6,2.3-5.1,4.9-5c2.6,0,4.7,2.2,4.7,4.8C313.7,329.2,311.8,331.2,309,331.3z"/>
	<path d="M432,223.1c-0.1,2.7-2.1,4.7-4.8,4.6c-2.6,0-4.8-2.2-4.8-4.8c0-2.6,2.4-4.9,5.1-4.8C430.1,218.3,432,220.4,432,223.1z"/>
	<path d="M648.9,227.7c-2.7,0-4.8-2.1-4.8-4.7c0-2.6,2.1-4.8,4.8-4.8c2.7,0,4.8,2.1,4.8,4.7C653.7,225.6,651.6,227.7,648.9,227.7z"
		/>
	<path d="M456.8,286.9c-2.6,0-4.8-2.2-4.8-4.8c0-2.5,2.3-4.8,4.8-4.8c2.5,0,4.6,2.2,4.7,4.6C461.6,284.6,459.4,286.9,456.8,286.9z"
		/>
	<path d="M358,222.9c0.1,2.7-1.9,4.8-4.7,4.8c-2.7,0-4.8-2-4.8-4.7c0-2.6,1.9-4.6,4.5-4.7C355.9,218.2,357.9,220.2,358,222.9z"/>
	<path d="M308.8,336.6c2.7-0.1,4.8,2.1,4.8,4.7c0,2.6-2,4.6-4.6,4.7c-2.7,0.1-4.8-2-4.8-4.7C304.3,338.7,306.3,336.7,308.8,336.6z"
		/>
	<path d="M663.7,292.3c2.6,0,4.6,1.9,4.6,4.5c0.1,2.7-2,4.8-4.7,4.8c-2.7,0-4.7-2.1-4.6-4.8C659.1,294.2,661.1,292.3,663.7,292.3z"
		/>
	<path d="M402.3,237.9c-0.1,2.6-2.1,4.6-4.6,4.6c-2.6,0-4.7-2.2-4.7-4.8c0.1-2.5,2.1-4.6,4.6-4.6
		C400.2,233.1,402.3,235.2,402.3,237.9z"/>
	<path d="M653.6,385.8c-0.1,2.5-2.2,4.5-4.7,4.5c-2.5,0-4.6-2.1-4.6-4.6c0-2.6,2.3-4.8,4.9-4.7C651.6,381.1,653.6,383.3,653.6,385.8
		z"/>
	<path d="M368,218.3c2.7-0.1,4.8,2,4.8,4.6c0,2.5-2,4.6-4.6,4.6c-2.7,0.1-4.8-2-4.8-4.7C363.4,220.4,365.4,218.4,368,218.3z"/>
	<path d="M313.7,267.4c0,2.6-2.1,4.6-4.7,4.6c-2.6,0-4.6-1.9-4.7-4.5c0-2.7,2-4.8,4.7-4.8C311.6,262.7,313.7,264.9,313.7,267.4z"/>
	<path d="M550,222.9c0,2.5-2.1,4.6-4.6,4.6c-2.5,0-4.4-1.9-4.5-4.4c-0.1-2.6,1.8-4.7,4.4-4.7C547.9,218.4,550,220.4,550,222.9z"/>
	<path d="M564.7,222.9c0,2.5-1.9,4.5-4.3,4.6c-2.5,0.1-4.7-2-4.7-4.5c0-2.5,2.2-4.6,4.7-4.6C562.8,218.5,564.7,220.4,564.7,222.9z"
		/>
	<path d="M235,336.7c2.5-0.1,4.7,2.1,4.7,4.6c0,2.4-2,4.4-4.5,4.5c-2.5,0.1-4.5-1.8-4.6-4.3C230.4,339,232.5,336.8,235,336.7z"/>
	<path d="M220.1,292.4c2.5-0.1,4.5,1.8,4.6,4.3c0.1,2.6-1.8,4.8-4.3,4.8c-2.5,0.1-4.7-2-4.7-4.6
		C215.7,294.5,217.7,292.5,220.1,292.4z"/>
	<path d="M308.9,316.2c-2.5,0-4.4-1.9-4.4-4.4c0-2.5,1.9-4.5,4.4-4.5c2.5,0,4.7,2.1,4.6,4.6C313.4,314.3,311.4,316.2,308.9,316.2z"
		/>
	<path d="M416.9,237.7c0,2.6-1.8,4.4-4.3,4.5c-2.5,0-4.5-1.8-4.6-4.3c-0.1-2.6,2-4.7,4.5-4.7C414.9,233.3,416.8,235.2,416.9,237.7z"
		/>
	<path d="M609,385.7c0,2.5-1.9,4.4-4.4,4.4c-2.5,0-4.4-1.8-4.5-4.3c-0.1-2.6,2-4.7,4.5-4.6C607.1,381.2,609,383.2,609,385.7z"/>
	<path d="M501.1,345.8c-2.4,0-4.4-2.1-4.4-4.5c0-2.4,2.1-4.4,4.6-4.4c2.4,0.1,4.2,2,4.2,4.4C505.5,343.7,503.5,345.8,501.1,345.8z"
		/>
	<path d="M653.3,356.3c-0.1,2.5-2,4.3-4.6,4.2c-2.5-0.1-4.3-2-4.2-4.6c0.1-2.5,2.1-4.3,4.6-4.2C651.6,351.8,653.4,353.7,653.3,356.3
		z"/>
	<path d="M412.4,301.3c-2.3,0-4.3-1.9-4.3-4.2c-0.1-2.5,1.8-4.5,4.3-4.6c2.4,0,4.4,2.1,4.4,4.5C416.7,299.4,414.7,301.3,412.4,301.3
		z"/>
	<path d="M560.3,277.8c2.3,0,4.3,2,4.3,4.3c0,2.5-2.1,4.4-4.6,4.3c-2.4-0.1-4.1-2-4.1-4.4C556,279.6,557.9,277.8,560.3,277.8z"/>
	<path d="M579.2,356.1c0,2.4-1.8,4.3-4.2,4.3c-2.3,0-4.3-1.9-4.3-4.2c0-2.3,2-4.3,4.3-4.3C577.3,351.8,579.2,353.7,579.2,356.1z"/>
	<path d="M422.9,252.5c0.1-2.3,2.1-4.2,4.4-4.2c2.4,0,4.3,2,4.2,4.6c-0.1,2.4-2,4.1-4.4,4C424.7,256.7,422.8,254.8,422.9,252.5z"/>
	<path d="M653.2,326.6c-0.1,2.4-1.9,4.2-4.4,4.1c-2.4,0-4.2-1.9-4.2-4.2c0-2.4,2.1-4.5,4.5-4.3C651.4,322.3,653.2,324.3,653.2,326.6
		z"/>
	<path d="M412.3,248.3c2.3-0.1,4.3,1.9,4.4,4.2c0.1,2.4-1.8,4.3-4.2,4.3c-2.4,0.1-4.3-1.7-4.4-4.1
		C408.1,250.3,410,248.3,412.3,248.3z"/>
	<path d="M471.5,351.8c2.4,0,4.2,1.8,4.3,4.2c0,2.4-1.7,4.3-4.1,4.4c-2.5,0.1-4.5-1.9-4.4-4.3C467.3,353.7,469.2,351.8,471.5,351.8z
		"/>
	<path d="M298.4,267.3c0,2.2-1.8,4.1-4,4.2c-2.4,0.1-4.4-1.8-4.4-4.1c0-2.3,1.7-4.1,4-4.2C296.4,263.1,298.4,264.9,298.4,267.3z"/>
	<path d="M667.8,311.8c0,2.3-1.9,4.1-4.1,4.1c-2.3,0-4.2-1.9-4.2-4.3c0-2.3,1.9-4.1,4.1-4.1C666,307.5,667.9,309.4,667.8,311.8z"/>
	<path d="M486.3,204c2.2,0,4.2,1.9,4.2,4.1c0.1,2.2-1.8,4.2-4,4.3c-2.3,0.1-4.4-1.9-4.4-4.2C482.2,206,484.1,204,486.3,204z"/>
	<path d="M460.9,296.9c0.1,2.2-1.8,4.1-4,4.2c-2.3,0.1-4.2-1.6-4.3-3.9c-0.1-2.3,1.7-4.3,4.1-4.3C459,292.8,460.9,294.6,460.9,296.9
		z"/>
	<path d="M667.8,370.8c0.1,2.3-1.6,4.1-3.9,4.2c-2.3,0.1-4.1-1.6-4.3-3.9c-0.1-2.4,1.6-4.3,4-4.3C666,366.8,667.7,368.5,667.8,370.8
		z"/>
	<path d="M313.1,297c0,2.2-1.8,4-4.1,4.1c-2.4,0-4.2-1.8-4.1-4.3c0.1-2.3,1.9-4,4.2-3.9C311.3,292.9,313.1,294.7,313.1,297z"/>
	<path d="M545.5,271.4c-2.3,0-4.1-1.7-4.1-4c0-2.3,1.7-4.1,3.9-4.2c2.4-0.1,4.3,1.8,4.3,4.2C549.5,269.7,547.7,271.4,545.5,271.4z"
		/>
	<path d="M431.3,356.2c0,2.2-2,4.1-4.2,4.1c-2.2,0-4-1.9-4-4.2c0-2.3,1.8-4.1,4.1-4.1C429.5,352,431.4,354,431.3,356.2z"/>
	<path d="M475.6,208.1c0.1,2.2-1.7,4.2-3.9,4.2c-2.2,0.1-4.1-1.7-4.2-4c-0.1-2.3,1.6-4.1,3.9-4.2C473.6,204,475.5,205.8,475.6,208.1
		z"/>
	<path d="M249.9,337.2c2.3,0,4,1.8,4,4.1c0,2.3-1.7,4.1-4,4.1c-2.4,0-4.3-1.9-4.2-4.2C245.8,338.9,247.6,337.1,249.9,337.2z"/>
	<path d="M309.1,278c2.2,0.1,4.1,2.1,4,4.2c-0.1,2.2-2.1,4.1-4.2,4c-2.2-0.1-4-2-3.9-4.3C305,279.7,306.8,277.9,309.1,278z"/>
	<path d="M220.3,307.6c2.2,0,4.1,2,4,4.2c0,2.2-1.9,4-4.2,3.9c-2.2-0.1-3.9-1.8-3.9-4C216.2,309.5,218.1,307.6,220.3,307.6z"/>
	<path d="M190.4,227c-2.3-0.2-3.9-2.1-3.7-4.5c0.2-2.2,2.1-3.7,4.3-3.6c2.1,0.2,3.9,2.1,3.8,4.2C194.7,225.4,192.7,227.2,190.4,227z
		"/>
	<path d="M372,371c-0.1,2.2-1.8,3.9-3.9,3.9c-2.2,0-4.1-1.9-4.1-4.1c0.1-2.1,1.9-3.9,4-3.9C370.3,366.9,372.1,368.7,372,371z"/>
	<path d="M490.3,370.9c0,2.2-1.7,3.9-3.8,4c-2.2,0.1-4.1-1.8-4.1-4c0-2.2,1.9-4.1,4.2-4C488.6,367,490.3,368.7,490.3,370.9z"/>
	<path d="M534.6,267.4c0,2.2-1.7,3.9-3.9,3.9c-2.3,0-4-1.8-3.9-4.2c0.1-2.2,1.9-3.9,4.1-3.8C532.9,263.4,534.6,265.2,534.6,267.4z"
		/>
	<path d="M427.3,337.3c2.1,0,3.9,2,3.9,4c0,2.1-1.9,3.9-4,3.9c-2.1,0-3.9-1.8-3.9-4C423.3,339.1,425.2,337.3,427.3,337.3z"/>
	<path d="M264.7,293c2.1,0,3.9,1.8,3.9,4c0,2.2-1.7,3.9-3.8,4c-2.2,0-4-1.8-4-4.1C260.8,294.6,262.5,292.9,264.7,293z"/>
	<path d="M342.4,222.9c0.1,2.2-1.6,4-3.7,4.1c-2.1,0.1-3.9-1.7-4-3.8c-0.1-2.2,1.6-4,3.7-4.1C340.5,218.9,342.3,220.7,342.4,222.9z"
		/>
	<path d="M667.6,237.8c0,2.1-1.9,3.9-4.1,3.8c-2-0.1-3.8-1.8-3.7-3.9c0-2.1,1.9-3.9,4.1-3.8C665.9,234,667.6,235.8,667.6,237.8z"/>
	<path d="M456.5,315.6c-2.2-0.1-3.8-2-3.6-4.2c0.2-2.1,1.9-3.5,4-3.4c2.2,0.1,3.8,1.9,3.6,4.2C460.4,314.1,458.6,315.7,456.5,315.6z
		"/>
	<path d="M412.6,285.9c-2.1,0.1-3.8-1.5-3.9-3.6c-0.1-2.2,1.6-4,3.8-4c2.1,0,3.8,1.7,3.8,3.7C416.3,284.2,414.6,285.9,412.6,285.9z"
		/>
	<path d="M312.7,222.9c0,2.1-1.6,3.9-3.6,3.9c-2.1,0.1-4-1.8-4-3.9c0-2,1.8-3.8,3.8-3.8C311,219.1,312.7,220.8,312.7,222.9z"/>
	<path d="M667.4,282.1c0,2.1-1.5,3.7-3.7,3.8c-2.2,0-4-1.8-3.9-3.9c0.1-2,1.9-3.7,3.9-3.7C665.8,278.4,667.4,280,667.4,282.1z"/>
	<path d="M238.8,208.1c0.1,2.2-1.4,3.8-3.6,3.9c-2.2,0.1-4-1.6-4-3.8c0-2,1.7-3.8,3.8-3.8C237.1,204.3,238.8,205.9,238.8,208.1z"/>
	<path d="M308.8,352.3c2.1-0.1,3.8,1.5,3.8,3.6c0.1,2.1-1.4,3.8-3.5,3.9c-2.2,0.1-4-1.6-4-3.7C305.1,354.1,306.8,352.4,308.8,352.3z
		"/>
	<path d="M253.6,208.3c-0.1,2-1.8,3.7-3.9,3.6c-2.1,0-3.6-1.7-3.6-3.8c0-2.1,1.7-3.7,3.8-3.7C252,204.5,253.7,206.3,253.6,208.3z"/>
	<path d="M416.2,267.4c0,2-1.8,3.8-3.8,3.7c-2,0-3.7-1.7-3.7-3.8c0-2.1,1.6-3.7,3.8-3.7C414.5,263.7,416.2,265.3,416.2,267.4z"/>
	<path d="M205.5,271.2c-2,0-3.7-1.8-3.7-3.9c0-2.1,1.6-3.7,3.8-3.7c2.1,0,3.8,1.8,3.8,3.8C209.3,269.4,207.4,271.2,205.5,271.2z"/>
	<path d="M515.8,278.4c2.1,0,3.8,1.6,3.8,3.7c0,2.1-1.6,3.8-3.7,3.8c-2.1,0-3.7-1.5-3.8-3.7C512.1,280.1,513.7,278.4,515.8,278.4z"
		/>
	<path d="M386.6,223.1c-0.1,2.1-1.7,3.6-3.9,3.5c-2-0.1-3.6-1.7-3.6-3.6c0-2,1.7-3.7,3.8-3.7C385.1,219.3,386.6,221,386.6,223.1z"/>
	<path d="M441.9,271.1c-2.1-0.1-3.7-1.8-3.6-3.9c0.1-2.1,1.7-3.6,3.9-3.5c2,0.1,3.5,1.7,3.5,3.7
		C445.7,269.4,443.9,271.1,441.9,271.1z"/>
	<path d="M504.7,356.1c0,2-1.8,3.7-3.8,3.6c-1.9-0.1-3.5-1.8-3.5-3.7c0-1.9,1.6-3.6,3.6-3.7C503,352.3,504.8,354.1,504.7,356.1z"/>
	<path d="M453.1,326.2c0.2-2,2.1-3.5,4.1-3.3c2,0.2,3.4,2,3.2,3.9c-0.2,2-2.1,3.5-4.1,3.3C454.4,329.9,452.9,328,453.1,326.2z"/>
	<path d="M456.9,211.8c-1.9,0.1-3.7-1.6-3.8-3.5c-0.1-1.9,1.7-3.9,3.7-3.8c1.9,0,3.6,1.7,3.6,3.6C460.4,210,458.8,211.8,456.9,211.8
		z"/>
	<path d="M648.8,263.7c2,0,3.7,1.6,3.7,3.5c0.1,2.1-1.6,3.8-3.8,3.7c-2,0-3.6-1.6-3.6-3.6C645.2,265.4,646.9,263.8,648.8,263.7z"/>
	<path d="M397.5,382c1.9-0.1,3.6,1.5,3.7,3.5c0.1,2-1.5,3.7-3.4,3.8c-2,0.1-3.6-1.5-3.7-3.5C394,383.8,395.6,382.1,397.5,382z"/>
	<path d="M560.2,300.5c-2,0-3.6-1.6-3.6-3.6c0-2,1.6-3.5,3.6-3.5c2,0,3.5,1.5,3.5,3.6C563.7,299,562.2,300.5,560.2,300.5z"/>
	<path d="M430.8,370.8c0.1,2-1.5,3.6-3.5,3.6c-2,0.1-3.6-1.4-3.6-3.4c0-2,1.4-3.6,3.4-3.6C429.1,367.3,430.7,368.8,430.8,370.8z"/>
	<path d="M220.3,323c2,0,3.6,1.7,3.5,3.6c-0.2,2.1-1.4,3.3-3.5,3.4c-1.9,0.1-3.6-1.6-3.6-3.5C216.7,324.6,218.3,323,220.3,323z"/>
	<path d="M190.7,256.1c-2,0-3.6-1.6-3.5-3.6c0.1-2.1,1.2-3.3,3.3-3.4c2-0.1,3.7,1.4,3.7,3.4C194.3,254.4,192.6,256.1,190.7,256.1z"
		/>
	<path d="M416,223c0,1.9-1.7,3.6-3.6,3.5c-1.9,0-3.7-1.8-3.5-3.7c0.2-2,1.3-3.3,3.5-3.4C414.3,219.4,416,221,416,223z"/>
	<path d="M460.2,341.4c-0.2,2-1.3,3.3-3.5,3.3c-2.1-0.1-3.3-1.3-3.3-3.5c0-2.2,1.4-3.4,3.4-3.3C458.9,337.9,460.1,339.2,460.2,341.4
		z"/>
	<path d="M415.8,385.9c-0.2,2-1.4,3.2-3.5,3.2c-2.1,0-3.3-1.3-3.4-3.4c-0.1-2,1.7-3.7,3.6-3.5C414.7,382.4,415.8,383.7,415.8,385.9z
		"/>
	<path d="M427.2,329.9c-1.9-0.3-3.3-1.2-3.3-3.4c0-2.1,1.2-3.4,3.3-3.4c2.2-0.1,3.4,1.3,3.4,3.3
		C430.6,328.5,429.3,329.7,427.2,329.9z"/>
	<path d="M497.7,208.3c0.1-2.1,1.1-3.4,3.3-3.5c2.2-0.1,3.4,1.1,3.5,3.2c0.1,2.1-1.1,3.4-3.2,3.5C499.1,211.6,498,210.4,497.7,208.3
		z"/>
	<path d="M235.4,352.8c1.7,0.1,2.8,1.2,3,3.2c0.2,1.9-1.3,3.4-3.3,3.4c-2.1,0-3.1-1.2-3.3-3.1C231.5,354.4,233.1,352.8,235.4,352.8z
		"/>
	<path d="M320.5,223c0.1-2,1.3-3.1,3.2-3.3c1.7-0.2,3.5,1.7,3.3,3.4c-0.2,2-1.4,3.2-3.4,3.1C321.7,226.2,320.6,225,320.5,223z"/>
	<path d="M267.9,311.8c-0.2,2-1.3,3.2-3.3,3.2c-2,0-3.2-1.3-3.2-3.3c0-2,1.2-3.2,3.3-3.2C266.7,308.6,267.7,309.8,267.9,311.8z"/>
	<path d="M471.6,374.1c-2-0.1-3.2-1.3-3.2-3.2c0-2,1.3-3.2,3.3-3.2c1.8,0,3,1.2,3.1,3.1C474.7,372.8,473.6,373.9,471.6,374.1z"/>
	<path d="M353.4,374.1c-2.1-0.1-3.3-1.2-3.3-3.2c0-2,1.2-3.2,3.2-3.1c1.8,0,3,1.1,3.1,3C356.5,372.8,355.3,373.8,353.4,374.1z"/>
	<path d="M563.8,312.4c-1.2,0.8-2.3,2.2-3.6,2.4c-1.9,0.2-3.2-1.1-3.1-3.2c0.1-1.9,1.4-3.2,3.2-2.8c1.3,0.3,2.3,1.6,3.5,2.4
		C563.8,311.5,563.8,312,563.8,312.4z"/>
	<path d="M282.6,283.1c-0.8,0.6-1.9,1.9-3.1,2.1c-1.9,0.3-3.1-1.1-3.1-3.1c0-1.9,1.2-3,3-3.1C281.3,279,282.4,280.2,282.6,283.1z"/>
	<path d="M590.4,382c0.8,1.2,2.1,2.2,2.4,3.5c0.4,2-1,3.3-3,3.3c-2,0-3.4-1.3-3-3.2c0.2-1.3,1.5-2.4,2.4-3.5
		C589.5,382.1,590,382,590.4,382z"/>
	<path d="M578.3,370.1c-0.4,2.8-1.4,4-3.5,3.9c-1.9-0.1-3-1.3-3-3.1c0-2,1.3-3.4,3.3-3C576.4,368.2,577.5,369.5,578.3,370.1z"/>
	<path d="M265.2,204.7c0.8,1.2,2.1,2.3,2.4,3.5c0.3,1.8-1.1,3-2.9,3c-1.9,0-3.2-1.3-3-3c0.2-1.3,1.5-2.4,2.3-3.6
		C264.4,204.7,264.8,204.7,265.2,204.7z"/>
	<path d="M219.7,211.7c-0.9-1.2-2.2-2.3-2.4-3.5c-0.3-1.8,1.2-3.3,3-2.9c1.1,0.2,2.8,1.8,2.8,2.8c0.1,1.2-1.4,2.4-2.1,3.6
		C220.6,211.7,220.2,211.7,219.7,211.7z"/>
	<path d="M666.9,253.3c-0.8,0.6-1.9,2-3.1,2.2c-1.8,0.3-3-1-3-2.9c0-1.8,1-2.9,2.8-3C665.4,249.5,666.4,250.6,666.9,253.3z"/>
	<path d="M397.7,226c-1.9-0.2-3.1-1.1-3-3.1c0-1.9,1.1-3,3.1-3c1.8,0,2.8,1.1,2.9,2.9C400.7,224.8,399.6,225.8,397.7,226z"/>
	<path d="M253.2,356.8c-1.2,0.8-2.3,2.1-3.5,2.3c-1.8,0.2-3.2-1.3-2.8-3.1c0.3-1.1,1.8-2.7,2.9-2.7c1.1-0.1,2.3,1.4,3.5,2.2
		C253.3,355.9,253.3,356.3,253.2,356.8z"/>
	<path d="M663,389c-0.8-1.1-1.9-2.1-2.2-3.3c-0.3-1.7,1-2.9,2.7-2.9c1.8-0.1,3.2,1.1,3,3c-0.2,1.2-1.5,2.2-2.2,3.3
		C663.9,389,663.4,389,663,389z"/>
	<path d="M223.6,342c-1.1,0.7-2.2,1.9-3.4,2.1c-1.8,0.3-2.8-1.1-2.8-2.8c0-1.8,1.2-3.1,2.9-2.8c1.2,0.2,2.2,1.5,3.3,2.3
		C223.6,341.2,223.6,341.6,223.6,342z"/>
	<path d="M667,223.5c-1.1,0.8-2.1,2.1-3.3,2.3c-1.7,0.3-2.9-0.9-2.9-2.7c0-1.8,1.1-3.1,2.8-2.9c1.2,0.2,2.3,1.4,3.4,2.1
		C667,222.7,667,223.1,667,223.5z"/>
	<path d="M637.5,401c-1.1,0.8-2.3,2.3-3.3,2.2c-1.1-0.1-2.6-1.6-2.9-2.7c-0.4-1.6,1-3.1,2.7-2.8c1.2,0.2,2.3,1.3,3.4,2.1
		C637.4,400.2,637.4,400.6,637.5,401z"/>
	<path d="M445.3,208.8c-1.1,0.8-2.1,2-3.3,2.2c-1.7,0.3-2.9-1-2.9-2.7c0-1.7,1.1-3.1,2.8-2.8c1.2,0.2,2.3,1.3,3.4,2
		C445.3,207.9,445.3,208.3,445.3,208.8z"/>
	<path d="M664.3,352.8c0.8,1.1,2,2.1,2.2,3.3c0.3,1.7-1.1,2.9-2.8,2.8c-1.7,0-3.1-1.1-2.8-2.9c0.2-1.2,1.4-2.2,2.2-3.3
		C663.5,352.8,663.9,352.8,664.3,352.8z"/>
	<path d="M457.3,352.7c0.8,1.1,2.1,2.1,2.3,3.3c0.3,1.8-1.1,3.3-2.9,3c-1.1-0.2-2.6-1.8-2.7-2.9c-0.1-1,1.3-2.2,2-3.3
		C456.5,352.7,456.9,352.7,457.3,352.7z"/>
	<path d="M501.6,367.5c0.8,1.1,2.1,2.1,2.3,3.3c0.3,1.7-1.1,3.1-2.8,2.8c-1.1-0.2-2.6-1.6-2.7-2.6c-0.1-1.1,1.2-2.3,1.9-3.5
		C500.7,367.6,501.2,367.6,501.6,367.5z"/>
	<path d="M489.6,386.4c-1.1,0.7-2.2,1.8-3.4,2c-1.8,0.3-2.8-1.1-2.8-2.8c0-1.7,1.2-3.1,2.9-2.7c1.2,0.2,2.2,1.4,3.3,2.2
		C489.6,385.5,489.6,386,489.6,386.4z"/>
	<path d="M335.3,370.1c1.1-0.7,2.3-2,3.4-1.9c1,0.1,2.3,1.6,2.6,2.7c0.4,1.7-1,3.1-2.7,2.8c-1.2-0.2-2.2-1.5-3.3-2.3
		C335.2,371,335.3,370.5,335.3,370.1z"/>
	<path d="M426.6,270.6c-0.8-1.1-2.1-2.2-2.1-3.3c0-1,1.5-2.4,2.6-2.6c1.7-0.4,3,1,2.8,2.7c-0.2,1.1-1.3,2.1-2,3.2
		C427.5,270.6,427,270.6,426.6,270.6z"/>
	<path d="M516,300.9c-1.3-1.8-2.8-2.9-2.7-3.9c0.1-1,1.4-2.5,2.5-2.8c1.7-0.4,3.1,0.9,2.9,2.7C518.4,298.1,517.2,299.1,516,300.9z"
		/>
	<path d="M652,342.1c-1.1,0.7-2.1,1.8-3.3,1.9c-1.7,0.1-3-1.3-2.5-3c0.3-1,1.9-2.3,2.9-2.3c1,0,2,1.4,2.9,2.2
		C652.1,341.3,652,341.7,652,342.1z"/>
	<path d="M427.8,308.6c0.7,1,2.1,2.1,2,3c-0.1,1-1.4,2.5-2.4,2.8c-1.7,0.4-3-0.9-2.8-2.6c0.1-1.1,1.3-2.1,2-3.1
		C426.9,308.6,427.3,308.6,427.8,308.6z"/>
	<path d="M265.2,323.3c0.7,1,1.8,2,2.1,3.1c0.4,1.6-0.7,2.7-2.4,2.8c-1.8,0.1-3.1-0.9-2.9-2.7c0.2-1.1,1.3-2.1,2-3.2
		C264.3,323.3,264.7,323.3,265.2,323.3z"/>
	<path d="M386,386.2c-1,0.7-2.1,2.1-3,2c-1-0.1-1.9-1.6-2.9-2.5c0.9-0.9,1.7-2.4,2.7-2.6c0.9-0.2,2.1,1.1,3.2,1.7
		C386,385.3,386,385.8,386,386.2z"/>
	<path d="M179.1,238.2c-1,0.8-2,1.9-3.1,2.2c-1.6,0.3-2.7-0.8-2.8-2.5c-0.1-1.7,0.8-3,2.5-2.7c1.2,0.2,2.2,1.2,3.3,1.8
		C179.1,237.4,179.1,237.8,179.1,238.2z"/>
	<path d="M622.5,401c-1,0.7-2.1,2.1-3,2c-1-0.1-2.5-1.4-2.8-2.4c-0.4-1.7,0.9-3,2.6-2.9c1.1,0.1,2.1,1.3,3.2,2
		C622.5,400.2,622.5,400.6,622.5,401z"/>
	<path d="M560.9,323.3c0.7,1.1,1.8,2.1,2,3.2c0.2,1.8-1.1,2.8-2.9,2.7c-1.7-0.1-2.8-1.2-2.4-2.9c0.3-1.1,1.4-2.1,2.1-3.1
		C560.1,323.3,560.5,323.3,560.9,323.3z"/>
	<path d="M324.3,367.7c0.7,1.1,2.1,2.2,2,3.1c-0.1,1-1.6,2.3-2.7,2.5c-0.7,0.1-2.3-1.5-2.4-2.4c-0.1-1,1.2-2.2,1.9-3.2
		C323.5,367.7,323.9,367.7,324.3,367.7z"/>
	<path d="M294.8,279c0.7,1,2.1,2.2,1.9,3.1c-0.1,1-1.6,2.3-2.6,2.5c-0.7,0.1-2.3-1.5-2.3-2.4c-0.1-1,1.2-2.1,1.8-3.2
		C293.9,279,294.3,279,294.8,279z"/>
	<path d="M666.8,327.1c-1,0.7-2.1,1.9-3.1,1.9c-0.9-0.1-2.6-1.6-2.5-2.3c0.2-1.1,1.5-2.6,2.5-2.7c0.9-0.2,2.1,1.2,3.1,1.9
		C666.7,326.3,666.7,326.7,666.8,327.1z"/>
	<path d="M206.2,279.2c0.6,1,1.8,2.1,1.7,3c-0.1,1-1.4,2.3-2.4,2.5c-1.6,0.3-2.8-1-2.4-2.7c0.2-1.1,1.3-1.9,2-2.9
		C205.4,279.1,205.8,279.1,206.2,279.2z"/>
	<path d="M209.2,208.2c-1.7,1.2-2.6,2.4-3.6,2.5c-1.6,0.2-2.9-1-2.5-2.6c0.3-1,1.6-2.3,2.5-2.3C206.5,205.6,207.5,206.9,209.2,208.2
		z"/>
	<path d="M283.1,208.1c-1.7,1.3-2.7,2.6-3.6,2.5c-0.9-0.1-2.4-1.5-2.4-2.4c0-0.9,1.4-2.3,2.3-2.5
		C280.2,205.7,281.3,206.9,283.1,208.1z"/>
	<path d="M444.9,282.6c-0.9,0.7-2,2-2.8,1.9c-0.9-0.1-2.2-1.5-2.4-2.4c-0.1-0.7,1.3-2.2,2.2-2.3c0.9-0.1,2,1,3,1.7
		C444.8,281.8,444.8,282.2,444.9,282.6z"/>
	<path d="M549,282.1c-1.6,1.2-2.6,2.4-3.6,2.4c-0.8,0-2.3-1.5-2.2-2.2c0.1-1,1.4-2.2,2.3-2.4C546.3,279.7,547.3,281,549,282.1z"/>
	<path d="M442.2,344.7c-1.2-1.5-2.6-2.4-2.5-3.1c0.1-1,1.4-1.8,2.2-2.7c0.8,0.8,2.2,1.5,2.4,2.5
		C444.4,342.1,443.2,343.1,442.2,344.7z"/>
	<path d="M294.1,337.8c1.2,1.6,2.4,2.7,2.3,3.4c-0.2,1-1.4,2.2-2.3,2.4c-0.7,0.1-2.2-1.4-2.2-2.1C291.8,340.4,293,339.4,294.1,337.8
		z"/>
	<path d="M681.8,296.8c-1.5,1.2-2.4,2.5-3.2,2.4c-0.9-0.1-1.7-1.4-2.5-2.1c0.8-0.8,1.4-2.2,2.3-2.3
		C679.2,294.6,680.2,295.7,681.8,296.8z"/>
	<path d="M442.1,352.7c1.1,1.6,2.2,2.5,2.1,3.4c-0.1,0.9-1.4,1.6-2.2,2.5c-0.8-0.9-2.2-1.6-2.4-2.6
		C439.5,355.2,440.9,354.2,442.1,352.7z"/>
	<path d="M619.3,211.6c-1.1-1.6-2.3-2.5-2.2-3.4c0.1-0.9,1.4-2.2,2.2-2.2c0.8,0,2.2,1.3,2.3,2.2C621.7,209,620.5,210,619.3,211.6z"
		/>
	<path d="M560.1,344.7c-1.1-1.6-2.3-2.7-2.2-3.5c0.1-0.9,1.5-1.6,2.3-2.4c0.8,0.8,2,1.6,2.1,2.5
		C562.5,342.2,561.3,343.1,560.1,344.7z"/>
	<path d="M294.4,330c-1.2-1.6-2.5-2.5-2.4-3.3c0-0.8,1.3-2.2,2.2-2.3c0.7-0.1,2.1,1.3,2.3,2.1C296.5,327.3,295.4,328.3,294.4,330z"
		/>
	<path d="M519.3,208.1c-1.5,1.2-2.5,2.5-3.2,2.4c-1-0.2-1.7-1.5-2.6-2.3c0.8-0.8,1.5-2.1,2.4-2.2C516.7,205.9,517.7,207,519.3,208.1
		z"/>
	<path d="M445.3,326.4c-1.6,1.2-2.6,2.4-3.3,2.3c-0.9-0.1-2-1.4-2.2-2.3c-0.1-0.6,1.3-2,2.1-2.1
		C442.7,324.3,443.7,325.4,445.3,326.4z"/>
	<path d="M652.2,400.4c-1.5,1.1-2.5,2.4-3.1,2.3c-0.9-0.2-2-1.3-2.2-2.3c-0.1-0.6,1.2-2.1,2-2.1
		C649.7,398.3,650.6,399.4,652.2,400.4z"/>
	<path d="M637.4,208.2c-1.5,1.1-2.4,2.3-3.1,2.1c-0.9-0.2-1.7-1.4-2.5-2.1c0.8-0.8,1.6-2,2.5-2.1C635,206,635.9,207.1,637.4,208.2z"
		/>
	<path d="M427.2,382.5c1.1,1.4,2.3,2.3,2.2,3c-0.2,0.9-1.4,1.6-2.2,2.4c-0.8-0.8-2-1.5-2.1-2.4C424.9,384.9,426.1,383.9,427.2,382.5
		z"/>
	<path d="M267.8,341.4c-1.6,1-2.5,2.1-3.4,2c-0.7-0.1-2.1-1.6-1.9-2.2c0.2-0.9,1.4-2,2.3-2.1C265.5,339,266.4,340.3,267.8,341.4z"/>
	<path d="M427.2,300.1c-1-1.4-2.3-2.3-2.1-3c0.2-0.9,1.4-1.6,2.2-2.4c0.7,0.8,1.9,1.5,2,2.3C429.4,297.8,428.2,298.7,427.2,300.1z"
		/>
	<path d="M179.1,223c-1.5,1.1-2.3,2.2-3.1,2.1c-0.8-0.1-2.2-1.4-2.1-2c0.2-0.9,1.2-2.1,2.1-2.3C176.7,220.7,177.7,221.9,179.1,223z"
		/>
	<path d="M516,308.6c1,1.5,2.2,2.5,2,3.1c-0.3,0.9-1.5,1.5-2.3,2.2c-0.7-0.8-1.9-1.5-1.9-2.4C513.7,310.8,514.9,310,516,308.6z"/>
	<path d="M604.3,403.6c-0.9-1.5-1.9-2.5-1.8-3.2c0.1-0.8,1.3-1.5,2.1-2.2c0.7,0.8,1.9,1.6,2,2.5
		C606.7,401.4,605.5,402.3,604.3,403.6z"/>
	<path d="M604.6,211.4c-1.1-1.5-2.2-2.3-2.2-3.1c0.1-0.8,1.2-1.6,1.9-2.4c0.8,0.7,2.1,1.4,2.3,2.3
		C606.8,208.9,605.7,209.9,604.6,211.4z"/>
	<path d="M663.6,270.5c-1-1.6-2.1-2.5-2-3.3c0.1-0.8,1.4-1.7,2.3-1.9c0.5-0.1,1.8,1.3,1.8,2C665.7,268.2,664.6,269,663.6,270.5z"/>
	<path d="M533.9,282c-1.5,1.1-2.3,2.2-3.2,2.2c-0.7,0-2.1-1.2-2.1-1.7c0.1-0.9,1-2.1,1.8-2.3C531.2,280,532.2,281,533.9,282z"/>
	<path d="M678.3,374c-0.9-1.6-1.9-2.4-1.8-3.3c0.1-0.7,1.4-2,1.9-1.9c0.9,0.2,2,1.2,2.1,2C680.6,371.6,679.4,372.5,678.3,374z"/>
	<path d="M220.3,353.1c1,1.4,2.1,2.3,2,2.9c-0.2,0.8-1.3,1.5-2.1,2.2c-0.7-0.7-1.8-1.4-1.8-2.2C218.3,355.3,219.3,354.5,220.3,353.1
		z"/>
	<path d="M297.4,311.6c-1.6,1.1-2.4,2.1-3.3,2.2c-0.7,0-1.9-1.2-1.9-1.9c0-0.7,1.1-2,1.8-2.1C294.8,309.7,295.7,310.6,297.4,311.6z"
		/>
	<path d="M445.1,311.9c-1.5,0.9-2.4,1.9-3.3,1.8c-0.7,0-1.9-1.5-1.7-2.1c0.2-0.8,1.3-1.8,2.2-1.9
		C442.9,309.7,443.7,310.8,445.1,311.9z"/>
	<path d="M471.5,388.8c-1-1.5-2-2.4-1.9-3.3c0-0.7,1.3-1.3,2-2c0.7,0.7,1.8,1.4,1.9,2.3C473.6,386.5,472.5,387.4,471.5,388.8z"/>
	<path d="M309,367.8c1,1.4,2.1,2.3,2,2.9c-0.2,0.8-1.2,2-2,2.1c-0.6,0.1-2-1.2-2-1.9C306.9,370.1,307.9,369.3,309,367.8z"/>
	<path d="M504.1,385.7c-1.4,1-2.4,2.1-3,1.9c-0.9-0.2-1.5-1.4-2.2-2.2c0.7-0.6,1.5-1.7,2.3-1.8C501.9,383.7,502.7,384.7,504.1,385.7
		z"/>
	<path d="M430.2,208.1c-1.3,1-2.2,2.2-2.8,2c-0.9-0.2-1.6-1.2-2.3-1.9c0.7-0.7,1.4-1.8,2.3-2C427.9,206,428.8,207.1,430.2,208.1z"/>
	<path d="M681.4,311.7c-1.4,1-2.2,2-2.9,2c-0.7-0.1-1.9-1.2-1.9-1.9c0-0.7,1.2-1.9,1.9-1.9C679.2,309.7,680,310.8,681.4,311.7z"/>
	<path d="M453.7,370.9c1.4-1,2.3-2.1,3-2c0.8,0.2,1.5,1.3,2.2,2.1c-0.7,0.6-1.4,1.7-2.2,1.8C455.9,372.9,455.1,371.9,453.7,370.9z"
		/>
	<path d="M430.2,282.1c-1.3,1-2.2,2.2-2.8,2c-0.9-0.2-1.6-1.2-2.3-1.9c0.7-0.7,1.4-1.8,2.2-2.1C427.9,280,428.8,281.1,430.2,282.1z"
		/>
	<path d="M442,293.9c1,1.4,2.1,2.3,2,2.9c-0.2,0.8-1.4,1.4-2.1,2.1c-0.6-0.7-1.7-1.4-1.8-2.1C440,296.1,441,295.3,442,293.9z"/>
	<path d="M294.1,211.2c-0.9-1.4-2-2.3-1.9-3c0.1-0.8,1.3-1.4,1.9-2.1c0.7,0.7,1.8,1.4,1.9,2.1C296.2,208.9,295.1,209.8,294.1,211.2z
		"/>
	<path d="M297.2,356.2c-1.5,0.9-2.4,1.9-3.1,1.8c-0.7-0.1-1.7-1.3-1.8-2.1c-0.1-0.5,1.2-1.7,1.9-1.7
		C295,354.2,295.8,355.2,297.2,356.2z"/>
	<path d="M294.3,299.9c-1.1-1.4-2.1-2.1-2.1-2.8c0.1-0.7,1.1-1.9,1.8-2c0.7,0,1.9,1,2,1.8C296.3,297.5,295.3,298.4,294.3,299.9z"/>
	<path d="M208.2,296.8c-1.2,1-1.9,2-2.5,2c-0.8-0.1-1.5-1.1-2.2-1.7c0.7-0.7,1.2-1.7,2-1.9C206.1,295,207,295.9,208.2,296.8z"/>
	<path d="M279.2,294.2c1,1.2,2,1.9,2,2.5c-0.1,0.8-1.1,1.5-1.7,2.2c-0.7-0.6-1.7-1.2-1.9-2C277.4,296.3,278.4,295.5,279.2,294.2z"/>
	<path d="M651.8,208c-1.4,1-2.2,2.1-2.9,2c-0.8-0.1-1.8-1.1-2-1.9c-0.1-0.5,1.1-1.8,1.7-1.9C649.5,206.2,650.3,207.1,651.8,208z"/>
	<path d="M235,368c1,1.4,1.9,2.1,1.9,2.9c0,0.6-1.2,1.9-1.7,1.8c-0.8-0.1-1.7-1.1-1.9-1.8C233.1,370.3,234.1,369.4,235,368z"/>
	<path d="M444.7,371c-1.3,0.9-2.1,1.8-2.7,1.7c-0.7-0.1-1.3-1.1-1.9-1.7c0.7-0.7,1.3-1.7,2.1-1.8C442.7,369,443.5,370,444.7,371z"/>
	<path d="M515.7,323.8c1,1.2,2,2,1.9,2.6c-0.2,0.8-1.2,1.4-1.8,2.1c-0.6-0.6-1.7-1.2-1.8-1.9C514,325.9,514.9,325.1,515.7,323.8z"/>
	<path d="M681.2,237.9c-1.4,0.8-2.2,1.7-2.8,1.6c-0.7-0.1-1.2-1.2-1.8-1.8c0.7-0.6,1.3-1.6,2-1.7
		C679.2,235.9,679.9,236.9,681.2,237.9z"/>
	<path d="M191,264.8c0.7,1.3,1.4,2.1,1.3,2.8c-0.1,0.6-1.1,1-1.8,1.5c-0.5-0.7-1.4-1.3-1.5-2.1C189.1,266.5,190.1,265.9,191,264.8z"
		/>
	<path d="M190.8,205.5c0.9,1.4,1.8,2.2,1.7,2.8c-0.1,0.7-1.2,1.4-1.9,1.6c-0.4,0.1-1.5-1.1-1.5-1.7
		C189.1,207.5,189.9,206.8,190.8,205.5z"/>
	<path d="M563,356.2c-1.5,0.8-2.2,1.6-2.9,1.5c-0.6-0.1-1.1-1.1-1.7-1.6c0.6-0.6,1.2-1.6,1.9-1.7C560.9,354.4,561.6,355.3,563,356.2
		z"/>
	<path d="M175.9,255c-0.7-1.1-1.6-1.8-1.5-2.5c0.1-0.6,1-1.1,1.6-1.7c0.6,0.6,1.5,1.1,1.6,1.8C177.6,253.2,176.7,253.9,175.9,255z"
		/>
	<path d="M249.8,373.3c-0.8-1-1.7-1.7-1.6-2.3c0.1-0.7,1.1-1.3,1.7-1.9c0.6,0.7,1.5,1.3,1.6,2C251.5,371.6,250.6,372.3,249.8,373.3z
		"/>
	<path d="M678.4,284.7c-0.8-1.2-1.6-1.9-1.6-2.6c0-0.6,1.2-1.6,1.6-1.5c0.7,0.2,1.5,1,1.7,1.8C680.2,282.8,679.3,283.5,678.4,284.7z
		"/>
	<path d="M516,343.6c-0.8-1-1.8-1.6-1.7-2.2c0-0.6,0.9-1.7,1.5-1.7c0.6,0,1.6,0.9,1.7,1.5C517.6,341.8,516.7,342.6,516,343.6z"/>
	<path d="M264.4,353.8c0.8,1,1.7,1.6,1.7,2c-0.1,0.7-0.8,1.5-1.4,1.7c-0.3,0.1-1.5-0.8-1.6-1.3C263.1,355.7,263.8,355,264.4,353.8z"
		/>
	<path d="M368,383.3c0.9,1.1,1.8,1.8,1.7,2.4c-0.1,0.6-1,1.4-1.7,1.6c-0.4,0.1-1.4-0.9-1.4-1.4C366.5,385.2,367.3,384.5,368,383.3z"
		/>
	<path d="M353.5,205.9c0.7,1.2,1.4,1.8,1.4,2.5c0,0.5-1.1,1.4-1.5,1.3c-0.7-0.2-1.6-1-1.6-1.6C351.7,207.5,352.6,206.9,353.5,205.9z
		"/>
	<path d="M591.9,208c-0.9,0.8-1.5,1.7-1.9,1.6c-0.7-0.1-1.2-1-1.8-1.5c0.5-0.5,1-1.4,1.5-1.5C590.3,206.6,590.9,207.4,591.9,208z"/>
	<path d="M577.3,385.6c-1.1,0.8-1.7,1.5-2.3,1.6c-0.5,0-1-0.9-1.5-1.4c0.6-0.5,1-1.4,1.7-1.5C575.5,384.1,576.2,384.9,577.3,385.6z"
		/>
	<path d="M678.5,388c-0.8-1-1.6-1.7-1.5-2.1c0.1-0.7,0.9-1.5,1.5-1.6c0.4-0.1,1.5,0.9,1.5,1.3C680,386.2,679.2,386.9,678.5,388z"/>
	<path d="M370.4,208.3c-1.2,0.7-1.9,1.4-2.6,1.3c-0.5,0-1.3-1-1.2-1.6c0-0.5,0.9-1.4,1.4-1.4C368.7,206.8,369.3,207.5,370.4,208.3z"
		/>
	<path d="M207.9,311.7c-1.2,0.8-1.8,1.5-2.5,1.5c-0.5,0-1.3-1-1.3-1.5c0-0.5,0.9-1.5,1.4-1.5C206.1,310.3,206.7,311,207.9,311.7z"/>
	<path d="M663.9,339.2c0.6,1,1.3,1.7,1.2,2.2c-0.1,0.6-0.9,1-1.4,1.5c-0.5-0.6-1.3-1.1-1.5-1.8C662.1,340.7,663,340.1,663.9,339.2z"
		/>
	<path d="M281.5,311.7c-0.9,0.7-1.6,1.6-2,1.5c-0.7-0.2-1.1-1.1-1.7-1.6c0.5-0.5,1.1-1.3,1.6-1.3C280,310.2,280.6,311,281.5,311.7z"
		/>
	<path d="M412.4,402.6c-0.7-1.1-1.4-1.7-1.4-2.3c0-0.4,0.9-1.2,1.4-1.2c0.5,0,1.4,0.8,1.4,1.2C413.8,400.9,413.1,401.5,412.4,402.6z
		"/>
	<path d="M665.8,400.4c-1,0.7-1.5,1.5-2,1.5c-0.6-0.1-1.4-0.9-1.4-1.3c0-0.5,0.8-1.4,1.3-1.5C664.1,398.9,664.8,399.7,665.8,400.4z"
		/>
</g>
</svg>
