<?xml version="1.0" encoding="utf-8"?>
<!-- Generator: Adobe Illustrator 18.0.0, SVG Export Plug-In . SVG Version: 6.00 Build 0)  -->
<!DOCTYPE svg PUBLIC "-//W3C//DTD SVG 1.1//EN" "http://www.w3.org/Graphics/SVG/1.1/DTD/svg11.dtd">
<svg version="1.1" id="Layer_1" xmlns="http://www.w3.org/2000/svg" xmlns:xlink="http://www.w3.org/1999/xlink" x="0px" y="0px"
	 viewBox="0 0 841.9 595.3" enable-background="new 0 0 841.9 595.3" xml:space="preserve">
<g>
	<path d="M304,355c4-10.1,7.7-19.5,11.3-28.8c22.4-57.4,44.7-114.8,67-172.3c1.7-4.4,3.2-8.8,4.2-13.4c1.6-7.2-1.2-11.6-8.5-13
		c-5-1-10.1-1.1-15.2-1.6c-2.1-0.2-4.9,0-4.4-3.1c0.2-1.1,2.9-2.5,4.4-2.5c21.3-0.2,42.6-0.2,64,0c1.4,0,2.8,1.6,4.2,2.5
		c-1.4,1-2.8,3-4.2,2.9c-16.1-0.5-24.5,7.4-30.3,22.3C356,250.6,315,352.9,274.2,455.2c-0.2,0.4-0.2,0.9-0.5,1.2
		c-0.9,1-1.8,1.9-2.7,2.8c-0.7-1-1.7-1.8-2.1-2.9c-3.4-9.9-6.7-19.9-10-29.9c-30.6-92-61.2-184-91.9-276c-1-3-2.2-5.8-3.5-8.7
		c-4.5-9.4-11.9-14.6-22.4-15c-3.4-0.1-6.8-0.4-10.2-1c-1.2-0.2-2-1.8-3-2.8c1.1-0.9,2.1-1.9,3.3-2.6c0.7-0.4,1.7-0.1,2.5-0.1
		c41.1,0,82.2,0,123.2,0c0.9,0,1.9-0.3,2.5,0.1c1.3,0.8,2.4,1.9,3.5,2.9c-1.1,1-2.1,2.6-3.4,2.9c-4.2,0.8-8.5,0.9-12.6,1.8
		c-8.6,1.8-12.2,6.5-10,15c3.2,12.6,7.3,25.1,11.2,37.5c17.9,56.6,36,113.1,54,169.7C302.6,351.4,303.2,352.8,304,355z"/>
	<path d="M441.4,304.3c20.4,32,40.6,63.7,61.3,96.2c3-5.5,5.9-10.4,8.3-15.4c6.7-13.6,11.6-27.8,13.7-42.8c0.3-2.4,0.5-4.8,0.5-7.2
		c0-5.4-2.3-8.7-7.4-10c-4.2-1.1-8.7-1.3-13-1.9c-2.1-0.3-4.9-0.2-4.3-3.2c0.2-1.1,2.9-2.4,4.5-2.4c17.2-0.2,34.4-0.2,51.6,0
		c1.5,0,4.2,1.4,4.4,2.4c0.5,3-2.3,2.9-4.3,3.2c-2,0.3-4,0.4-5.9,0.8c-6.7,1.2-11.6,4.7-13.7,11.3c-1.5,4.6-2.8,9.2-4,13.9
		c-5.2,19.7-13,38.1-24.3,55.1c-0.7,1.1-1.4,3.3-0.9,4c6.8,9.7,13.7,19.5,21.1,28.8c2,2.5,5.4,4.2,8.6,5.3
		c6.9,2.5,12.9-0.2,16.3-6.8c1.4-2.7,2.8-6.7,6.7-4.5c3.9,2.2,1.3,5.6-0.5,8c-9,12.1-21.8,17.8-36.4,18.5
		c-7.8,0.4-15.9-0.8-23.6-2.5c-10.2-2.3-18.8-7.9-25.5-16.6c-1.4,0.9-2.7,1.6-4,2.4c-30.4,19.1-63,24.4-97.1,13.5
		c-47.7-15.3-55.3-68.4-31.2-100.7c10.7-14.3,24.7-24.1,40.8-31.3c4.1-1.8,8.3-3.5,12.8-5.4c-2.2-3.6-4.3-6.9-6.4-10.3
		c-7.9-12.8-13-26.5-13.2-41.7c-0.3-23.6,11.1-40,32.4-48.9c23.6-9.8,47.1-8.3,69.2,4.6c21.7,12.7,25.1,37.5,7.4,55.5
		c-5.8,5.9-13,10.5-20,15C457.7,296,449.6,299.9,441.4,304.3z M470.2,432.2c-23.7-36.6-47.3-72.9-71-109.6
		c-8.2,5.2-14.3,11.7-18.8,19.8c-23.4,41.7,8.3,98.3,56.1,100.2C448.8,443.1,459.8,439.2,470.2,432.2z M437.4,299
		c2.5-2.1,4.4-3.4,6-4.9c13.6-13,18.8-28.9,16.5-47.5c-1-8.2-3.4-15.8-9.1-22.1c-6.8-7.5-16.8-9.9-26.5-6.2c-8.1,3-14,11-13.2,20.8
		c0.6,7.8,2.2,15.9,5.5,22.9C422.6,274.6,430.1,286.3,437.4,299z"/>
	<path d="M656.1,457.8c-22.3,0-44.6,0-67,0c-1.1,0-2.4,0.3-3.4-0.1c-1.2-0.6-2.1-1.8-3.2-2.8c1-1,1.9-2.6,3-2.9
		c4.3-0.8,8.7-1,13.1-1.8c11.1-2,15.2-8.4,11.4-19c-12.3-34.5-24.9-68.9-37.3-103.4c-13.9-38.3-27.9-76.6-41.6-115
		c-0.8-2.3-0.9-5.3-0.1-7.6c9.4-28.6,19.1-57.1,28.8-85.6c0.6-1.6,1.8-3,2.8-4.5c1.1,1.5,2.7,2.7,3.3,4.4
		c38.9,100.5,77.6,201.1,116.5,301.7c1.5,4,3.2,7.9,5.3,11.6c6.5,11.7,17,17,30,18.3c2.8,0.3,5.7,0.3,8.4,1c1.2,0.3,2.1,2,3.1,3
		c-1.2,0.9-2.3,2.5-3.5,2.6c-6,0.3-11.9,0.1-17.9,0.1C690.5,457.8,673.3,457.8,656.1,457.8z"/>
</g>
</svg>
