<?xml version="1.0" encoding="utf-8"?>
<!-- Generator: Adobe Illustrator 18.0.0, SVG Export Plug-In . SVG Version: 6.00 Build 0)  -->
<!DOCTYPE svg PUBLIC "-//W3C//DTD SVG 1.1//EN" "http://www.w3.org/Graphics/SVG/1.1/DTD/svg11.dtd">
<svg version="1.1" id="Layer_1" xmlns="http://www.w3.org/2000/svg" xmlns:xlink="http://www.w3.org/1999/xlink" x="0px" y="0px"
	 viewBox="0 0 841.9 595.3" enable-background="new 0 0 841.9 595.3" xml:space="preserve">
<g>
	<path d="M402.9,328c-1.1,0.4-1.3,0.5-1.6,0.6c-11,1-11,1-11-9.9c0-16.4,0.1-32.7-0.1-49.1c0-3.2,0.8-4.3,4.2-4.3
		c10.2,0.2,20.3,0,30.5,0.1c16.9,0.2,26,15.3,17.7,29.2c-2,3.4-4.6,6.4-7.5,10.5c3.3,6,7.8,14.4,12.8,23.5c-4.7,0-8.6,0.2-12.4-0.1
		c-1-0.1-2.1-1.5-2.7-2.5c-3.5-6.1-7-12.1-10.1-18.3c-1.7-3.4-3.8-4.5-7.4-4.2c-3.9,0.3-7.9,0.1-12.4,0.1
		C402.9,311.9,402.9,320,402.9,328z M402.8,277.7c0,4.1-0.1,7.5,0.1,10.9c0.1,0.9,1.3,2.5,2,2.5c7.5,0.1,15,0.3,22.5-0.1
		c4-0.2,5.8-2.8,5.7-6.7c-0.1-3.8-2.2-6.4-6.1-6.5C419.1,277.6,411.2,277.7,402.8,277.7z"/>
	<path d="M319.1,316.7c11.3,0,22.2,0,33.1,0c1.9,0,5.3,0.3,5.4,0.8c0.5,3.3,0.4,6.8,0.2,10.2c0,0.4-1.7,0.9-2.7,0.9
		c-15.2,0.1-30.4,0-45.6,0.1c-2.1,0-3.1-0.5-3.1-2.9c0.1-19.5,0.1-39.1,0.1-58.6c0-0.4,0.2-0.8,0.3-1.5c16.1,0,32.3,0,48.8,0
		c0,3.9,0,7.7,0,11.9c-12.2,0-24.2,0-36.5,0c0,3.8,0,7.2,0,11.4c1.7,0,3.4,0,5.2,0c7.5,0,15.1,0.1,22.6,0c2.3,0,3.4,0.6,3.3,3.1
		c-0.1,2.9,0,5.8,0,9.1c-10.5,0-20.6,0-31.1,0C319.1,306.5,319.1,311.3,319.1,316.7z"/>
	<path d="M601.5,265.4c0,3.8,0,7.1,0,10.4c0,11.1,0.1,22.2,0,33.2c-0.1,12.1-5.6,18.9-17.5,20.5c-6,0.8-12.4,0.5-18.4-0.4
		c-9-1.4-14.5-7.2-15-16.4c-0.7-12.9-0.6-25.8-0.5-38.8c0-10-1.9-8.3,8.9-8.6c2.9-0.1,3.5,1,3.5,3.7c-0.1,12.4-0.1,24.8,0,37.2
		c0,9.2,2.6,11.8,11.8,11.9c2,0,4,0.1,5.9-0.2c7.2-0.9,9.1-3,9.2-10.2c0.1-12.7,0.2-25.3-0.1-38c-0.1-3.6,1-4.7,4.5-4.4
		C596,265.6,598.4,265.4,601.5,265.4z"/>
	<path d="M282.6,265.4c-4.3,9.2-8.1,17.5-12,25.8c-5.1,11-10.3,22-15.4,33c-1.3,2.8-2.5,4.7-6.2,4.7c-3.7,0-4.6-2-5.8-4.6
		c-8.3-17.8-16.6-35.6-25-53.4c-0.7-1.5-1.4-3.1-2.4-5.4c4.4,0,8.3-0.3,12.2,0.2c1.2,0.1,2.3,2.2,3,3.7
		c5.4,11.4,10.7,22.9,16.1,34.4c0.5,1.1,1.2,2.2,2.1,3.9c0.9-1.6,1.5-2.5,1.9-3.6c5.4-11.6,10.9-23.1,16.2-34.8
		c1.3-2.9,3-4.3,6.3-3.9C276.1,265.6,278.9,265.4,282.6,265.4z"/>
	<path d="M525.9,265.4c0,4.3,0,8,0,12.2c-7.6,0-15.1,0-23.1,0c0,17.1,0,33.7,0,51c-3.9,0-7.3,0.2-10.6-0.2c-0.7-0.1-1.8-2.3-1.8-3.5
		c-0.1-14.1-0.1-28.2-0.1-42.4c0-1.4,0-2.9,0-4.9c-6.3,0-12.3,0-18.3,0c-5.4,0-5.4,0-5.4-5.3c0.1-8-1-7,6.9-7c16,0,31.9,0,47.9,0
		C522.8,265.4,524.2,265.4,525.9,265.4z"/>
</g>
</svg>
