<?xml version="1.0" encoding="utf-8"?>
<!-- Generator: Adobe Illustrator 19.2.1, SVG Export Plug-In . SVG Version: 6.00 Build 0)  -->
<svg version="1.1" id="Layer_1" xmlns="http://www.w3.org/2000/svg" xmlns:xlink="http://www.w3.org/1999/xlink" x="0px" y="0px"
	 viewBox="0 0 841.9 595.3" style="enable-background:new 0 0 841.9 595.3;" xml:space="preserve">
<style type="text/css">
	.st0{fill:#FFFFFF;}
</style>
<g>
	<path class="st0" d="M592.5,321.3c0,17.4,0,34.7,0,51.8c-5.2,0-10.5,0-16.2,0c2.4-38.9,1.7-78.2,0.9-117.2c5.2,0,10.1,0,15.1,0
		c0,4,0,8.3,0,12.9c0.2-0.2,0.5-0.4,0.6-0.6c9.7-15.8,30.6-16.9,44-8.4c8.9,5.6,13.9,13.9,15.8,24.1c2,10.6,1.3,20.9-3.2,30.8
		c-7.5,16.4-26.2,24.2-43.1,18.1C600.6,330.7,597.9,328.5,592.5,321.3z M591.6,292c0.3,4.9,0.4,8.4,0.7,11.9c0.2,1.8,0.5,3.7,1,5.5
		c2.6,10,11,17.1,20.6,17.3c11.1,0.3,18.1-4.9,21.6-16.1c2.4-7.6,2.7-15.4,1.5-23.1c-0.7-4.8-2.2-9.7-4.3-14.2
		c-2.4-5.3-6.7-8.8-12.5-10.2c-11-2.7-22.3,3.7-26,15C592.7,282.9,592.3,288.2,591.6,292z"/>
	<path class="st0" d="M308.2,331.6c-4.2,0-8.7,0-13.3,0c-1.7,0-4,0.9-5.1,0.1c-1.2-0.8-1.2-3.2-1.8-4.8c-4.5-11.4-9-22.8-13.5-34.2
		c-0.6-1.4-1.4-1.8-2.8-1.8c-11.9,0.1-23.9,0.1-35.8,0c-1.6,0-2.3,0.6-3,2c-5.5,12.6-10.2,25.6-13.6,38.8c-4.4,0-8.8,0-12.9,0
		c16.1-36.4,32.2-73,48.4-109.6c2.1,0,4.4,0,6.2,0C276.8,258.9,292.6,295.5,308.2,331.6z M253.5,243.9c-5.7,13.4-11.1,26.2-16.5,39
		c11.4,0,22.3,0,33.5,0C264.8,270,259.3,257.3,253.5,243.9z"/>
	<path class="st0" d="M516.5,254.9c6.2-0.2,12.1,0.7,17.9,2.9c10.2,3.9,17.1,11,20.6,21.3c3.6,10.6,3.4,21.2-0.8,31.5
		c-5.8,14.2-17,21.4-31.8,23.5c-6.8,0.9-13.5,0.4-20.1-1.5c-14.7-4.2-23.1-14.1-25.5-29c-1.2-7.7-1.1-15.4,1.3-22.9
		c4.7-14.7,15.1-22.8,30-25.4c1.1-0.2,2.2-0.4,3.3-0.4C513.2,254.9,514.8,254.9,516.5,254.9z M492.1,294.2c0.2,7.1,0.9,14,3.9,20.5
		s7.6,11.2,14.7,12.9c11.4,2.8,22.1-2.5,26.8-13.9c5.5-13.1,5.3-26.5-0.1-39.5c-3.6-8.7-10.6-13.2-20.1-13.3
		c-9.8-0.1-17.1,4.2-21.3,13.2C493,280.5,492.3,287.3,492.1,294.2z"/>
	<path class="st0" d="M387.4,314.8c-0.3,2.8-0.4,5.6-0.8,8.3c-0.1,0.9-0.9,1.8-1.6,2.4c-4.8,4.1-10.4,6.6-16.6,7.8
		c-7.8,1.5-15.5,1.6-23.2-0.4c-14.6-3.7-24.4-15.4-26.1-30.6c-0.8-7.2-0.6-14.4,1.4-21.4c4.5-15.8,16.4-25.3,32.8-25.9
		c4.8-0.2,9.7,0.1,14.4,1.2c12.8,2.8,20.8,12.3,22.6,25.9c0.4,3.2,0.5,6.4,0.7,9.6c0,0.7-0.1,1.3-0.2,2.2c-18.8,0-37.5,0-56.1,0
		c-1.5,16,6.1,29.5,19.4,32.3c11.9,2.5,22.3-0.7,30.4-10.2C385.2,315.1,385.8,313.6,387.4,314.8z M375.8,287.3
		c-0.9-5-1.3-9.6-2.7-14c-4.9-15.8-23.9-14.4-31-6.6c-5.3,5.8-6.9,12.9-7.6,20.6C348.2,287.3,361.5,287.3,375.8,287.3z"/>
	<path class="st0" d="M455.8,259.8c-0.9,4.3-1.7,8.3-2.6,12.2c-0.1,0.4-0.7,1.1-1,1.1c-0.5-0.1-1.3-0.5-1.4-1
		c-3-11.2-15.2-12.6-22.8-10.1c-4.1,1.4-7,4-7.9,8.5c-0.9,4.7,0.4,8.8,4.3,11.4c3.2,2.2,7.1,3.5,10.7,4.9c3.3,1.2,6.8,1.9,10.2,3.1
		c14.1,5,19,17.9,11.9,31c-3.8,7.1-10,10.9-17.6,12.6c-10.3,2.3-20.4,1-29.9-3.7c-1-0.5-2-1.2-2.9-1.6c1.3-4.4,2.4-8.6,3.7-12.8
		c0.1-0.2,0.7-0.3,1.3-0.5c0.3,0.6,0.7,1.2,0.9,1.8c5.5,12.1,20.5,13.9,28.9,9.4c4.4-2.3,6.4-6.1,6.4-11c0-4.7-2.1-8.2-6.4-10.1
		c-4.7-2-9.5-3.6-14.2-5.4c-2.4-0.9-4.8-1.7-7.1-2.7c-7.7-3.7-12.3-9.8-12.2-18.6c0.1-9.1,4-16.2,12.3-20.4
		c6.7-3.4,13.9-3.5,21.1-2.8C446.7,255.7,451.5,257.2,455.8,259.8z"/>
	<path class="st0" d="M378.8,235.3c0,1.6,0,3,0,4.6c-14.4,0-28.7,0-43.2,0c0-1.5,0-3,0-4.6C349.9,235.3,364.2,235.3,378.8,235.3z"/>
	<path class="st0" d="M676.9,313.4c5.7,0,10.3,4.7,10.2,10.4c0,5.7-4.7,10.3-10.4,10.3c-5.7-0.1-10.3-4.7-10.3-10.4
		C666.5,317.9,671.2,313.3,676.9,313.4z M685.2,323.7c0-4.9-3.7-8.6-8.5-8.5c-4.7,0.1-8.3,3.7-8.3,8.5s3.6,8.5,8.2,8.5
		C681.5,332.2,685.2,328.6,685.2,323.7z"/>
	<path class="st0" d="M674.8,323c0,2.5,0,4,0,5.9c-0.6,0.1-1.3,0.1-2.1,0.2c0-3.9,0-7.6,0-11.6c1.9,0.1,3.8-0.1,5.6,0.3
		c1.1,0.3,2.4,1.3,2.7,2.2c0.5,1.6-0.8,2.6-2.4,2.9c-0.2,0.1-0.5,0.2-1.1,0.4c1.6,1.9,3.1,3.6,4.6,5.4c-2.2,1-3-0.5-3.9-1.7
		C677.3,325.9,676.3,324.8,674.8,323z M675,318.5c0,1.5,0,2.8,0,4.2c1.9-0.2,4,0.1,4-2.3C678.9,318.3,676.9,318.5,675,318.5z"/>
</g>
</svg>
