<?xml version="1.0" encoding="utf-8"?>
<!-- Generator: Adobe Illustrator 19.2.1, SVG Export Plug-In . SVG Version: 6.00 Build 0)  -->
<svg version="1.1" id="Layer_1" xmlns="http://www.w3.org/2000/svg" xmlns:xlink="http://www.w3.org/1999/xlink" x="0px" y="0px"
	 viewBox="0 0 841.9 595.3" style="enable-background:new 0 0 841.9 595.3;" xml:space="preserve">
<style type="text/css">
	.st0{fill:#FFFFFF;}
</style>
<g>
	<path class="st0" d="M195.8,293.9c4.1-10.1,8.2-20.2,12.3-30.3c2.1-5.2,4-10.4,6.3-15.5c0.5-1,2-2.1,3.1-2.2
		c9.8-0.5,9.8-0.5,13.5,8.8c5.1,12.8,10.3,25.5,15.1,38.5c1.2,3.4,1,7.3,1.4,11c0,0.5-0.2,1.2-0.6,1.5c-2,1.8-8.6,0.1-9.6-2.5
		c0-0.1-0.1-0.2-0.1-0.3c-4.7-11.6-1.4-9.4-14.1-9.7c-3.7-0.1-7.3-0.2-11,0.1c-1.3,0.1-2.6,1.6-3.8,2.6c-0.4,0.3-0.5,1-0.6,1.6
		c-1.2,6.6-4.7,10.2-11.8,8.8C195.8,302.1,195.8,298,195.8,293.9z M221.7,260.6c-0.3,0-0.6,0.1-0.8,0.1c-2.5,7.2-5.1,14.4-7.7,21.7
		c5.8,0,10.9,0,16.4,0C226.8,274.8,224.3,267.7,221.7,260.6z"/>
	<path class="st0" d="M195.8,315.9c15.2,0,30.3,0,45.5-0.1c2.5,0,3.1,1,3.1,3.3c-0.1,7.6,0.6,6.6-6.5,6.7c-12.8,0-25.5,0-38.3,0
		c-1.2,0-2.5-0.1-3.7-0.2C195.8,322.3,195.8,319.1,195.8,315.9z"/>
	<path class="st0" d="M644.5,383.7c0,2.9,0.2,5.4-0.1,7.9c-0.1,0.7-1.2,1.5-2.1,1.9c-0.8,0.3-1.8,0.1-2.7,0.1
		c-128.2,0-256.4,0-384.7,0c-1.6,0-4.5-0.3-4.6-0.9c-0.5-2.6-0.2-5.4,0-8.1c0-0.3,1.1-0.7,1.7-0.8c0.9-0.1,1.8,0,2.7,0
		c128.3,0,256.7,0,385,0C641.2,383.7,642.5,383.7,644.5,383.7z"/>
	<path class="st0" d="M452.3,335.9c0-6.8,0-13.2,0-20.1c3.6,0,7-0.2,10.3,0.1c0.6,0.1,1.5,2,1.5,3.1c0.1,11.4,0.1,22.8,0.1,34.3
		c0,6.5-0.1,13,0,19.5c0.1,2.6-0.8,3.6-3.4,3.3c-1.2-0.1-2.5-0.1-3.8,0c-2.6,0.3-4.6-0.2-4.9-2.8c-3.6,1.2-6.9,3.1-10.5,3.5
		c-8.1,1-15.2-3.5-18.5-11.3c-3.2-7.6-3.2-15.4,0.3-22.9c4.8-10.4,16.8-13.7,26.5-7.6C450.6,335.3,451.3,335.5,452.3,335.9z
		 M433.5,354.2c0.4,2.2,0.6,4.2,1.2,6c1.2,3.9,4.3,6.2,8.4,6.3c4,0.1,7.2-2,8.6-5.9c1.6-4.2,1.5-8.5-0.1-12.7
		c-1.4-3.8-3.9-5.4-8.1-5.5c-4.5,0-7.1,1.5-8.5,5.4C434.3,350,434,352.2,433.5,354.2z"/>
	<path class="st0" d="M370.7,325.7c-24,0-48,0-72-0.1c-1.3,0-3.6-0.7-3.7-1.3c-0.3-2.7,0-5.4,0.3-8.1c0-0.3,2.1-0.5,3.2-0.5
		c15,0,29.9,0,44.9,0c33.1,0,66.3,0,99.4,0.1c1.3,0,3.6,0.8,3.6,1.3c0.2,2.7-0.1,5.4-0.6,8c-0.1,0.4-2.3,0.4-3.5,0.5
		C418.4,325.7,394.6,325.7,370.7,325.7z"/>
	<path class="st0" d="M321.2,246.2c11.9-1.5,11.9-1.5,11.9,9.5c0,3.4,0,6.8,0,10.7c0.8-0.4,1.4-0.5,1.9-0.8
		c5.8-4.1,11.9-4.3,18.1-1.5c6.1,2.8,8.2,8.4,8.3,14.6c0.2,8.2,0,16.4,0.1,24.7c0,2.1-0.8,2.8-2.8,2.8c-9.4,0.4-9.4,0.5-9.4-8.8
		c0-5.7,0-11.4,0-17.1c0-4.1-1.7-6.6-4.8-7.4c-3.7-1-8.3,0.6-9.7,3.9c-1,2.3-1.6,5-1.6,7.6c-0.2,6.3-0.1,12.6,0,18.8
		c0,2.1-0.6,3-2.9,3.1c-9.1,0.3-9.1,0.3-9.1-8.8c0-15.8,0-31.5,0-47.3C321.2,248.8,321.2,247.6,321.2,246.2z"/>
	<path class="st0" d="M304.7,198.4c5.1-4,10.2-5.4,15.9-4.2c7.2,1.6,12,6.6,12.3,14c0.4,9.1,0.2,18.3,0.3,27.4
		c0,1.9-0.7,2.7-2.6,2.7c-11.7-0.2-9.3,1.6-9.5-8.8c-0.1-5.5,0-11,0-16.4c0-5.7-2.2-8.4-6.6-8.7c-5.1-0.3-8.9,2.6-9.5,7.8
		c-0.4,2.8-0.2,5.7-0.2,8.5c0,4.8-0.1,9.6,0,14.4c0,2.3-0.8,3.2-3.2,3.3c-9.1,0.3-9.1,0.3-9.1-8.8c0-14.8,0.1-29.7,0-44.5
		c0-2.6,0.5-3.6,3.4-3.6c8.9,0.1,8.9-0.1,8.9,8.7C304.7,192.5,304.7,195.1,304.7,198.4z"/>
	<path class="st0" d="M492.7,373.5c-4.7,3.6-10,4.2-15.6,2.6c-5.9-1.6-9.4-6.1-9.7-12.2c-0.3-6.7,2.5-12,8.5-13.7
		c4.5-1.3,9.4-1.1,14.1-1.6c1.3-0.1,3.2,1.1,3.4-1.4c0.2-2-0.1-4.3-2.6-4.5c-3.3-0.3-6.9-1.4-9.8,2.1c-1,1.2-4,1-6.1,1
		c-1.8,0-3.6-0.6-5.5-0.9c0.7-2.2,0.8-4.9,2.1-6.6c4.4-6,11.1-7,17.8-6.4c11.9,1,15.7,5.6,16.2,19.2c0.3,7.3,0,14.6,0.1,21.9
		c0,2.2-0.9,3.1-3.1,3c-1.5-0.1-3,0.2-4.4-0.1c-1.8-0.3-3.5-1-5.3-1.6C492.8,374.1,492.7,373.8,492.7,373.5z M487.9,356.2
		c-0.2,0.2-0.4,0.4-0.5,0.6c-1.4,0.3-2.9,0.5-4.3,0.9c-2.2,0.6-3.4,2.1-3.4,4.5c0,2.6,1.6,3.7,3.8,4c1.6,0.2,3.4,0.1,5-0.3
		c3.1-0.8,5.8-4,4.7-6.1C492.3,358.1,489.7,357.4,487.9,356.2z"/>
	<path class="st0" d="M375.7,225.1c-0.5,5.8-3.4,9.4-7.9,11.7c-9.5,5-23,1.6-28.4-6.9c-6.1-9.6-4.2-25.4,4.1-31.7
		c6.9-5.2,14.6-5.8,22.3-2.5c8,3.5,11.2,10.5,11.6,18.7c0.4,7.2,0.8,6.3-6,6.3c-6.3,0-12.6,0-18.9,0.1c-1.1,0-2.2,0.7-3.4,1
		c0.4,1.1,0.6,2.5,1.2,3.4c2.3,3.3,8.4,4.8,11.3,2.1c2.7-2.4,5.5-2.2,8.5-2.2C372,225.1,373.7,225.1,375.7,225.1z M356.6,212.1
		c1.8,0,3.6,0,5.5,0c2.3,0,2.6-1.1,1.9-3.1c-1.2-3-3.5-4.4-6.5-4.6c-3-0.3-5.7,0.7-7.2,3.5c-0.6,1-0.9,2.4-0.6,3.4
		c0.2,0.5,1.9,0.7,3,0.8C353.9,212.2,355.2,212.1,356.6,212.1z"/>
	<path class="st0" d="M427,289c0.4,6.2,7.4,9.9,12.2,6.4c3.3-2.4,6.4-2.1,9.8-2.2c1.2,0,2.5,0,3.7,0c0.5,5.8-4.4,11.4-11.1,13
		c-10.2,2.4-19.8-0.9-24.4-8.5c-5.2-8.5-4.4-21.7,1.8-29c5.6-6.5,13.1-7.5,21-5.8c8.2,1.7,12.6,7.4,14.3,15.2
		c0.6,2.5,0.4,5.2,0.7,7.8c0.3,2.4-0.8,3.2-3.1,3.1c-7-0.1-13.9,0-20.9,0C429.8,289,428.5,289,427,289z M434.3,280.2
		c1.7,0,3.4,0,5.1,0c2.4,0.1,3.1-0.9,2.1-3.1c-1.4-3.3-3.9-4.5-7.3-4.5c-3.3,0-5.6,1.5-6.9,4.5c-0.8,1.9-0.5,3.1,1.9,3.1
		C430.9,280.2,432.6,280.2,434.3,280.2z"/>
	<path class="st0" d="M617.8,289.4c0,5.8,7.3,9.6,12.3,6c2.8-2.1,5.5-2.1,8.5-2.1c1.6,0,3.2,0,5.2,0c0,4.5-2,7.7-5.2,9.9
		c-7.1,4.9-14.8,5-22.5,1.7c-7.3-3.1-10.8-9.4-11.4-17c-0.3-3.9,0.1-8,1.1-11.8c2.7-9.6,10.1-14.3,20.9-13.8
		c9.4,0.5,16.3,6.3,18.3,15.5c2.3,10.6,1.9,11.1-8.8,11.1c-5.8,0-11.6,0-17.5,0.1C618.4,289.1,618.1,289.3,617.8,289.4z M625,280.2
		c1.7,0,3.4,0,5.1,0c2.2,0,2.9-0.8,2-2.9c-1.2-2.7-3.1-4.4-6.1-4.6c-3.3-0.3-6.1,0.5-7.8,3.7c-1.5,2.9-0.9,3.8,2.3,3.9
		C622.1,280.2,623.6,280.2,625,280.2z"/>
	<path class="st0" d="M250,345.8c0-9,0.1-18.1,0-27.1c0-2.4,0.7-3.2,3.1-3.1c10.9,0.1,21.7,0.1,32.6,0c2.6,0,3.4,0.9,3.3,3.4
		c-0.2,7.6,0.7,6.6-6.5,6.7c-5.7,0-11.4,0.1-17.1,0c-2.4,0-3.1,0.8-3.1,3.2c-0.1,9.7-0.2,9.7,9.3,9.7c3.4,0,6.9,0.1,10.3,0
		c2.4-0.1,3.5,0.6,3.5,3.2c-0.2,8.8,1,7.2-7.2,7.3c-4.1,0.1-8.2,0.1-12.3,0c-2.6-0.1-3.6,0.7-3.6,3.5c0.2,6.7,0,13.5,0.1,20.2
		c0,2.4-0.6,3.4-3.3,3.5c-9,0.1-9,0.2-9-8.7C250,360.2,250,353,250,345.8z"/>
	<path class="st0" d="M330.3,354.3c0,16.2-12.6,26-28.2,21.7c-8.8-2.4-13.2-8.7-14.8-17.4c-2.1-12.2,4.2-23.5,15-26
		C316.9,329.2,330.3,336.7,330.3,354.3z M318.6,354.3c-0.2-0.1-0.3-0.1-0.5-0.2c-0.2-1.6-0.3-3.2-0.7-4.7c-1.2-4.6-4.4-7.2-8.7-7.2
		c-4.4,0-7.5,2.4-8.8,7.1c-1.1,4.2-1.2,8.4,0.8,12.3c3,6,11.7,6.7,15.2,1C317.4,360.2,317.7,357.1,318.6,354.3z"/>
	<path class="st0" d="M557.7,354.5c0-10.3,4.5-17.8,12.7-21.1c8.9-3.5,19.3-1.3,25.2,5.2c7.5,8.3,7.1,24.5-0.7,32.4
		c-7.5,7.5-21.9,7.9-30.1,0.9C560.1,368,557.7,362,557.7,354.5z M588.8,353.7c-0.2-1.1-0.3-2.9-0.8-4.6c-1.3-4.6-4.3-6.7-9.1-6.6
		c-4.3,0.1-7.8,2.6-8.5,7c-0.5,3.2-0.6,6.6,0,9.8c1.2,6.3,7.8,9.2,13.3,6.1C587.9,363,588.6,358.8,588.8,353.7z"/>
	<path class="st0" d="M616.3,336.4c4.7-3.7,9.5-5.2,15.2-4.2c7.2,1.2,12.4,6.2,12.8,13.5c0.4,9.3,0.3,18.7,0.2,28.1
		c0,0.8-1.3,2.1-2.1,2.2c-9.6,1.2-9.7,1.1-9.7-8.4c0-5.4,0.1-10.7,0-16.1c-0.1-6.4-2.1-8.9-6.8-9c-5.9-0.1-9.4,3.1-9.5,9.2
		c-0.2,6.9-0.2,13.7,0,20.6c0.1,3.1-1,3.9-3.9,3.9c-8.5-0.1-8.5,0-8.5-8.5c0-10.5,0.1-21,0-31.5c0-2.6,0.8-3.6,3.4-3.3
		c1.1,0.1,2.3,0.1,3.4,0C613.2,332.6,615.7,332.7,616.3,336.4z"/>
	<path class="st0" d="M390.2,336.4c4.2-3.6,8.8-5.1,13.9-4.5c8.8,1,14.2,6.8,14.5,16.1c0.2,8.4,0,16.9,0.1,25.3
		c0,2.1-0.9,2.8-2.9,2.8c-11.7-0.2-9.2,1.6-9.5-8.8c-0.1-5.6,0-11.2,0-16.8c0-5.4-1.8-7.8-6.1-8.3c-4.8-0.5-9,2.3-9.6,7.2
		c-0.5,4.4-0.4,8.9-0.5,13.3c-0.1,3.4-0.1,6.9,0,10.3c0.1,2.4-0.9,3.2-3.2,3.1c-10.7-0.3-8.8,1.5-8.9-8.8
		c-0.1-10.4,0.1-20.8-0.1-31.2c0-2.7,0.8-3.8,3.5-3.4c1.1,0.1,2.3,0.1,3.4,0C387.4,332.6,389.7,332.8,390.2,336.4z"/>
	<path class="st0" d="M360.2,372.4c-5,4.6-10.5,5.3-16.5,3.7c-5.9-1.6-10.5-6.8-10.7-13.2c-0.4-9.8-0.1-19.6-0.1-30
		c3.5,0,6.9-0.1,10.3,0.1c0.6,0,1.5,1.8,1.5,2.7c0.1,6.9,0.1,13.7,0.1,20.6c0,1.2,0.2,2.5,0.3,3.7c0.3,3.5,2,5.7,5.6,6.3
		c3.6,0.6,7.1-1.1,8.5-4.4c0.7-1.7,1.2-3.7,1.2-5.6c0.1-6.9,0.1-13.7,0-20.6c0-2.2,0.6-3,2.9-3c9.5-0.2,9.5-0.3,9.5,9.2
		c0,10.2-0.1,20.3,0.1,30.5c0,2.9-1,4-3.8,3.7c-0.9-0.1-1.8-0.1-2.7,0C363.5,376.3,361,376.1,360.2,372.4z"/>
	<path class="st0" d="M560.3,302.5c-9.1,8-22.8,4.1-25.8-4.6c-0.8-2.3-1.4-4.9-1.4-7.3c-0.2-8.1,0-16.2-0.1-24.3
		c0-2.5,0.8-3.3,3.3-3.3c8.7,0,8.7-0.1,8.7,8.5c0,5.7,0,11.4,0,17.1c0,4.9,2.1,7.5,6.2,7.9c4.2,0.4,8.4-2.4,8.7-6.9
		c0.5-7.4,0.4-14.8,0.6-22.2c0.1-4.5,0-4.5,4.5-4.5c7.5,0,7.5,0,7.5,7.6c0,10.7-0.1,21.5,0,32.2c0,2.5-0.8,3.6-3.3,3.3
		c-1.2-0.1-2.5-0.1-3.8,0C562.7,306.5,560.8,305.7,560.3,302.5z"/>
	<path class="st0" d="M318.6,277.7c-3.7,0-7,0.1-10.3-0.1c-0.8,0-1.8-0.9-2.3-1.6c-4.1-5.2-12.6-4.4-15.3,1.7
		c-1.9,4.5-2,9.1-0.1,13.6c2.7,6.3,11.1,7.2,15.5,1.9c0.8-1,2.3-1.4,3.6-1.8c0.9-0.3,2-0.1,3.1-0.1c6.6,0,7,0.8,3.9,6.6
		c-3.6,6.7-12.8,10.4-21.7,8.8c-9.6-1.7-15.5-7.1-17.1-16.6c-1.6-9.3-0.3-18.1,8.2-24.2c6.8-4.9,18.6-4.9,25.6-0.2
		C315.6,268.4,317.8,272.2,318.6,277.7z"/>
	<path class="st0" d="M498.9,292.6c-1.9,3.1-3.2,6.9-5.8,9.2c-7.3,6.2-15.8,6.7-24.4,3c-8-3.4-11.2-10.2-11.6-18.6
		c-0.4-8,1.4-15.2,8.3-20.2c7.8-5.7,21.7-5.2,27.9,1.4c2.3,2.5,3.2,6.3,4.7,9.4c-3.4,0.2-6.9,0.6-10.3,0.7c-0.6,0-1.4-0.8-1.7-1.4
		c-2.2-3.7-5.8-3.9-9.4-3.4c-3.3,0.4-5.5,2.6-6.5,5.8c-1.4,4.2-1.3,8.3,0.2,12.4c1.3,3.5,4,5.3,7.5,5.5c3.2,0.2,6.1-0.5,8.1-3.5
		c0.4-0.6,1-1.5,1.6-1.6c3.6-0.1,7.2-0.1,10.7-0.1C498.3,291.8,498.6,292.2,498.9,292.6z"/>
	<path class="st0" d="M506.4,342.5c0-1.8,0-3.3,0-4.7c0-5.1,0-5.2,5.2-5.4c2-0.1,2.5-1,2.5-2.8c-0.1-3.7,0.1-7.3-0.1-11
		c-0.1-2.1,0.8-2.7,2.8-2.8c9.5-0.4,9.5-0.4,9.5,9.1c0,7.4,0,7.5,7.4,7.3c3.2-0.1,3.8,1.1,3.7,4c-0.3,7.6,1,6.4-6.6,6.5
		c-4.5,0.1-4.5,0-4.5,4.5c0,4.9,0.1,9.8-0.1,14.7c-0.1,2.9,1.2,3.9,3.8,3.9c2.3,0,4.5,0,7.2,0c0,3.1,0.1,5.8-0.1,8.5
		c-0.1,0.7-1.2,1.8-1.8,1.8c-4.2-0.1-8.5,0-12.6-0.8c-5.7-1.2-8.8-5.7-8.9-11.8c-0.1-5.5-0.3-11,0.1-16.4c0.2-3.6-1.1-4.8-4.5-4.3
		C508.8,342.8,507.8,342.6,506.4,342.5z"/>
	<path class="st0" d="M506.4,285.1c0-2.9-0.1-5.7,0-8.6c0.1-2.4-0.7-3.3-3.1-3.2c-4.9,0.2-4.6,0.3-4.6-4.6c0-0.7,0.1-1.4,0-2.1
		c-0.3-2.7,0.6-4.2,3.6-3.7c3.3,0.5,4.5-0.8,4.2-4.2c-0.3-3.2-0.2-6.4,0.1-9.6c0.1-0.9,1.4-2.3,2.3-2.4c9.9-1.2,9.9-1.1,9.9,8.7
		c0,7.4,0,7.5,7.3,7.4c3.1-0.1,3.9,0.9,3.8,3.9c-0.3,7.5,0.9,6.5-6.6,6.5c-4.6,0-4.6,0-4.6,4.4c0,4.7,0.1,9.4,0,14
		c-0.1,2.8,1,4,3.8,3.9c0.1,0,0.2,0,0.3,0c7.7,0.2,8,0.5,7,8.1c-0.1,0.8-1.3,2.2-1.9,2.1c-4.4-0.2-8.9-0.1-13.2-1.1
		c-5.2-1.2-7.9-5.2-8.1-10.5C506.4,291.3,506.5,288.2,506.4,285.1L506.4,285.1z"/>
	<path class="st0" d="M389.7,285.6c0-3-0.1-5.9,0-8.9c0.1-2.5-0.8-3.4-3.4-3.4c-4.5,0.1-4.6,0-4.6-4.7c0-0.8,0.1-1.6,0-2.4
		c-0.3-2.6,0.8-3.4,3.3-3.3c4.6,0.1,4.6,0,4.6-4.8c0-3.3-0.2-6.6,0.1-9.9c0.1-0.9,1.5-1.6,2.3-2.4c0.1-0.1,0.2,0,0.3,0
		c9.2-0.4,9.2-0.4,9.2,8.7c0,8.3,0,8.3,8.1,8.4c2.1,0,3,0.5,3.1,2.9c0.2,7.5,0.3,7.7-7.2,7.5c-3.2-0.1-4.2,1-4,4.1
		c0.2,4.9,0.1,9.8,0,14.7c-0.1,2.5,1.1,3.6,3.5,3.6c0.5,0,0.9,0,1.4,0c2,0.2,5.5-0.1,5.7,0.7c0.8,2.5,0.6,5.3,0.5,8.1
		c0,0.6-1.2,1.6-1.8,1.5c-4.3-0.2-8.7-0.1-12.9-1.1c-5.4-1.3-8.1-5.2-8.2-10.8C389.6,291.3,389.7,288.5,389.7,285.6z"/>
	<path class="st0" d="M644.5,316c0,2.7,0.1,5.2-0.1,7.7c-0.1,0.7-1,1.6-1.8,1.9c-0.9,0.3-2,0.1-3.1,0.1c-30.9,0-61.9,0-92.8,0
		c-4.9,0-4.9,0-4.9-4.8c0-1.6,0-3.1,0-4.9C576.2,316,610,316,644.5,316z"/>
	<path class="st0" d="M275.4,237.2c-0.7,0.3-0.8,0.4-0.9,0.4c-3.3,0-7.3,1.2-9.7-0.3c-1.6-1-1.3-5.6-1.4-8.6
		c-0.2-10.8-0.4-21.7-0.3-32.5c0-3.4-1.1-4.6-4.3-4.2c-0.9,0.1-1.8,0.1-2.7,0c-2.1-0.2-5.6,0-5.9-0.9c-0.9-2.4-0.5-5.4-0.3-8.1
		c0-0.5,1.4-1.4,2.2-1.4c11.3-0.1,22.6-0.1,33.9,0c0.8,0,2.3,1.4,2.4,2.3c1,8.1,0.9,8.1-7.3,8.1c-0.8,0-1.6,0.1-2.4,0
		c-2.7-0.3-3.6,0.8-3.5,3.5c0.1,12.7,0.1,25.4,0.1,38C275.4,234.7,275.4,236,275.4,237.2z"/>
	<path class="st0" d="M589.3,266.8c4.4-4.3,9.4-3.7,14.3-3.7c0.1,0,0.3,0,0.3,0c3,2.3,0.9,5.4,1.3,8.1c0.1,0.6-1.3,1.9-2.1,2.1
		c-1.5,0.4-3.2,0.1-4.8,0.1c-5.7,0.1-8.7,2.7-8.9,8.5c-0.2,6.7-0.3,13.5-0.1,20.2c0.1,3.2-1.1,4.1-4.2,4.1c-8.1-0.1-8.1,0-8.1-8.2
		c0-10.5,0.1-21-0.1-31.5c0-2.7,0.7-3.9,3.5-3.5c1.2,0.1,2.5,0.2,3.8,0C586.9,262.6,588.8,263.3,589.3,266.8z"/>
	<path class="st0" d="M262.1,266.9c4.5-4.4,9.5-3.9,14.4-3.8c0.5,0,1.5,0.6,1.6,1c0.1,2.8,0.1,5.7-0.1,8.5c0,0.3-1.3,0.7-2,0.8
		c-1.8,0.1-3.7-0.1-5.5,0.1c-5.3,0.4-8,2.9-8.2,8.2c-0.3,6.9-0.4,13.9-0.4,20.8c0,2.8-0.8,3.7-3.7,3.7c-8.3-0.1-8.3,0-8.3-8.2
		c0-10.4,0.1-20.8-0.1-31.1c-0.1-3.1,1-4.2,3.9-3.8c1,0.1,2.1,0.1,3.1,0C259.5,262.8,261.6,263.2,262.1,266.9z"/>
	<path class="st0" d="M315.3,245.9c0,3,0.3,5.6-0.2,8.1c-0.1,0.7-2.1,1.7-3.2,1.7c-17.7,0.1-35.4,0.1-53.1,0.1c-1.9,0-3.9-0.1-5.8,0
		c-2.1,0.1-3.1-0.5-3.1-2.9c0.2-8.3-0.9-7,6.8-7c18-0.1,36.1,0,54.1,0C312.1,245.9,313.4,245.9,315.3,245.9z"/>
	<path class="st0" d="M542.1,332.5c4.1,0,7.7,0,11.7,0c0.1,1.1,0.3,2.2,0.3,3.3c0,12.2-0.1,24.5,0.1,36.7c0,2.8-0.8,3.7-3.7,3.7
		c-8.3-0.1-8.3,0-8.3-8.3C542.1,356.2,542.1,344.5,542.1,332.5z"/>
	<path class="st0" d="M378.4,284.3c0,6.3-0.1,12.5,0,18.8c0,2.1-0.6,3-2.9,3.1c-9.1,0.3-9.1,0.3-9.1-8.8c0-10.3,0.1-20.5-0.1-30.8
		c0-2.6,0.7-3.6,3.5-3.6c8.5,0.1,8.5-0.1,8.5,8.3C378.4,275.6,378.4,280,378.4,284.3z"/>
	<path class="st0" d="M358.7,245.9c5.6,0,11.2,0.1,16.7,0c2.5-0.1,3.5,0.6,3.4,3.3c-0.2,7.6,0.6,6.6-6.5,6.7
		c-9.9,0-19.8-0.1-29.7,0.1c-2.6,0-3.6-0.7-3.5-3.5c0.3-7.6-1-6.3,6.6-6.4C350,245.8,354.3,245.9,358.7,245.9z"/>
	<path class="st0" d="M489,325.7c-5.4,0-10.7-0.1-16.1,0c-2,0-2.9-0.6-2.8-2.7c0.2-8.8-1-7.1,6.9-7.2c9.1-0.1,18.3,0.1,27.4-0.1
		c2.8,0,3.8,0.7,3.7,3.6c-0.3,7.4,0.7,6.2-6.5,6.3C497.4,325.7,493.2,325.7,489,325.7z"/>
</g>
</svg>
