<?xml version="1.0" encoding="utf-8"?>
<!-- Generator: Adobe Illustrator 19.2.1, SVG Export Plug-In . SVG Version: 6.00 Build 0)  -->
<svg version="1.1" id="Layer_1" xmlns="http://www.w3.org/2000/svg" xmlns:xlink="http://www.w3.org/1999/xlink" x="0px" y="0px"
	 viewBox="0 0 841.9 595.3" style="enable-background:new 0 0 841.9 595.3;" xml:space="preserve">
<style type="text/css">
	.st0{fill:#FFFFFF;}
</style>
<g>
	<path class="st0" d="M651.8,193.9c-2.7,5.8-5.3,11.6-8,17.4c-14.5,31.4-29,62.8-43.5,94.3c-13.9,30.2-27.8,60.4-41.7,90.6
		c-1.7,3.7-3.4,7.3-5,11c-0.3,0.7-0.7,1-1.5,1.2c-4.1,0.8-8.2,1.7-12.3,2.5c-0.2,0-0.3,0.1-0.5,0.2c-0.7,0-1.4,0-2.1,0
		c-0.7-0.1-1.4-0.2-2-0.3c-3.2-0.3-6.3-0.6-9.5-0.9c-3.9-0.4-7.8-0.8-11.7-1.2c-1.3-0.1-2.6-0.2-3.9-0.4c-0.2,0-0.3,0-0.5-0.1
		c-0.7-0.1-1-0.7-0.8-1.4c0.1-0.4,0.3-0.7,0.4-1c15.4-34,30.7-68.1,46.1-102.1c14.9-32.9,29.7-65.8,44.6-98.7
		c2.4-5.3,4.8-10.6,7.1-15.9c0.3-0.7,0.7-1.1,1.5-1.1c2.3-0.2,4.7-0.5,7-0.8c3.5-0.4,6.9-0.8,10.4-1.2c2.8-0.3,5.6-0.6,8.4-0.9
		c1.6-0.2,3.3-0.4,4.9-0.6c0.1,0,0.3-0.1,0.4-0.1c0.4,0,0.8,0,1.2,0c0.4,0.3,0.7,0.6,1.1,0.9c3.3,2.6,6.6,5.1,9.9,7.6
		C651.8,193.2,651.8,193.6,651.8,193.9z M540.4,408.6c0.4-0.1,0.6-0.1,0.8-0.1c3.2-0.7,6.3-1.4,9.5-2c0.8-0.1,1.1-0.5,1.4-1.2
		c10-21.7,20-43.4,30-65.1c14.2-30.9,28.5-61.8,42.7-92.7c8.1-17.7,16.3-35.3,24.4-53c0.1-0.3,0.2-0.5,0.3-0.8
		c-2.9-2.3-5.8-4.5-8.8-6.8C607.4,260.8,573.9,334.6,540.4,408.6z"/>
	<path class="st0" d="M192,283.2c0.2-1,0.3-1.9,0.5-2.9c2-12,8.7-20,20.3-23.9c4.4-1.5,8.9-1.9,13.5-1.5c4.9,0.4,9.5,1.8,13.5,4.7
		c1.5,1.1,2.8,2.3,4,3.9c-3.3,2.7-6.6,5.4-9.9,8.1c-0.1-0.1-0.2-0.1-0.3-0.2c-2.8-3.2-6.5-4.5-10.6-4.6c-6.9-0.1-12.9,3.7-15.6,10.3
		c-2.7,6.6-2.4,13.2,1.2,19.5c2.4,4.1,5.9,6.8,10.7,7.7c6,1.1,11.1-0.5,14.8-5.5c0.1-0.1,0.2-0.3,0.4-0.4c3.6,2.7,7.2,5.3,10.8,8.1
		c-0.6,0.7-1.1,1.4-1.7,2.1c-3.5,3.8-7.8,6.3-12.8,7.3c-9,1.9-17.6,0.6-25.5-4.3c-6.8-4.2-10.7-10.5-12.4-18.3
		c-0.3-1.5-0.5-3-0.7-4.5c0-0.2-0.1-0.3-0.2-0.5C192,286.6,192,284.9,192,283.2z"/>
	<path class="st0" d="M454.1,298.9c-9.7,0-19.2,0-28.9,0c0.1,0.3,0.1,0.6,0.2,0.8c1.1,4.1,4.4,6.6,8.1,6.9c3.8,0.3,6.8-1.1,9.2-3.9
		c0.2-0.2,0.4-0.5,0.6-0.7c0,0,0,0,0.2-0.1c2.8,2.1,5.7,4.2,8.7,6.4c-0.4,0.5-0.7,0.9-1.1,1.3c-3.6,3.7-7.9,5.8-13,6.5
		c-5,0.7-9.9-0.1-14.4-2.4c-6.3-3.3-10-8.6-10.9-15.7c-0.5-3.6-0.1-7.1,1.1-10.5c1.8-4.8,5-8.3,9.4-10.7c5.1-2.7,10.6-3.5,16.2-2.3
		c6.4,1.3,10.6,5.3,12.9,11.4c1.1,2.8,1.5,5.7,1.5,8.7c0,1.2,0,2.4,0,3.7C454.1,298.2,454.1,298.5,454.1,298.9z M441.5,290.3
		c0-0.1,0.1-0.2,0.1-0.3c0-0.1,0-0.3,0-0.4c-0.3-2.6-1.5-4.6-3.8-5.9c-1.6-0.9-3.4-1.1-5.2-0.9c-3.5,0.4-6.3,2.8-7.1,6.3
		c-0.1,0.4-0.1,0.7-0.2,1.1C430.7,290.3,436.1,290.3,441.5,290.3z"/>
	<path class="st0" d="M376.2,315.1c-4,0-7.9,0-11.9,0c0-1.8,0-3.5,0-5.4c-0.2,0.2-0.4,0.3-0.4,0.5c-2,3.1-4.9,5-8.5,5.7
		c-3.2,0.6-6.5,0.4-9.6-0.7c-3.4-1.2-5.6-3.6-6.9-6.9c-0.9-2.3-1.3-4.7-1.4-7.1c-0.1-2.1-0.1-4.2-0.1-6.3c0-6.4,0-12.7,0-19.1
		c0-0.3,0-0.6,0-0.9c0.7-0.2,11.2-0.2,12.5-0.1c0,0.3,0,0.6,0,1c0,6.5,0,13,0,19.5c0,1.5,0.2,3,0.3,4.5c0.1,0.5,0.2,1.1,0.4,1.6
		c0.8,2.2,2.4,3.5,4.7,3.7c1.1,0.1,2.2,0.1,3.3-0.2c2-0.5,3.4-1.6,4.1-3.5c0.4-1,0.7-2.2,0.8-3.3c0.2-1,0.2-2,0.2-2.9
		c0-6.4,0-12.9,0-19.3c0-0.3,0-0.7,0-1.1c4.2,0,8.3,0,12.4,0C376.3,275.4,376.4,313.8,376.2,315.1z"/>
	<path class="st0" d="M273.8,315c0-0.8,0-1.7,0-2.6s0-1.7,0-2.8c-0.2,0.2-0.3,0.3-0.3,0.4c-2,3.2-4.9,5.1-8.6,5.8
		c-3.1,0.6-6.3,0.4-9.4-0.6c-3.8-1.3-6.1-4-7.3-7.7c-0.5-1.6-0.9-3.3-1-5c-0.1-1.6-0.2-3.3-0.2-4.9c0-7.2,0-14.4,0-21.7
		c0-0.3,0-0.7,0-1c0.7-0.2,11.4-0.2,12.5,0c0,0.3,0,0.7,0,1c0,6.3,0,12.6,0,19c0,1.5,0.1,3,0.3,4.5c0.1,0.7,0.3,1.4,0.5,2.1
		c0.8,2.2,2.3,3.4,4.6,3.7c1.2,0.1,2.4,0.1,3.5-0.3c1.8-0.5,3-1.5,3.8-3.2c0.8-1.8,1.1-3.7,1.1-5.6c0-6.7,0-13.5,0-20.2
		c0-0.3,0-0.7,0-1c0.7-0.2,11.3-0.2,12.4-0.1c0,13.4,0,26.8,0,40.2C285.1,315.2,274.7,315.2,273.8,315z"/>
	<path class="st0" d="M332.3,304.6c0,3.5,0,6.8,0,10.2c-1.3,0.5-2.6,0.8-3.9,1c-3.1,0.4-6.3,0.5-9.4-0.1c-2.3-0.4-4.4-1.2-6.2-2.7
		c-2-1.6-3.1-3.8-3.6-6.3c-0.1-0.8-0.2-1.7-0.2-2.5c0-13.4,0-26.9,0-40.3c0-0.3,0-0.7,0-1.1c4.2,0,8.3,0,12.5,0c0,3.9,0,7.9,0,11.9
		c3.7,0,7.3,0,10.9,0c0,3.4,0,6.6,0,10c-0.9,0.1-1.8,0-2.7,0c-0.9,0-1.8,0-2.7,0c-0.9,0-1.8,0-2.7,0c-0.9,0-1.8,0-2.8,0
		c0,0.3-0.1,0.5-0.1,0.8c0,4.2,0,8.5,0,12.7c0,0.9,0,1.7,0.1,2.6c0.3,3,1.7,4.4,4.7,4.7c1.5,0.2,3.1,0,4.6-0.4
		C331.3,305.1,331.7,304.9,332.3,304.6z"/>
	<path class="st0" d="M291.6,252.3c4.1,0,8.1,0,12.2,0c0.2,0.7,0.2,61.7,0,62.8c-4.1,0-8.1,0-12.2,0
		C291.5,314.5,291.4,253.4,291.6,252.3z"/>
	<path class="st0" d="M394.5,315.1c-4.2,0-8.3,0-12.4,0c-0.2-0.7-0.2-38.7-0.1-40.3c0.6-0.2,10.8-0.3,12.3-0.1
		c0.2,0.7,0.1,1.4,0.1,2c0,0.7,0,1.4,0,2.1s0,1.4,0,2c0.1,0,0.1,0,0.2,0c0.1-0.2,0.3-0.4,0.4-0.6c0.8-1.4,1.8-2.6,3-3.7
		c1.8-1.6,4-2.6,6.4-2.8c1.7-0.2,3.4-0.2,5.1,0.1c0.3,0,0.5,0.1,0.8,0.2c0,3.8,0,7.5,0,11.4c-0.3-0.1-0.6-0.1-0.8-0.2
		c-2.7-0.7-5.3-0.8-8-0.3c-3.5,0.7-5.6,2.8-6.4,6.3c-0.5,2-0.6,4.1-0.6,6.2c0,5.5,0,11,0,16.4C394.5,314.3,394.5,314.7,394.5,315.1z
		"/>
	<path class="st0" d="M467.5,271c-1.9-0.2-3.7-0.4-5.6-0.6c0.1-0.3,0.1-0.6,0.1-0.8c1.7-6.6,5.9-10.7,12.5-12.2c4.4-1,8.8-0.8,13,1
		c4.3,1.8,7.4,4.9,8.6,9.5c0.9,3.3,0.6,6.6-0.4,9.8c-0.8,2.8-2.3,5.3-4,7.6c-1.9,2.5-4,4.8-6.2,7c-6.3,6.4-12.5,12.9-18.8,19.3
		c-0.1,0.1-0.2,0.3-0.3,0.4c0,0.1,0,0.1,0,0.1s0,0.1,0.1,0.1s0.2,0,0.3,0c0.2,0,0.3,0,0.5,0c9.8,0,19.6,0,29.4,0c0.1,0,0.1,0,0.2,0
		c0,0,0.1,0,0.2,0.1c0,1.4,0,2.8,0,4.3c-12.1,0-24.2,0-36.3,0c0-0.3,0-0.6,0-0.9c0-1.4,0-2.7,0-4.1c0-0.6,0.2-1,0.6-1.4
		c5.9-6.2,11.8-12.5,17.7-18.7c2.2-2.3,4.3-4.5,6.4-6.9c1.5-1.6,2.7-3.3,3.8-5.2c1.3-2.3,2-4.7,2-7.4c0-5.2-3.3-9.3-8.4-10.4
		c-3-0.7-5.9-0.5-8.7,0.8c-3.1,1.5-5,4-6.1,7.2c-0.1,0.4-0.2,0.7-0.3,1.1C467.7,270.9,467.6,270.9,467.5,271z"/>
	<path class="st0" d="M521.7,258c2.3,0,4.5,0,6.8,0c0,13.2,0,26.5,0,39.8c1,0.2,2,0.1,3,0.1s2,0,3,0s2,0,3.1,0c0,1.5,0,2.9,0,4.5
		c-3,0-6,0-9,0c0,4.9,0,9.6,0,14.4c-1.7,0-3.2,0-4.9,0c0-4.8,0-9.5,0-14.4c-8.5,0-16.9,0-25.3,0c0-0.4-0.1-0.6-0.1-0.9
		c0-1.5,0-3,0-4.4c0-0.4,0.1-0.8,0.3-1.1c7.6-12.5,15.3-25,22.9-37.5C521.6,258.3,521.6,258.2,521.7,258z M523.5,263.6
		c-0.5,0.5-20.4,33.5-20.6,34.2c6.9,0,13.8,0,20.6,0C523.7,296.8,523.7,264.2,523.5,263.6z"/>
</g>
</svg>
