<?xml version="1.0" encoding="utf-8"?>
<!-- Generator: Adobe Illustrator 19.2.1, SVG Export Plug-In . SVG Version: 6.00 Build 0)  -->
<svg version="1.1" id="Layer_1" xmlns="http://www.w3.org/2000/svg" xmlns:xlink="http://www.w3.org/1999/xlink" x="0px" y="0px"
	 viewBox="0 0 841.9 595.3" style="enable-background:new 0 0 841.9 595.3;" xml:space="preserve">
<style type="text/css">
	.st0{fill:#FFFFFF;}
</style>
<g>
	<path class="st0" d="M645.6,410.1c-4.1,0-8,0-12.4,0c0-17.8,0-35.6,0-53.4c-0.2-0.1-0.5-0.1-0.7-0.2c-1.8,3.1-3.7,6.3-5.5,9.4
		c-2.6,4.5-5.2,9.1-7.8,13.6c-3.2,5.5-5.8,6.7-12.1,5.3c-1-0.2-2-1.4-2.6-2.4c-4.3-7.3-8.5-14.7-12.8-22.1c-0.7-1.3-1.5-2.6-2.9-3.8
		c0,17.7,0,35.4,0,53.3c-4.5,0-8.5,0-12.7,0c0-24.1,0-48.1,0-72.6c5.2,0,10.5-0.1,15.6,0.1c0.8,0,1.7,1.5,2.2,2.4
		c5.7,10,11.4,20,17.4,30.5c0.9-1.4,1.5-2.4,2.1-3.4c5-9,10-17.9,14.9-26.9c1.1-2,2.2-2.9,4.6-2.8c4.2,0.2,8.3,0.1,12.7,0.1
		C645.6,361.7,645.6,385.7,645.6,410.1z"/>
	<path class="st0" d="M247.5,356.8c0,17.7,0,35.3,0,53.3c-4.4,0-8.4,0-12.6,0c0-24.1,0-48.1,0-72.6c5.2,0,10.2-0.1,15.3,0.1
		c0.9,0,1.9,1.5,2.5,2.5c5.8,10,11.4,20,17.4,30.6c1.6-2.8,2.9-5.1,4.2-7.5c4.3-7.7,8.7-15.4,12.8-23.2c1-1.9,2.2-2.6,4.4-2.5
		c4.2,0.2,8.4,0.1,12.8,0.1c0,24.4,0,48.5,0,72.7c-4.1,0-8,0-12.3,0c0-17.8,0-35.6,0-53.3c-0.2-0.1-0.4-0.1-0.6-0.2
		c-0.5,0.8-1.1,1.6-1.6,2.4c-4.5,7.9-9.1,15.7-13.6,23.6c-1,1.9-2.3,2.4-4.4,2.6c-5.3,0.6-8.5-1-10.9-6.1
		c-3.2-6.8-7.4-13.2-11.2-19.8c-0.5-0.9-1.2-1.8-1.8-2.8C247.9,356.6,247.7,356.7,247.5,356.8z"/>
	<path class="st0" d="M540.7,272.8c0,17.4,0,34.9,0,52.5c-4.2,0-8.1,0-12.2,0c0-24.1,0-47.9,0-72.3c5.1,0,10.2-0.1,15.2,0.1
		c0.8,0,1.6,1.5,2.2,2.4c9,15.8,17.9,31.6,26.9,47.4c0.5,1,1.2,1.9,2.3,3.7c0-18.4,0-35.9,0-53.5c4.3,0,8.2,0,12.4,0
		c0,23.9,0,47.9,0,72.4c-4.9,0-9.9,0.1-14.8-0.1c-0.9,0-1.9-1.5-2.5-2.5c-8.8-15.4-17.4-30.8-26.2-46.2c-0.8-1.4-1.6-2.8-2.4-4.1
		C541.2,272.6,540.9,272.7,540.7,272.8z"/>
	<path class="st0" d="M234.9,253.3c0.7-0.1,1.2-0.3,1.8-0.3c9.4,0,18.9-0.3,28.3,0.1c17.2,0.8,28.6,11.6,30.4,28.8
		c0.8,7.8,0.7,15.6-1.9,23.1c-4.1,11.7-12.3,19-24.4,20.1c-11.2,1-22.6,0.2-34.1,0.2C234.9,301.3,234.9,277.3,234.9,253.3z
		 M248.1,264.5c0,16.5,0,33,0,49.5c5.9,0,11.6,0.5,17.2-0.1c7.9-0.8,13.2-5.4,15.4-13.2c2.1-7.4,2.1-14.9,0.2-22.4
		c-2.1-8-7.3-12.7-15.4-13.7C259.9,264,254,264.5,248.1,264.5z"/>
	<path class="st0" d="M518.6,274.7c-4.3,0-8.5,0-12.7,0c-2.1-7.9-7.6-11.6-15.2-12.3c-8.2-0.8-15,1.9-19.7,8.8
		c-6.8,10-6.7,27.1,0.5,36.7c5.2,7.1,12.4,9.5,21,7.9c8.3-1.5,13.4-6.5,15.2-14.9c0.1-0.5,0.2-0.9,0.2-1.4c0-0.3-0.1-0.7-0.3-1.4
		c-6.6,0-13.2,0-20,0c0-3.7,0-7,0-10.6c10.8,0,21.6,0,32.4,0c3.6,21.2-8,38.9-30,39.9c-25.8,1.2-39.4-19.5-37.1-43.3
		c1-10.5,5-19.6,13.5-26.3c12-9.5,32-9.5,43.7,0.1C515.1,262.3,517.9,267.9,518.6,274.7z"/>
	<path class="st0" d="M362.6,301.7c4.3,0,8.2,0,12.5,0c0.6,7.7,4.9,12.9,12.5,14c4.8,0.7,10,0.2,14.7-0.9c5-1.2,7.6-5.5,7.4-9.8
		c-0.2-4.2-2.7-7-8.2-8.3c-6.7-1.6-13.5-2.7-20.1-4.3c-7.3-1.8-13.4-5.4-15.9-13.2c-2.8-9,0.2-18.2,8.5-23.1c11.8-7,24.3-7.1,36.4-1
		c7.7,3.9,11.1,10.9,11.2,19.7c-4.2,0-8.1,0-12,0c-3.6-11.5-15.1-16.2-26.1-10.8c-3.5,1.7-5.8,4.3-5.6,8.5c0.2,4.2,2.7,6.5,6.3,7.4
		c6.3,1.6,12.7,2.8,19.1,4.2c5.9,1.3,11.6,3,15.6,7.8c7.2,8.6,5.2,22.6-4.1,29.5c-11.7,8.7-33,8.3-44.3-0.9
		C364.8,315.8,362.2,309.5,362.6,301.7z"/>
	<path class="st0" d="M437.6,359.4c-3.8,0-7.6,0-11.5,0c-0.1-0.1-0.3-0.2-0.4-0.4c-3.6-11.6-16-16.2-26.8-10c-3.2,1.8-5,4.5-4.7,8.3
		s2.6,6.1,5.9,7c6.5,1.7,13.2,2.9,19.7,4.4c2.5,0.6,5,1.3,7.3,2.2c16.5,6.4,14.9,27.1,4.3,34.8c-8.5,6.3-18.3,7.2-28.3,6
		c-6.9-0.8-13.1-3.2-18.1-8.3c-4.6-4.7-6.7-10.3-6.2-17.1c4.1,0,8.1,0,12.4,0c0.7,5.3,2.8,9.9,8.1,12.4c5.6,2.7,11.5,2.7,17.4,1.3
		c1.8-0.4,3.5-1.4,5-2.4c3.2-2.1,4.5-5.2,4.1-9c-0.4-3.6-2.7-5.8-5.9-6.7c-6.1-1.6-12.2-2.8-18.3-4.2c-2.8-0.7-5.7-1.3-8.4-2.4
		c-14.3-5.7-17-23.8-4.9-33.5c10.3-8.2,30.3-8.7,40.8-0.9C435,345.4,438.3,352.4,437.6,359.4z"/>
	<path class="st0" d="M501.3,398.8c0,3.9,0,7.5,0,11.3c-17.8,0-35.5,0-53.5,0c0-24,0-48.1,0-72.5c17.4,0,34.8,0,52.5,0
		c0,3.7,0,7.3,0,11.4c-13.1,0-26.2,0-39.5,0c0,6.2,0,12,0,18.1c12,0,23.9,0,36.1,0c0,3.9,0,7.4,0,11.4c-11.9,0-23.8,0-36,0
		c0,6.9,0,13.3,0,20.2C474.4,398.8,487.8,398.8,501.3,398.8z"/>
	<path class="st0" d="M357.5,325.3c-17.9,0-35.6,0-53.4,0c0-24,0-47.9,0-72.1c17.5,0,35,0,52.7,0c0,3.7,0,7.2,0,11.2
		c-13.3,0-26.4,0-39.8,0c0,6.2,0,12.1,0,18.3c12.2,0,24.2,0,36.4,0c0,4,0,7.6,0,11.6c-12.1,0-24,0-36.3,0c0,6.6,0,13,0,19.8
		c13.4,0,26.8,0,40.4,0C357.5,318,357.5,321.6,357.5,325.3z"/>
	<path class="st0" d="M314.1,337.6c4.1,0,8.3,0,12.8,0c0,1.6,0,2.9,0,4.3c0,14.8-0.1,29.6,0.2,44.4c0.2,9.1,6.6,14.7,16.2,14.4
		c10-0.3,16-5.9,16-15.1c0-14.7,0-29.4,0-44.1c0-1.3,0-2.5,0-4c4.2,0,8.2,0,12.5,0c0.1,1.2,0.2,2.4,0.2,3.7c0,14.7,0,29.4,0,44.1
		c0,15.7-9.2,25.7-24.9,26.7c-4.5,0.3-9.2,0.1-13.5-0.9c-12-2.6-19.4-11.4-19.7-23.8c-0.3-16.2-0.1-32.4-0.1-48.6
		C313.8,338.4,313.9,338.1,314.1,337.6z"/>
	<path class="st0" d="M554.7,337.5c4.3,0,8.2,0,12.3,0c0.1,1.4,0.2,2.6,0.2,3.8c0,14.7,0,29.4,0,44.1c0,15.4-9.6,25.7-25,26.7
		c-6.4,0.4-12.8,0-18.8-2.7c-8.4-3.8-13.6-10.4-13.9-19.4c-0.7-17.1-0.3-34.3-0.3-51.4c0-0.3,0.2-0.6,0.4-1.1c4,0,8,0,12.6,0
		c0,1.5,0,2.9,0,4.2c0,14.1,0,28.2,0,42.3c0,6.3,1.5,12,7.8,14.8c6.7,3,13.4,2.7,19.5-1.8c4.5-3.3,5.3-8.3,5.3-13.5
		c0.1-14,0-28,0-42C554.7,340.4,554.7,339.1,554.7,337.5z"/>
	<path class="st0" d="M279.4,241c-4.2,0-7.8,0-11.6,0c0-24.2,0-48.2,0-72.5c3.7,0,7.4,0,11.4,0c0,8.3,0,16.6,0,25.6
		c1.1-0.8,1.7-1.2,2.2-1.6c5.9-5.5,12.8-6.7,20.4-4.8c7.2,1.9,11.3,7.2,11.7,14.1c0.6,12.9,0.2,25.9,0.2,39c-3.7,0-7.4,0-11.5,0
		c-0.1-1.2-0.2-2.4-0.2-3.6c0-9.1,0-18.2,0-27.3c0-8.2-3.3-12.6-9.6-12.8c-7.2-0.2-12.6,4.9-12.9,12.8c-0.3,9-0.1,18-0.1,26.9
		C279.4,238.1,279.4,239.4,279.4,241z"/>
	<path class="st0" d="M371.9,218c-13.2,0-25.7,0-38.1,0c-0.9,5.8,2.9,11.8,8.5,13.8c6.3,2.3,13,0.2,16.2-4.7c0.7-1,2.2-2,3.4-2.1
		c3-0.3,6-0.1,9.3-0.1c-0.7,6.3-3.8,10.9-8.8,13.8c-9.9,5.8-20.3,6.2-30.1-0.1c-10-6.4-12.4-16.5-11.2-27.6
		c1.3-11.8,7.3-20.2,19.3-23.3c14.9-3.9,28.8,5.6,30.8,20.8C371.5,211.5,371.6,214.5,371.9,218z M359.6,208.9
		c-1-7.6-5.8-11.8-13.2-11.7c-7.1,0.1-12.3,4.8-12.9,11.7C342.2,208.9,350.9,208.9,359.6,208.9z"/>
	<path class="st0" d="M231.3,188.8c7.2-0.9,7.2-0.9,7.2-8.2c0-2.4,0-4.9,0-7.6c4.1,0,7.8,0,11.9,0c0,5.1,0,10.1,0,15.4
		c3.1,0,5.9,0,8.9,0c0,3.1,0,5.8,0,8.9c-2.9,0-5.6,0-8.8,0c0,3.7,0,7.1,0,10.4c0,5.9,0,11.9,0,17.8c0,5.3,0.7,6,5.9,6.4
		c0.9,0.1,1.8,0.1,2.6,0.2c0.2,0.4,0.4,0.6,0.4,0.7c0.1,10.3,1.5,8.2-7.9,8.5c-1,0-2.1,0-3.1-0.1c-6.8-0.6-9.8-3.9-9.9-10.6
		c-0.1-9.3,0-18.7,0-28c0-6.2,0.4-5.2-5.2-5.3c-0.6,0-1.2-0.1-2-0.1C231.3,194.4,231.3,191.7,231.3,188.8z"/>
	<path class="st0" d="M431.6,253.1c4.2,0,8.2,0,12.5,0c0,24.1,0,47.9,0,72.1c-4.1,0-8.2,0-12.5,0
		C431.6,301.2,431.6,277.2,431.6,253.1z"/>
</g>
</svg>
