<?xml version="1.0" encoding="utf-8"?>
<!-- Generator: Adobe Illustrator 19.2.1, SVG Export Plug-In . SVG Version: 6.00 Build 0)  -->
<svg version="1.1" id="Layer_1" xmlns="http://www.w3.org/2000/svg" xmlns:xlink="http://www.w3.org/1999/xlink" x="0px" y="0px"
	 viewBox="0 0 841.9 595.3" style="enable-background:new 0 0 841.9 595.3;" xml:space="preserve">
<style type="text/css">
	.st0{fill:#FFFFFF;}
</style>
<g>
	<path class="st0" d="M342,306.7c0-10.5,0-21,0-31.5c0-2.9,0.6-3.4,3.4-3.2c2.4,0.1,4.8,0.3,7.1,0c2.9-0.3,4.9,0.8,6.6,3
		c2.8,3.6,5.7,7.2,8.5,10.8c6.4,8.3,12.7,16.7,19,25c0.3,0.4,0.6,0.9,1,1.2c0.6,0.4,1.7,1,2,0.7c0.6-0.4,1-1.4,1-2.1
		c0-2.9-0.2-5.8-0.2-8.7c0-8.7,0-17.4,0-26.2c0-3.3,0.4-3.7,3.8-3.7c2.9,0,5.8,0,8.7-0.1c2.8-0.1,3.7,0.7,3.7,3.5
		c0,19,0,38.1,0,57.1c0,1.9,0.1,3.9,0.2,5.8c0.1,2.1-0.9,3.4-3.1,3.5c-3.3,0.1-6.5,0.4-9.8,0c-1.5-0.2-3.1-1.3-4.1-2.5
		c-9.4-12-18.7-24-28.1-36.1c-0.4-0.6-0.9-1.1-1.4-1.6c-1.3-1-2.2-0.5-2.3,1c-0.1,1.7,0.1,3.3,0.1,5c0,10.1,0.1,20.3,0.1,30.4
		c0,2.9-1,3.9-4.1,3.8c-2.9,0-5.8,0-8.7,0c-2.9,0-3.6-0.6-3.6-3.5C341.9,327.8,341.9,317.2,342,306.7
		C341.9,306.7,341.9,306.7,342,306.7z"/>
	<path class="st0" d="M577.9,306.7c0-10.6,0-21.2,0-31.7c0-2.2,1-3,3-3c2.9,0.1,5.8-0.2,8.7,0.1c1.7,0.2,3.7,1,4.7,2.3
		c3.8,4.5,7.4,9.2,11,13.9c5.8,7.6,11.4,15.2,17.2,22.7c0.7,0.8,1.9,1.2,2.9,1.8c0.3-1.1,0.9-2.2,0.9-3.3c0-11.5-0.1-23.1-0.2-34.6
		c0-2,0.9-2.8,2.9-2.8c3.4,0,6.9-0.1,10.3-0.2c2.1,0,3.2,0.9,3.2,3c0,3.2,0.1,6.3,0.1,9.5c0,17.9,0,35.8,0,53.7
		c0,3.3-0.6,3.9-3.8,3.9c-2.2,0-4.4-0.2-6.6,0.1c-3,0.3-5-0.9-6.8-3.2c-9-11.6-18-23.2-27.1-34.8c-0.5-0.6-1-1.3-1.6-1.7
		c-0.7-0.4-1.6-0.8-2.3-0.6c-0.4,0.1-0.7,1.3-0.7,2c0,9.7,0.1,19.4,0.2,29.1c0,1.9,0.2,3.9,0.2,5.8c0.1,2.1-0.9,3.3-3.1,3.3
		c-3.3,0-6.7,0-10-0.1c-2.1-0.1-3.1-1.3-3.1-3.4C577.9,327.9,577.9,317.4,577.9,306.7C577.8,306.7,577.9,306.7,577.9,306.7z"/>
	<path class="st0" d="M566.7,307.1c0.7,20-15.9,35.8-36.3,36.1c-22.4,0.4-38.6-15.8-38.7-35.9c-0.1-21.4,16.3-36.6,37.3-36.6
		C550.1,270.6,567.6,286.6,566.7,307.1z M529.7,284.9c-11.4-0.3-21.9,9.5-22.1,20.8c-0.3,12.5,9.5,23.4,21.5,23.6
		c10.8,0.2,22.1-8.3,22.1-22.5C551.2,293.9,541.1,285,529.7,284.9z"/>
	<path class="st0" d="M256,307.1c-0.6-17.4,12.7-33.3,30.1-35.7c14.5-2.1,27.3,1.2,36.8,12.9c8.4,10.4,10.8,22.3,6,35
		c-5.1,13.6-15.1,21.7-29.6,23.5c-15.9,2-28.8-3.2-38-16.6C257.8,321.1,256.2,315.2,256,307.1z M315.2,306.8
		c0.2-11.5-9.7-22.1-22-22c-11.6,0.1-21.7,10.1-21.8,21.5c-0.1,12.3,10.2,22.9,22.3,22.9C305.1,329.3,315.1,318.8,315.2,306.8z"/>
	<path class="st0" d="M437.8,271.9c5.5,0.3,10.9,0.3,16.3,0.9c13.9,1.6,24.8,11.9,28.1,25.4c3.2,13.4-0.4,24.7-9.9,34.3
		c-5.6,5.7-12.8,8.5-20.7,8.9c-9.1,0.5-18.3,0.3-27.5,0.4c-2.3,0-3.2-1.4-3.2-3.6c0.2-19.6,0.3-39.1,0.4-58.7c0-1.5-0.2-3-0.3-4.5
		c-0.2-2.3,0.8-3.2,3.1-3.1c4.5,0.1,9,0,13.5,0C437.8,272,437.8,272,437.8,271.9z M437.2,306.7L437.2,306.7c0,4.8,0,9.5,0,14.3
		c0,7.7,0,7.5,7.8,7.8c10.5,0.5,23-7.1,22.6-22.1c-0.2-9.2-4.1-15.9-12.5-19.3c-4.1-1.7-8.9-1.8-13.4-2.4c-3.6-0.4-4.6,0.6-4.6,4.3
		C437.1,295,437.2,300.8,437.2,306.7z"/>
	<path class="st0" d="M210.4,306.6c0-10.3,0-20.6,0-30.9c0-3.2,0.5-3.7,3.6-3.6c2.9,0,5.8,0,8.7-0.1c2.8-0.1,3.7,0.8,3.7,3.5
		c-0.1,15.6-0.1,31.2-0.2,46.8c0,4.7,0.8,5.6,5.5,5.6c6.2,0,12.3-0.2,18.5-0.3c2.8-0.1,3.7,0.8,3.7,3.5c0,2.4,0.1,4.8,0,7.1
		c0,2.8-0.9,3.8-3.6,3.8c-12.2,0-24.3,0-36.5,0c-2.9,0-3.7-1-3.7-3.6c0-10.6,0-21.1,0-31.7C210.3,306.6,210.4,306.6,210.4,306.6z"/>
	<path class="st0" d="M273.6,236.3c0,4.2,0,8.5,0,12.7c0,2.4-1.1,3.9-3.3,4.8c-8.4,3.6-17.1,5-26.1,4.2c-14.8-1.2-26-8.1-31.9-22.1
		c-8.6-20.7,1.7-45.4,26.7-50.4c10.4-2.1,20.3-0.4,30,3.5c3.1,1.2,4.3,3.8,3.4,7.1c-0.6,2.3-2.1,1.5-3.5,0.9
		c-4.1-1.7-8.1-3.9-12.4-4.9c-13.7-3.2-27.7,2.8-35,14.4c-6,9.6-5.1,23,1.8,32.1c10.5,13.7,26.8,15.3,40.2,9.8
		c1.9-0.8,2.7-2.2,2.7-4.1c0-4.7,0-9.3,0-14c0-2.5-1.3-3.7-3.8-3.7c-2.7,0-5.5,0.1-8.2,0.2c-2.1,0-3.3-1-3.3-3.2
		c0-2.5,1.1-3.6,3.5-3.6c5.2,0,10.4-0.1,15.6-0.1c2.6,0,3.6,1.1,3.6,3.7C273.5,227.8,273.5,232.1,273.6,236.3
		C273.5,236.3,273.6,236.3,273.6,236.3z"/>
	<path class="st0" d="M599.1,241.9c0,4,0,7.9,0,11.9c0,2.8-1,3.8-3.9,3.7c-3.4,0-4.5-1-4.5-3.7c0.1-11.7,0.4-23.4,0.3-35.2
		c0-9.8-0.3-19.6-0.5-29.3c0-2,1-3.1,2.8-3c8,0.1,16.1-0.1,24,0.7c8.2,0.8,13.7,5.8,16,13.8c2.2,7.6,0.3,14.4-5.5,19.7
		c-1.6,1.4-3.7,2.3-5.7,3.1c-2.4,1-2.9,2-1.4,4.2c4.2,6.1,8.4,12.2,12.7,18.2c2,2.8,4,5.6,5.9,8.4c1.1,1.7,0.6,2.8-1.5,3
		c-3.8,0.4-6.8-0.5-9.1-4.2c-4.9-8.2-10.3-16-15.4-24c-1.5-2.3-3.4-3.5-6.2-3.2c-1.3,0.1-2.6,0-4,0c-3.4-0.1-4.4,0.9-4.4,4.3
		c0,3.9,0,7.8,0,11.6C598.9,241.9,599,241.9,599.1,241.9z M598.8,206.2L598.8,206.2c0,3.3,0,6.5,0,9.8c0,2.4,1.1,3.9,3.4,3.7
		c5.3-0.3,10.6-0.3,15.7-1.3c4.1-0.8,7.1-3.9,8.1-8.2c2.1-8.8-3.2-16.3-12.2-17.1c-3.7-0.3-7.4-0.4-11.1-0.4c-3,0-3.9,1-3.9,4
		C598.8,199.9,598.8,203,598.8,206.2z"/>
	<path class="st0" d="M289.8,221.5c0-10.7,0-21.5,0-32.2c0-2,0.8-3.1,2.7-3c7.9,0.1,15.9-0.1,23.8,0.7c7.6,0.7,13.2,5.1,15.7,12.5
		c2.6,7.5,1.5,14.5-4.1,20.3c-1.7,1.7-4.2,2.8-6.5,3.8c-2.5,1.1-3,1.9-1.5,4.1c6.1,8.9,12.3,17.8,18.4,26.8c0.4,0.6,0.9,1.7,0.6,2.1
		c-0.4,0.6-1.4,0.9-2.2,1c-4,0.6-6.8-0.9-8.9-4.5c-4.9-8-10.1-15.7-15.1-23.6c-1.6-2.5-3.7-3.9-6.8-3.4c-1.5,0.2-3,0-4.5,0
		c-2.2,0-3.5,1.1-3.4,3.4c0.1,7.8,0.1,15.7,0.2,23.5c0.1,3.4-0.8,4.6-3.5,4.6c-4-0.1-4.7-1.1-4.7-4.8
		C289.9,242.3,289.8,231.9,289.8,221.5L289.8,221.5z M297.7,206L297.7,206c0,3.3,0,6.5,0,9.8c0,2.7,1.2,4.1,3.8,4.1
		c4.5-0.1,9-0.2,13.4-0.9c6.9-1.1,10.4-5.6,10.4-12.5s-3.7-11.8-10.4-12.8c-4.4-0.7-8.9-0.8-13.4-0.9c-2.6-0.1-3.7,1.4-3.7,4
		C297.7,199.8,297.7,202.9,297.7,206z"/>
	<path class="st0" d="M467.1,257.4c-4-0.1-4.5-0.5-6-4.2c-1.6-3.8-3.2-7.6-4.9-11.4c-1-2.3-2.8-2.8-5.4-2.7
		c-8.4,0.3-16.9,0.2-25.4,0.2c-4.3,0-4.8,0.3-6.4,4.3c-1.3,3.3-2.4,6.6-3.7,9.9c-1.5,3.7-4.6,5.1-8.3,3.7c-1.5-0.6-1.7-1.6-1.1-3
		c7-16.9,14.1-33.7,21.1-50.6c1.9-4.5,3.7-9.1,5.4-13.8c1-2.7,2.7-3.9,5.5-3.9c2.9,0,4.3,1.6,5.3,3.9c4.1,9.9,8.2,19.8,12.4,29.7
		c4.7,11.1,9.4,22.2,14.2,33.3C471.7,256.9,471.4,257.5,467.1,257.4z M437.8,232.4L437.8,232.4c3.4,0,6.9,0.1,10.3,0
		c3.5,0,4.5-1.5,3.2-4.7c-3.7-9-7.3-18.1-11.1-27.1c-0.4-1-1.7-1.7-2.6-2.6c-0.7,0.9-1.6,1.7-2,2.7c-3.5,8.9-6.9,17.9-10.4,26.8
		c-1.3,3.3-0.5,4.8,3.2,4.8C431.5,232.4,434.6,232.4,437.8,232.4z"/>
	<path class="st0" d="M350.7,221.4c0-10.7,0-21.5,0-32.2c0-2.4,1.2-3,3.3-3c10.7,0.1,21.3,0.1,32,0.2c1.7,0,3.3-0.1,5-0.2
		c2.5-0.1,3.6,0.9,3.7,3.1c0,2.4-1.1,3.7-3.5,3.7c-9.1-0.1-18.1-0.1-27.2-0.3c-3.9-0.1-4.6,0.6-4.6,4.5c0,4.6,0,9.2-0.1,13.7
		c0,2.9,1,4,4,3.9c7.4-0.1,14.8-0.3,22.2-0.4c2.3,0,3.7,1.3,3.7,3.8s-1.2,3.8-3.7,3.8c-7.3,0-14.6-0.1-21.9-0.2
		c-3.5-0.1-4.2,0.7-4.2,4.1c0,6.7,0,13.4,0,20.1c0,3.5,0.9,4.5,4.3,4.4c9.8-0.1,19.6-0.2,29.3-0.3c2.5,0,3.4,1,3.4,3.9
		c0,2.6-0.9,3.6-3.4,3.6c-13,0-25.9,0-38.9,0.1c-2.5,0-3.4-1-3.4-3.6C350.7,243.1,350.7,232.2,350.7,221.4L350.7,221.4z"/>
	<path class="st0" d="M531.2,221.3c0-10.7,0-21.5,0-32.2c0-2.2,0.9-3,3-3c12.4,0,24.8,0,37.3,0c2.2,0,3.6,0.8,3.7,3.1
		c0.1,2.4-1.1,3.5-3.6,3.5c-9.1,0-18.2-0.1-27.2-0.2c-4.1,0-4.7,0.6-4.7,4.8c0,4.5,0,9-0.1,13.5c0,3,1,3.9,4,3.9
		c7.4-0.1,14.8-0.2,22.2-0.3c2.6,0,3.7,1.1,3.8,3.6c0,2.8-1,3.8-3.8,3.8c-7.5-0.1-15-0.1-22.5-0.3c-2.4-0.1-3.5,1-3.5,3.2
		c0,7.4-0.1,14.8,0,22.2c0,2.5,1.7,3.2,3.9,3.2c9.7-0.1,19.4-0.1,29.1-0.2c3,0,4.1,0.8,4.4,3.3c0.3,2.5-1.1,4-3.7,4
		c-12.8,0-25.5,0-38.3,0c-3,0-4-0.8-4-3.6C531.2,243,531.2,232.1,531.2,221.3z"/>
	<path class="st0" d="M498.2,225.3c0,9.6,0,19.2,0,28.8c0,2.5-1.1,3.4-4.2,3.4c-3.3,0-4.5-0.9-4.5-3.4c0.1-18.8,0.2-37.5,0.3-56.3
		c0-4.2-0.9-5-4.9-4.9c-5.5,0.1-10.9,0.1-16.4,0.2c-2.3,0-3.4-1-3.4-3.3c0-2.5,1-3.6,3.5-3.5c14.9,0,29.8,0.1,44.7,0.1
		c1.7,0,3.3-0.2,5-0.3c2.5-0.1,3.4,0.9,3.5,3.5c0.1,2.7-0.8,3.6-3.4,3.6c-5.5-0.1-10.9-0.2-16.4-0.2c-3.2,0-4.1,0.9-4.1,4.1
		c0,9.4,0,18.9,0,28.3C498,225.3,498.1,225.3,498.2,225.3z"/>
	<path class="st0" d="M421.9,382.5c-0.3-13.5,11.2-27,27.2-26.8c16.5,0.3,28.5,11.7,28.1,28.1c-0.3,15.2-12.3,26.3-27.8,26.4
		C433.8,410.2,421.9,398.3,421.9,382.5z M471.5,383.3c0.1-12.5-9.4-22.6-21.2-22.7c-12.8-0.1-22.5,9.2-22.7,21.8
		c-0.1,12.7,9.5,23,21.8,23.1C461.7,405.5,471.4,395.8,471.5,383.3z"/>
	<path class="st0" d="M486.3,382.4c0-7.6,0-15.2,0-22.7c0-1.6,0.2-3.2,2.3-3.2c6.1,0.2,12.2,0,18.2,1c9.2,1.6,13.8,10.3,10.7,19.1
		c-1.2,3.4-3.5,6.1-7.1,7.4c-2.6,0.9-3,2-1.3,4.3c4.1,5.9,8.2,11.7,12.2,17.6c0.5,0.7,1,2.2,0.7,2.5c-0.6,0.6-1.8,1-2.7,1
		c-2.7-0.1-4.1-2.2-5.4-4.2c-3.2-5-6.6-9.8-9.5-14.9c-2-3.5-4.7-4.6-8.5-4.3c-2.5,0.2-3.5,1.1-3.4,3.6c0.1,5.4,0.2,10.7,0.2,16.1
		c0,2.9-1.6,4.3-4.1,3.7c-2.1-0.5-2.3-2.2-2.2-4c0.1-3.9,0.2-7.7,0.2-11.6c0-3.8,0-7.6,0-11.4C486.4,382.4,486.3,382.4,486.3,382.4z
		 M492.4,371.2h-0.1c0,2.2,0,4.4,0,6.6c0,2.3,0.9,3.9,3.3,3.9c3,0,6,0,8.9-0.5c6-1,9.1-5.4,8.1-11.4c-0.7-4.3-3.9-7.3-9-8
		c-2.6-0.3-5.3-0.3-7.9-0.5c-2.4-0.2-3.4,1-3.4,3.3C492.4,366.8,492.4,369,492.4,371.2z"/>
	<path class="st0" d="M411.9,382.7c0,7.7,0,15.3,0,23c0,2.4-1.1,3.8-3.1,3.8c-2.1,0-3.2-1.3-3.1-3.7c0.1-6,0.2-12,0.3-18
		c0-4.3-0.9-5-5.1-5c-7,0.1-14.1,0.1-21.1,0c-4.3,0-5,0.6-4.9,5c0.1,5.9,0.2,11.8,0.3,17.7c0,2.5-1.1,3.8-3.3,3.9c-2.1,0-3-1.3-3-4
		c0.1-14.2,0.1-28.4,0.2-42.5c0-1.1-0.1-2.1-0.2-3.2c-0.1-2.1,0.6-3.4,2.9-3.5c2.2,0,3.3,1,3.3,3.5c-0.1,4.4-0.1,8.8-0.3,13.2
		c-0.1,3.9,0.8,5,4.6,5c7.1,0,14.3,0.1,21.4,0c4.6,0,5.4-1,5.2-5.5c-0.1-4.3-0.1-8.6-0.3-12.9c-0.1-2.2,0.8-3.4,3.1-3.3
		c2.3,0.1,3,1.4,3,3.5C411.8,367.4,411.8,375,411.9,382.7L411.9,382.7z"/>
	<path class="st0" d="M213.9,409.3c-2.3-0.1-3.2-1.4-2.3-3.4c4.9-11.6,9.7-23.2,14.5-34.9c1.6-3.9,3.1-7.9,4.7-11.8
		c0.7-1.7,1.8-3,3.9-3.1c2,0,3,1.1,3.7,2.8c4.9,11.8,9.9,23.5,14.9,35.3c1.5,3.6,3.2,7.1,4.7,10.6c0.6,1.4,2,2.8,0,4.2
		c-1.4,0.9-4.4,0-5.3-1.7c-0.7-1.3-1.2-2.7-1.8-4.1c-0.5-1.2-1-2.5-1.5-3.7c-1.1-3-3.1-4.3-6.5-4.1c-5.6,0.3-11.3,0.2-16.9,0
		c-3-0.1-4.7,1-5.6,3.7c-0.8,2.3-1.6,4.7-2.5,7C217.3,408,216,409.3,213.9,409.3z M234.9,390.6C234.9,390.7,234.9,390.7,234.9,390.6
		c2.3,0.1,4.6,0.1,6.9,0.1c3.1-0.1,3.9-1.4,2.8-4.2c-2.6-6.1-5-12.2-7.7-18.3c-0.5-1.1-1.6-1.8-2.5-2.7c-0.7,0.9-1.6,1.8-2,2.8
		c-2.5,6.1-4.8,12.3-7.3,18.4c-0.9,2.2-0.3,3.7,2.1,3.9C229.8,390.8,232.4,390.6,234.9,390.6z"/>
	<path class="st0" d="M264,375c0-5.1,0-10.2,0-15.3c0-1.8,0.2-3.4,2.5-3.5c2.2-0.1,3.2,1,3.2,3.5c0,9.2,0,18.5,0,27.7
		c0,8.7,5.7,15.3,14.7,17.5c7.1,1.7,16-2.3,19.5-9.1c1-2,1.7-4.4,1.7-6.6c0.2-9.6,0.2-19.2,0.1-28.8c0-3.1,0.5-4.3,2.5-4.3
		c2.3,0,3.4,1.4,3.3,4.4c0,8.5-0.3,16.9-0.1,25.4c0.4,13.6-7.4,21.6-19.5,24.2c-8.3,1.7-15.8-1-21.9-7.2c-4.2-4.2-6.3-9.2-6.1-15.2
		C264.1,383.5,263.9,379.2,264,375C264.2,375,264.1,375,264,375z"/>
	<path class="st0" d="M338,385.9c0-6.4,0-12.9,0-19.3c0-4.2-1-5.2-5.2-5c-3.3,0.1-6.7,0.1-10,0.1c-1.9,0-3.5-0.5-3.5-2.7
		s1.7-2.6,3.6-2.6c11.6,0,23.3,0,34.9,0c1.9,0,3.5,0.4,3.6,2.6c0.1,2.4-1.7,2.8-3.6,2.8c-3.3,0-6.7-0.1-10-0.2c-3.3,0-4.3,1-4.3,4.2
		c0.1,13.2,0.2,26.4,0.3,39.6c0,0.3,0,0.5,0,0.8c-0.2,2-1.2,3.4-3.3,3.3c-2.2-0.1-2.7-1.7-2.7-3.5c0-6.7,0-13.4,0-20.1
		C337.8,385.9,337.9,385.9,338,385.9z"/>
	<path class="st0" d="M574.7,385.5c0,6.6,0,13.2,0,19.8c0,2-0.2,3.8-2.7,4.1c-2.1,0.2-3.4-1.2-3.4-3.7c0.1-10.5,0.3-21,0.4-31.4
		c0-2.9-0.1-5.8-0.2-8.7c-0.1-3.3-1.1-4.3-4.3-4.2c-3.4,0.1-6.9,0.2-10.3,0.2c-1.1,0-2.4-0.3-3.2-0.9c-0.6-0.4-1-1.8-0.8-2.5
		s1.2-1.6,2-1.7c1.7-0.2,3.5,0,5.3,0c10.5,0,21-0.1,31.4-0.2c1.8,0,3.3,0.5,3.3,2.5c0.1,2.2-1.4,2.8-3.3,2.8
		c-3.4-0.1-6.9-0.2-10.3-0.2c-3.4,0-4.2,0.8-4.2,4.2c0,6.6,0,13.2,0,19.8C574.5,385.5,574.6,385.5,574.7,385.5z"/>
	<path class="st0" d="M617.1,395.2c1.8-7.5-0.9-14.5-6.2-20.9c-3.9-4.7-7-9.9-10.5-14.9c-0.5-0.7-0.5-1.6-0.8-2.4
		c0.8-0.2,1.7-0.9,2.4-0.7c1.5,0.5,3.3,1.1,4.1,2.2c3.7,5.2,7,10.5,10.5,15.9c0.3,0.5,0.6,1.1,1,1.6c2,2.7,3.7,2.7,5.5-0.1
		c3.6-5.7,7.1-11.4,10.8-16.9c0.8-1.2,2.5-2,4-2.6c0.7-0.3,2.2,0.1,2.5,0.7s0,1.9-0.5,2.6c-2.2,3.4-4.5,6.7-6.7,10.1
		c-2.8,4.3-5.7,8.5-8.4,12.9c-0.8,1.3-1.3,3.1-1.3,4.7c-0.1,6.1,0,12.2,0,18.2c0,3-0.7,3.9-3,3.9c-2.6,0-3.5-1.2-3.4-4.2
		C617.2,402.2,617.1,399.1,617.1,395.2z"/>
	<path class="st0" d="M540.2,382.8c0,7.7,0.1,15.3-0.1,23c0,1.2-0.6,2.8-1.4,3.3c-0.7,0.5-2.5,0.1-3.3-0.5c-0.7-0.6-1-2-1-3
		c0-14.1,0.1-28.2,0.1-42.3c0-1-0.1-1.9-0.1-2.9c-0.1-3,0.7-4.3,3-4.2c2.8,0.1,2.8,2.2,2.8,4.2c0,3.3-0.1,6.5-0.2,9.8
		c0,4.2,0,8.5,0,12.7C540.1,382.8,540.1,382.8,540.2,382.8z"/>
</g>
</svg>
