<?xml version="1.0" encoding="utf-8"?>
<!-- Generator: Adobe Illustrator 19.2.1, SVG Export Plug-In . SVG Version: 6.00 Build 0)  -->
<svg version="1.1" id="Layer_1" xmlns="http://www.w3.org/2000/svg" xmlns:xlink="http://www.w3.org/1999/xlink" x="0px" y="0px"
	 viewBox="0 0 841.9 595.3" style="enable-background:new 0 0 841.9 595.3;" xml:space="preserve">
<style type="text/css">
	.st0{fill:#FFFFFF;}
</style>
<g>
	<path class="st0" d="M290.9,339.4c-9.8,0-19.6,0-29.5,0c0-0.2-0.1-0.4-0.1-0.5c0.6-0.3,1.1-0.7,1.7-0.8c4.9-1,7.7-4.2,7.8-8.8
		c0.3-12,0.8-24.1-0.1-36.1c-0.9-11.1-11.3-14.8-20.3-8c-5.9,4.5-7.7,10.7-7.8,17.8c-0.1,7.7-0.1,15.4,0,23.1
		c0.1,6.4,1.2,10.4,9.1,12.2c0.4,0.1,0.8,0.4,1.2,1.2c-9.9,0-19.7,0-30.3,0c1.1-0.7,1.5-1.1,2.1-1.2c4.8-1.1,7-4.5,7.7-9.1
		c0.3-1.9,0.3-3.9,0.3-5.9c0-19.9,0-39.8,0-59.6c0-1.7,0-3.4-0.1-5c-0.4-6.1-2.2-8.3-8.1-9.6c-0.7-0.2-1.4-0.4-2.1-0.7
		c0-0.3,0-0.5,0-0.8c6.6-1.3,13.2-2.6,20.2-4c0,14.8,0,29.3,0,44.3c0.9-0.7,1.4-1.1,1.7-1.4c7.3-7.3,16.2-9,26-6.9
		c6.9,1.5,10.5,6.2,10.7,14.1c0.2,9.7,0.1,19.4,0.1,29.1c0,2.2,0.2,4.3,0.3,6.5c0.3,4.7,2.7,7.7,7.3,8.9c0.8,0.2,1.6,0.6,2.3,0.8
		C291,338.9,291,339.1,290.9,339.4z"/>
	<path class="st0" d="M361.1,340.8c0-1.3,0-2.5,0-3.6c0-23.5,0-47,0-70.6c0-3.1-0.3-6.1-0.5-9.2c-0.2-4.9-2.7-7.9-7.5-8.9
		c-0.4-0.1-0.7-0.3-1.1-0.4c-0.1,0-0.1-0.1-0.7-0.8c6.7-1.4,13-2.7,19.7-4c0,14.6,0,28.9,0,43.7c0.9-0.7,1.2-1,1.5-1.3
		c11.9-12.5,34.8-8.8,41.4,10.1c4.2,12.1,4.4,24.3-3.9,34.9c-8.2,10.5-19.7,11.8-32,9.2c-2.1-0.5-4.2-1.2-6.2-2
		c-3.4-1.3-6.4-0.8-8.8,2.2c-0.2,0.3-0.6,0.5-0.9,0.7C362,340.9,361.8,340.8,361.1,340.8z M370.8,311.8c0.1,0,0.2,0,0.4,0
		c0,3.9-0.2,7.9,0,11.8c0.2,5.1,1.8,9.6,6.5,12.2c6.9,3.8,18.5,4.1,23.8-6.3c2-3.9,3.1-8.3,3.7-12.7c1.1-9.1,0.7-18.2-3.8-26.5
		c-2.4-4.5-6-7.6-11.2-8.4c-8.6-1.3-16.5,4.4-18.3,13.9C370.9,301.1,371.1,306.5,370.8,311.8z"/>
	<path class="st0" d="M560.3,333.5c-0.2,0.9-0.2,1.9-0.7,2.5c-3.7,4.8-8.8,5.2-14.2,4.5c-4.1-0.5-7-2.9-8.6-7.1
		c-6.1,8.7-14.4,8.6-22.9,6.6c-6.1-1.5-9.9-5.8-10.5-12.2c-0.6-6.4,1.2-12,7.2-15.1c5-2.6,10.3-4.4,15.6-6.3
		c10-3.6,10.8-4.7,10.1-15.3c-0.2-3.8-1-7.5-5-9.1c-4.4-1.8-9-1.6-13,1.1c-1.3,0.8-1.9,2.6-2.7,4.1c-0.4,0.7-0.3,1.5-0.5,2.3
		c-0.6,2.3-1.6,4.6-4.2,4.8c-1.5,0.1-4.1-0.7-4.5-1.7c-0.8-1.9-1-4.7,0-6.3c1.3-2.2,3.7-4.3,6-5.3c8.3-3.5,17-3.3,25.6-1
		c5.1,1.4,7.5,5.4,7.8,10.5c0.4,6.8,0.4,13.6,0.5,20.4c0.1,5.7,0,11.5,0,17.2c0,3.3-0.3,7.2,3.5,8.7c3.9,1.6,7-0.5,9.5-3.6
		C559.5,333.3,559.9,333.4,560.3,333.5z M536.6,305.2c-6,2.8-11.4,5-16.5,7.8c-6.5,3.6-9.1,13.1-5.3,19.4c1.3,2.1,3.7,4,6,4.8
		c6.9,2.3,13.6-1.5,14.6-8.8C536.5,320.9,536.3,313.3,536.6,305.2z"/>
	<path class="st0" d="M354.6,333.5c-0.2,0.9-0.2,1.9-0.7,2.5c-3.6,4.7-8.6,5.2-13.9,4.6c-4.1-0.5-7.2-2.6-8.7-6.6
		c-0.3,0-0.6-0.1-0.7,0c-6.3,7-16.4,9.2-25.1,5.5c-5.4-2.3-8.5-6.4-8.9-12.2c-0.4-6,1.4-11.2,7-14.4c2.5-1.4,5.2-2.5,7.8-3.5
		c3.2-1.2,6.5-2.5,9.8-3.3c11.5-2.9,10.9-10,7.7-20.6c-0.5-1.7-3-3.5-4.8-3.8c-3-0.5-6.2-0.2-9.3,0.3c-2.9,0.5-4.5,2.7-5.1,5.6
		c-0.1,0.7-0.2,1.4-0.4,2c-0.9,3.7-3.6,5.6-6.6,4.7c-2.9-0.9-4.4-4.3-2.5-7.6c1.3-2.2,3.5-4.5,5.8-5.5c8.7-3.7,17.7-3.6,26.7-1
		c4,1.1,6.1,4.3,6.9,8.2c0.5,2.6,0.7,5.3,0.7,7.9c0.1,9.8,0,19.6,0,29.4c0,1.7-0.1,3.4,0.2,5c0.3,2.6,0.7,5.3,3.7,6.2
		c3.1,1,5.8-0.1,8.1-2.4c0.4-0.4,0.8-0.9,1.1-1.3C353.8,333.3,354.2,333.4,354.6,333.5z M330.1,305.7c-5,2.2-10,4.5-15.1,6.7
		c-6.1,2.7-8.4,7.7-8.3,14.1c0.1,6.9,4.1,11.2,10.3,11.3c6.7,0.2,12.2-3.5,12.8-10.2C330.7,320.3,330.1,312.9,330.1,305.7z"/>
	<path class="st0" d="M579.4,279.7c6,0,11.5,0,17.2,0c0.1,1.1,0.1,1.9,0.2,3.2c-5.8,0-11.4,0-17.1,0c-0.1,1.3-0.2,2.1-0.2,3
		c0,11.7,0,23.3,0,35c0,2.5,0.2,4.9,0.6,7.4c0.5,3.7,2,7,5.8,8.3c3.9,1.4,7.6,0.6,10.8-2c0.9-0.7,1.7-1.7,3.4-2.5
		c0,0.7,0.3,1.8-0.1,2.2c-1.5,1.5-3,3.3-4.9,4.2c-6.1,3.3-12.7,3.5-19.2,1.4c-4.6-1.5-6.7-5.2-6.7-9.8c0-7.9,0.1-15.8,0.2-23.7
		c0-6.6,0-13.2,0-19.9c0-1.1,0-2.1,0-3.5c-2.6,0-4.8,0-8,0c1.1-1.3,1.5-2.2,2.1-2.5c7-3,11.5-8.1,14-15.2c0.2-0.6,0.7-1,1.7-1.4
		C579.4,269,579.4,274.2,579.4,279.7z"/>
	<path class="st0" d="M497.1,333.7c-0.2,0.7-0.1,1.9-0.5,2.2c-2.3,1.5-4.6,3.5-7.1,4c-4.1,0.8-8.5,1.1-12.6,0.6
		c-6.4-0.8-9.5-4.9-9.5-11.5c0-9.2,0.2-18.4,0.3-27.6c0-5.3,0-10.7,0-16c0-0.8-0.1-1.5-0.2-2.6c-2.4,0-4.6,0-7.8,0
		c1.1-1.3,1.5-2.2,2.2-2.4c7.1-3,11.7-8.2,14.1-15.5c0.2-0.5,0.6-0.8,1.5-2c0,6,0,11.1,0,16.8c4,0,7.6,0,11.2,0c1.4,0,2.8,0,4.1,0
		c2.2,0.1,2.2,0.1,2,3c-5.5,0-11.1,0-16.6,0c-0.3,0.6-0.5,0.9-0.5,1.1c0.1,14.3,0.1,28.6,0.5,42.9c0.2,7.1,4.7,11.1,10.7,10
		C491.3,336.4,493.8,335,497.1,333.7z"/>
	<path class="st0" d="M424.1,282.5c6.7-1.2,13.4-2.3,20.3-3.5c0.1,0.7,0.3,1.1,0.3,1.6c-0.1,15-0.3,30-0.4,45
		c-0.1,8.4,2.2,11.1,8.8,12.5c0.5,0.1,0.9,0.6,1.9,1.4c-10.8,0-20.8,0-30.8,0c0-0.2-0.1-0.4-0.1-0.6c0.6-0.3,1.3-0.6,2-0.8
		c5.3-1.6,7.9-4.2,8-9.7c0.2-11.8,0.2-23.7,0-35.5c-0.1-5.5-2.9-8.2-8.4-8.9c-0.5-0.1-0.9-0.2-1.3-0.3
		C424.2,283.2,424.1,282.9,424.1,282.5z"/>
	<path class="st0" d="M657.8,292c-7.3,0.4-13.9-0.2-20.4-2.2c-1.4-0.4-3.1-0.4-4.5,0c-6.6,2-13.3,2.6-20.5,2.2
		c-0.1-0.8-0.3-1.5-0.3-2.3c0-9.5-0.1-19,0-28.5c0-1,0.5-2.4,1.3-3c7.1-5.6,14.2-11,21.6-16.6c5.9,4.5,11.6,9.2,17.7,13.3
		c4,2.7,5.4,5.7,5.2,10.4c-0.4,7.8-0.1,15.6-0.1,23.4C657.8,289.9,657.8,290.8,657.8,292z M631.3,288.5c0-0.3,0.1-0.7,0.1-1
		c-1.4-1-2.9-1.9-4.3-2.9c-4.3-3.3-7.4-7.4-8.1-12.9c-0.5-4.1,0.5-7.7,3.9-10.2s7-2.1,10.6-0.3c0.9,0.4,2.3,0.2,3.4,0
		c2.4-0.3,4.9-1.4,7.1-1.1c5.8,1,8.7,7,7,13.5c-1.5,5.6-5.2,9.4-9.9,12.5c-0.8,0.5-1.6,1-2.4,1.5c0,0.3,0.1,0.7,0.1,1
		c5.5,0.6,11,1.3,17,1.9c0-1.8,0-2.8,0-3.9c0-5.8-0.4-11.7,0.1-17.5c0.6-6.3-1.2-10.5-6.7-13.9c-5-3-9.4-7.1-14.1-10.7
		c-6.7,5.1-13.1,10-19.5,15c-0.8,0.6-1.3,2-1.3,3c-0.1,5.3-0.1,10.7-0.1,16c0,3.7,0,7.4,0,11.9C620.2,289.7,625.8,289.1,631.3,288.5
		z M633.3,263.5c-3.1-2-6.1-2.4-8.4-1c-2.8,1.7-3.9,4.4-3.8,7.5c0.2,6.1,3.6,10.4,8.4,13.5c5.9,3.8,5.2,4,11.2,0
		c5.1-3.4,8.6-7.9,8.3-14.4c-0.1-2.9-1.3-5.4-4.1-6.7c-2.8-1.3-5.5-0.8-8.1,1.1c1.6,2.9,4,5.8,0.7,8.8c-1.6,1.4-3.5,1.2-5.1-0.3
		C630.4,270.3,630.6,267.9,633.3,263.5z M635.1,264.8c-1.5,1.9-3,3.6-1.2,5.7c0.3,0.4,2.1,0.4,2.5,0
		C638,268.5,636.6,266.8,635.1,264.8z"/>
	<path class="st0" d="M431.5,251.3c0-3.4,2.7-6,6-6c3.4,0,6.1,2.9,6,6.3c-0.1,3.3-2.9,5.9-6.2,5.9
		C434.1,257.4,431.5,254.6,431.5,251.3z"/>
</g>
</svg>
