<?xml version="1.0" encoding="utf-8"?>
<!-- Generator: Adobe Illustrator 19.2.1, SVG Export Plug-In . SVG Version: 6.00 Build 0)  -->
<svg version="1.1" id="Layer_1" xmlns="http://www.w3.org/2000/svg" xmlns:xlink="http://www.w3.org/1999/xlink" x="0px" y="0px"
	 viewBox="0 0 841.9 595.3" style="enable-background:new 0 0 841.9 595.3;" xml:space="preserve">
<style type="text/css">
	.st0{fill:#FFFFFF;}
</style>
<g>
	<path class="st0" d="M199.3,294.3c2.9,3.9,6.1,7.6,8.7,11.7c5.3,8.3,10.2,16.8,15.3,25.1c1.7,2.7,3.8,5.2,5.9,8c-1,0-2,0-3.1,0
		c-2.7,0-5.6-0.4-8.2,0.2c-5.6,1.2-8.4-1.6-10.8-6.1c-4.5-8.5-9.3-16.9-14-25.2c-0.9-1.6-2.1-3.1-3.1-4.7c-3.5-5.5-8-8.9-15.3-6.8
		c0,14,0,28.4,0,42.9c-4.9,0-9.5,0-14.2,0c0-33.8,0-67.6,0-101.5c0.6-0.1,1.2-0.2,1.8-0.2c9,0,18.1-0.1,27.1,0
		c3.7,0.1,7.5,0.5,11.2,1.2c8.8,1.9,14.6,7.4,17.4,15.9c2.5,7.6,2.4,15.3-0.4,22.8c-2.9,7.9-8.2,13.5-16.4,16
		C200.5,293.9,199.6,294.2,199.3,294.3z M175.3,251.1c0,11.1,0,21.5,0,32.1c3.6,0,7,0,10.4,0c1.3,0,2.5-0.3,3.8-0.4
		c9.9-1.2,14.6-6.1,15.2-16c0.5-7.8-3.6-13.9-10.7-14.7C187.9,251.3,181.6,251.4,175.3,251.1z"/>
	<path class="st0" d="M375.1,283.5c0-2.5,0-4.4,0-6.5c4.6,0,9,0,13.5,0c0,20.6,0,41.2,0,61.9c-4.3,0-8.7,0-13.4,0c0-2.3,0-4.7,0-7.7
		c-1.4,1.1-2.3,1.8-3.1,2.6c-11,10.8-28.5,7.8-37.5-3.6c-9.4-11.9-9.9-35.3,3.3-47.4c8.5-7.8,22.7-11.8,34.5-1.3
		C373.1,281.9,373.9,282.5,375.1,283.5z M376.4,307.7c-0.3-2.3-0.4-4.3-0.8-6.2c-1.5-7.4-7.8-13.2-14.9-13.8
		c-7.9-0.7-14.9,3.5-17.8,10.9c-2,5-2.1,10.1-1,15.3c1.8,8.2,8.1,13.6,15.9,13.8c8.6,0.2,15.1-4.5,17.4-12.9
		C375.8,312.5,376,309.9,376.4,307.7z"/>
	<path class="st0" d="M732.8,310.1c-15.9,0-31.3,0-46.7,0c-0.2,7.8,3.8,14.8,9.8,16.8c11.2,3.6,18.7-1.8,24.7-11
		c3.6,1.9,7.1,3.8,10.7,5.7c-6.1,11.3-15,17.6-27.9,18.5c-19,1.3-33.8-15.4-31.3-35.7c1.1-9.1,4.2-17.2,11.6-23.2
		c10.9-8.9,28.7-8.6,39.3,0.7c5.8,5.1,8,11.9,9.2,19.2C732.6,304,732.6,306.9,732.8,310.1z M717,299.4c-0.3-7.6-6-12.8-14.2-13.1
		c-8.5-0.4-15.1,4.9-16.1,13.1C696.8,299.4,706.9,299.4,717,299.4z"/>
	<path class="st0" d="M565.5,310.2c-16.1,0-31.6,0-47.9,0c1.5,4.1,2.4,7.9,4.3,11.2c4.4,7.6,15.9,9.1,23.7,3.1
		c2.9-2.3,5.3-5.3,8.1-8.3c1.5,0.8,3.3,1.6,5.1,2.6c1.7,0.9,3.4,1.9,5.1,2.9c-8.2,16-23,21.3-38.2,17.2c-11.8-3.2-18.8-12-20.5-24.1
		c-1.9-13.6,0.9-26,12.7-34.6c10.6-7.8,27-7,37.3,1.3c5.8,4.7,8.1,11.2,9.5,18.2C565.2,302.9,565.1,306.3,565.5,310.2z M518.9,299.4
		c10.3,0,20.3,0,30.4,0c-0.4-7.5-5.7-12.8-13.8-13C526.3,286.1,521,290.1,518.9,299.4z"/>
	<path class="st0" d="M627,338.8c-4.3,0-8.5,0-12.9,0c0-1-0.1-1.9-0.1-2.8c0-10.8,0-21.5,0-32.3c0-2.1-0.2-4.3-0.4-6.4
		c-0.9-8.7-7.8-10.9-14.5-9.3c-5.6,1.3-8.9,5.3-9.7,10.9c-0.4,2.8-0.5,5.8-0.5,8.7c-0.1,10.3,0,20.6,0,31.2c-4.5,0-8.9,0-13.4,0
		c0-20.7,0-41.4,0-62.2c4.5,0,8.8,0,13.3,0c0,1.6,0,3.1,0,5.2c1.2-0.9,2-1.5,2.8-2c6.9-4.8,14.4-6.7,22.5-3.6
		c8.6,3.3,12.9,10.1,13.1,19c0.4,14.2,0.2,28.5,0.2,42.8C627.2,338.2,627.1,338.4,627,338.8z"/>
	<path class="st0" d="M265.4,276.6c4.5,0,8.7,0,13.2,0c0,1.6,0,3.1,0,5.1c1.2-0.8,1.9-1.4,2.6-1.9c6.8-4.7,14.2-6.7,22.2-3.8
		c8.6,3.1,13.1,9.6,13.4,18.5c0.5,14.5,0.3,29,0.3,43.5c0,0.2-0.1,0.3-0.2,0.7c-4.2,0-8.5,0-13.1,0c0-1.1,0-2.1,0-3.1
		c0-11.7,0-23.4-0.1-35.1c0-0.1,0-0.2,0-0.3c-0.2-8.1-3.6-12.3-10.1-12.6c-7.8-0.4-13.5,4.1-14.6,11.6c-0.3,2.4-0.4,4.8-0.4,7.1
		c0,9.8,0,19.6,0,29.4c0,0.9,0,1.9,0,2.9c-4.5,0-8.8,0-13.3,0C265.4,318.2,265.4,297.5,265.4,276.6z"/>
	<path class="st0" d="M497.7,292.2c-1.7-0.8-2.9-1.5-4.2-2.1c-4.5-2.1-9-3.1-14.1-2.6c-11.9,1.2-20.3,15.4-16.3,27.3
		c2.7,8.2,10.2,13.4,19.2,12.6c4.1-0.4,8-2,12-3.2c1.1-0.3,2.1-1,3.5-1.7c0,4.7,0,9,0,13.3c0,0.4-0.5,1.1-0.9,1.3
		c-12,4.8-25.6,5.8-37.1-4c-10.6-9-13.4-20.7-10.2-33.8c3.2-13.1,12-20.9,25-23.8c7.5-1.7,14.7-0.4,21.8,2.1
		c0.6,0.2,1.4,0.9,1.4,1.4C497.7,283.3,497.7,287.5,497.7,292.2z"/>
	<path class="st0" d="M438.9,288.2c-3.3,1.7-6.5,3.3-9.7,5c-0.9-1.1-1.7-2.1-2.7-2.9c-1.4-1.2-2.9-2.4-4.6-3.1
		c-2.9-1.2-5.9-0.2-7.3,2c-1.4,2.3-1,5.8,1.2,7.7c1.8,1.5,3.9,2.7,6,3.9c2.5,1.4,5.3,2.3,7.8,3.8c6.8,3.9,11.3,9.3,11.1,17.6
		c-0.3,7.8-6.5,15-15.1,17.4c-9.5,2.7-19.1-0.5-25.1-8.3c-1.1-1.5-2.2-3-3.5-4.8c3.7-1.7,7.3-3.4,11.3-5.2c1.5,1.6,2.9,3.4,4.5,4.8
		c2.2,1.9,4.7,3,7.7,2.9c3.5-0.2,6.4-2.4,7.2-5.5c0.7-3-0.7-6.5-3.6-8.1c-2.9-1.5-5.9-2.7-8.9-3.9c-5.4-2.3-10-5.5-12.7-11
		c-4.8-10.1,1.6-21.8,13.3-24.3C425.6,274,433.9,278.3,438.9,288.2z"/>
	<path class="st0" d="M637.5,288.7c0-4.2,0-7.9,0-11.9c2.2,0,4.3,0,6.7,0c0-7,0-13.7,0-20.5c4.5,0,8.8,0,13.4,0c0,6.7,0,13.3,0,20.3
		c3.7,0,7.1,0,10.6,0c0,4.1,0,7.9,0,12.1c-3.6,0-7.1,0-11.1,0c0,17,0,33.6,0,50.3c-4.6,0-8.6,0-12.9,0c0-16.6,0-33.2,0-50.2
		C641.8,288.7,639.7,288.7,637.5,288.7z"/>
	<path class="st0" d="M237.4,276.9c4.3,0,8.6,0,13.2,0c0,20.6,0,41.3,0,62c-4.4,0-8.7,0-13.2,0C237.4,318.3,237.4,297.7,237.4,276.9
		z"/>
	<path class="st0" d="M137.2,305.8c0.3,0.6,0.5,1.1,0.9,1.8c0.7-4.7,3.9-4.8,7.4-4.4c1,0.1,2,0,3.4,0c-1.3,4.8-2.4,9.4-3.7,13.9
		c-1.4,5.3-2.9,10.5-4.2,15.8c-0.3,1.3,0.2,2.7,0.3,4.1c1.2-0.7,2.6-1.1,3.5-2.1c1.3-1.3,2.2-2.9,3.8-5c0.1,1,0.3,1.7,0.1,1.9
		c-1.9,2.4-3.5,5.1-5.9,6.9c-4.4,3.3-8.8,1.3-10-4c-0.2-0.7-0.2-1.5-0.3-2.6c-1,1.4-1.8,2.7-2.8,3.9c-2.5,3-5.6,4.9-9.6,4
		c-3.9-0.9-5.6-3.9-6.5-7.5c-2.6-9.4,3-23.5,11.5-28.4c1.9-1.1,4.3-1.5,6.5-1.9c2.1-0.4,3.8,0.4,5.1,2.2c-4.1-2.1-5.9-1.4-7.9,2.6
		c-0.2,0.4-0.4,0.8-0.5,1.2c-2.4,8.7-4.9,17.3-7.1,26c-0.3,1,0.2,2.9,0.9,3.4c0.9,0.6,2.9,0.6,3.7-0.1c2.1-1.9,4.5-3.9,5.6-6.4
		C134.8,323,137.8,314.8,137.2,305.8z"/>
	<path class="st0" d="M107.5,330.3c0.3,0.3,0.6,0.4,0.6,0.5c-0.2,4.1-6.2,9.4-10.4,9.3c-3.4-0.1-5.8-2.1-5.9-5.5
		c-0.1-2.4,0.3-4.9,0.9-7.3c3.7-14.9,7.5-29.8,11.4-45c-1.4-0.1-2.6-0.1-3.8-0.2c-0.3-2.7-0.3-2.7,2.3-2.8c4.1-0.1,8.2,0.2,12.3-2.3
		c-1.9,7.4-3.7,14.4-5.5,21.3c-2.9,11.5-5.9,22.9-8.8,34.4c-0.3,1.3,0.2,2.8,0.4,4.2c1.2-0.8,2.7-1.3,3.7-2.4
		S106.5,331.8,107.5,330.3z"/>
	<path class="st0" d="M235.2,251c0-5.2,4.2-9.5,9.3-9.7c5.1-0.1,9.5,4.2,9.6,9.3c0.1,5.2-4.3,9.6-9.3,9.6
		C239.4,260.2,235.2,256.1,235.2,251z"/>
</g>
</svg>
