<?xml version="1.0" encoding="utf-8"?>
<!-- Generator: Adobe Illustrator 19.2.1, SVG Export Plug-In . SVG Version: 6.00 Build 0)  -->
<svg version="1.1" id="Layer_1" xmlns="http://www.w3.org/2000/svg" xmlns:xlink="http://www.w3.org/1999/xlink" x="0px" y="0px"
	 viewBox="0 0 841.9 595.3" style="enable-background:new 0 0 841.9 595.3;" xml:space="preserve">
<style type="text/css">
	.st0{fill:#FFFFFF;}
</style>
<g>
	<path class="st0" d="M314,237.2c13.4,0.5,27-0.1,40.2,1.8c16.4,2.5,19.6,17.2,16.5,27.3c-1.2,3.8-2.9,6.1-8,10.6
		c0.6,0.3,1.1,0.6,1.6,0.8c9.8,4.5,14.4,12.2,13.7,23c-0.6,10.2-5.8,17.4-15.2,21.1c-3.9,1.5-8.3,2.5-12.5,2.6
		c-11.7,0.4-23.5,0.1-35.2,0.1c-0.3,0-0.7-0.1-2-0.2c1.2-1,1.8-1.7,2.6-2c2.6-1,3.5-2.7,3.5-5.6c-0.1-23.6-0.1-47.3,0-70.9
		c0-3.1-0.7-5.1-3.7-6.2c-0.7-0.2-1.2-0.9-1.8-1.3C313.7,238.1,313.8,237.6,314,237.2z M330.4,313.8c7.8,0,15.4,0.5,22.9-0.1
		c7.8-0.7,12.6-6.4,12.8-13.8c0.3-8.5-3.6-14.3-11.8-15.6c-7.3-1.1-14.7-0.7-22.1-1c-0.6,0-1.1,0.1-1.8,0.2
		C330.4,293.8,330.4,303.9,330.4,313.8z M330.4,272.9c5.8,0,11.3,0.3,16.8-0.1c2.6-0.2,5.4-1.3,7.7-2.7c4.5-3,5.4-7.7,4.7-12.8
		c-0.7-4.8-3.7-7.8-8.3-8.3c-6.9-0.8-13.8-0.9-20.8-1.3C330.4,256.5,330.4,264.5,330.4,272.9z"/>
	<path class="st0" d="M465.6,237.7c7.3,0,14.7-0.1,22,0c7.4,0.1,14.8,0,22.2,0.6c8.9,0.7,15.2,5.9,17,13.2c1.7,7,0.3,13.6-4.7,18.7
		c-4.3,4.3-9.3,7.9-14,11.8c-1.3,1-2.6,2-4,3c5.3,7.4,10.5,14.7,15.6,22c1.7,2.4,3.4,4.8,5.1,7.2c2.8,3.9,5.1,8.3,10.8,9.1
		c-1.5,1.5-13.8,1.9-23.2,1.1c1.3-1.2,2.2-2,3.2-3c-6.8-9.8-13.7-19.7-20.7-29.8c-4.2,3-8.2,5.9-12.2,8.9c-0.4,0.3-0.7,1.2-0.7,1.8
		c0,5.3-0.2,10.7,0.1,16c0.1,1.2,1.4,2.5,2.4,3.5c0.8,0.8,2,1.2,3,1.8c-0.1,0.2-0.2,0.5-0.3,0.7c-7.2,0-14.3,0-21.5,0
		c-0.1-0.2-0.3-0.3-0.4-0.5c0.7-0.5,1.3-1.2,2-1.5c2.6-1,3.5-2.7,3.5-5.6c-0.1-23.6-0.1-47.3,0-70.9c0-3.1-0.7-5.1-3.7-6.2
		c-0.7-0.2-1.2-0.9-1.8-1.3C465.4,238.2,465.5,238,465.6,237.7z M482.1,288.1c9.6-7.1,18.8-13.8,27.8-20.6c1.7-1.3,3.2-3,4.2-4.8
		c3.9-7,0.8-13.3-7-14.1c-5.3-0.6-10.7-0.4-16-0.5c-3-0.1-6,0-9,0C482.1,261.4,482.1,274.5,482.1,288.1z"/>
	<path class="st0" d="M446.5,239.2c0.3-0.9,0.7-1.7,1.2-3.1c0.7,1.1,1.2,1.7,1.6,2.4c2.7,5.6,5.3,11.2,7.9,16.8
		c0.3,0.7,0.2,1.5,0.3,2.2c-0.7-0.3-1.5-0.6-2-1.1c-12.3-11.7-34.4-12.9-47.4-2.4c-5.6,4.5-10.3,12.8-10.5,19c0.9,0,1.8,0,2.8,0
		c9.8,0,19.7-0.1,29.5,0.1c3,0,5-0.7,6-3.6c0.2-0.7,0.8-1.3,1.8-1.6c0,7,0,14,0,20.9c-0.2,0.1-0.4,0.1-0.7,0.2
		c-0.6-1.1-1-2.3-1.8-3.2c-0.9-1-2.2-2.3-3.3-2.3c-11.6-0.2-23.3-0.1-35.2-0.1c0.3,7.2,2.1,13.8,6.3,19.4
		c7.8,10.4,18.7,13.5,31.1,12.3c8-0.8,15.2-3.8,21.7-8.3c0.4-0.3,0.9-0.5,1.8-1.1c0,3.9,0.1,7.5-0.1,11c0,0.6-1,1.3-1.7,1.8
		c-6.2,4-13.1,6.2-20.4,6.9c-13.4,1.4-25.8-1.2-36.2-10.3c-9.6-8.4-14.1-19.2-14.6-31.7c-0.5-13.2,3.2-24.9,12.6-34.4
		c7.7-7.7,17.3-11.5,28-12.3C432.5,236.3,439.6,236.8,446.5,239.2z"/>
	<path class="st0" d="M688.2,238c-0.9,0.7-1.3,1.2-1.7,1.3c-3.4,1-5.6,3.5-7.5,6.4c-8.1,12.3-16.3,24.6-24.3,36.9
		c-0.7,1.1-1.2,2.7-1.2,4c-0.1,9.7,0,19.5-0.1,29.2c-0.1,3.3,0.6,5.8,4.1,6.8c0.6,0.2,1.1,0.7,1.4,1.6c-7.3,0-14.6,0-22.7,0
		c1.1-0.9,1.7-1.6,2.5-1.8c2.7-1,3.5-2.8,3.4-5.6c-0.1-10.2,0-20.4-0.1-30.5c0-1.4-0.5-2.9-1.2-4c-8-12.3-16.2-24.4-24.2-36.7
		c-1.9-2.8-3.9-5.2-7.3-6.2c-0.4-0.1-0.7-0.4-1-0.7c-0.1-0.1,0-0.3,0-0.7c7.7,0,15.4,0,23.1,0c0,0.4,0.1,0.7,0,0.8
		c-3.7,3.2-3.7,3.2-0.9,7.4c5.9,9.1,11.9,18.2,18,27.5c0.6-0.8,1.1-1.5,1.6-2.2c5.6-8.6,11.2-17.2,16.7-25.8
		c2.3-3.6,2.3-3.8-1.1-6.6c-0.2-0.1-0.2-0.5-0.4-1C672.9,238,680.2,238,688.2,238z"/>
	<path class="st0" d="M606.9,254.1c-2.1-1.7-4.3-3.3-6.4-5c-0.7-0.5-1.5-1-2.2-1.1c-7.1-0.1-14.1,0-21.5,0c0,1.2,0,2.2,0,3.2
		c0,21.6,0.1,43.3-0.1,64.9c0,3.2,0.6,5.5,3.9,6.5c0.6,0.2,1,0.8,1.3,1.7c-7.3,0-14.6,0-21.9,0c-0.1-0.2-0.2-0.4-0.3-0.7
		c1-0.6,2-1.3,3.1-1.8c1.6-0.8,2.5-1.9,2.5-3.8c0-23,0-46,0-69.1c0-0.2-0.1-0.5-0.2-1.1c-4.2,0-8.5,0.3-12.8-0.1
		c-6.2-0.5-11.8,0.4-16.1,5.3c-0.3,0.3-0.8,0.5-1.7,1.1c0.2-1,0.3-1.6,0.5-2c2-4.3,4.1-8.6,6-12.9c0.6-1.3,1.3-1.7,2.7-1.7
		c18.3,0,36.6,0,54.8,0.1c0.7,0,1.9,0.3,2.1,0.8c2.4,4.9,4.7,9.9,7,14.8C607.3,253.7,607.1,253.9,606.9,254.1z"/>
	<path class="st0" d="M270.1,307.5c-2.8,5.3-5.6,10.7-8.5,15.9c-0.3,0.6-1.3,1.2-2,1.2c-17.8,0-35.5,0-53.3,0
		c-0.2,0-0.3-0.1-1.2-0.4c1-0.8,1.6-1.4,2.4-1.7c2.6-1,3.5-2.8,3.5-5.6c-0.1-23.8-0.1-47.6,0-71.4c0-2.8-0.9-4.6-3.5-5.6
		c-0.8-0.3-1.4-0.9-2.1-1.4c0.1-0.2,0.2-0.4,0.3-0.6c7.3,0,14.6,0,21.9,0c0.1,0.2,0.2,0.4,0.3,0.6c-0.6,0.4-1.2,1-1.8,1.2
		c-3,1-3.8,3.2-3.8,6.2c0.1,10.7,0,21.4,0,32.1c0,10.9,0,21.7,0,32.6c0,3.6,0,3.6,3.5,3.6c10.4,0,20.7,0.1,31.1-0.1
		c1.4,0,3-0.7,4.1-1.5c2.3-1.6,4.4-3.6,6.7-5.3c0.5-0.4,1.4-0.4,2.1-0.6C269.9,307.1,270,307.3,270.1,307.5z"/>
	<path class="st0" d="M278.2,238c7.3,0,14.6,0,21.9,0c0.1,0.2,0.2,0.4,0.3,0.6c-0.8,0.5-1.6,1.3-2.5,1.6c-2.2,0.9-3.1,2.4-3.1,4.8
		c0.1,24.2,0,48.4,0,72.7c0,2.3,0.7,3.8,2.9,4.6c0.9,0.4,1.8,1,2.7,1.6c-0.1,0.2-0.1,0.4-0.2,0.6c-7.3,0-14.7,0-22,0
		c-0.1-0.2-0.2-0.4-0.2-0.6c0.8-0.5,1.5-1.2,2.4-1.5c2.5-0.9,3.3-2.7,3.2-5.2c-0.1-3.3,0-6.6,0-9.8c0-20.1-0.1-40.2,0.1-60.3
		c0-3.7-0.6-6.4-4.5-7.6c-0.4-0.1-0.7-0.6-1.1-0.9C278.1,238.4,278.2,238.2,278.2,238z"/>
	<path class="st0" d="M513.2,360.8c0,6.3,0,12.5,0.1,18.8c0,0.9,0.8,1.7,1.3,2.7c-2,0-4,0-5.7,0c0.3-1.3,0.9-2.6,0.9-3.8
		c0.1-6.2,0.1-12.4,0-18.6c0-1.9-0.8-3.7-1.3-5.7c2.3-1,4.7-0.5,6.6,1.9c4.4,5.4,8.9,10.8,13.3,16.2c0.5,0.6,1,1.1,1.9,2
		c0-6.4,0-12.2-0.1-18.1c0-0.7-0.8-1.3-1.3-2.1c2.1,0,4.1,0,5.8,0c-0.3,1.3-0.9,2.6-0.9,3.9c-0.1,7.2,0,14.5,0,21.7
		c0,0.8,0,1.7,0,3.4c-1.4-1-2.5-1.4-3.1-2.2c-4.9-5.9-9.8-11.8-14.7-17.7c-0.7-0.9-1.4-1.7-2.1-2.5
		C513.6,360.7,513.4,360.8,513.2,360.8z"/>
	<path class="st0" d="M412.9,354.3c4.2-1,6.7-0.4,8.9,2.6c4.1,5.7,8.8,11,13.3,16.6c1.2-3.9,0.7-17.8-0.9-19.5c2.1,0,4.1,0,5.8,0
		c-0.3,1.4-0.8,2.8-0.9,4.2c-0.1,7.2,0,14.3,0,21.5c0,0.8,0,1.7,0,2.5c-0.2,0.2-0.4,0.3-0.6,0.5c-0.9-0.7-2-1.3-2.7-2.1
		c-5.3-6.5-10.6-13.1-16-19.8c-1.3,3.7-0.7,19.8,1,21.4c-2.3,0-4.3,0-6,0c0.3-1.3,0.9-2.6,0.9-3.9c0.1-6,0.1-11.9,0-17.9
		C415.8,358.2,416.4,355.7,412.9,354.3z"/>
	<path class="st0" d="M395.1,382.7c-8.4,0-14.5-6.2-14.5-14.6s6.1-14.5,14.5-14.5c8.5,0,14.7,6.2,14.6,14.7
		C409.6,376.7,403.5,382.7,395.1,382.7z M384.6,368.3c0,6.6,4.4,11,10.8,10.9c6.2-0.1,10.5-4.6,10.5-11c0-6.5-4.5-11.1-10.7-11.1
		C388.8,357,384.5,361.6,384.6,368.3z"/>
	<path class="st0" d="M489.6,353.6c8.3,0.1,14.6,6.4,14.5,14.6c-0.1,8.4-6.4,14.5-14.9,14.4c-8.2-0.1-14.5-6.4-14.4-14.7
		C474.9,359.6,481.2,353.5,489.6,353.6z M489.5,379.2c6.3,0,10.7-4.7,10.6-11.2c-0.1-6.4-4.5-11-10.6-11
		c-6.2-0.1-10.7,4.6-10.7,11.1C478.9,374.7,483.2,379.2,489.5,379.2z"/>
	<path class="st0" d="M446.9,382.2c0.4-1.1,1-2,1-3c0.1-7.3,0.1-14.7,0-22c0-1-0.6-2.1-1.1-3.7c4.6,0.4,9.5,0.2,14.1,1.2
		c7,1.6,10.5,7.8,9.7,15.5c-0.6,6.3-5.7,11.4-12.4,11.9C454.4,382.4,450.6,382.2,446.9,382.2z M452,378.9c5.2,0.2,10.3,0.4,13.3-4.7
		c2.4-4.2,2.4-8.7-0.4-12.7c-3.1-4.5-8-4.4-12.9-4C452,364.6,452,371.6,452,378.9z"/>
	<path class="st0" d="M358.7,382.3c0.3-1.5,0.9-2.8,0.9-4.2c0.1-6.7,0.1-13.4,0-20.2c0-1.3-0.6-2.6-0.9-4c1.7,0,3.8,0,5.5,0
		c-0.2,1.7-0.7,3.5-0.7,5.2c-0.1,6.4,0,12.9,0,19.7c5.3-0.9,10.7,1.9,15.5-2.2c-0.8,1.5-1.6,3.1-2.5,4.6c-0.3,0.4-0.9,0.9-1.4,0.9
		C369.5,382.4,364,382.3,358.7,382.3z"/>
</g>
</svg>
