<?xml version="1.0" encoding="utf-8"?>
<!-- Generator: Adobe Illustrator 19.2.1, SVG Export Plug-In . SVG Version: 6.00 Build 0)  -->
<svg version="1.1" id="Layer_1" xmlns="http://www.w3.org/2000/svg" xmlns:xlink="http://www.w3.org/1999/xlink" x="0px" y="0px"
	 viewBox="0 0 841.9 595.3" style="enable-background:new 0 0 841.9 595.3;" xml:space="preserve">
<style type="text/css">
	.st0{fill:#FFFFFF;}
</style>
<g>
	<path class="st0" d="M157.5,272c0,1.2,0,2.3,0,3.4c0,4.1-0.1,8.2-0.1,12.4c0,9.2-0.1,18.4-0.1,27.6c0,1.4-0.1,1.5-1.4,1.5
		c-2.3,0-4.6,0-7,0c-0.3,0-0.7-0.1-1.1-0.1c-0.1-0.5-0.2-1-0.2-1.4c0-8.1,0-16.1,0-24.2c0-0.4-0.1-0.8-0.1-1.2
		c-0.7-0.1-1.1,0.1-1.5,0.5c-3.6,4.3-7.1,8.7-10.7,13c-0.6,0.8-1.1,0.8-1.7-0.1c-3.3-4.2-6.5-8.4-9.8-12.6c-0.3-0.4-0.6-0.9-1.3-0.7
		c0,3,0,5.9,0,8.8c0,3,0.1,6,0,9c0,2.9,0.1,5.9,0,8.9c-3.7,0-7.3,0-10.9,0c-0.4-0.5-0.4-1.1-0.4-1.7c0-3.6,0.1-7.3,0.1-10.9
		c0-8.6,0-17.2,0-25.8c0-1.7-0.1-3.4-0.1-5.2c0-1.3,0.5-1.7,1.8-1.5c1.1,0.1,2.3,0.1,3.5,0.1c1.3,0,2.7,0,4-0.1
		c0.8,0,1.4,0.2,1.9,0.9c2.5,3.4,5.1,6.7,7.6,10.1c1.2,1.6,2.4,3.2,3.7,4.8c0.8,1,1.1,1,1.8,0c3.7-4.9,7.4-9.9,11.1-14.8
		c0.4-0.5,0.8-0.8,1.4-0.8c0.9,0,1.7-0.1,2.6-0.1c1.8,0,3.6,0,5.4,0C156.5,271.7,157,271.9,157.5,272z"/>
	<path class="st0" d="M545,316.8c-3.6,0-7.1,0-10.6,0c-0.1-0.6-0.2-1.1-0.2-1.6c0-13.4,0-26.8-0.1-40.2c0-0.6,0-1.1-0.1-1.7
		c-0.1-0.8,0.1-1.4,0.8-1.9c2.3,0.6,4.7,0.4,7,0.3c1.1,0,2,0.2,2.7,1.2c2.6,3.4,5.3,6.8,8,10.2c3.3,4.2,6.7,8.4,10,12.6
		c0.5,0.6,0.8,1.2,1.3,1.8c0.2,0.2,0.4,0.4,0.9,0.9c0.1-0.8,0.1-1.2,0.1-1.7c0-7.9,0-15.7,0-23.6c0-1.1,0.3-1.3,1.6-1.3
		c2,0,4,0,6.1,0c0.8,0,1.6-0.2,2.6-0.3c0.7,0.4,1,1.1,0.8,2.1c-0.1,1-0.1,2-0.1,3c0,12.5,0,25.1-0.1,37.6c0,0.8,0.2,1.7-0.3,2.6
		c-0.2,0-0.4,0.1-0.6,0.1c-2.7,0-5.3,0-8,0c-0.7,0-1.1-0.3-1.5-0.8c-2.5-3.3-5.1-6.5-7.6-9.7c-1.5-2-3-3.9-4.6-5.9c-2.3-3-4.7-6-7-9
		c-0.1-0.1-0.1-0.2-0.2-0.2c-0.3-0.2-0.6-0.3-0.8-0.5c-0.1,0.3-0.3,0.6-0.3,0.9c0,3.6,0.1,7.1,0.1,10.7c0,2.7,0,5.4,0,8.1
		c0,1.4,0.1,2.8,0.1,4.3C545.1,315.4,545,316.1,545,316.8z"/>
	<path class="st0" d="M693.8,290.4c-0.1,0.4-0.2,0.9-0.2,1.3c0,6.2,0,12.4,0,18.7c0,1.7,0,3.4,0,5.2c0,0.4-0.1,0.8-0.1,1.3
		c-3.4,0-6.8,0-10.2,0c-0.1-0.6-0.2-1.1-0.2-1.6c0-8.1,0-16.1,0-24.2c0-4.9,0-9.8,0-14.7c0-1.1-0.1-2.1-0.1-3.2
		c0-1.2,0.3-1.5,1.5-1.5c2,0.1,4,0.1,6,0.1c0.1,0,0.3,0,0.4,0c1.4-0.5,2.2,0.3,2.9,1.3c4.1,5.3,8.2,10.7,12.4,16
		c2.1,2.7,4.3,5.5,6.4,8.2c0.3,0.3,0.6,0.6,1.2,1.2c0.1-0.8,0.3-1.3,0.3-1.7c0-2.4,0.1-4.7,0.1-7.1c0-5.2,0-10.5,0-15.7
		c0-0.4,0-0.8,0-1.2c0.1-0.8,0.2-1,1-1c2.1,0,4.1,0,6.2,0c0.5,0,1,0,1.5-0.1c1-0.2,1.6,0.2,1.6,1.2c0,0.5-0.1,1-0.1,1.5
		c0,8.3,0,16.6-0.1,24.9c0,4.3,0,8.7,0,13c0,0.9,0.1,1.8,0.1,2.7c0,0.6-0.1,1.2-0.1,1.8c-3.3,0-6.5,0-9.5,0
		c-1.4-1.8-2.7-3.6-4.1-5.3c-1.4-1.8-2.8-3.6-4.1-5.4c-1.4-1.8-2.7-3.6-4.1-5.3c-1.4-1.8-2.9-3.5-4.3-5.3c-1.3-1.7-2.6-3.5-4-5.2
		C694.1,290.3,694,290.4,693.8,290.4z"/>
	<path class="st0" d="M584.3,294.2c0-6.4,0-12.9,0-19.3c0-0.7-0.1-1.4-0.1-2.1c0-0.9,0.3-1.2,1.2-1.1c4.2,0,8.4,0,12.6,0.1
		c2.5,0.1,5.1,0,7.6,0.4c6.9,1.1,12.2,4.6,15.7,10.9c1.2,2.2,1.7,4.7,2.4,7c0.1,0.2,0.1,0.5,0.1,0.8c0,2.1,0,4.2,0,6.3
		c0,2.6-0.9,4.9-2.1,7.1c-0.8,1.5-1.8,2.9-2.7,4.4c-1.2,1.9-3,3.2-4.9,4.5c-2.3,1.6-4.7,2.6-7.5,3c-0.2,0-0.4,0-0.6,0.1
		c-1.5,0.8-3.1,0.6-4.7,0.6c-5.1,0-10.2,0-15.3,0c-0.3,0-0.5,0-0.8,0c-0.6,0-1-0.3-1-0.9c0-0.7,0-1.5,0-2.2
		C584.3,307.3,584.3,300.8,584.3,294.2L584.3,294.2z M595.1,294.3L595.1,294.3c-0.1,2.4-0.1,4.9-0.1,7.3c0,1.6,0,3.2,0,4.8
		c0,1,0.3,1.3,1.3,1.4c0.8,0.1,1.5,0.1,2.3,0.1c1.7-0.1,3.5,0,5.1-0.4c2.5-0.5,4.7-1.8,6.4-3.7c2.2-2.5,3.3-5.4,3.2-8.7
		c0-0.9-0.1-1.9-0.1-2.8c0.1-2.1-0.7-3.9-1.7-5.5s-2.4-2.7-3.9-3.6c-0.7-0.4-1.4-0.7-2.2-1c-0.5-0.2-1.1-0.3-1.6-0.5
		c-0.5-0.1-1-0.4-1.5-0.4c-1.9-0.1-3.8-0.2-5.6-0.2c-1.3,0-1.6,0.2-1.6,1.6C595.1,286.4,595.1,290.3,595.1,294.3z"/>
	<path class="st0" d="M370.6,316.9c-2.3,0-4.6,0-7,0c-0.6,0-1.1,0-1.5-0.5c-0.1-0.2-0.3-0.3-0.5-0.3c-3.1-0.9-5.5-2.9-7.9-4.9
		c-3.2-2.9-5.3-6.5-6.6-10.6c-0.8-2.6-0.9-5.2-0.7-7.7c0.3-7.3,3.7-13,9.4-17.4c1.9-1.4,4-2.5,6.3-3.2c0.6-0.2,1.3-0.5,1.9-0.8
		c0.4-0.2,0.9-0.3,1.3-0.3c3.2,0,6.4,0,9.7,0c0.5,0,1,0.1,1.5,0.3c2,0.8,4.1,1.6,6,2.5c4.9,2.5,8.2,6.5,10.4,11.5
		c0.7,1.6,0.8,3.2,1.2,4.8c0.5,2,0.5,4,0.4,6c-0.2,3.5-1.3,6.7-3.3,9.6c-1.5,2.2-3.1,4.3-5.1,6.1c-1.7,1.5-3.6,2.7-5.7,3.6
		c-0.4,0.2-0.8,0.3-1.1,0.6c-0.5,0.4-1.1,0.5-1.7,0.5C375.3,316.9,372.9,316.9,370.6,316.9z M356.3,294.5c0,7.9,6.4,14.4,14.3,14.4
		s14.3-6.4,14.3-14.2c0-7.9-6.3-14.3-14.2-14.4C362.8,280.2,356.3,286.6,356.3,294.5z"/>
	<path class="st0" d="M263.5,316.9c-2.3,0-4.6,0-6.8,0c-0.6,0-1.1-0.1-1.7-0.5c-0.7-0.5-1.7-0.9-2.5-1.3c-4.3-1.8-7.4-4.9-9.8-8.8
		c-1-1.6-1.8-3.3-2.4-5.1c-0.6-1.9-1-3.8-1.1-5.8c-0.2-4.2,0.6-8.2,2.6-11.9c2.2-4.1,5.3-7.3,9.4-9.5c2-1.1,4.1-1.8,6.2-2.7
		c0.3-0.1,0.7-0.1,1-0.1c3.1,0,6.3,0,9.4,0c0.6,0,1.2,0.1,1.7,0.4c2,0.8,4.1,1.5,6,2.5c3.8,2.1,6.9,4.9,8.9,8.9
		c0.4,0.7,0.7,1.5,1.1,2.2c2.8,6.5,2.8,13-0.2,19.4c-1.9,4-4.8,7.2-8.6,9.5c-1.3,0.8-2.6,1.6-4.1,2h-0.1c-1.1,1.1-2.5,0.8-3.8,0.8
		C267,316.9,265.3,316.9,263.5,316.9z M277.5,294.5c0-7.9-6.4-14.3-14.4-14.3c-7.8,0-14.2,6.5-14.2,14.3c0,7.9,6.5,14.3,14.4,14.3
		C271.2,308.8,277.6,302.4,277.5,294.5z"/>
	<path class="st0" d="M504.1,316.9c-2.3,0-4.6,0-6.8,0c-0.6,0-1.3,0-1.8-0.6c-0.1-0.2-0.4-0.2-0.6-0.3c-3.1-1-5.7-2.6-7.8-5.1
		c-1.2-1.5-2.5-3-3.7-4.4c-1.4-1.6-2-3.6-2.7-5.5c-1.1-3.2-1.1-6.6-0.8-9.9c0.1-1.6,0.6-3.1,1.1-4.6c1.4-4,3.8-7.3,7-10
		c2.6-2.2,5.5-3.8,8.9-4.4c0.3-0.1,0.8-0.1,1-0.3c0.8-0.7,1.7-0.6,2.7-0.6c2.4,0,4.9,0,7.3,0c0.7,0,1.4,0.1,2.1,0.4
		c1.1,0.5,2.3,0.8,3.5,1.3c5.1,2.1,8.9,5.7,11.6,10.5c2.2,3.9,3.1,8.1,2.8,12.6c-0.3,4.6-1.9,8.6-4.6,12.3c-1.6,2.2-3.7,3.9-5.8,5.6
		c-0.8,0.6-1.8,0.8-2.6,1.4c-0.9,0.8-2.2,0.5-3,1.5c-0.2,0.2-0.7,0.1-1.1,0.1C508.6,316.9,506.4,316.9,504.1,316.9z M518.2,294.6
		c0-7.9-6.3-14.4-14.3-14.4c-7.9,0-14.3,6.3-14.4,14.2c-0.1,7.8,6.3,14.3,14.1,14.4C511.7,308.9,518.2,302.6,518.2,294.6z"/>
	<path class="st0" d="M652.9,316.9c-2.2,0-4.5,0-6.7,0c-0.7,0-1.3-0.1-1.9-0.5c-0.7-0.5-1.6-0.8-2.4-1.1c-4.7-2.3-8.1-5.8-10.6-10.3
		c-2.1-3.9-2.9-8.1-2.6-12.6c0.1-1.3,0.4-2.6,0.8-3.9c0.6-2,1.2-4,2.3-5.8c2.5-4,6-7.1,10.1-9.3c1.6-0.8,3.3-1.4,5-2
		c0.3-0.1,0.7-0.1,1-0.1c3.1,0,6.3,0,9.4,0c0.6,0,1.1,0,1.6,0.4c0.2,0.2,0.5,0.3,0.8,0.4c5.7,1.4,10,4.9,13.3,9.7
		c2.8,4.1,4,8.7,3.7,13.6c0,0.6-0.1,1.3-0.1,1.9c0,2-0.7,3.8-1.4,5.6c-0.6,1.5-1.3,3-2.2,4.3c-1.8,2.6-4.1,4.9-6.7,6.7
		c-1.4,0.9-3,1.5-4.6,2.2c-0.1,0-0.2,0-0.2,0.1c-0.8,1-2,0.7-3,0.7C656.6,316.9,654.7,316.9,652.9,316.9z M667.6,294.6
		c0-7.9-6.3-14.3-14.1-14.4c-8-0.1-14.4,6.3-14.5,14.2c0,7.9,6.3,14.3,14.1,14.4C661.1,308.9,667.6,302.6,667.6,294.6z"/>
	<path class="st0" d="M329.9,316.8c-0.4,0-0.8,0.1-1.1,0.1c-3.2,0-6.4,0-9.7,0c-0.7,0-1.1-0.2-1.5-0.9c-3.4-5.2-6.9-10.4-10.4-15.5
		c-0.2-0.2-0.4-0.5-0.6-0.6c-0.7-0.3-1.3,0-1.4,0.8c0,0.4,0,0.9,0,1.3c0,4.5,0,8.9,0,13.4c0,1.4-0.1,1.5-1.4,1.5c-2.6,0-5.2,0-7.9,0
		c-0.3,0-0.7-0.1-1.1-0.1c-0.1-0.5-0.2-0.9-0.2-1.4c0-14.1,0-28.2,0-42.4c0-0.3,0-0.7,0.1-1.1c0.4,0,0.8-0.1,1.1-0.1
		c5,0,10,0,15.1,0.2c1.2,0,2.5,0.3,3.6,0.7c4.2,1.4,7.4,4,9.1,8.1c0.6,1.5,0.8,3.2,0.8,4.8c0.1,2.7-0.5,5.3-2.3,7.5
		c-1,1.2-2.3,2.2-3.4,3.3c-0.2,0.2-0.4,0.3-0.6,0.5c-0.9,0.7-0.9,0.9-0.3,1.8c3.5,5.1,6.9,10.1,10.4,15.2c0.3,0.5,0.7,0.9,1.1,1.2
		C329.9,315.5,330.1,316.1,329.9,316.8z M304.7,285.6h0.1c0,1.2,0,2.5,0,3.7c0,1,0.4,1.4,1.4,1.4c1.5,0,3-0.1,4.4-0.6
		c1.5-0.5,2.5-1.5,3-2.9s0.5-2.9,0-4.3c-0.6-1.6-2.1-2.4-3.7-2.6c-1.4-0.2-2.9-0.1-4.4,0c-0.7,0-0.9,0.3-0.9,1
		C304.7,282.7,304.7,284.2,304.7,285.6z"/>
	<path class="st0" d="M173.5,316.9c-3.8,0-7.6,0-11.5,0c0.1-0.7,0.1-1.2,0.3-1.7c1.4-3.6,2.8-7.3,4.2-10.9c1.5-3.9,2.9-7.8,4.4-11.7
		c1.6-4.4,3.2-8.8,4.8-13.1c0.8-2.3,1.7-4.6,2.6-6.9c0.3-0.8,0.6-0.9,1.5-0.9c2.7,0,5.4,0,8.1,0c1.3,0,1.7,0.3,2.1,1.6
		c0.6,1.7,1.2,3.3,1.9,4.9c0.8,2.1,1.6,4.2,2.5,6.4c1.4,3.7,2.9,7.3,4.3,11c1.3,3.3,2.5,6.6,3.7,9.9c1.2,3.2,2.5,6.4,3.7,9.6
		c0.2,0.6,0.6,1.1,0.3,1.7c-1,0.3-10.4,0.3-11.5,0c-0.9-2.6-1.8-5.2-2.7-7.7c-0.4-1-0.4-1-1.3-1c-4.2,0-8.5,0-12.7,0
		c-0.3,0-0.5,0-0.8,0c-0.5,0-0.8,0.3-1,0.8c-0.8,2.5-1.6,5-2.4,7.5C173.7,316.4,173.6,316.6,173.5,316.9z M184,285.2
		c-0.3,0.4-0.5,0.6-0.6,0.9c-1.3,3.9-2.5,7.7-3.8,11.6c-0.3,0.9-0.1,1.3,0.9,1.3c2.3,0,4.6,0,6.9-0.1c1.3,0,1.5-0.5,1.1-1.7
		c-0.5-1.2-0.9-2.3-1.3-3.5c-0.9-2.5-1.8-5-2.6-7.5C184.5,285.8,184.3,285.6,184,285.2z"/>
	<path class="st0" d="M401,294.3c0-6.8,0-13.6,0-20.5c0-0.3,0-0.5,0-0.8c0-1,0.2-1.3,1.3-1.3c0.8,0,1.6,0,2.4,0c7.4,0,14.8,0,22.3,0
		c0.5,0,0.9-0.1,1.4-0.1c1-0.1,1.3,0.2,1.3,1.2c0,1.5,0,3.1-0.1,4.6c0,0.6,0,1.2,0,1.8c0,1.1-0.3,1.4-1.4,1.4
		c-4.6,0.1-9.3,0.2-13.9,0.3c-0.3,0-0.5,0-0.8,0c-1.6,0-1.8,0.3-1.7,1.8c0,1.3,0,2.7,0,4c0,1.2,0.1,1.4,1.4,1.5c1.2,0,2.4,0,3.6,0
		c2.7,0,5.3,0,8,0c1,0,1.3,0.3,1.3,1.2c0,2.3,0,4.6,0,7c0,1.1-0.4,1.4-1.5,1.2c-0.5-0.1-0.9-0.1-1.4-0.1c-3.1,0-6.3,0-9.4,0
		c-1.5,0-1.6,0.2-1.5,1.7c0,3.4,0,6.8,0,10.2c0,2.1,0.1,4.1,0.2,6.2c0,0.9-0.3,1.3-1.3,1.3c-2.9,0-5.8,0-8.8,0
		c-1.2,0-1.3-0.1-1.3-1.3c0-3.1,0-6.3,0-9.4C401.1,302.2,401.1,298.3,401,294.3C401.1,294.3,401,294.3,401,294.3z"/>
	<path class="st0" d="M215,316.7c0-0.5-0.1-1-0.1-1.5c0-5.2,0-10.4,0-15.6c0-0.7-0.2-1.3-0.5-1.9c-1.7-2.8-3.3-5.6-5-8.4
		c-1.4-2.4-2.9-4.9-4.3-7.3c-1.3-2.3-2.7-4.5-4-6.8c-0.4-0.7-0.9-1.4-1.3-2c-0.5-0.7-0.5-0.9,0.1-1.7c3.3,0.6,6.7,0.4,10,0.2
		c1.4-0.1,1.8,0,2.4,1.3c2.2,4.3,4.5,8.7,6.7,13c0.2,0.3,0.3,0.7,0.5,1.1c0.1,0.2,0.4,0.5,0.6,0.5c0.2,0,0.5-0.3,0.6-0.5
		c1.3-2.4,2.6-4.9,4-7.4c1.3-2.3,2.6-4.7,3.8-7c0.5-0.8,1.1-1.2,2.1-1.1c1.8,0.2,3.6,0.1,5.4,0.1c0.8,0,1.5,0,2.3-0.1
		c0.6-0.1,1.2-0.2,1.9-0.3c0.7,0.7,0.7,0.7,0.2,1.6c-2.9,5-5.9,10.1-8.8,15.1c-1.9,3.2-3.8,6.3-5.6,9.5c-0.3,0.5-0.4,1.1-0.4,1.7
		c0,5.4,0,10.8,0,16.2c0,1.1-0.1,1.2-1.1,1.3c-2.9,0-5.8,0-8.6,0C215.6,316.9,215.4,316.8,215,316.7z"/>
	<path class="st0" d="M451.2,316.8c-0.1-0.6-0.2-1.1-0.2-1.6c0-9.7,0-19.5,0-29.2c0-3.5,0-7,0-10.4c0-0.8-0.1-1.6-0.1-2.4
		c-0.1-1.1,0.2-1.4,1.3-1.4c2.7,0,5.4,0.1,8.1,0c1.3,0,1.5,0.1,1.5,1.4c0,10.7,0,21.4,0,32.1c0,0.2,0,0.3,0,0.5
		c0,1.1,0.2,1.3,1.3,1.3c1.4,0,2.7,0,4.1,0c3.4,0,6.9,0,10.3,0.1c1.3,0,1.6,0.2,1.6,1.5c0,2.3,0,4.6,0,7c0,1.2-0.1,1.3-1.4,1.3
		c-8.4,0-16.8,0-25.3,0C452,316.9,451.7,316.9,451.2,316.8z"/>
</g>
</svg>
