<?xml version="1.0" encoding="utf-8"?>
<!-- Generator: Adobe Illustrator 18.0.0, SVG Export Plug-In . SVG Version: 6.00 Build 0)  -->
<!DOCTYPE svg PUBLIC "-//W3C//DTD SVG 1.1//EN" "http://www.w3.org/Graphics/SVG/1.1/DTD/svg11.dtd">
<svg version="1.1" id="Layer_1" xmlns="http://www.w3.org/2000/svg" xmlns:xlink="http://www.w3.org/1999/xlink" x="0px" y="0px"
	 viewBox="0 0 841.9 595.3" enable-background="new 0 0 841.9 595.3" xml:space="preserve">
<g>
	<path d="M204.4,256c11.2,0,22.4,0,33.6,0.1c1.3,0,3,0.7,3.8,1.6c12.8,15.3,25.5,30.7,38.3,46.1c0.3,0.3,0.6,0.6,1.3,1.2
		c0-16.5,0-32.4,0-48.7c7.1,0,13.8,0,20.8,0c0,21.9,0,43.9,0,66.2c-5.7,0-11.3,0-17,0c-5.1,0-10.2-0.1-15.3,0
		c-1.9,0-3.1-0.6-4.4-2.1c-12.9-15.7-25.9-31.3-38.8-46.9c-0.2-0.3-0.6-0.5-1.3-1.1c0,16.8,0,33.2,0,50c-7.2,0-14.1,0-21,0
		C204.4,300.4,204.4,278.2,204.4,256z"/>
	<path d="M356.1,322.8c-9.6,0-19.1,0.3-28.7-0.1c-8.5-0.3-15.9-5.5-16.3-15.7c-0.4-11.9-0.6-23.9,0-35.8
		c0.6-11.5,8.7-15.4,17.4-15.7c18.5-0.5,37.1-0.4,55.7,0c10.2,0.2,17.3,6.1,17.5,17.8c0.2,11.1-0.1,22.2-0.2,33.2
		c-0.1,9.4-6.5,15.3-15.5,16.1c-9.1,0.8-18.2,0.5-27.3,0.7c-0.9,0-1.7,0-2.6,0C356.1,323.1,356.1,322.9,356.1,322.8z M356.2,306.3
		c6.9,0,13.9,0.1,20.8,0c3.6,0,5-1.3,5-4.8c0.1-8.1,0.1-16.3,0-24.4c0-3.5-1.4-5.1-4.9-5.2c-13.9-0.1-27.8-0.1-41.7,0
		c-3.6,0-5.1,1.8-5.1,5.4c-0.1,7.9-0.1,15.9,0,23.8c0,4,1.3,5.3,5.3,5.3C342.5,306.4,349.4,306.3,356.2,306.3z"/>
	<path d="M532,322.6c3.9-6.8,7.4-12.9,11-19.1c8.7-15.1,17.4-30.3,26.3-45.3c0.6-1,2.3-2,3.5-2c7.5-0.2,15-0.2,22.5,0
		c1,0,2.5,0.8,3,1.6c12.4,21.2,24.6,42.4,36.9,63.6c0.1,0.3,0.1,0.6,0.3,1.2c-7.9,0-15.7,0-23.5-0.1c-0.7,0-1.6-0.9-2.1-1.6
		c-1.7-2.7-3-5.5-4.8-8.1c-0.6-0.9-1.9-1.8-2.9-1.8c-12.6-0.1-25.2-0.1-37.8,0c-0.9,0-1.9,0.9-2.8,1.5c-0.3,0.2-0.6,0.7-0.7,1.1
		c-2.3,8.2-7.8,10.2-15.7,9.1C541.2,322.1,537,322.6,532,322.6z M596.8,296.3c-4.6-8.1-8.9-15.7-13.4-23.8
		c-4.6,8.2-8.9,15.8-13.4,23.8C579.1,296.3,587.6,296.3,596.8,296.3z"/>
	<path d="M458.7,287.1c14.4,11.7,28.6,23.2,43,34.9c-0.3,0.2-0.6,0.5-0.8,0.5c-9.2,0-18.5,0.1-27.7,0c-1,0-2.3-0.7-3.1-1.4
		c-9.9-8.6-19.8-17.3-29.7-25.9c-2.7-2.3-5.4-4.6-8.3-7.1c2.1-1.9,3.7-3.5,5.4-5c10-8.7,20-17.3,30.1-26c0.6-0.5,1.3-1.1,1.9-1.1
		c9-0.1,17.9,0,27.9,0C484,266.8,471.4,276.9,458.7,287.1z"/>
	<path d="M410.4,256.2c7.3,0,14.3,0,21.5,0c0,22,0,43.9,0,66.1c-7.1,0-14.2,0-21.5,0C410.4,300.4,410.4,278.4,410.4,256.2z"/>
	<path d="M527.9,256.3c0,22.1,0,43.9,0,66c-7.1,0-14.2,0-21.6,0c0-22,0-43.9,0-66C513.5,256.3,520.6,256.3,527.9,256.3z"/>
</g>
</svg>
