<?xml version="1.0" encoding="utf-8"?>
<!-- Generator: Adobe Illustrator 19.2.1, SVG Export Plug-In . SVG Version: 6.00 Build 0)  -->
<svg version="1.1" id="Layer_1" xmlns="http://www.w3.org/2000/svg" xmlns:xlink="http://www.w3.org/1999/xlink" x="0px" y="0px"
	 viewBox="0 0 841.9 595.3" style="enable-background:new 0 0 841.9 595.3;" xml:space="preserve">
<style type="text/css">
	.st0{fill:#FFFFFF;}
</style>
<g>
	<path class="st0" d="M339.6,342c-6.1,0-11.9,0-18.3,0c-1.5-7.2-3-14.4-4.4-21.7c-1.2-6.1-2.5-12.3-3.6-18.4
		c-0.5-2.8-1.8-3.5-4.7-2.5c0,14,0,28.1,0,42.5c-6.3,0-12.2,0-18.5,0c0-33.3,0-66.5,0-100.4c11.8,0.5,23.7-2,35.2,2.4
		c2.8,1.1,5.6,3,7.7,5.2c9.8,10,9.1,34.2-1.4,43.6c-2,1.8-2.3,3.2-1.7,5.7c3.3,14.2,6.5,28.5,9.7,42.7
		C339.7,341.2,339.6,341.4,339.6,342z M308.6,283.5c7.2,0.9,10.4-1,11.7-7.4c0.7-3.7,0.8-7.7,0.2-11.4c-1.1-6.6-4.4-8.7-11.7-8
		c-0.1,1.2-0.2,2.5-0.2,3.9C308.6,268.1,308.6,275.8,308.6,283.5z"/>
	<path class="st0" d="M377.3,242c8.5,0,16.7-0.8,24.8,0.2c12.9,1.5,20.7,9.7,22.9,22.3c3.3,18.2,3.3,36.6,0.1,54.7
		c-2.7,15.2-12,22.6-27.4,23c-6.7,0.2-13.4,0-20.4,0C377.3,308.5,377.3,275.3,377.3,242z M395.9,326.1c7.3-0.3,11-3.8,11.4-11.9
		c0.6-13.7,0.7-27.4,0.7-41.2c0-3.3-1.1-6.8-2.3-9.9c-1.7-4-5-6.1-9.7-5.5C395.9,280.4,395.9,303.1,395.9,326.1z"/>
	<path class="st0" d="M483.8,277.3c-5.4,0-10.6,0-16.4,0c0-3.1,0.2-6.1-0.1-9c-0.3-3.1-0.7-6.3-1.9-9.1c-0.7-1.7-3-3.6-4.8-3.8
		c-1.3-0.1-3.8,2.2-4.2,3.8c-1.4,5.4-3,11-3.1,16.6c-0.3,13.3,0,26.6,0.5,39.8c0.1,3,1,6.3,2.5,8.9c1,1.8,3.7,3.6,5.5,3.5
		s4.6-2.2,5.2-4c1.4-4.3,1.8-8.9,2.6-13.9c-2.9-0.3-4.9-0.5-7.2-0.7c0-4.5,0-9.1,0-14.1c7.3,0,14.6,0,22.2,0c0,15.4,0,30.7,0,46
		c-6.5,1.7-7,1.5-10.3-4.8c-0.5,0.3-1,0.6-1.3,1c-8.6,10.6-25.8,7.9-31.8-3.8c-3.2-6.2-5.4-13.3-6.4-20.3c-2.4-16.9-2.4-34,2.1-50.7
		c1.6-5.8,4.1-11.7,7.8-16.3c9.8-12.4,30.1-8.9,36.1,5.7C483.5,258.5,484.8,269.7,483.8,277.3z"/>
	<path class="st0" d="M135.2,270.1c-6.3,0-11.5,0-16.9,0c-0.5-3.1-0.8-6.2-1.6-9.2c-0.8-3.2-2.6-6-6.4-5.8c-3.9,0.2-5.5,3-6.2,6.5
		c-1,5.6,1.3,10,5.1,13.7c4.3,4.2,8.9,8,13.3,12c7.6,6.9,13.5,14.8,14.5,25.4c1.7,18.1-9.1,33.9-29.8,31.1
		c-6.5-0.9-11.3-4.3-14.7-9.9c-3.3-5.5-4.9-13.9-4.1-20.9c0.8-0.1,1.7-0.3,2.5-0.4c4.3,0,8.6,0,13.1,0c0.7,3.5,1.1,6.7,1.9,9.8
		c0.8,3.3,2.7,5.8,6.4,5.8c3.9,0,6.3-2.4,7.4-6c1.6-5.3,0-9.9-3.6-13.6c-4.3-4.4-9-8.3-13.6-12.3c-7.3-6.3-13.3-13.3-15-23.2
		c-1.3-7.4-0.6-14.6,2.7-21.4c4.1-8.5,12.4-13.1,21.9-12.6c10,0.6,16.6,5.6,19.6,14.9C133.6,259.2,134.1,264.4,135.2,270.1z"/>
	<path class="st0" d="M587.4,270.1c-6.2,0-11.3,0-16.8,0c-0.4-2.9-0.6-5.9-1.2-8.7c-0.7-3.5-2.6-6.3-6.5-6.2
		c-3.7,0.1-5.4,2.6-6.3,5.9c-1.4,5.6,1,10,4.6,13.7c4.4,4.5,9.2,8.5,13.9,12.7c10.1,9.1,16,19.8,14.2,34
		c-2,16.2-16.4,26.1-32.1,21.9c-6.5-1.7-11.3-5.8-13.4-12.1c-1.9-5.7-2.8-11.7-4.3-18.2c6.5,0,11.7,0,17,0c0.6,3.2,1,6.5,1.8,9.6
		c0.9,3.2,2.9,5.8,6.6,5.7c3.9-0.1,6.3-2.4,7.3-6.1c1.3-4.5,0.4-8.8-2.7-12.2c-3.5-3.9-7.5-7.2-11.2-10.9
		c-4.5-4.5-9.6-8.7-13.2-13.8c-7.1-10-7.4-21.2-2.8-32.4c3.8-9.1,11.9-14,21.7-13.6c10.3,0.4,17.1,5.3,20.3,15.2
		C585.9,259.4,586.3,264.6,587.4,270.1z"/>
	<path class="st0" d="M179.3,299.2c-5.5,0-10.8,0-16.4,0c0,9.2,0,17.9,0,27.2c7.7,0,15.6,0,23.6,0c0,5.4,0,10.3,0,15.4
		c-14.1,0-28,0-42.3,0c0-33.3,0-66.7,0-100.2c13.8,0,27.5,0,41.3,0c0,5,0,9.7,0,15.1c-7.5,0-15,0-22.7,0c0,8.9,0,17.2,0,25.8
		c5.5,0,10.9,0,16.5,0C179.3,288.2,179.3,293.5,179.3,299.2z"/>
	<path class="st0" d="M536,241.8c0,5,0,9.8,0,15.1c-7.6,0-15,0-22.7,0c0,8.7,0,17,0,25.7c5.5,0,10.8,0,16.4,0c0,5.7,0,10.9,0,16.7
		c-5.5,0-10.8,0-16.4,0c0,9.2,0,17.9,0,27.2c7.8,0,15.6,0,23.7,0c0,5.4,0,10.3,0,15.4c-14.1,0-28.1,0-42.3,0c0-33.2,0-66.5,0-100.1
		C508.3,241.8,522,241.8,536,241.8z"/>
	<path class="st0" d="M282.5,241.7c0,5,0,9.8,0,15.2c-7.4,0-14.6,0-22.1,0c0,9.1,0,17.7,0,26.7c5.3,0,10.5,0,16,0
		c0,5.7,0,10.9,0,16.6c-5.3,0-10.4,0-16.2,0c0,14.1,0,27.7,0,41.6c-6.5,0-12.3,0-18.5,0c0-33.4,0-66.6,0-100.2
		C255.3,241.7,268.8,241.7,282.5,241.7z"/>
	<path class="st0" d="M212.4,326.6c8.2,0,15.7,0,23.4,0c0,5.3,0,10,0,15.1c-13.8,0-27.5,0-41.6,0c0-33.2,0-66.4,0-100
		c5.8,0,11.7,0,18.2,0C212.4,269.8,212.4,298,212.4,326.6z"/>
	<path class="st0" d="M366.6,341.9c-6.1,0-11.9,0-18,0c0-33.4,0-66.7,0-100.3c5.9,0,11.8,0,18,0C366.6,275,366.6,308.2,366.6,341.9z
		"/>
	<path class="st0" d="M691.7,303.7c5.5,0,10.9,0,16.7,0c0.4,9.7,0.2,19-3.8,27.8c-6.9,15.2-28.6,17.8-38,4c-4-5.9-6.5-13.5-7.7-20.6
		c-2.9-17.9-2.9-36,2-53.7c0.9-3.4,2.3-6.8,4.1-9.9c4.6-8.3,11.6-12.5,21.3-11.8c10.2,0.8,16.9,6.1,19.4,15.8
		c1.9,7.5,2.4,15.4,3.6,23.6c-7.1,0-13,0-19.6,0c0-3.4,0.1-6.6,0-9.9c-0.1-2.5-0.3-5.1-1.2-7.5c-0.7-1.7-2.5-3-3.8-4.5
		c-1.3,1.5-3.5,2.8-3.8,4.5c-1.2,6.4-2.4,13-2.4,19.5c0,12.2,0.7,24.4,1.2,36.7c0,1,0.1,2.2,0.6,3c1.2,2,2.7,3.9,4,5.9
		c1.8-2,4.5-3.7,5.1-6C690.7,315.1,691,309.4,691.7,303.7z M692.9,276.2c4.4,0,8.6,0,13.9,0c-1.2-7.2-1.9-14.1-3.7-20.6
		c-2.2-8.1-7.9-12.7-16.5-13.5c-8.3-0.8-14.7,2.3-18.7,9.5c-2.2,4-4.1,8.4-5.1,12.8c-4,16.8-4,33.8-1.1,50.7
		c1.1,6.6,3.6,13.4,7.2,18.9c6.2,9.6,22,10.4,29.5,2c7.6-8.5,7.7-19.2,7.8-29.8c-4.4,0-8.2,0-12.4,0c-0.2,2.9-0.1,5.6-0.6,8.2
		c-0.6,3.5-1.2,7.2-2.8,10.2c-1.1,2-4.1,3.9-6.2,3.9c-1.8,0-4.1-2.6-5.2-4.5c-1.2-2.1-1.8-4.8-1.8-7.3c-0.4-15.1-0.8-30.1-0.6-45.2
		c0.1-4.6,1.7-9.4,3.5-13.7c2.1-4.7,7.2-4.4,9.7,0.1c0.8,1.4,1.4,3,1.7,4.6C692,267,692.4,271.4,692.9,276.2z"/>
	<path class="st0" d="M636.7,300.2c0.8-4.1,1.6-8.1,2.5-12.7c4.5,1,9,1.9,13.9,3c-0.5,8.3-2.5,16.2-5.4,23.9c-2.1,5.7-1.5,8,4.4,10
		c3.4,1.2,4.2,2.9,4,6.2c-0.3,3.7-0.1,7.4-0.1,11.3c-8,1.2-14.4-1.5-19-5.5c-6,2.7-11.1,6.2-16.7,7.3c-13.1,2.6-24-6.5-25.9-20.4
		c-1.6-12,2.7-22.1,10.1-31c3.2-3.8,3.9-6.7,1.5-11.3c-3.9-7.5-5.9-15.6-4.5-24.2c1.7-11,10.7-18,22-17.4
		c10.9,0.6,18.7,8.7,19.4,19.7c0.6,9.3-2.9,17.1-9.4,23.4c-3.9,3.8-4.4,7.2-1.4,11.5c1.4,2,2.4,4.4,3.6,6.5
		C636.1,300.4,636.4,300.3,636.7,300.2z M637.5,306.7c-0.4,0-0.8,0.1-1.1,0.1c-2.3-4.3-4.7-8.6-6.9-12.9c-3.3-6.6-3.3-6.7,1.7-12.2
		c5.8-6.4,9.8-13.4,9.3-22.5c-0.6-9.7-7.2-16.6-16.7-17.3c-9.9-0.7-17.6,5.1-19.4,14.7c-1.6,8.5,0.5,16.5,4.4,23.7
		c2.8,5.3,2.1,8.7-1.7,13.2c-7.2,8.4-11.6,18.1-9.7,29.6c1.3,8.2,5.3,14.7,13.6,17.4c8.3,2.7,15.6,0.3,21.7-5.7
		c1.2-1.1,2.2-2.3,3.5-3.6c4.8,5,10,8.8,17.5,8c0-3.9,0-7.6,0-11.3c-1.6-0.8-3.3-1.5-4.8-2.4c-4.9-3.2-5.6-5.5-3.7-11
		c1.6-4.8,3.2-9.6,4.3-14.6c1.9-8.1,1.7-8.2-6.7-9.2c-0.3,0-0.6,0.1-1,0.2C640.2,296.2,638.8,301.5,637.5,306.7z"/>
	<path class="st0" d="M755,271.2c-1.2,6.1-1.8,12.3-3.7,18.2c-2.7,8.5-8.9,12.6-17.5,12.7s-15.1-4.2-18-12.7
		c-4.1-12.2-4.1-24.7-0.1-36.9c3-8.9,9.1-12.9,18.3-12.8c8.7,0.1,14.7,4.3,17.4,13.3C753.3,258.8,753.9,264.9,755,271.2z M752.4,271
		c-1.2-6.2-1.8-12.1-3.5-17.7c-2.4-7.6-7.6-10.9-15.1-11c-7.7,0-13,3.4-15.5,11c-3.9,11.6-3.9,23.5,0,35.1c2.5,7.3,7.8,10.9,15.1,11
		c7.4,0.1,12.9-3.3,15.3-10.7C750.6,283,751.3,276.9,752.4,271z"/>
	<path class="st0" d="M717.1,319.6c-3.4-2.3-3.3-4.4-1-7.1c5.7-7,13.7-10.6,22.1-3.9c3.9,3.1,7.7,2.6,11.1-1.3
		c3.1,2.1,3.6,4.1,1.1,7.2c-6.5,8.1-13.2,9.5-22,3.9C724.2,315.7,720.6,316.1,717.1,319.6z M716.9,316.2c5-3.4,9.1-2.4,13.3,0.4
		c7.5,5,14,3.2,19.3-5.7c-5,3.4-9.1,2.3-13.2-0.5C728.9,305.5,722.1,307.4,716.9,316.2z"/>
	<path class="st0" d="M616.9,299.4c4.1,7.5,8,14.6,11.8,21.8c0.5,0.9,0.3,3-0.4,3.4c-2.6,1.7-5.5,3.8-8.3,3.9
		c-2.1,0.1-4.9-2.2-6.3-4.1C608,316.7,609.3,306.6,616.9,299.4z M616.7,304.2c-0.6,0-1.3-0.1-1.9-0.1c-0.6,3.8-2,7.6-1.6,11.3
		c0.3,3.3,2.2,6.7,4.2,9.4c1.7,2.3,4.6,2.2,7.2,0.3c2.8-2,1.4-4,0.2-6.1C622.1,314,619.4,309.1,616.7,304.2z"/>
	<path class="st0" d="M620.6,277.5c-1.4-5.2-2.9-10.5-4.1-15.8c-0.3-1.4,0.2-3,0.5-4.4c0.7-3,2.7-5.2,5.6-4.6
		c2.2,0.5,4.9,2.5,5.8,4.5c2.2,5,0.5,9.9-2.3,14.4c-1.2,2-2.7,3.9-4,5.8C621.6,277.5,621.1,277.5,620.6,277.5z M621.2,272.4
		c0.5,0,0.9,0.1,1.4,0.1c2.8-3.6,5.1-7.7,4.1-12.5c-0.4-1.8-2.7-3.3-4.2-4.9c-1.2,1.7-3.4,3.4-3.3,5
		C619.3,264.3,620.5,268.3,621.2,272.4z"/>
	<path class="st0" d="M739.7,271c-0.6,5.8-0.8,11.2-1.8,16.4c-0.3,1.6-2.7,4-4.1,4c-1.5-0.1-4.1-2.5-4.2-4
		c-0.5-11.1-0.6-22.3-0.3-33.4c0-1.5,2.8-4,4.3-4s3.9,2.4,4.2,4.1C738.8,259.8,739.2,265.6,739.7,271z M733.4,252.3
		c-4.3,6.1-3.7,33.5,0.7,36.7C738,283.4,737.7,257.3,733.4,252.3z"/>
</g>
</svg>
