<?xml version="1.0" encoding="utf-8"?>
<!-- Generator: Adobe Illustrator 19.2.1, SVG Export Plug-In . SVG Version: 6.00 Build 0)  -->
<svg version="1.1" id="Layer_1" xmlns="http://www.w3.org/2000/svg" xmlns:xlink="http://www.w3.org/1999/xlink" x="0px" y="0px"
	 viewBox="0 0 841.9 595.3" style="enable-background:new 0 0 841.9 595.3;" xml:space="preserve">
<style type="text/css">
	.st0{fill:#FFFFFF;}
</style>
<g>
	<g id="Layer_2_1_">
	</g>
	<path class="st0" d="M671,303.8v-10.3v-53.1h-11.6v41.9l-16.7-37.2l-0.2-0.4l-0.3-0.7h-0.1c-1.3-2.2-3.7-3.6-6.4-3.6
		c-3.6,0-6.5,2.5-7.3,5.8l0,0h-0.2v1.2l0,0c0,0.1,0,0.3,0,0.4c0,0.1,0,0.3,0,0.4V312h11.9v-41.1l16.5,36.7l0.1,0.3l0.2,0.5l0,0
		c1.3,2.3,3.7,3.9,6.6,3.9c3.7,0,6.7-2.7,7.4-6.2l0,0V306c0.1-0.4,0.1-0.8,0.1-1.2S671.1,304.2,671,303.8z"/>
	<path class="st0" d="M549.7,303.8v-10.3v-53.1h-11.6v41.9l-16.7-37.2l-0.2-0.4l-0.3-0.7h-0.1c-1.3-2.2-3.7-3.6-6.4-3.6
		c-3.6,0-6.5,2.5-7.3,5.8l0,0H507v1.2l0,0c0,0.1,0,0.3,0,0.4c0,0.1,0,0.3,0,0.4V312h11.9v-41.1l16.5,36.7l0.1,0.3l0.2,0.5l0,0
		c1.3,2.3,3.7,3.9,6.6,3.9c3.7,0,6.7-2.7,7.4-6.2l0,0V306c0.1-0.4,0.1-0.8,0.1-1.2S549.8,304.2,549.7,303.8z"/>
	<path class="st0" d="M616.8,246.4c0-3.3-2.7-5.9-5.9-5.9s-5.9,2.7-5.9,5.9l0,0v65.8h11.9L616.8,246.4L616.8,246.4z"/>
	<path class="st0" d="M719.5,252.7v-11.9h-30.6l0,0c-3.2,0-5.7,2.5-5.9,5.6l0,0v0.3l0,0l0,0v65.5h1.3h12h23.3v-11.9h-23.3v-18.5
		h21.5v-11.9h-21.5v-17.3L719.5,252.7L719.5,252.7z"/>
	<rect x="211" y="240.8" class="st0" width="16.4" height="11.9"/>
	<rect x="211" y="272.8" class="st0" width="19.5" height="10.6"/>
	<rect x="205.7" y="246.4" class="st0" width="13.3" height="65.8"/>
	<path class="st0" d="M499.8,252.7v-11.9h-30.6l0,0c-3.2,0-5.7,2.5-5.9,5.6l0,0v0.3l0,0l0,0v65.5h1.3h12h23.3v-11.9h-23.3v-18.5H498
		v-11.9h-21.5v-17.3L499.8,252.7L499.8,252.7z"/>
	<circle class="st0" cx="211.7" cy="246.7" r="5.9"/>
	<path class="st0" d="M153.3,254c0,3.3-2.7,5.9-5.9,5.9c-3.4,0-5.9-2.7-5.9-5.9s2.7-5.9,5.9-5.9S153.3,250.8,153.3,254z"/>
	<path class="st0" d="M197.4,252.7v-11.9h-30.6l0,0c-3.2,0-5.7,2.5-5.9,5.6l0,0v0.3l0,0l0,0v65.5h1.3h12h23.3v-11.9h-23.3v-18.5
		h21.5v-11.9h-21.5v-17.3L197.4,252.7L197.4,252.7z"/>
	<path class="st0" d="M597.2,240.9H562l0,0c-3.3,0-5.9,2.7-5.9,5.9s2.6,5.9,5.9,5.9l0,0l0,0l0,0l0,0h9.2v59.4h11.9v-59.4h14.1V240.9
		L597.2,240.9z"/>
	
		<rect x="228.5" y="274.4" transform="matrix(0.876 -0.4824 0.4824 0.876 -111.523 149.2383)" class="st0" width="11.9" height="34.2"/>
	<circle class="st0" cx="242.7" cy="306.4" r="5.9"/>
	<path class="st0" d="M228.6,272.8c4.1,0,7.2-4.5,7.2-10.1s-3.2-10-7.3-10l-1.1-0.1l-0.1-11.8c2.8,0,6.8,0.2,9.4,1.3
		c4.7,2,8,5.8,9.4,10.7c0.7,2.2,1.2,4.5,1.2,6.8c0.1,3.3,0.2,6.1-0.5,9.3c-1.3,5.5-5,11.7-11.8,12.2L228.6,272.8z"/>
	<rect x="419.7" y="240.8" class="st0" width="16.4" height="11.9"/>
	<rect x="419.7" y="272.8" class="st0" width="19.5" height="10.6"/>
	<rect x="414.3" y="246.4" class="st0" width="13.3" height="65.8"/>
	<circle class="st0" cx="420.3" cy="246.7" r="5.9"/>
	<path class="st0" d="M437.2,272.8c4.1,0,7.2-4.5,7.2-10.1s-3.2-10-7.3-10l-1.1-0.1l-0.1-11.8c2.8,0,6.8,0.2,9.4,1.3
		c4.7,2,8,5.8,9.4,10.7c0.7,2.2,1.2,4.5,1.2,6.8c0.1,3.3,0.2,6.1-0.5,9.3c-1.3,5.5-5,11.7-11.8,12.2L437.2,272.8z"/>
	<path class="st0" d="M439,283.4c0,0,9.9-0.5,14-8.6l-12.1-1l-4.1,0.2l-0.8,2.2l-0.8,4.3L439,283.4z"/>
	<path class="st0" d="M154.3,291.9c0.1,7.9-3.7,16.6-11.5,19.5c-3.2,1.2-6.6,1.8-10,1.7c-4.8-0.1-9.9-0.8-14-3.6
		c-0.9-0.6-1.8-1.4-2.6-2.2c-3-3.1-4-6.8-4-11v-3.6h12.1c0,0-1,7.6,6,8.9c3,0.5,6.6,0.3,9.2-1.5c3.9-2.7,3.1-9.3,0.2-12.4
		c-4.3-4.6-10.3-7.4-15.7-10.4c-8.9-5-13.2-16.4-8.6-25.8c4.3-8.8,13.4-12.9,23-11.2c2.4,0.4,5.1,1.2,7.2,2.4c1.8,1,3.6,2.7,4.8,4.4
		c0,0,2.7,3.9,2.7,5.8l-11.4,3.2c0,0-0.9-3.2-5.2-3.9c-4.7-0.7-9.7,0.9-9.7,7.1c0,5,4.4,8,8.3,10.2
		C144.4,274.4,154.2,279.9,154.3,291.9z"/>
	<rect x="257" y="240.4" class="st0" width="149.2" height="72"/>
	<path class="st0" d="M498.4,371c-2.6,2.7-5.8,3.9-9.4,3.9c-3.5,0-6.6-1.3-9-3.6c-3.4-3.4-3.3-7.1-3.3-13.7s0-10.3,3.3-13.7
		c2.3-2.3,5.3-3.6,9-3.6c7.2,0,11.4,4.7,12.4,10.6h-5.2c-0.9-3.7-3.4-5.9-7.2-5.9c-2,0-3.8,0.8-5,2.1c-1.7,1.8-2.1,3.7-2.1,10.6
		s0.4,8.8,2.1,10.6c1.2,1.3,3,2.1,5,2.1c2.3,0,4.2-0.9,5.6-2.4c1.2-1.4,1.7-3.2,1.7-5.4v-1.9H489v-4.4h12.5v5.2
		C501.4,365.8,500.6,368.6,498.4,371z M528.2,374.6l-2.3-6.9h-13.5l-2.3,6.9h-5.5l12.5-34.1h4.2l12.5,34.1H528.2z M519.2,348.2
		l-5.3,15.1h10.5L519.2,348.2z M538.5,374.6v-34.1h5.2V370h16.4v4.6H538.5L538.5,374.6z M566,374.6v-34.1h5.2V370h16.4v4.6H566
		L566,374.6z M593.5,374.6v-34.1h21.8v4.6h-16.6v10h14.2v4.6h-14.2V370h16.6v4.6H593.5L593.5,374.6z M641.2,374.6l-7.2-14.4h-6.5
		v14.4h-5.2v-34.1h13.2c6.5,0,10.6,4.2,10.6,10c0,4.9-3,8-6.8,9.1l7.9,15.1L641.2,374.6L641.2,374.6z M635.3,345.2h-7.7v10.7h7.7
		c3.4,0,5.8-2,5.8-5.3C641.1,347.2,638.7,345.2,635.3,345.2z M653.8,374.6v-34.1h5.2v34.1H653.8z M667.9,374.6v-34.1h21.8v4.6H673
		v10h14.2v4.6H673V370h16.6v4.6H667.9L667.9,374.6z M705.8,374.9c-5.1,0-8.8-1.2-12.1-4.5l3.4-3.4c2.5,2.5,5.2,3.3,8.7,3.3
		c4.5,0,7-1.9,7-5.2c0-1.5-0.4-2.7-1.3-3.5c-0.9-0.8-1.7-1.2-3.7-1.4l-4-0.6c-2.8-0.4-5-1.3-6.5-2.7c-1.7-1.6-2.5-3.7-2.5-6.5
		c0-5.9,4.3-10,11.4-10c4.5,0,7.7,1.2,10.6,3.9l-3.3,3.3c-2.1-2-4.6-2.6-7.4-2.6c-4,0-6.2,2.3-6.2,5.3c0,1.2,0.4,2.3,1.3,3.2
		c0.9,0.8,2.3,1.3,3.8,1.6l3.9,0.6c3.2,0.5,4.9,1.2,6.4,2.5c1.9,1.6,2.8,4.1,2.8,7C718.1,371.2,713,374.9,705.8,374.9z"/>
</g>
</svg>
