<?xml version="1.0" encoding="utf-8"?>
<!-- Generator: Adobe Illustrator 19.2.1, SVG Export Plug-In . SVG Version: 6.00 Build 0)  -->
<svg version="1.1" id="Layer_1" xmlns="http://www.w3.org/2000/svg" xmlns:xlink="http://www.w3.org/1999/xlink" x="0px" y="0px"
	 viewBox="0 0 841.9 595.3" style="enable-background:new 0 0 841.9 595.3;" xml:space="preserve">
<style type="text/css">
	.st0{fill:#FFFFFF;}
</style>
<g>
	<path class="st0" d="M515.9,261.3c1.4-3.2,3.3-5.7,6.1-7.4c10.5-6.4,23.6,0.3,24.5,12.6c0.1,1.4,0.1,2.9,0.1,4.3
		c0,19.3,0,38.5,0.1,57.8c0,2.7,0.2,5.4,0.4,8c0.1,0.7,0.5,1.5,0.7,2.2c0.2,0,0.4,0,0.6,0c0.3-0.7,0.7-1.3,0.8-2
		c0.2-3.2,0.3-6.4,0.3-9.6c0-19.6,0-39.2,0-58.8c0-5,1.6-9.6,5.4-13.1c6.1-5.6,19-5.4,24,3.5c0.1,0.2,0.2,0.3,0.4,0.6
		c1.6-2.4,3.6-4.2,6-5.5c0.3-0.2,0.4-0.9,0.4-1.3c0-8.1,0-16.2,0.1-24.3c0.1-7.3,4.6-13.6,11.1-15.2c10.8-2.8,20.5,3.3,20.8,15.8
		c0.2,7.3,0,14.7,0,22c0,0.5,0,0.9,0,1.5c4.6,1.1,8.5,3.2,10.9,7.4c1.9,3.3,2.3,6.8,1.9,10.5c-0.6,6.7-4.9,11.3-12.8,13.6
		c0,0.4,0,0.9,0,1.3c0,17.2,0,34.5,0,51.7c0,2.7,0.3,5.4,1.6,7.8c1.1,2.3,2.8,3.8,5.5,4.3c2.9,0.5,5,2.3,6.3,4.8
		c2.4,4.7,3,9.7,1.5,14.8c-1.6,5.5-5.8,8.4-11.2,9.8c-12.5,3-24.7-3-30.6-15.2c-2.8-5.8-4.1-11.9-4.7-18.2c-0.2-2.7-0.3-5.5-0.3-8.2
		c0-17.8,0-35.5,0-53.3c0-0.9-0.2-1.4-1.1-1.9c-1.1-0.6-2.1-1.4-3.2-2.2c0,0.4-0.1,0.7-0.1,1.1c0,26.7,0,53.4,0,80.2
		c0,3.4-0.2,6.7-1.6,9.7c-2.8,6.1-8.6,9.4-15.5,8.9c-5.2-0.4-9.3-2.5-12.3-7.1c-0.4,0.4-0.8,0.7-1.2,1.1c-5.5,5.1-12,6.7-19.2,5.6
		c-5.9-1-9.7-4.9-12.4-10c-2.5-4.8-3.8-10.1-4.1-15.5c-0.3-5.8-0.3-11.6-0.3-17.4c0-0.5,0-1-0.2-1.5c-0.4,1.8-0.8,3.6-1.3,5.4
		c-2.2,8.5-5.2,16.6-10.2,23.9c-4.5,6.6-10.2,11.9-18,14.4c-9.3,3-17.7,0.8-25.2-5c-6.9-5.4-11.3-12.6-14.5-20.5
		c-3.9-9.5-5.9-19.4-7.2-29.5c-1.3-10.4-1.7-20.9-1.6-31.4c0.1-14.4,1.1-28.8,4.5-42.9c2.1-9,5.2-17.6,10.4-25.3
		c4.4-6.4,9.9-11.7,17.6-14c10.4-3.2,19.5-0.5,27.5,6.6c6.8,6.1,10.9,13.9,13.9,22.4c2.6,7.2,4.2,14.7,5.4,22.2
		C515.7,260.8,515.8,260.9,515.9,261.3z M511.8,294c-0.2-5.9-0.4-11.8-0.7-17.8c-0.2-3.6-0.6-7.1-1-10.7c-1.1-9.2-2.9-18.3-6.3-27.1
		c-2.7-6.9-6.3-13.2-12-18.2c-7-6.2-15.8-7.6-23.8-3.7c-4.2,2-7.4,5.1-10.2,8.7c-4.9,6.4-7.8,13.8-9.9,21.6
		c-3.7,13.5-4.7,27.3-5.1,41.2c-0.3,12,0.1,24,1.7,35.9c1.1,8.5,2.9,16.8,6,24.8c2.8,7.1,6.4,13.6,12.3,18.6
		c8.6,7.5,19.3,7.7,28.1,0.5c3.7-3,6.6-6.7,9-10.9c4.7-8.2,7.3-17.2,8.9-26.5C511,318.4,511.6,306.3,511.8,294z M575,315.1
		c0-14.8,0-29.6,0-44.4c0-1.9,0-3.8-0.4-5.6c-1-4.5-4.3-7.1-8.9-7.2c-5-0.1-8.3,2.2-9.5,6.8c-0.4,1.4-0.5,2.9-0.5,4.3
		c0,22,0,44,0,66.1c0,0.9-0.1,1.9-0.2,2.8c-0.6,4.2-4,7.2-7.8,7c-3.5-0.2-6.7-3.4-7-7.4c-0.3-3.4-0.3-6.8-0.3-10.2
		c0-19.4,0-38.8-0.1-58.1c0-2-0.4-4-1.1-5.9c-1.4-3.7-4.4-5.3-8.2-5.3c-4-0.1-7.2,1.3-8.9,5.2c-1,2.2-1.2,4.5-1.1,6.9
		c0,25.1,0,50.3,0.1,75.4c0,3.9,0.4,7.9,1,11.8c0.6,4.2,2,8.1,4.6,11.5c1.6,2.1,3.7,3.7,6.5,4c3.4,0.5,6.8,0,10-1.5
		c3-1.5,5.3-3.8,7.5-6.3c1.1-1.3,2.4-1.7,3.8-1.1c1.2,0.5,1.7,1.4,2,2.6c1.3,4.3,4.5,6.6,9.1,6.6c4.7,0,8-2.3,9.1-6.7
		c0.5-1.9,0.6-4,0.6-5.9C575,345.3,575,330.2,575,315.1z M591.9,311.8c0,8.7-0.1,17.4,0,26.1c0,3.1,0.2,6.3,0.6,9.4
		c0.9,6.1,2.7,12,6.2,17.1c5.6,8.1,14.6,9.6,21.8,7.5c2.9-0.8,5.2-2.5,5.9-5.6c0.7-3,0.3-6-0.8-8.9c-0.5-1.2-1.4-2.1-2.8-2.4
		c-3.8-0.8-6.6-2.9-8.6-6.1c-2.3-3.6-3-7.7-3-11.9c0-17.6,0-35.3,0-52.9c0-1,0.1-2,0.4-3c0.6-2.6,1.7-3.5,4.4-3.7
		c4.1-0.3,7.2-3.1,8-7.1c1-4.9-0.7-9-4.5-10.8c-1.4-0.7-3.1-1.1-4.6-1.3c-2.7-0.4-3.6-1.3-3.6-4.1c0-8.2,0-16.5,0-24.7
		c0-1.1-0.1-2.3-0.3-3.4c-1-4.8-4.4-7.5-9.3-7.5c-4.7,0-8.1,2.5-9.2,7.1c-0.3,1.2-0.5,2.5-0.5,3.8c0,8.4,0,16.8,0,25.2
		c0,2.9-0.4,3.4-3,4.5c-3.6,1.5-5.6,4.3-5.6,8.3c-0.1,4.6,1.6,7.6,5.4,9.1c1.9,0.8,2.8,2.2,3,4c0.1,0.8,0.1,1.6,0.1,2.4
		C591.9,292.7,591.9,302.3,591.9,311.8z"/>
	<path class="st0" d="M298.1,293.6c-0.3,2-0.7,4.1-0.8,6.2c-0.2,3.7-0.3,7.4-0.3,11.1c0,16.5,0,33,0,49.6c0,2.5-0.1,5-0.7,7.3
		c-2,7.7-8.4,12.1-16.4,11.5c-9.1-0.7-14.9-7.3-14.9-17.1c0-10.7,0-21.4,0-32.1c0-19.8,0-39.6,0-59.4c0-3,0.1-5.9,1.1-8.7
		c3.7-11,15.9-12.3,21.8-8.4c2.1,1.3,3.7,3.3,5.5,5c2.4-1.4,5-3.1,7.8-4.4c5.5-2.6,11.1-2.9,16.5,0.6c2.3,1.5,4,3.4,5.4,5.7
		c0.2,0.3,0.4,0.6,0.6,0.9c1.8-1.5,3.4-3,5.2-4.4c3.4-2.6,7.3-4.5,11.6-5c6.6-0.8,11.9,1.9,16.2,6.7c6,6.7,8.7,14.7,8.7,23.7
		c0,1.3,0,2.6,0.2,4c0.6-1.9,1.2-3.9,1.9-5.8c2.6-7.4,5.9-14.4,11.2-20.4c4.2-4.7,9.1-8.3,15.5-9.3c8.3-1.3,15.5,1.2,21.3,7.4
		c4.9,5.2,7.8,11.6,9.9,18.4c2.9,9.5,4.5,19.2,4.2,29.1c-0.1,3.8-0.9,7.4-2.6,10.9c-3,6.2-8,9.3-14.9,9.4c-4.2,0.1-8.4,0.3-12.7,0.4
		c-1.3,0-2,0.8-2.4,1.9c-1.1,2.9-1.3,5.9-0.9,9c0.2,1.6,0.6,3.3,1.2,4.8c0.3,0.8,0.9,1.6,1.6,2.1c0.9,0.8,2,1.1,3.2,0.3
		c1.2-0.8,2.5-1.5,3.5-2.5c7.4-7,17.9-2.8,20.4,6.2c1.3,4.6,0.4,8.9-1.6,13.1c-4.2,9-10.7,15.2-20.6,17.3
		c-9.3,1.9-17.2-0.9-23.8-7.5c-6.7-6.8-11-15-13.9-24c-0.2-0.5-0.3-1-0.5-1.5c0-0.1-0.1-0.1-0.3-0.4c0,0.6,0,1,0,1.4
		c0,5.4,0.1,10.8,0,16.3c-0.2,6.4-2.6,11.7-8.5,14.7c-10.4,5.2-22.2-1.4-23.2-12.9c-0.1-1.6-0.1-3.2-0.1-4.9c0-16.3,0-32.6,0-48.9
		c0-5.6,0-11.3-1.3-16.8c-0.1-0.2-0.1-0.5-0.5-0.7c-0.3,1.5-0.6,2.9-0.7,4.4c-0.2,2.5-0.4,5-0.4,7.5c0,19,0,37.9,0,56.9
		c0,3.4-0.6,6.7-2.3,9.7c-3.4,5.9-8.7,7.9-15.2,7.2c-5.6-0.6-10.4-4.7-12-10.6c-0.6-2.4-0.8-5-0.9-7.6c-0.1-9.9,0-19.9,0-29.8
		c0-7.6,0.1-15.2,0-22.8c-0.1-4.9-0.3-9.9-1.5-14.7C298.3,293.6,298.2,293.6,298.1,293.6z M271.3,316.1c0,14.7,0,29.4,0,44
		c0,1.3,0,2.6,0.1,3.8c0.4,4.4,2.8,7.6,6.6,8.7c6.6,1.8,12.2-2.1,12.6-8.9c0.2-2.8,0-5.6,0-8.4c0-14.9-0.1-29.7,0-44.6
		c0-4.9,0.3-9.9,0.7-14.8c0.2-2.8,0.9-5.6,2.4-8c2.4-3.8,6.8-3.8,9.1,0.1c0.8,1.3,1.3,2.9,1.8,4.4c1.4,5.1,1.6,10.3,1.6,15.5
		c0,18.1,0,36.3,0,54.4c0,2.4,0.5,4.8,1.7,6.9c3.1,5,11,5.2,14.2,0.3c1.5-2.3,1.9-4.8,1.9-7.4c0-19,0-37.9,0-56.9
		c0-3.4,0.3-6.9,0.8-10.3c0.4-2.4,1.2-4.9,2.3-7.1c2.1-3.9,6.7-3.8,8.9,0c0.9,1.5,1.5,3.2,1.9,4.8c1.5,5.8,1.6,11.7,1.6,17.5
		c0,16.9,0,33.8,0,50.7c0,1.4,0,2.9,0.3,4.3c0.7,4.4,3.5,7.1,7.9,7.7c4.3,0.6,8.1-1.1,9.9-4.6c1.1-2.1,1.4-4.3,1.4-6.6
		c0-25.6,0-51.2,0-76.8c0-1.4,0-2.8-0.1-4.2c-0.3-6.9-2.7-13-7.3-18.1c-4.3-4.8-9.7-5.8-15.5-2.9c-4.2,2.1-7.5,5.3-10.4,8.9
		c-2,2.5-4.5,2.4-6.1-0.5c-0.7-1.2-1.1-2.6-1.8-3.8c-2.8-5.2-7.8-7.2-13.2-4.8c-2.9,1.2-5.4,3.1-8.2,4.7c-1.1,0.6-2.2,1.4-3.3,1.9
		c-2.2,0.9-3.8,0.1-4.8-2c-0.5-1-1-2-1.6-2.9c-1.4-2-3.4-3.2-6-3.2c-4.9,0-8.5,2.7-9.3,7.5c-0.4,2.3-0.3,4.7-0.3,7
		C271.3,287,271.3,301.5,271.3,316.1z M367.8,315.4c0.4,4.8,0.6,9.6,1.2,14.4c0.8,6.9,2.1,13.7,4.8,20.1c2.7,6.5,6.2,12.6,11.4,17.5
		c4.9,4.6,10.6,6.6,17.3,5.2c8-1.7,13.1-6.7,16.4-13.9c1.1-2.5,1.9-5,1.3-7.8c-0.5-2.6-1.8-4.6-4.4-5.6c-2.4-0.9-4.4,0.2-6.2,1.8
		c-1,0.9-2.2,1.8-3.4,2.5c-1.3,0.7-2.7,1.4-4.1,1.6c-4.5,0.8-8.8-1.8-10.6-6.4c-2.3-5.8-2.3-11.8-0.5-17.7c1.6-5.2,4.1-6.8,8.7-6.9
		c4.4-0.2,8.9-0.3,13.3-0.5c3.4-0.1,5.9-1.7,7.7-4.5c1.6-2.6,2.5-5.5,2.5-8.5c0.1-4.2-0.1-8.4-0.5-12.6c-0.8-7.7-2.6-15.3-5.9-22.4
		c-1.5-3.3-3.3-6.4-5.8-9c-7.3-7.5-17-7.9-24.8-1.1c-4.5,3.9-7.6,8.7-10,14.1C370.5,288.4,368.1,301.6,367.8,315.4z"/>
	<path class="st0" d="M193.7,310.5c0-16.4,0-32.9,0-49.3c0-2.5-0.3-5.1-0.7-7.6c-0.4-2.7-2-4.6-4.5-5.7c-2.1-0.9-4.2-1.7-6.3-2.6
		c-3.3-1.4-6.3-3.2-8.7-5.9c-1.9-2.2-2.9-4.7-2.8-7.6c0.1-5.4-0.1-10.9,0.2-16.2c0.5-6.8,5.9-11.7,12.8-11.7c17.3,0,34.7,0,52,0
		c7.1,0,12.5,5.3,12.8,12.5c0.2,5.7,0.1,11.4,0,17c-0.1,3-1.7,5.4-3.9,7.4c-2.7,2.4-5.9,4-9.3,5.3c-1.4,0.5-2.9,1.1-4.3,1.7
		c-2.7,1.1-4.3,3.2-4.7,6.1c-0.4,2.4-0.6,4.9-0.6,7.4c0,33.8,0,67.7,0,101.5c0,5.3-1.7,10-6,13.4c-9.5,7.5-23.6,2.1-25.6-9.9
		c-0.3-1.7-0.3-3.5-0.3-5.2C193.7,344.1,193.7,327.3,193.7,310.5z M199.9,310.2c0,17.1,0,34.2,0,51.3c0,1.1,0,2.1,0.2,3.2
		c0.6,3.7,2.3,6.7,6.2,7.8c3.8,1.1,7.5,0.7,10.4-2.4c2-2.2,2.6-4.9,2.6-7.8c0-33.7,0-67.3,0-101c0-2.5,0.2-4.9,0.5-7.4
		c0.7-5.6,3.5-9.8,8.8-12c1.6-0.7,3.4-1.2,5-2c2.2-1.1,4.4-2.3,6.4-3.6c1.2-0.8,2.1-2,2.1-3.5c0-5.2,0.1-10.4-0.1-15.6
		c-0.2-4.8-2.7-7-7.5-7c-16.7,0-33.4,0-50.1,0c-0.5,0-0.9,0-1.4,0c-3.1,0.2-5.3,2.1-6,5.2c-0.2,0.9-0.2,1.8-0.2,2.7
		c0,4.5,0,9,0,13.4c0,1.9,0.7,3.5,2.1,4.6c1.9,1.3,3.8,2.5,5.9,3.5c1.9,1,3.9,1.6,5.9,2.5c4.6,2,7.4,5.5,8.2,10.4
		c0.5,2.8,0.8,5.8,0.8,8.6C200,277.4,199.9,293.8,199.9,310.2z"/>
	<path class="st0" d="M229.4,315.5c0-15.1,0-30.1,0-45.2c0-2.2,0.1-4.4,0.5-6.5c1.7-7.8,7.7-12.3,15.6-12.2
		c8.6,0.1,14.7,5.7,15.6,14.3c0.1,1.1,0.2,2.2,0.2,3.3c0,31.2,0,62.3,0,93.5c0,5.4-1.8,10.2-6.3,13.6c-9.7,7.3-23.6,1.6-25.4-10.3
		c-0.3-1.8-0.3-3.6-0.3-5.4C229.3,345.6,229.4,330.5,229.4,315.5z M255,315.5c0-15.5,0-31.1,0-46.6c0-1.1-0.1-2.3-0.3-3.4
		c-0.9-4.7-4.2-7.5-8.8-7.6c-5.2-0.1-8.6,2.3-9.8,7c-0.3,1.2-0.4,2.4-0.5,3.7c0,31.2,0,62.4,0,93.6c0,1.2,0.1,2.4,0.4,3.5
		c0.8,3.5,2.8,6.1,6.4,6.9c3.7,0.9,7.2,0.5,9.9-2.5c2.1-2.2,2.7-5,2.7-7.9C255,346.7,255,331.1,255,315.5z"/>
	<path class="st0" d="M489.8,294.3c0,10.1-0.3,20.1-1.8,30.1c-0.7,5.2-1.7,10.3-3.8,15.2c-1.4,3.2-4,5-7.1,4.9
		c-3.4-0.1-5.7-1.8-7-4.9c-2.1-4.9-3.1-10.1-3.8-15.3c-1.6-11.2-1.9-22.5-1.7-33.8c0.1-10.7,0.5-21.3,2.5-31.8c0.8-4,1.8-8,3.2-11.8
		c1.8-4.8,7.9-6.1,11.8-2.7c0.9,0.8,1.6,1.9,2.1,3c2.1,5.2,3.1,10.6,3.8,16.1C489.4,273.5,489.8,283.9,489.8,294.3z M483.1,294.2
		c0-4.5,0.1-9,0-13.4c-0.3-8.1-0.9-16.1-2.7-24c-0.5-2.4-1.3-4.7-2.1-7.1c-0.1-0.4-0.7-0.9-1.1-0.9s-0.8,0.5-1.1,0.9
		c-0.3,0.5-0.4,1-0.6,1.5c-2.5,7.6-3.4,15.4-3.8,23.3c-0.4,9-0.6,18.1-0.6,27.1c0,8.8,0.6,17.6,2.3,26.2c0.6,3.1,1.7,6.1,2.6,9.2
		c0.1,0.4,0.7,0.9,1.2,0.9c0.3,0,0.7-0.6,1-0.9c0.2-0.2,0.3-0.5,0.3-0.8c1-4.2,2.3-8.4,3-12.7C483.1,313.8,483.3,304,483.1,294.2z"
		/>
	<path class="st0" d="M404.6,290.5c-0.4,2-0.6,3.9-1.2,5.7c-1,3-3.5,4.5-6.4,4.5c-3,0-5.5-1.7-6.5-4.7c-1.3-3.9-1.2-7.9,0.3-11.8
		c1.1-2.7,3.1-4.7,6.1-4.7c3.1,0,5.2,1.9,6.2,4.7C403.9,286.3,404.2,288.5,404.6,290.5z M397.2,286c-0.1,0-0.3,0-0.4,0
		c-0.2,0.6-0.6,1.1-0.6,1.7c-0.1,1.8-0.1,3.7,0,5.5c0,0.4,0.6,0.8,0.9,1.2c0.3-0.4,0.9-0.8,0.9-1.1c0.1-2,0-3.9-0.1-5.9
		C397.8,286.9,397.4,286.4,397.2,286z"/>
</g>
</svg>
