<?xml version="1.0" encoding="utf-8"?>
<!-- Generator: Adobe Illustrator 19.2.1, SVG Export Plug-In . SVG Version: 6.00 Build 0)  -->
<svg version="1.1" id="Layer_1" xmlns="http://www.w3.org/2000/svg" xmlns:xlink="http://www.w3.org/1999/xlink" x="0px" y="0px"
	 viewBox="0 0 841.9 595.3" style="enable-background:new 0 0 841.9 595.3;" xml:space="preserve">
<style type="text/css">
	.st0{fill:#FFFFFF;}
</style>
<g>
	<g>
		<path class="st0" d="M673.7,310.4c0-0.4,0.1-0.9,0.1-1.3c0-1.6-0.1-3.2-0.1-4.8c0.1-7.6,0.2-15.2,0.2-22.8c0-4.3-0.1-8.7-0.1-13
			c0-1.3,0.2-1.6,1.6-1.6c3.8,0,7.7,0,11.5,0c1.1,0,2.3,0,3.4,0c1.6,0,1.9,0.3,2,1.9c0,0.6,0.1,1.2,0.1,1.8c0,7,0,14,0,20.9
			c0,12.4,0,24.7,0,37.1c0,3.7,0,7.4,0,11.1c0,0.4,0,0.7-0.1,1.1c-0.1,0.6-0.5,1-1.1,1.1c-0.4,0.1-0.7,0.1-1.1,0.1
			c-5.1,0-10.2,0-15.3,0.1c-1.3,0-2-0.4-2.5-1.6c-1.1-2.1-2.4-4.1-3.6-6.1c-0.6-1.1-1.2-2.1-1.8-3.2c-2.3-3.8-4.6-7.7-6.8-11.5
			c-1.5-2.5-2.9-5-4.3-7.4c-1.6-2.7-3.3-5.4-4.9-8.1c-0.5-0.8-0.9-1.6-1.3-2.4c-0.4-0.8-1.1-1.3-2-2c0,0.6-0.1,0.9-0.1,1.2
			c0.1,2.4,0.3,4.7,0.3,7.1c0,9.9,0,19.9-0.1,29.8c0,0.7,0.1,1.4,0.1,2c0,1.4-0.5,1.9-1.9,2c-1.5,0-2.9,0-4.4,0c-3.3,0-6.7,0-10,0
			c-0.4,0-0.8,0-1.2-0.1c-1-0.2-1.4-0.7-1.4-1.7c0.1-17.6,0.1-35.1,0.2-52.7c0-6.1,0-12.2-0.1-18.3c0-1.8,0.2-2,2-2
			c4.1,0,8.3,0,12.4,0c1,0,1.9,0,2.9-0.1c0.7,0,1.2,0.3,1.6,0.9c1.8,2.7,3.4,5.6,5,8.4c2.3,4,4.7,8,7.1,12c1.3,2.2,2.6,4.5,3.9,6.7
			c2,3.4,3.9,6.8,6,10.1c0.9,1.4,1.4,3,2.4,4.4c0.3,0.4,0.6,0.7,0.9,1.1C673.4,310.5,673.5,310.4,673.7,310.4z"/>
		<path class="st0" d="M322.7,304.2c0-11.7,0-23.3,0-35c0-2.2,0.1-2.3,2.4-2.3c4.6,0,9.2,0,13.8-0.1c2,0,3,0.5,3.9,2.4
			c0.8,1.5,1.7,3,2.6,4.5c1.8,3.1,3.7,6.3,5.5,9.4c1.9,3.3,3.6,6.6,5.7,9.8c2,3.1,3.7,6.5,5.7,9.6c1.3,1.9,2.3,4,3.3,6.1
			c0.2,0.5,0.4,1.2,1.1,1c0.8-0.2,0.6-0.9,0.5-1.5c-0.1-2.3-0.2-4.6-0.2-6.8c0-10.6,0-21.2,0.1-31.7c0-2.7,0-2.7,2.6-2.7
			c4.7,0,9.5,0,14.2-0.1c1.2,0,1.6,0.4,1.7,1.6c0,0.2,0,0.5,0,0.7c0,19.9-0.1,39.8-0.1,59.6c0,2.7,0,5.4,0,8.1c0,1,0.1,2.1,0.2,3.1
			c0,1.4-0.5,1.9-1.9,1.9c-5.1,0-10.1,0-15.2,0c-1.3,0-2.2-0.6-2.8-1.7c-2.8-4.8-5.5-9.6-8.3-14.3c-1.8-3.1-3.7-6.1-5.5-9.1
			s-3.6-6.1-5.4-9.2c-1-1.8-2.1-3.5-3.1-5.3c-0.5-0.8-0.8-1.6-1.2-2.4c-0.1-0.2-0.4-0.4-0.6-0.6c-0.2,0.2-0.5,0.4-0.5,0.7
			c-0.1,0.5,0,1.1,0,1.6c0.1,1.4,0.2,2.8,0.2,4.2c0,10.8-0.1,21.5-0.1,32.3c0,0.7,0.1,1.4,0.1,2c-0.1,1.3-0.6,1.7-1.8,1.7
			c-5,0-9.9,0-14.9,0c-1.4,0-2-0.4-2-1.8c0-1.5,0.1-2.9,0.1-4.4C322.7,325.2,322.7,314.7,322.7,304.2L322.7,304.2z"/>
		<path class="st0" d="M424.8,303.7c0-10.9,0-21.7,0-32.6c0-1-0.1-2-0.1-3s0.3-1.2,1.2-1.2c8.8,0,17.7,0.1,26.5,0.1
			c3.3,0,6.4,0.3,9.6,1c0.8,0.2,1.7,0.2,2.6,0.4c3.5,0.8,7,1.7,10.2,3.4c3.9,2,7.5,4.5,10.1,8.1c0.9,1.3,1.7,2.8,2.6,4.2
			c2.2,3.6,2.8,7.7,3.9,11.7c0.2,0.9,0.3,1.8,0.3,2.7c0,4.6-0.1,9.3-0.2,13.9c0,0.3,0,0.7-0.1,1c-0.7,2.4-1.3,4.7-2.1,7.1
			c-0.5,1.4-1,2.7-1.6,4c-1.7,3.6-4.3,6.3-7,9c-2.6,2.5-5.5,4.4-8.8,5.5c-0.4,0.1-0.7,0.4-1.1,0.6s-0.7,0.4-1.1,0.4
			c-1.5,0-2.8,0.6-4.1,1c-2.5,0.9-5.1,0.8-7.7,0.8c-10,0.1-20.1,0-30.1,0c-0.5,0-1,0-1.5,0.1c-1.3,0-1.7-0.3-1.7-1.7
			c0-0.9,0.1-1.8,0.1-2.7C424.8,326.2,424.8,314.9,424.8,303.7L424.8,303.7z M450.3,283.3c-1.5,0-2.9,0-4.2,0
			c-1.2,0-1.8,0.6-1.8,1.8c0,0.6,0.1,1.3,0.1,1.9c0,6.4,0,12.8-0.1,19.1c0,6.1,0,12.2,0,18.3c0,1.3,0.6,1.9,1.9,1.9
			c0.7,0,1.5-0.1,2.2,0c2,0.1,4.1,0.3,6.1-0.3c0.3-0.1,0.6-0.1,1-0.1c3.5-0.1,6.7-1,9.7-2.9c3.2-2,5.4-4.8,6.3-8.4
			c0.8-3.1,1.5-6.3,1.2-9.6c-0.1-0.6,0-1.3,0-1.9c0.2-3-0.5-5.8-1.2-8.6c-0.3-1.3-1-2.6-1.8-3.8c-2.4-3.7-5.9-5.9-10.2-6.7
			C456.3,283.4,453.2,283.3,450.3,283.3z"/>
		<path class="st0" d="M253.1,264.9c1.6,0,3.3,0,4.9,0c2.2,0.1,4.2,0.8,6.2,1.4c0.2,0.1,0.4,0.2,0.6,0.2c6,1.4,10.8,4.7,14.9,9.2
			c1.6,1.8,3.3,3.5,4.5,5.6c0.8,1.5,1.7,3,2.4,4.6c2,4.2,2.9,8.8,3.9,13.3c0.7,3,0.3,6,0.4,9c0,0.5-0.1,1-0.2,1.5
			c-0.4,1.8-0.7,3.7-1.1,5.5c-0.3,1-0.7,2-1.1,3.1c-0.1,0.3-0.2,0.5-0.3,0.8c-0.5,2.6-1.7,4.8-3,7.1c-3.3,5.8-7.9,10.3-13.7,13.6
			c-2.3,1.3-4.9,2.2-7.4,3.1c-1,0.4-2.1,0.3-3.1,0.5c-3.8,0.9-7.6,1.1-11.4,0.9c-1.5-0.1-3-0.5-4.6-0.8c-0.7-0.1-1.4-0.2-2.2-0.4
			c-2.1-0.4-4-1.4-6-2.2c-1-0.4-1.9-0.9-2.8-1.4c-4.5-2.5-8.1-6.1-11.1-10.2c-0.9-1.2-1.5-2.5-2.1-3.8c-0.9-1.8-1.7-3.7-2.6-5.6
			c-0.1-0.2-0.2-0.4-0.3-0.6c-0.4-1.6-0.8-3.2-1.2-4.7c-0.6-2.3-0.8-4.7-0.8-7s0-4.6,0-6.8c0.1-2.6,0.4-5.1,1.2-7.5
			c0.4-1,0.5-2.1,0.8-3.2c0.7-1.9,1.4-3.7,2.2-5.6c0.2-0.5,0.5-1,0.7-1.5c0.1-0.2,0.2-0.5,0.3-0.7c2.4-3.5,5-6.7,8.1-9.5
			c1.9-1.6,4-2.9,6.2-4c0.2-0.1,0.4-0.2,0.6-0.3c4-2,8.4-2.9,12.8-3.5C250.4,264.7,251.7,264.8,253.1,264.9L253.1,264.9z
			 M271.6,305.2c-0.2-2.6-0.3-5.1-0.6-7.7c-0.1-0.8-0.4-1.6-0.7-2.3c-0.3-0.8-0.5-1.6-0.8-2.4c-0.1-0.3-0.1-0.6-0.2-0.9
			c-1.3-2.9-3.3-5.4-5.7-7.4c-1-0.8-2-1.6-3.2-2c-2.7-0.9-5.4-1.7-8.4-1.5c-2.4,0.1-4.5,1.2-6.7,1.6c-0.2,0-0.4,0.3-0.6,0.4
			c-3.8,2.3-6,5.9-8,9.7c-0.1,0.3-0.2,0.6-0.2,0.9c-0.2,1-0.5,1.9-0.7,2.9s-0.6,1.9-0.7,2.9c-0.1,2.8-0.2,5.6-0.1,8.5
			c0.1,1.5,0.6,2.9,0.9,4.4c0.2,0.9,0.4,1.8,0.6,2.7c0.1,0.3,0.1,0.6,0.2,0.8c0.9,1.7,1.7,3.5,2.8,5c3.3,4.5,7.6,7.3,13.4,7
			c0.9,0,1.7,0,2.6,0c2.7,0,5.1-1,7.2-2.5c4.9-3.6,7.4-8.6,8.5-14.5C271.4,308.8,271.4,307,271.6,305.2z"/>
		<path class="st0" d="M560.5,264.8c1.9,0.1,3.7,0.1,5.6,0.3c1.3,0.2,2.6,0.7,3.9,1.1c0.4,0.1,0.8,0.3,1.2,0.4
			c3.1,0.5,5.9,2,8.4,3.7c3.3,2.2,6.3,4.9,8.8,8.1c1.5,2.1,2.9,4.2,3.9,6.5c0.5,1.3,1.1,2.6,1.7,3.8c1.3,2.8,1.9,5.9,2.5,8.9
			c0.7,3.7,0.8,7.5,0.5,11.3c-0.2,2.1-0.4,4.2-1.2,6.1c-0.3,0.8-0.4,1.7-0.6,2.5c-0.1,0.5-0.2,1.1-0.4,1.6c-0.3,0.9-0.7,1.8-1.1,2.6
			c-1.1,2.5-2.5,4.9-4.1,7.2c-1.5,2.3-3.6,4.1-5.5,6.1c-1.8,1.9-4.1,3.2-6.3,4.5c-1.6,0.9-3.4,1.5-5.1,2.2c-0.3,0.1-0.5,0.2-0.7,0.3
			c-1.1,0.7-2.3,0.8-3.5,0.9c-1.6,0.1-3.2,0.5-4.9,0.8c-3.8,0.6-7.6,0.4-11.4-0.4c-0.8-0.2-1.7-0.2-2.6-0.4
			c-0.9-0.2-1.9-0.4-2.8-0.7c-1.2-0.4-2.3-0.8-3.4-1.3c-5.1-2.3-9.2-6-12.8-10.2c-1.6-1.9-2.7-4.1-3.9-6.2c-0.5-0.9-0.9-1.8-1.4-2.7
			c-0.1-0.2-0.2-0.4-0.3-0.6c-0.8-3.1-1.9-6.2-2.4-9.4c-0.6-3.6-0.5-7.1-0.5-10.7c0-2.8,0.8-5.5,1.2-8.2c0.1-0.8,0.3-1.5,0.6-2.2
			c0.4-1.1,0.9-2.2,1.1-3.3c0.2-0.9,0.9-1.8,1.3-2.7c1.5-3.5,3.8-6.6,6.2-9.6c1.3-1.7,3.2-2.8,5-4c1.7-1.1,3.5-2,5.3-3
			c0.5-0.3,1-0.6,1.6-0.8c0.3-0.2,0.6-0.4,1-0.5c1.4-0.4,2.8-0.8,4.2-1.1c2.3-0.6,4.6-1,7-0.9C558,264.8,559.2,264.8,560.5,264.8
			L560.5,264.8z M577.9,304.5c-0.1-1.4-0.2-2.7-0.4-4.1c-0.3-1.9-0.6-3.8-1-5.6c-0.1-0.4-0.3-0.8-0.4-1.1c-0.3-0.6-0.5-1.3-0.8-1.9
			c-2.1-4.7-5.1-8.3-10.3-9.7c-0.3-0.1-0.7-0.3-1-0.4c-3-1-6.1-0.9-9.1-0.1c-0.7,0.2-1.5,0.5-2.2,0.7c-2.2,0.8-4.3,2-5.8,3.8
			c-2.3,2.8-3.9,6.1-4.8,9.7c-0.7,2.7-0.7,5.5-1.3,8.1c0,0.2-0.1,0.4,0,0.5c0.5,1.2,0.5,2.5,0.4,3.8c0,0.3,0.1,0.7,0.2,1.1
			c0.6,2.3,1.1,4.6,1.9,6.9c1,2.7,2.4,5.1,4.4,7c2.7,2.7,6,4.6,10,4.6c0.1,0,0.3,0,0.4,0c3.2,0.2,6.3-0.1,9.3-1.7
			c1.5-0.8,2.8-1.6,4-2.8c1.4-1.4,2.5-2.9,3.4-4.6c0.8-1.4,1.4-3,1.9-4.5c0.3-1,0.4-2.1,0.5-3.2
			C577.3,308.7,578.2,306.7,577.9,304.5z"/>
		<path class="st0" d="M161.9,296.5c0,9.2,0,18.3,0,27.5c0,1.4,0.4,1.7,1.7,1.7c4.9,0,9.8-0.1,14.6-0.1c3.7,0,7.4,0,11.1-0.1
			c1,0,1.3,0.2,1.4,1.2c0,0.3,0,0.5,0.1,0.8c0,4.1,0,8.3,0,12.4c0,1.6-0.3,1.9-1.9,1.8c-1.2-0.1-2.5-0.1-3.7-0.1
			c-13.4,0-26.7,0-40.1,0c-0.4,0-0.8,0-1.2-0.1c-1-0.2-1.4-0.8-1.4-1.8c0.1-16.6,0.1-33.3,0.2-49.9c0-5.7,0-11.5,0-17.2
			c0-1.3-0.1-2.6-0.1-3.8c0-1.7,0.2-2,2-2c2.1,0,4.2,0,6.3,0c3.2,0,6.4-0.1,9.6-0.1c0.9,0,1.3,0.3,1.5,1.2c0.1,0.4,0.1,0.8,0.1,1.2
			C161.9,278.4,161.9,287.4,161.9,296.5L161.9,296.5z"/>
		<path class="st0" d="M439.2,217.7c-0.1,1.9-0.8,3.5-1.6,5.2c-1,2-2.4,3.6-4.1,5c-0.8,0.6-1.7,1-2.6,1.5c-1.3,0.8-2.8,1.3-4.4,1.4
			c-0.9,0.1-1.9,0.3-2.8,0.5c-2.5,0.7-4.9,0.7-7.4,0.1c-1.7-0.4-3.4-0.6-5.1-1c-0.4-0.1-0.8-0.2-1.2-0.3c-3.3-1.5-6.2-3.6-8.8-6.1
			c-0.7-0.6-0.6-1.7,0.3-2.2c2.1-1.1,4.1-2.4,5.9-3.8c0.8-0.7,1.5-0.4,2.3,0.3c2,1.9,4.3,3.2,7,3.9c2.1,0.6,4.3,0.6,6.4,0.2
			c1.4-0.3,2.9-1.2,4.1-2.1c1.5-1.2,0.7-4.2-1.1-4.9c-1.4-0.5-2.9-0.8-4.4-1.1c-1.2-0.2-2.3-0.4-3.5-0.5c-2.4-0.1-4.8-0.6-7.1-1.4
			c-2.5-0.9-4.6-2.4-6.2-4.5c-0.9-1.1-1.3-2.4-1.6-3.8c-0.4-1.8-0.2-3.4,0-5.2c0.3-3,1.8-5.2,3.7-7.3c0.8-0.9,1.8-1.6,2.9-2
			c2.2-0.9,4.3-2,6.9-2c2.3,0,4.6,0.1,7,0c1.2,0,2.3,0.2,3.4,0.7c1.6,0.8,3.3,1.3,4.9,2.1c1.4,0.7,2.7,1.7,4,2.6
			c0.5,0.3,0.9,0.6,1.3,1c0.3,0.3,0.7,0.6,0.9,1c0.4,0.7,0.1,1.2-0.5,1.6c-1.1,0.7-2.2,1.4-3.3,2.2c-1,0.7-2,1.5-3,2.2
			c-0.9,0.6-1.5,0.5-2.2-0.4c-1.4-1.9-3.3-3.2-5.7-3.8c-0.4-0.1-0.7-0.1-1.1-0.2c-2.2-0.9-4.3-0.2-6.4,0.6c-1.4,0.6-2.3,2.5-2,4
			c0.2,0.8,0.7,1.3,1.4,1.6c1.6,0.6,3.1,1.2,4.9,1.3c2.7,0.1,5.4,0.3,7.9,1.4c0.3,0.1,0.6,0.2,0.9,0.2c2.8,0.4,5.1,1.9,7.2,3.6
			c1.2,1,2.1,2.5,2.4,4.2C439,214.9,439,216.3,439.2,217.7z"/>
		<path class="st0" d="M335.9,230.5c-1.3,0-2.6,0-4,0c-1.3,0-1.4-0.1-1.8-1.3c-0.8-2.2-1.7-4.4-2.5-6.6c0,0,0-0.1-0.1-0.1
			c-0.2-2.4-1.8-4.3-2-6.6c0-0.2-0.1-0.5-0.2-0.7c-0.7-1.2-1.1-2.5-1.3-3.8c-0.1-0.7-0.6-1.2-0.8-1.9c-0.7-2-1.3-4.1-2-6.1
			c-0.2-0.6-0.4-1.2-0.6-1.8c-0.3-0.9-0.6-1.8-1-2.7c-0.3-0.9-0.6-1.7-0.9-2.6c-0.1-0.3-0.3-0.6-0.4-0.9c-0.2-1.7-1-3.1-1.6-4.6
			c0-0.1-0.1-0.2-0.1-0.3c-0.6-1.8-0.2-2.4,1.8-2.3c2.3,0.1,4.6,0,7-0.1c1.2-0.1,2,0.3,2.5,1.3c0.4,0.9,0.8,1.9,1.1,2.9
			c0.4,1.2,0.8,2.5,1.2,3.8v0.1c0.2,2.7,1.7,5,2.1,7.6c0,0.1,0,0.3,0.1,0.4c0.7,2.3,1.4,4.5,2.1,6.8c0.4,1.1,0.7,2.2,0.6,3.3
			c0,0.3,0,0.6,0,0.8c0.1,0.2,0.3,0.5,0.4,0.6c0.2,0,0.6-0.1,0.7-0.3c0.5-1,1-2,1.2-3c0.4-1.8,0.8-3.6,1.6-5.2
			c0.1-0.2,0.2-0.4,0.2-0.6c0.3-2.6,1.5-5.1,2.1-7.6c0.1-0.6,0.4-1.2,0.6-1.8c0.1-0.4,0.4-0.8,0.4-1.2c0.1-1.5,0.5-2.9,1.1-4.2
			c0.2-0.5,0.3-1.1,0.5-1.7c0.3-1.5,0.7-1.8,2.2-1.8c1.2,0,2.4,0,3.6,0c1.5,0,3-0.1,4.5-0.2c0.6,0,1.2-0.1,1.6,0.6
			c0.3,0.6,0.1,1.1-0.1,1.7c-0.3,0.8-0.6,1.6-0.9,2.4c-0.1,0.2,0,0.4-0.1,0.5c-0.8,2.1-1.7,4.2-2.5,6.3c-0.6,1.5-1,3-1.5,4.5
			c-0.3,1-0.6,1.9-0.9,2.9c-0.6,1.7-1.3,3.4-1.8,5.1c-0.8,2.4-1.5,4.8-2.3,7.1c-0.1,0.3-0.3,0.7-0.5,1c-0.3,0.8-0.5,1.6-0.8,2.5
			c-0.2,0.5-0.2,1.1-0.5,1.6c-0.7,1.4-1.2,2.7-1.5,4.2c-0.3,1.4-1,1.9-2.5,1.9C338.7,230.5,337.3,230.5,335.9,230.5L335.9,230.5z"/>
		<path class="st0" d="M506.9,213.9c0,4.2,0,8.4,0,12.6c0,0.9,0.1,1.7,0.1,2.6c0,1.2-0.3,1.5-1.4,1.5c-2.6,0-5.2,0-7.8,0
			c-1.7,0-2-0.4-1.8-2.1c0.1-0.6,0.1-1.3,0.1-1.9c0-8.9,0-17.9-0.1-26.8c0-2.4-0.1-2.5-2.5-2.4c-2.3,0.1-4.6,0.1-6.8,0
			c-1.2,0-1.6-0.6-1.6-1.8c0.1-1.7,0.1-3.4,0.1-5.2c0-0.2,0-0.5,0-0.7c0.1-1.1,0.5-1.5,1.7-1.5c2.3,0,4.6,0.1,7,0.1
			c6.6,0,13.2,0,19.8,0c0.7,0,1.4-0.1,2-0.1c1.3-0.1,2,0.4,2.2,1.7c0.1,0.3,0.1,0.6,0.1,1c0,1.5,0,3,0,4.5s-0.5,2.1-2.1,2
			c-2.6,0-5.1-0.1-7.7-0.1c-1.1,0-1.4,0.2-1.4,1.3c-0.1,1.7-0.1,3.5-0.1,5.2C506.9,207.1,506.9,210.5,506.9,213.9L506.9,213.9z"/>
		<path class="st0" d="M382.4,209.1c0,6.7,0,13.3,0,20c0,1.2-0.2,1.5-1.4,1.5c-3.1,0-6.3,0-9.4,0c-1.4,0-1.7-0.3-1.6-1.7
			c0.1-1,0.1-2,0.1-3c0-11.3,0-22.6,0-33.9c0-1-0.1-1.9-0.1-2.9c0-1.2,0.1-1.3,1.3-1.3c2.1,0,4.3,0.1,6.4,0.1c1,0,2.1-0.1,3.1-0.1
			c1.2-0.1,1.5,0.1,1.5,1.4c0,2,0,3.9,0,5.9C382.4,199.6,382.4,204.3,382.4,209.1L382.4,209.1z"/>
		<path class="st0" d="M458,208.9c0-6.6,0-13.2,0-19.8c0-1.3,0.2-1.5,1.5-1.5c3.2,0,6.5,0,9.7-0.1c1,0,1.3,0.3,1.3,1.6
			c0,1.9,0,3.8,0,5.7c0,9.3,0,18.6,0,27.9c0,2,0,4.1,0.1,6.1c0,1.3-0.3,1.6-1.6,1.6c-3,0-5.9,0-8.9,0c-0.2,0-0.4,0-0.5,0
			c-1.2,0-1.5-0.4-1.5-1.6c0-1.8,0-3.6,0-5.5C458,218.6,458,213.8,458,208.9L458,208.9z"/>
		<path class="st0" d="M581.8,395.6c-0.6,0.6-0.7,1.2-0.6,1.9c0.1,2.1,0.2,4.3,0.3,6.4c0,0.1,0.1,0.3,0.1,0.4c0.3,2-0.2,2.6-2.3,2.4
			c-0.7-0.1-1.5,0-2.2-0.1c-1.3-0.1-1.7-0.5-1.7-1.8c0-4.9,0.1-9.7,0.1-14.6c0-1.4-0.1-2.7-0.1-4.1c0-1.1,0.2-1.4,1.3-1.5
			c1.9,0,3.7-0.1,5.6,0c1.5,0.1,1.9,0.4,2.2,1.9c0.4,1.5,0.8,3,1.2,4.5c0.3,1.1,0.4,2.1,0.6,3.2c0.1,0.7,0.3,1.3,0.6,1.9
			c0.1,0.3,0.7,0.5,1,0.5c0.2,0,0.6-0.5,0.6-0.8c0.2-2.3,0.9-4.4,1.6-6.6c0.3-0.8,0.3-1.7,0.4-2.6c0.3-1.5,0.8-2,2.4-2.1
			c0.3,0,0.5,0,0.8,0c1.4,0,2.8,0,4.2-0.1c1.4,0,1.8,0.2,1.8,1.7c0,3,0,5.9,0,8.9c0,3.1,0,6.3-0.1,9.4c0,0.3,0,0.5,0,0.8
			c-0.1,0.9-0.5,1.3-1.4,1.3c-1.1,0-2.2,0-3.3-0.1c-1.2-0.1-1.7-0.8-1.6-2.2c0.1-1.4,0.3-2.8,0.3-4.2c0-0.9-0.1-1.9-0.2-2.9
			c0-0.3-0.4-0.5-0.6-0.8c-0.2,0.3-0.5,0.5-0.6,0.8c-0.2,0.6-0.2,1.3-0.3,1.9c-0.1,0.7-0.3,1.4-0.5,2.1c-0.3,1.2-0.6,2.4-0.8,3.6
			c-0.3,1.4-0.6,1.7-1.9,1.8c-0.9,0-1.8,0-2.7-0.1c-1.3-0.2-1.7-0.7-1.9-1.9c-0.3-1.4-0.6-2.8-0.9-4.3c-0.2-1-0.3-2-0.5-3
			C582.6,396.8,582.6,396,581.8,395.6z"/>
		<path class="st0" d="M403.9,395.8c-0.1,0.8-0.2,1.2-0.2,1.7c0.1,2.4,0.2,4.7,0.3,7.1c0,1.5-0.6,2.1-2.1,2.1c-0.8,0-1.6,0-2.3-0.1
			c-1.3-0.1-1.8-0.7-1.7-2c0.1-5.5,0.1-10.9,0.2-16.4c0-0.7-0.1-1.4-0.1-2c0-1.1,0.2-1.5,1.3-1.5c1.1-0.1,2.2-0.1,3.3,0
			c1,0,1.7,0.5,2.2,1.4c1.3,2.4,2.7,4.8,4.1,7.3c0.3,0.6,0.5,1.4,0.9,2c0.1,0.3,0.5,0.5,0.7,0.7c0.2-0.3,0.6-0.6,0.7-0.9
			c0.1-0.4,0-0.9,0-1.4c-0.1-2.6-0.2-5.2-0.2-7.8c0-1.1,0.4-1.4,1.4-1.4s1.9,0,2.9,0.1c1.2,0.1,1.6,0.6,1.6,1.8
			c0,5.3-0.1,10.6-0.1,15.9c0,0.8,0.1,1.5,0.1,2.3c0,1.3-0.5,1.9-1.8,2.1c-0.2,0-0.4,0-0.5,0c-2.4,0.3-4.2-0.3-5.3-2.8
			c-0.8-1.9-2.1-3.7-3.1-5.6C405.5,397.5,405.1,396.6,403.9,395.8z"/>
		<path class="st0" d="M487.9,395.6c-0.7,0.3-0.6,0.8-0.6,1.3c0.1,2.5,0.3,5.1,0.3,7.6c0,1.6-0.5,2.1-2.1,2.1c-0.6,0-1.2,0-1.8,0
			c-1.2-0.1-1.7-0.6-1.7-1.9c0-3.9,0.1-7.7,0.1-11.6c0-2.3-0.1-4.6-0.1-6.8c0-1.3,0.3-1.7,1.6-1.8c0.9,0,1.7,0,2.6,0
			s1.6,0.4,2.1,1.3c1,1.7,2.2,3.4,3.1,5.1c0.6,1,1,2.2,1.4,3.2c0.1,0.3,0.2,0.5,0.3,0.7c0.2,0.2,0.5,0.4,0.6,0.4
			c0.3-0.1,0.6-0.3,0.6-0.6c0.1-0.4,0.1-0.9,0.1-1.3c-0.1-2.5-0.1-5-0.2-7.5c0-1,0.4-1.3,1.3-1.3c1.2,0,2.4,0,3.6,0.1
			c1,0.1,1.5,0.5,1.5,1.6c0,0.8-0.1,1.6-0.1,2.5c0,4.7,0,9.4,0,14.1c0,0.7,0.1,1.4,0.1,2c0,1.2-0.6,1.8-1.8,1.8c-1,0.1-2,0.1-3,0
			c-0.5,0-1-0.2-1.3-0.6c-0.6-0.5-1.1-1.1-1.5-1.8c-1.6-2.6-3.1-5.2-4.6-7.7C488.5,396.2,488.1,395.9,487.9,395.6z"/>
		<path class="st0" d="M426.2,395.4c0-3.1,0-6.3,0-9.4c0-1.2,0.2-1.4,1.4-1.4c2.6,0,5.1,0.1,7.7,0.1c1.3,0,2.5,0.2,3.7,0.9
			c0.2,0.1,0.4,0.2,0.6,0.3c1.5,0.3,2.5,1.3,3.6,2.3c0.9,0.9,1.5,1.9,1.8,3.1s0.6,2.3,0.9,3.4c0.1,0.5,0.2,1.1,0,1.6
			c-0.4,1.7-0.8,3.5-1.4,5.1c-0.2,0.7-0.7,1.4-1.2,1.9c-1.5,1.6-3.2,3-5.6,3.1c-2.3,0.1-4.6,0.1-6.8,0.1c-1,0-1.9,0-2.9,0.1
			c-1.5,0.1-1.9-0.3-1.9-1.8C426.2,401.7,426.2,398.5,426.2,395.4L426.2,395.4z M432.3,395.7C432.4,395.7,432.4,395.7,432.3,395.7
			c0,1.5,0,2.9-0.1,4.4c0,1.2,0.6,1.8,1.8,1.7c0.9-0.1,1.7-0.3,2.6-0.4c0.7-0.1,1.2-0.4,1.6-1c0.3-0.4,0.7-0.8,1-1.3
			c1.2-2.2,1.3-4.5-0.1-6.7c-1.1-1.7-2.7-2.4-4.5-2.7c-1.6-0.3-2.1,0.2-2.2,1.8C432.3,392.8,432.3,394.3,432.3,395.7z"/>
		<path class="st0" d="M568,396.2c0,0.6,0,1.2,0,1.8c0,1-0.4,1.9-0.8,2.8c-0.9,1.9-2.5,3.2-3.9,4.7c-0.3,0.3-0.7,0.6-1.1,0.8
			c-1.5,0.5-3,1.2-4.5,1.2c-2.5,0-5.1-0.6-7.1-2.3c-0.6-0.5-1.2-1.1-1.8-1.7c-0.2-0.2-0.4-0.4-0.5-0.6c-0.9-2.2-2.1-4.1-2.1-6.7
			s0.6-5,1.8-7.2c0.5-0.9,1.2-1.6,1.9-2.3c1.6-1.5,3.4-2.5,5.8-2.3c0.7,0.1,1.5,0.1,2.2,0c2.9-0.2,5.1,0.9,7,2.9
			C567.2,389.8,568.2,392.8,568,396.2z M562,396.1c-0.1-0.9-0.2-1.8-0.3-2.7c-0.4-2.4-2-3.9-4.5-4c-0.7,0-1.7-0.1-2.2,0.3
			c-1,0.7-2,1.5-2.4,2.7c-0.6,1.9-0.7,3.9-0.2,5.9c0.4,1.6,2.2,3.4,4.4,3.9c0.3,0.1,0.7,0,1.1-0.1
			C560.6,401.2,561.9,399.3,562,396.1z"/>
		<path class="st0" d="M463.3,384.4c0.5,0,0.9,0,1.4,0c2.9-0.2,4.9,1.3,6.8,3.1c1.8,1.7,2.7,3.9,3,6.1c0.6,4.2-0.4,8-3.6,10.9
			c-1.9,1.7-4.2,2.4-6.5,2.9c-0.6,0.1-1.3,0.1-1.9-0.1c-2.2-0.6-4.4-1.2-6.2-2.8c-1.2-1.1-2.2-2.5-2.8-4.1c-0.7-2.2-0.7-4.4-0.8-6.6
			c0-0.4,0.1-0.8,0.2-1.2c0.1-0.3,0.3-0.6,0.3-0.9c0.4-3.2,2.9-4.9,5.2-6.7c0.4-0.3,1.1-0.5,1.7-0.5
			C461.1,384.4,462.2,384.5,463.3,384.4C463.3,384.5,463.3,384.4,463.3,384.4z M468.6,395.7c0.3-2.2-0.7-3.9-2.2-5.3
			c-1.7-1.6-4.1-1.5-5.4-0.4c-1.4,1.2-2.4,2.7-2.6,4.6c-0.2,2,0.2,3.8,1.3,5.4c1.4,1.9,3.3,2.6,5.5,1.7c1-0.4,1.7-1,2.3-1.9
			C468.4,398.6,468.8,397.2,468.6,395.7z"/>
		<path class="st0" d="M379.4,384.4c0.4,0,0.7,0,1.1,0c3.6-0.2,6.1,1.6,8.1,4.4c0.8,1.1,1.2,2.3,1.6,3.6c0.7,2.2,0.5,4.2,0.1,6.4
			c-0.4,2.6-1.9,4.3-3.7,6c-1.8,1.7-4.1,2-6.3,2.7c-0.3,0.1-0.7,0.1-1.1,0c-4.5-0.8-7.5-2.4-9.5-7.1c-0.9-2-1.1-4-0.8-6.1
			c0.5-4.1,2.3-7.4,6.1-9.4c0.5-0.3,1.1-0.4,1.7-0.4C377.5,384.4,378.4,384.5,379.4,384.4C379.4,384.5,379.4,384.4,379.4,384.4z
			 M385,395.8c0-0.5,0-0.7-0.1-1c-0.5-1.3-1-2.8-1.7-4c-1.2-1.9-4.3-2.4-6.1-0.9c-1.5,1.2-2.6,2.7-2.4,4.8c0,0.4,0,0.7,0,1.1
			c-0.3,1.9,0.4,3.5,1.7,4.8c1,1,2.1,1.8,3.6,1.5c1.9-0.4,3.5-1.2,4-3.4c0.1-0.6,0.5-1.1,0.7-1.6C384.8,396.7,384.9,396.2,385,395.8
			z"/>
		<path class="st0" d="M294.8,384.3c1.2,0.1,2.5,0,3.5,0.4c1.9,0.8,3.7,1.9,5.5,3c0.8,0.5,0.7,1.1,0,1.7c-0.6,0.5-1.2,0.9-1.9,1.4
			c-1.3,0.9-2.5,0.8-3.6-0.2c-1.6-1.5-3.4-1.4-5.4-1c-0.6,0.1-1,0.5-1,1.2s0.4,1.1,1,1.4c0.3,0.1,0.7,0.2,1.1,0.3
			c2.2,0.5,4.5,0.9,6.7,1.4c2,0.5,3.9,3.2,4,5.3c0.2,3.1-1.5,5-3.7,6.7c-0.2,0.2-0.6,0.3-0.9,0.4c-3.7,1.2-7.4,1.3-11.1,0
			c-0.3-0.1-0.7-0.3-1-0.5c-1-0.8-1.9-1.5-2.8-2.4c-0.9-0.8-0.6-1.6,0.4-2.1c0.7-0.3,1.4-0.7,2-1.2c0.8-0.6,1.5-0.7,2.2,0.1
			c1.1,1.1,2.5,1.5,3.9,1.9c1.4,0.5,2.9,0.1,4.2-0.7c0.6-0.4,0.8-1,0.6-1.6c-0.2-0.7-0.6-1-1.3-1c-1-0.1-2.1-0.2-3.1-0.3
			c-1.3-0.1-2.5-0.5-3.7-0.9c-1.3-0.4-2.4-1.1-3.3-2.1c-0.4-0.4-0.7-1-0.8-1.5c-0.1-1.4-0.1-2.8-0.1-4.2c0-1,0.5-1.9,1.3-2.6
			C290,384.8,290.7,384.4,294.8,384.3z"/>
		<path class="st0" d="M530.9,384.4c3.1-0.4,5.5,1,7.5,3.1c0.5,0.5,0.9,1,1.3,1.6c0.5,0.8,0.3,1.3-0.5,1.7c-0.8,0.4-1.6,0.7-2.3,1.2
			c-0.6,0.4-1.2,0.3-1.8-0.2c-0.3-0.3-0.6-0.6-0.8-0.9c-1-1.7-2.7-1.9-4.3-1.6c-1.6,0.2-2.6,1.5-3.1,3.1c-0.2,0.8-0.4,1.6-0.6,2.4
			c-0.7,2.5,0.8,5.8,3.1,6.9c1.8,0.9,3.2,0.7,4.6-0.8c1.9-2,1.9-2,4.3-0.6c0.4,0.2,0.7,0.4,1,0.6c0.7,0.6,0.8,1.2,0.2,1.9
			c-1.5,1.6-3,3.2-5.2,3.8c-0.2,0.1-0.5,0.1-0.7,0.2c-1.8,1.1-3.5,0.7-5.4,0.2c-3.1-0.8-5.2-2.7-6.8-5.5c-0.7-1.3-0.9-2.6-1.1-4
			c-0.3-2,0.1-3.8,0.4-5.7c0.1-0.5,0.3-0.9,0.5-1.4c0.2-0.4,0.5-0.8,0.7-1.2c1.8-3.3,4.5-5,8.3-4.9
			C530.4,384.4,530.6,384.4,530.9,384.4z"/>
		<path class="st0" d="M247.1,384.6c0.6,0,1.3,0,1.9,0c0.6,0,1.1,0.3,1.3,0.9c0.5,1.4,0.9,2.8,1.4,4.3c0.1,0.5,0.1,1,0.4,1.4
			c0.8,1.4,1,2.9,1.2,4.5c0,0.6,0,1.3,0.8,1.4s1.1-0.6,1.3-1.2c0.1-0.2,0.2-0.3,0.2-0.5c0.1-3.1,1.9-5.7,2.4-8.6
			c0.3-1.8,0.9-2.1,2.7-2.1c0.9,0,1.8,0,2.7,0c1.2,0.1,1.5,0.6,1.1,1.7c-0.2,0.6-0.4,1.2-0.6,1.8c-0.3,0.7-0.5,1.4-0.8,2.2
			c-0.3,0.8-0.6,1.5-0.8,2.3v0.1c-0.8,2.1-1.5,4.3-2.3,6.4c-0.2,0.5-0.3,0.9-0.5,1.4c-0.6,1.6-1.1,3.3-1.7,4.9
			c-0.3,0.8-0.9,1.2-1.8,1.2c-1,0-2,0-3,0c-0.9,0-1.6-0.5-1.9-1.3c-0.4-1-0.7-2-1.1-2.9c-0.3-0.8-0.5-1.7-0.7-2.5
			c-0.8-2.3-1.5-4.7-2.4-7c-0.8-2.3-1.3-4.6-2.6-6.8c-0.6-1-0.2-1.6,1-1.7C245.8,384.6,246.5,384.6,247.1,384.6L247.1,384.6z"/>
		<path class="st0" d="M334,384.6c2.1,0,4.3,0,6.4,0c0.4,0,0.8,0,1.2,0.1c0.6,0.1,1,0.5,1,1.1c0.1,0.8,0.1,1.6,0.1,2.5
			c0,0.6-0.4,1-1,1.1s-1.2,0.1-1.8,0.1s-1.3-0.1-1.9,0c-0.8,0.1-1.2,0.4-1.2,1.2c0,4.4,0.1,8.8,0.2,13.3c0,0.4,0.1,0.7,0,1.1
			c-0.1,1-0.6,1.5-1.5,1.6c-1,0.1-2,0-3-0.1c-1.2-0.1-1.6-0.7-1.6-1.8c0-4.1,0-8.3,0.1-12.4c0-0.5,0.1-0.9,0.1-1.4
			c0-0.9-0.3-1.4-1.2-1.5c-0.6-0.1-1.3,0-1.9,0c-0.5,0-1,0-1.5-0.1c-0.9-0.2-1.2-0.5-1.2-1.5c0-0.7,0-1.4,0.1-2
			c0.1-0.8,0.4-1.1,1.2-1.2c0.3,0,0.5,0,0.8,0C329.6,384.6,331.8,384.6,334,384.6L334,384.6z"/>
		<path class="st0" d="M312.1,396.1c0-3.3,0-6.7,0-10c0-1.3,0.3-1.6,1.6-1.6c1.5,0,3.1,0,4.6,0c1.4,0,1.8,0.3,1.8,1.8
			c0,5.9-0.1,11.8-0.1,17.8c0,0.8,0.1,1.6,0.1,2.5c0,1-0.3,1.2-1.2,1.2c-1.8,0-3.6,0-5.3,0c-1.2,0-1.5-0.4-1.4-1.6
			C312,402.8,312,399.4,312.1,396.1C312,396.1,312.1,396.1,312.1,396.1z"/>
		<path class="st0" d="M349.1,396.1c-0.1-3.2-0.2-6.5-0.4-9.7c-0.1-1.3,0.3-1.8,1.6-1.8c1,0,2.1-0.1,3.1-0.1c1.1,0,1.6,0.4,1.6,1.6
			c0,4.5-0.1,9-0.2,13.5c0,1.4,0.3,1.8,1.7,1.8c1.6,0,3.3-0.1,4.9-0.1c1.7,0,2,0.4,2,2c0,0.5,0,1.1,0,1.6c-0.1,1-0.5,1.4-1.4,1.6
			c-0.3,0.1-0.6,0.1-1,0.1c-3.3,0-6.7,0-10,0c-0.2,0-0.4,0-0.5,0c-1.3-0.1-1.8-0.6-1.8-1.9s0.2-2.6,0.2-4c0-1.5,0-3.1,0-4.6
			C349,396.1,349.1,396.1,349.1,396.1z"/>
		<path class="st0" d="M277.4,396.3c0,3.3,0,6.6,0,9.8c0,1.3-0.3,1.6-1.6,1.6c-1.1,0-2.2,0-3.3,0c-1.3,0-1.5-0.4-1.5-1.7
			c0-6.5,0-12.9,0.1-19.4v-0.1c-0.1-1.9,0.1-2.1,2.1-2c0.8,0,1.5,0,2.3,0c1.6-0.1,1.9,0.2,1.9,1.8
			C277.4,389.7,277.4,393,277.4,396.3L277.4,396.3z"/>
		<path class="st0" d="M514.7,403.9c0,0.8,0,1.6,0,2.5c0,1.1-0.3,1.4-1.3,1.4c-1.7,0-3.4,0-5,0c-1.4,0-1.7-0.4-1.6-1.7
			c0-1.5,0-3,0-4.5c0-1.4,0.4-1.8,1.8-1.8c1.5,0,3,0,4.5,0c1.4,0,1.8,0.4,1.8,1.7C514.7,402.3,514.7,403.1,514.7,403.9L514.7,403.9z
			"/>
	</g>
</g>
</svg>
