<?xml version="1.0" encoding="utf-8"?>
<!-- Generator: Adobe Illustrator 19.2.1, SVG Export Plug-In . SVG Version: 6.00 Build 0)  -->
<svg version="1.1" id="Layer_1" xmlns="http://www.w3.org/2000/svg" xmlns:xlink="http://www.w3.org/1999/xlink" x="0px" y="0px"
	 viewBox="0 0 841.9 595.3" style="enable-background:new 0 0 841.9 595.3;" xml:space="preserve">
<style type="text/css">
	.st0{fill:#FFFFFF;}
</style>
<g>
	<path class="st0" d="M345.6,304.1c0.9,7.1,4.1,12.5,10.3,15.7c6.3,3.3,13.2,3.5,19.9,1.8c4.3-1.1,8.4-2.9,12.5-4.5
		c2.5-1,3.5-0.7,4.4,1.8c0.9,2.6,1.8,5.2,2.7,7.7c0.7,2.1,0.5,2.8-1.4,4c-4.9,3-10.3,4.5-15.8,5.8c-10,2.3-20,2.1-29.6-1.5
		c-12.8-4.8-20.3-14.2-22.7-27.5c-1.9-10.5-1-20.8,4.5-30.2c8-13.5,20-19.9,35.6-19.5c7.7,0.2,14.9,2.3,21.1,7.1
		c6.8,5.3,10.6,12.5,12,20.9c0.8,5.1,0.8,10.4,0.9,15.5c0.1,2.2-1,3-3.3,3c-16.3,0-32.7,0-49,0C347.2,304.1,346.5,304.1,345.6,304.1
		z M381.1,290.1c0.9-10.2-6.9-18.4-16.7-17.9c-9.1,0.5-15.5,5.7-18.1,14.6c-0.3,1-0.5,2.1-0.7,3.3
		C357.6,290.1,369.3,290.1,381.1,290.1z"/>
	<path class="st0" d="M498.6,257.4c11.1,0.1,20.5,3.3,28.2,10.7c6.2,6,9.8,13.4,11.1,21.8c1.8,11.4,0.1,22.2-6.7,31.8
		c-6.9,9.7-16.5,14.8-28.2,15.8c-9.4,0.8-18.3-0.8-26.3-6c-10.4-6.7-15.5-16.6-16.8-28.7c-1.1-10.6,0.8-20.6,7-29.4
		c6.9-9.7,16.5-14.7,28.2-15.8C496.5,257.5,497.8,257.5,498.6,257.4z M518.4,297.6c-0.3-2.7-0.4-5.4-0.9-8.1c-1-5.5-2.9-10.5-7.5-14
		c-9.1-6.9-22.7-3.3-27.1,7.4c-4,9.6-3.9,19.5-0.1,29.2c2.9,7.4,8.7,11,16.6,11c7.6,0,13.1-3.5,16.2-10.5
		C517.5,307.8,518.2,302.7,518.4,297.6z"/>
	<path class="st0" d="M578.9,284.7c1.6-2,3.3-3.8,4.7-5.9c3.7-5.7,7.3-11.4,10.7-17.2c1.2-2.1,2.6-3.2,5.1-3.1c3.7,0.2,7.4,0,11.1,0
		c2.2,0,2.9,0.9,2.2,3.1c-2.8,8.4-7.4,15.8-12.8,22.8c-2.9,3.7-6,7.1-9,10.7c-0.3,0.4-0.6,0.7-0.7,0.8c4.4,5.5,8.8,10.8,12.9,16.4
		c4.7,6.4,8.6,13.4,11.5,20.8c1,2.4,0.3,3.5-2.3,3.6c-5.2,0.1-10.4,0-15.6,0c-2.1,0-3-1.3-3.7-3c-1.8-3.8-3.4-7.8-5.6-11.4
		c-2.8-4.5-6.3-8.7-9.4-13c-0.3-0.4-0.7-0.7-1.3-1.2c-2,2.5-4.1,4.9-6,7.4c-4.1,5.6-7.6,11.7-10.4,18.1c-1,2.2-2.5,3.2-4.9,3.1
		c-4-0.1-7.9,0-11.9,0c-2.5,0-3.2-1-2.3-3.3c4.4-11.6,10.9-22,19.4-31.1c1.5-1.6,3-3,4.5-4.5c-2.8-3.8-5.7-7.4-8.3-11.2
		c-5.1-7.3-9.6-14.9-12.6-23.3c-1.5-4.2-1.1-4.7,3.2-4.7c4.4,0,8.7,0.1,13,0c2.6-0.1,4,1,5,3.3c3.2,7.5,7.2,14.5,12.1,21
		C577.9,283.5,578.4,284,578.9,284.7z"/>
	<path class="st0" d="M271.8,297.9c-4.5-6.7-9.4-13.1-13.5-20c-3-5-5.2-10.5-7.5-15.8c-1.1-2.6-0.2-3.5,2.6-3.5
		c4.9,0,9.8,0.1,14.7,0c2.2,0,3.4,1,4.3,2.9c3,7,6.7,13.7,11.1,19.9c0.6,0.9,1.3,1.7,1.9,2.6c0.1,0.2,0.2,0.4,0.4,0.7
		c0.7-0.8,1.3-1.4,1.8-2c5.2-6.2,9.4-13,13.2-20c0.4-0.7,0.8-1.4,1.2-2.1c0.8-1.4,2-2,3.6-2c4,0,7.9,0,11.9,0c2.3,0,2.9,0.9,2.2,3
		c-2.2,6.5-5.3,12.6-9.4,18.1c-4,5.5-8.5,10.6-12.8,15.9c-0.2,0.2-0.3,0.4-0.5,0.6c2.4,2.8,4.9,5.4,7.2,8.2
		c6.9,8.5,12.9,17.7,17.1,27.9c0.2,0.4,0.4,0.9,0.5,1.4c0.6,1.8,0.1,2.9-1.9,3c-2.6,0.2-5.3,0-7.9,0.1c-2.6,0-5.2-0.1-7.7,0
		c-2.4,0.1-3.4-1.1-4.4-3c-2.5-5.1-5-10.3-8-15.2c-2.2-3.6-5.1-6.8-7.9-10.5c-1,1.1-1.8,1.9-2.5,2.8c-5.7,6.7-10.3,14-13.8,22
		c-1.3,2.9-3,4.2-6.3,4c-3.5-0.2-7.1,0-10.6,0c-3,0-3.6-0.8-2.5-3.8c3.7-9.5,8.7-18.3,15.3-26.2
		C266.3,303.7,269.2,300.8,271.8,297.9z"/>
	<path class="st0" d="M413.2,310c0-7.3-0.2-14.6,0.1-21.9c0.1-3.9,0.4-7.9,1.4-11.6c2.3-9,8.7-14.3,17.4-16.9
		c8.6-2.5,17.4-2.6,26.1-1.2c2.3,0.4,3,1.4,2.6,3.7c-0.5,2.9-1.2,5.8-1.8,8.7c-0.5,2.1-1,2.3-3.2,2.2c-3.6-0.2-7.3-0.5-10.9-0.2
		c-6.1,0.5-11.4,4.2-11.8,11.9c-0.1,2.6-0.3,5.2-0.3,7.9c0,13.2,0,26.4,0,39.6c0,3.4-1.1,4.5-4.5,4.5c-3.5,0-7,0-10.5,0
		c-3.3,0-4.6-1.2-4.6-4.6C413.1,324.8,413.1,317.4,413.2,310C413.1,310,413.1,310,413.2,310z"/>
</g>
</svg>
