<?xml version="1.0" standalone="no"?>
<!DOCTYPE svg PUBLIC "-//W3C//DTD SVG 1.1//EN" "http://www.w3.org/Graphics/SVG/1.1/DTD/svg11.dtd" >
<svg>
<metadata>
Created by FontForge 20120731 at Wed Oct  5 09:52:56 2016
 By ,,,
2002 Christian Schwartz published by FontShop International for the FontFont library.
</metadata>
<defs>
<font id="Bau-Bold" horiz-adv-x="649" >
  <font-face 
    font-family="Bau-Bold"
    font-weight="500"
    font-stretch="normal"
    units-per-em="1000"
    panose-1="0 0 0 0 0 0 0 0 0 0"
    ascent="800"
    descent="-200"
    x-height="517"
    cap-height="756"
    bbox="-84 -249 1556 1057"
    underline-thickness="20"
    underline-position="-123"
    unicode-range="U+0020-00FF"
  />
<missing-glyph horiz-adv-x="500" 
 />
    <glyph glyph-name=".notdef" horiz-adv-x="500" 
 />
    <glyph glyph-name=".null" horiz-adv-x="0" 
 />
    <glyph glyph-name="nonmarkingreturn" horiz-adv-x="333" 
 />
    <glyph glyph-name="space" unicode=" " horiz-adv-x="240" 
 />
    <glyph glyph-name="exclam" unicode="!" horiz-adv-x="387" 
d="M127 270l-38 296v190h209v-190l-38 -296h-133zM97 0v175h195v-175h-195z" />
    <glyph glyph-name="quotedbl" unicode="&#x22;" horiz-adv-x="619" 
d="M380 431l-41 325h219l-41 -325h-137zM102 431l-41 325h219l-41 -325h-137z" />
    <glyph glyph-name="numbersign" unicode="#" horiz-adv-x="592" 
d="M118 459h-79v130h79v115h136v-115h84v115h136v-115h79v-130h-79v-90h79v-130h-79v-117h-136v117h-84v-117h-136v117h-79v130h79v90zM338 459h-84v-90h84v90z" />
    <glyph glyph-name="dollar" unicode="$" horiz-adv-x="726" 
d="M318 -14q-185 16 -303 133l124 107q70 -79 179 -97v138q-45 7 -80.5 16.5t-74.5 27t-64.5 40.5t-42 59t-16.5 81q0 104 76 160.5t202 63.5v81h92v-82q85 -7 149 -34.5t124 -82.5l-116 -111q-60 74 -157 89v-137q47 -6 84.5 -15t78 -26t67 -40.5t43.5 -60.5t17 -84
q0 -220 -290 -229v-115h-92v118zM410 125q55 2 78.5 18t23.5 50q0 27 -21.5 39t-80.5 22v-129zM318 578q-52 -4 -73.5 -19.5t-21.5 -46.5q0 -26 19.5 -39t75.5 -22v127z" />
    <glyph glyph-name="percent" unicode="%" horiz-adv-x="1112" 
d="M245 274q-102 0 -158.5 63t-56.5 159q0 93 61 155.5t156 62.5q96 0 157 -60t61 -155q0 -96 -59 -160.5t-161 -64.5zM862 -15q-102 0 -158.5 63t-56.5 159q0 93 61 155.5t156 62.5q96 0 157 -60t61 -155q0 -96 -59 -160.5t-161 -64.5zM296 0l365 704h156l-366 -704h-155z
M864 103q75 0 75 105q0 102 -76 102q-73 0 -73 -102q0 -105 74 -105zM247 392q75 0 75 105q0 102 -76 102q-73 0 -73 -102q0 -105 74 -105z" />
    <glyph glyph-name="ampersand" unicode="&#x26;" horiz-adv-x="787" 
d="M411 406q47 -74 125 -144q27 61 40 153l157 -31q-19 -121 -71 -211q54 -29 96 -36l-22 -155q-94 3 -197 60q-87 -60 -207 -60q-142 0 -220 60.5t-78 171.5q0 85 45.5 138.5t123.5 89.5q-19 65 -19 123q0 102 58.5 153.5t153.5 51.5q88 0 141.5 -43.5t53.5 -124.5
q0 -71 -46 -113t-134 -83zM402 140q-86 78 -143 176q-31 -34 -31 -80q0 -48 28.5 -75.5t86.5 -27.5q34 0 59 7zM362 507q80 38 80 91t-45 53q-47 0 -47 -70q0 -37 12 -74z" />
    <glyph glyph-name="quotesingle" unicode="'" horiz-adv-x="341" 
d="M102 431l-41 325h219l-41 -325h-137z" />
    <glyph glyph-name="parenleft" unicode="(" horiz-adv-x="413" 
d="M291 -184q-54 49 -95 96t-79 109t-58.5 137.5t-20.5 160.5q0 83 20.5 157.5t58.5 136t79 109t95 95.5l103 -87q-36 -48 -57 -82t-45.5 -85.5t-36 -112t-11.5 -131.5q0 -135 38.5 -226.5t111.5 -189.5z" />
    <glyph glyph-name="parenright" unicode=")" horiz-adv-x="413" 
d="M122 -184l-103 87q36 48 57 82t45.5 85.5t36 112t11.5 131.5q0 135 -38.5 226.5t-111.5 189.5l103 87q54 -49 95 -96t79 -109t58.5 -137.5t20.5 -160.5q0 -83 -20.5 -157.5t-58.5 -136t-79 -109t-95 -95.5z" />
    <glyph glyph-name="asterisk" unicode="*" horiz-adv-x="508" 
d="M191 317l-128 94l102 99l-137 20l51 151l119 -64l-24 139h161l-24 -139l118 64l51 -151l-137 -20l102 -99l-128 -94l-63 129z" />
    <glyph glyph-name="plus" unicode="+" horiz-adv-x="626" 
d="M385 221v-163h-144v163h-170v148h170v163h144v-163h170v-148h-170z" />
    <glyph glyph-name="comma" unicode="," horiz-adv-x="399" 
d="M88 -184v98q47 5 75 30.5t32 55.5h-108v190h225v-157q0 -38 -12.5 -74.5t-38 -69t-70.5 -52.5t-103 -21z" />
    <glyph glyph-name="hyphen" unicode="-" horiz-adv-x="489" 
d="M71 176v168h347v-168h-347z" />
    <glyph glyph-name="period" unicode="." horiz-adv-x="399" 
d="M87 0v190h225v-190h-225z" />
    <glyph glyph-name="slash" unicode="/" horiz-adv-x="483" 
d="M-17 -137l313 950h177l-313 -950h-177z" />
    <glyph glyph-name="zero" unicode="0" horiz-adv-x="700" 
d="M345 -18q-141 0 -225 84t-84 229q0 142 89.5 225t224.5 83q136 0 225 -78t89 -224q0 -147 -87 -233t-232 -86zM351 135q59 0 93.5 40t34.5 121q0 158 -130 158q-59 0 -93.5 -38.5t-34.5 -119.5q0 -82 34.5 -121.5t95.5 -39.5z" />
    <glyph glyph-name="one" unicode="1" horiz-adv-x="390" 
d="M146 0v366q-45 -29 -112 -31v122q55 11 89 40.5t45 91.5h159v-589h-181z" />
    <glyph glyph-name="two" unicode="2" horiz-adv-x="636" 
d="M31 0q1 65 18.5 116t49 85.5t64.5 57.5t76 42q21 9 51.5 20.5t50 19.5t39 17.5t29 21t9.5 25.5q0 31 -22 44.5t-70 13.5q-100 0 -136 -97l-152 64q31 86 106.5 129.5t181.5 43.5q141 0 208.5 -51.5t67.5 -142.5q0 -73 -44 -112t-129 -72q-110 -43 -133 -60
q-18 -13 -21 -27h322v-138h-566z" />
    <glyph glyph-name="three" unicode="3" horiz-adv-x="664" 
d="M330 -126q-122 0 -204 56t-108 156l159 44q17 -58 51.5 -86.5t98.5 -28.5q113 0 113 82q0 54 -42 69.5t-137 13.5v133q88 -2 127.5 14.5t39.5 67.5q0 69 -99 69q-55 0 -86.5 -23t-52.5 -75l-156 47q68 190 300 190q129 0 199 -53t70 -145q0 -110 -102 -148q56 -15 93 -56
t37 -101q0 -109 -79 -167.5t-222 -58.5z" />
    <glyph glyph-name="four" unicode="4" horiz-adv-x="716" 
d="M574 133h108v-133h-108v-112h-181v112h-359v146q90 72 199.5 210.5t158.5 233.5h182v-457zM399 133v233q-28 -51 -83 -119.5t-103 -113.5h186z" />
    <glyph glyph-name="five" unicode="5" 
d="M325 -126q-229 0 -310 172l152 63q41 -92 143 -92q127 0 127 113q0 96 -107 96q-83 0 -115 -66l-150 12l62 417h428v-147h-312l-19 -125q52 48 142 48q100 0 175 -58t75 -174q0 -119 -76.5 -189t-214.5 -70z" />
    <glyph glyph-name="six" unicode="6" horiz-adv-x="676" 
d="M348 -18q-155 0 -233.5 94.5t-78.5 252.5q0 107 35.5 193.5t112 141t182.5 54.5q93 0 156.5 -29.5t107.5 -96.5l-125 -95q-30 42 -58.5 58t-82.5 16q-72 0 -108 -44.5t-47 -140.5q58 72 165 72q110 0 189 -60t79 -167q0 -120 -81 -184.5t-213 -64.5zM340 123
q122 0 122 101q0 97 -118 97q-114 0 -114 -101q0 -97 110 -97z" />
    <glyph glyph-name="seven" unicode="7" horiz-adv-x="639" 
d="M141 -112q17 184 96.5 335t169.5 225h-365v141h558v-115q-120 -101 -186 -258.5t-71 -327.5h-202z" />
    <glyph glyph-name="eight" unicode="8" horiz-adv-x="671" 
d="M336 -18q-145 0 -224.5 57.5t-79.5 163.5q0 58 32.5 103t86.5 68q-85 34 -85 139q0 97 77 148.5t196 51.5t193.5 -49t74.5 -150q0 -49 -22.5 -87t-60.5 -53q50 -20 82.5 -65t32.5 -100q0 -114 -79.5 -170.5t-223.5 -56.5zM335 116q122 0 122 91q0 95 -121 95t-121 -95
q0 -91 120 -91zM338 427q97 0 97 78q0 36 -26 56.5t-73 20.5q-101 0 -101 -82q0 -38 25 -55.5t78 -17.5z" />
    <glyph glyph-name="nine" unicode="9" horiz-adv-x="672" 
d="M320 -126q-196 0 -292 130l127 92q29 -38 63 -56.5t90 -18.5q137 0 150 166q-61 -63 -162 -63q-116 0 -191.5 60t-75.5 162q0 125 79.5 191t214.5 66q158 0 235.5 -91.5t77.5 -254.5q0 -175 -79 -279t-237 -104zM326 262q54 0 87.5 25.5t33.5 72.5q0 49 -31 74t-88 25
q-119 0 -119 -98q0 -99 117 -99z" />
    <glyph glyph-name="colon" unicode=":" horiz-adv-x="389" 
d="M92 299v185h205v-185h-205zM92 0v185h205v-185h-205z" />
    <glyph glyph-name="semicolon" unicode=";" horiz-adv-x="389" 
d="M89 -178v90q48 6 73.5 30t30.5 58h-101v185h205v-152q0 -31 -5.5 -59t-20 -56t-37.5 -48t-60 -33.5t-85 -14.5zM92 299v185h205v-185h-205z" />
    <glyph glyph-name="less" unicode="&#x3c;" horiz-adv-x="576" 
d="M510 19l-454 190v149l454 190v-178l-239 -85l239 -93v-173z" />
    <glyph glyph-name="equal" unicode="=" horiz-adv-x="596" 
d="M71 325v148h454v-148h-454zM71 93v148h454v-148h-454z" />
    <glyph glyph-name="greater" unicode="&#x3e;" horiz-adv-x="576" 
d="M66 19v178l239 85l-239 93v173l454 -190v-149z" />
    <glyph glyph-name="question" unicode="?" horiz-adv-x="672" 
d="M221 263v19q0 63 31 97t105 75q27 15 36.5 21t24.5 18t20 24t5 28q0 36 -22.5 52.5t-71.5 16.5q-121 0 -174 -114l-161 67q41 94 126.5 148.5t214.5 54.5q289 0 289 -224q0 -65 -28.5 -104.5t-79.5 -70.5q-24 -14 -51.5 -29.5t-38.5 -21.5t-22 -15t-14 -18t-3 -24h-186z
M212 0v175h195v-175h-195z" />
    <glyph glyph-name="at" unicode="@" horiz-adv-x="923" 
d="M429 -163q-117 0 -209 55t-140.5 146.5t-48.5 201.5q0 123 63 222t165 152.5t220 53.5q177 0 295 -104t118 -275q0 -70 -18.5 -122t-50 -81t-67 -42.5t-74.5 -13.5q-116 0 -146 81q-53 -86 -145 -86q-78 0 -125 51.5t-47 138.5q0 123 62 190.5t149 67.5q96 0 125 -66
l11 56h146l-46 -287q-9 -61 34 -61q46 0 75.5 48.5t29.5 135.5q0 136 -90 210.5t-235 74.5q-150 0 -252.5 -94.5t-102.5 -247.5q0 -137 83 -228t224 -92q71 -1 115 14t98 49l47 -68q-61 -43 -119 -61.5t-144 -18.5zM435 146q46 0 73 37t27 100q0 74 -67 74
q-49 0 -73.5 -36.5t-24.5 -101.5q0 -73 65 -73z" />
    <glyph glyph-name="A" unicode="A" horiz-adv-x="838" 
d="M255 141l-50 -141h-190l286 756h234l288 -756h-207l-50 141h-311zM513 287l-103 290l-103 -290h206z" />
    <glyph glyph-name="B" unicode="B" horiz-adv-x="854" 
d="M84 0v756h440q73 0 126.5 -18t82.5 -48.5t42.5 -65t13.5 -73.5q0 -64 -22.5 -100.5t-75.5 -60.5q57 -22 85.5 -61t28.5 -112q0 -103 -63.5 -160t-216.5 -57h-441zM280 314v-153h237q55 0 76.5 19t21.5 59t-22.5 57.5t-80.5 17.5h-232zM280 464h229q53 0 73 13t20 52
q0 36 -20 51t-72 15h-230v-131z" />
    <glyph glyph-name="C" unicode="C" horiz-adv-x="802" 
d="M440 -18q-190 0 -295 110t-105 286q0 171 110 281.5t285 110.5q130 0 212 -51t130 -145l-162 -98q-50 124 -177 124q-90 0 -142.5 -56.5t-52.5 -164.5q0 -109 53.5 -167.5t143.5 -58.5q128 0 183 131l167 -99q-113 -203 -350 -203z" />
    <glyph glyph-name="D" unicode="D" horiz-adv-x="862" 
d="M84 0v756h331q188 0 297.5 -98.5t109.5 -273.5t-107.5 -279.5t-304.5 -104.5h-326zM280 161h146q90 0 141.5 55t51.5 163t-52.5 162t-142.5 54h-144v-434z" />
    <glyph glyph-name="E" unicode="E" horiz-adv-x="798" 
d="M84 0v756h653v-149h-457v-144h342v-149h-342v-162h475v-152h-671z" />
    <glyph glyph-name="F" unicode="F" horiz-adv-x="782" 
d="M84 0v756h653v-149h-457v-164h362v-149h-362v-294h-196z" />
    <glyph glyph-name="G" unicode="G" horiz-adv-x="902" 
d="M445 -18q-181 0 -293 109.5t-112 278.5q0 179 111.5 289.5t305.5 110.5q256 0 356 -161l-158 -100q-32 46 -78 69.5t-121 23.5q-100 0 -156.5 -61.5t-56.5 -169.5q0 -109 57.5 -166t170.5 -57q48 0 87 16.5t60 40.5t31.5 46t10.5 37v4h-162v152h340v-444h-99l-31 97
q-46 -56 -108 -85.5t-155 -29.5z" />
    <glyph glyph-name="H" unicode="H" horiz-adv-x="911" 
d="M631 312h-351v-312h-196v756h196v-285h351v285h196v-756h-196v312z" />
    <glyph glyph-name="I" unicode="I" horiz-adv-x="372" 
d="M88 0v756h196v-756h-196z" />
    <glyph glyph-name="J" unicode="J" horiz-adv-x="714" 
d="M335 -18q-150 0 -224.5 80.5t-74.5 224.5v40h189v-20q0 -84 21.5 -120.5t88.5 -36.5q63 0 83.5 43t20.5 129v434h196v-454q0 -167 -76 -243.5t-224 -76.5z" />
    <glyph glyph-name="K" unicode="K" horiz-adv-x="857" 
d="M280 438l304 318h219l-299 -309l348 -447h-240l-240 311l-92 -95v-216h-196v756h196v-318z" />
    <glyph glyph-name="L" unicode="L" horiz-adv-x="712" 
d="M84 0v756h196v-600h400v-156h-596z" />
    <glyph glyph-name="M" unicode="M" horiz-adv-x="1060" 
d="M84 0v756h265l179 -496l181 496h267v-756h-191v507l-194 -507h-139l-192 507v-507h-176z" />
    <glyph glyph-name="N" unicode="N" horiz-adv-x="897" 
d="M84 0v756h248l304 -506l-7 506h184v-756h-229l-324 534l8 -534h-184z" />
    <glyph glyph-name="O" unicode="O" horiz-adv-x="896" 
d="M443 -18q-181 0 -292 112t-111 284q0 167 119.5 279.5t288.5 112.5q172 0 290 -107t118 -279q0 -173 -115 -287.5t-298 -114.5zM449 155q94 0 149 58.5t55 165.5t-56 164.5t-150 57.5q-93 0 -148.5 -57t-55.5 -165q0 -109 55.5 -166.5t150.5 -57.5z" />
    <glyph glyph-name="P" unicode="P" horiz-adv-x="792" 
d="M280 279v-279h-196v756h406q141 0 207 -65.5t66 -181.5q0 -105 -62.5 -167.5t-189.5 -62.5h-231zM280 436h198q54 0 74.5 20t20.5 62q0 38 -21 57.5t-73 19.5h-199v-159z" />
    <glyph glyph-name="Q" unicode="Q" horiz-adv-x="896" 
d="M764 121l114 -118l-156 -132l-129 135q-67 -24 -150 -24q-181 0 -292 112t-111 284q0 167 119.5 279.5t288.5 112.5q172 0 290 -107t118 -279q0 -154 -92 -263zM449 155q94 0 149 58.5t55 165.5t-56 164.5t-150 57.5q-93 0 -148.5 -57t-55.5 -165q0 -109 55.5 -166.5
t150.5 -57.5z" />
    <glyph glyph-name="R" unicode="R" horiz-adv-x="846" 
d="M280 272v-272h-196v756h425q286 0 286 -224q0 -147 -136 -187q33 -8 59 -28.5t36 -45.5q9 -25 14 -57.5t9 -80t6 -65.5q6 -51 18 -61v-7h-200q-10 40 -15 152q-2 66 -32.5 93t-102.5 27h-171zM280 429h214q107 0 107 88q0 41 -24.5 59.5t-81.5 18.5h-215v-166z" />
    <glyph glyph-name="S" unicode="S" horiz-adv-x="776" 
d="M404 -18q-253 0 -388 146l129 115q90 -105 256 -105q79 0 114 17t35 54q0 39 -33.5 53t-142.5 29q-47 7 -77.5 12.5t-73.5 17t-71 28.5t-55 41.5t-40 60.5t-13 82q0 118 87 177.5t239 59.5q123 0 206 -32t145 -98l-121 -115q-72 93 -223 93q-78 0 -111.5 -16t-33.5 -52
q0 -37 36 -51.5t149 -27.5q54 -7 94.5 -15t86.5 -26t76 -43t49.5 -65.5t19.5 -93.5q0 -124 -83 -185t-256 -61z" />
    <glyph glyph-name="T" unicode="T" horiz-adv-x="751" 
d="M284 600h-246v156h675v-156h-233v-600h-196v600z" />
    <glyph glyph-name="U" unicode="U" horiz-adv-x="881" 
d="M440 -18q-178 0 -269.5 82.5t-91.5 246.5v445h196v-434q0 -92 35 -129.5t131 -37.5q95 0 130 37.5t35 129.5v434h196v-445q0 -167 -95 -248t-267 -81z" />
    <glyph glyph-name="V" unicode="V" horiz-adv-x="840" 
d="M302 0l-287 756h213l205 -568l196 568h196l-277 -756h-246z" />
    <glyph glyph-name="W" unicode="W" horiz-adv-x="1162" 
d="M225 0l-210 756h211l134 -533l147 533h163l158 -542l127 542h192l-205 -756h-230l-128 475l-130 -475h-229z" />
    <glyph glyph-name="X" unicode="X" horiz-adv-x="900" 
d="M334 387l-286 369h238l170 -219l165 219h213l-275 -351l314 -405h-238l-199 257l-196 -257h-213z" />
    <glyph glyph-name="Y" unicode="Y" horiz-adv-x="810" 
d="M312 318l-297 438h223l181 -278l170 278h206l-287 -440v-316h-196v318z" />
    <glyph glyph-name="Z" unicode="Z" horiz-adv-x="783" 
d="M46 0v157l446 450h-433v149h663v-155l-445 -449h460v-152h-691z" />
    <glyph glyph-name="bracketleft" unicode="[" horiz-adv-x="451" 
d="M80 -158v951h329v-143h-145v-665h145v-143h-329z" />
    <glyph glyph-name="backslash" unicode="\" horiz-adv-x="483" 
d="M323 -137l-313 950h177l313 -950h-177z" />
    <glyph glyph-name="bracketright" unicode="]" horiz-adv-x="451" 
d="M42 -158v143h145v665h-145v143h329v-951h-329z" />
    <glyph glyph-name="asciicircum" unicode="^" horiz-adv-x="489" 
d="M71 273v168h347v-168h-347z" />
    <glyph glyph-name="underscore" unicode="_" horiz-adv-x="489" 
d="M-1 -179v138h491v-138h-491z" />
    <glyph glyph-name="grave" unicode="`" horiz-adv-x="500" 
d="M197 567l-176 159h231l77 -159h-132z" />
    <glyph glyph-name="a" unicode="a" horiz-adv-x="630" 
d="M374 320q-1 43 -16 58t-67 15q-93 0 -144 -64l-111 92q98 110 276 110q47 0 83.5 -6.5t71.5 -23.5t54.5 -51.5t19.5 -85.5v-195q0 -33 9.5 -44.5t29.5 -11.5q16 0 26 5h4l-34 -114q-30 -12 -70 -12q-102 0 -126 68q-60 -77 -177 -77q-80 0 -128 37t-48 111q0 44 18 76
t46.5 52t76 33t94.5 18.5t112 9.5zM248 109q46 0 87.5 29t41.5 77q-180 0 -180 -69q0 -37 51 -37z" />
    <glyph glyph-name="b" unicode="b" horiz-adv-x="647" 
d="M409 -14q-118 0 -171 90l2 -76h-176v756h176v-307q52 82 157 82q102 0 159.5 -70.5t57.5 -198.5q0 -130 -54 -203t-151 -73zM338 132q99 0 99 129q0 128 -99 128q-45 0 -73 -36t-28 -93t28 -92.5t73 -35.5z" />
    <glyph glyph-name="c" unicode="c" horiz-adv-x="576" 
d="M301 -18q-119 0 -195.5 72.5t-76.5 197.5q0 128 76 203.5t195 75.5q185 0 251 -160l-142 -70q-30 87 -103 87q-99 0 -99 -130q0 -66 25.5 -102t74.5 -36q79 0 102 94l149 -65q-63 -167 -257 -167z" />
    <glyph glyph-name="d" unicode="d" 
d="M246 -14q-103 0 -158 72.5t-55 203.5q0 128 58 198.5t158 70.5q108 0 160 -82v307h176v-756h-176l2 76q-53 -90 -165 -90zM308 134q47 0 75.5 34.5t28.5 91.5q0 58 -27.5 93.5t-76.5 35.5q-50 0 -74 -31t-24 -97t23.5 -96.5t74.5 -30.5z" />
    <glyph glyph-name="e" unicode="e" horiz-adv-x="606" 
d="M199 216q8 -47 36.5 -71.5t71.5 -24.5q44 0 73 13.5t46 49.5l149 -47q-71 -154 -266 -154q-124 0 -202 72t-78 198q0 129 75.5 204t201.5 75q52 0 100 -16t90.5 -50.5t64.5 -98.5t15 -150h-377zM200 317h208q-13 77 -102 77q-44 0 -70.5 -17.5t-35.5 -59.5z" />
    <glyph glyph-name="f" unicode="f" horiz-adv-x="425" 
d="M112 378h-97v139h97v96q0 160 173 160q78 0 136 -25l-19 -136h-2q-27 21 -63 21q-49 0 -49 -42v-74h121v-139h-121v-378h-176v378z" />
    <glyph glyph-name="g" unicode="g" horiz-adv-x="629" 
d="M128 218q-70 49 -70 134q0 87 62 133t170 46q154 0 206 -83q38 87 120 80v-147h-3q-76 17 -94 -63q-31 -140 -230 -140q-57 0 -99 13q-17 -11 -17 -30q0 -21 25 -27.5t118 -7.5q54 -1 90.5 -4.5t73.5 -13t58.5 -26t35 -44.5t13.5 -68q0 -100 -73.5 -138.5t-228.5 -38.5
q-143 0 -203.5 28.5t-60.5 96.5q0 63 83 92q-69 26 -69 97q0 76 93 111zM187 -7q-16 -18 -16 -38q0 -26 27.5 -37.5t90.5 -11.5q79 0 104.5 8.5t25.5 34.5q0 25 -23 31t-116 8q-48 0 -93 5zM293 291q82 0 82 60q0 61 -82 61q-81 0 -81 -61q0 -60 81 -60z" />
    <glyph glyph-name="h" unicode="h" 
d="M64 0v756h176v-328q59 103 181 103q79 0 123.5 -42.5t44.5 -132.5v-356h-176v295q0 87 -71 87q-52 0 -77 -32.5t-25 -112.5v-237h-176z" />
    <glyph glyph-name="i" unicode="i" horiz-adv-x="314" 
d="M69 0v517h176v-517h-176zM69 587v168h176v-168h-176z" />
    <glyph glyph-name="j" unicode="j" horiz-adv-x="314" 
d="M72 -189q-61 0 -108 21v141h6q22 -13 47 -13q52 0 52 48v509h176v-539q0 -75 -46.5 -121t-126.5 -46zM69 587v168h176v-168h-176z" />
    <glyph glyph-name="k" unicode="k" horiz-adv-x="613" 
d="M240 145v-145h-176v756h176v-420l155 181h194l-187 -199l203 -318h-199l-120 194z" />
    <glyph glyph-name="l" unicode="l" horiz-adv-x="314" 
d="M69 0v756h176v-756h-176z" />
    <glyph glyph-name="m" unicode="m" horiz-adv-x="948" 
d="M564 0h-176v299q0 83 -65 83q-44 0 -63.5 -29.5t-19.5 -95.5v-257h-176v517h176l-2 -80q52 94 154 94q121 0 156 -84q61 84 167 84q173 0 173 -174v-357h-176v299q0 83 -65 83q-44 0 -63.5 -29.5t-19.5 -95.5v-257z" />
    <glyph glyph-name="n" unicode="n" 
d="M64 0v517h176l-2 -91q60 105 183 105q79 0 123.5 -42.5t44.5 -132.5v-356h-176v295q0 87 -71 87q-52 0 -77 -32.5t-25 -112.5v-237h-176z" />
    <glyph glyph-name="o" unicode="o" horiz-adv-x="612" 
d="M306 -18q-123 0 -200 72t-77 198q0 128 77 203.5t201 75.5q122 0 199 -76t77 -197q0 -129 -77 -202.5t-200 -73.5zM307 120q48 0 74 36t26 101q0 131 -100 131q-101 0 -101 -130q0 -66 26 -102t75 -36z" />
    <glyph glyph-name="p" unicode="p" horiz-adv-x="647" 
d="M64 -179v696h176l-2 -76q53 90 159 90q102 0 159.5 -70.5t57.5 -198.5q0 -130 -54 -203t-151 -73q-117 0 -169 84v-249h-176zM338 132q99 0 99 129q0 128 -99 128q-45 0 -73 -36t-28 -93t28 -92.5t73 -35.5z" />
    <glyph glyph-name="q" unicode="q" 
d="M409 -179v250q-26 -43 -64.5 -64t-98.5 -21q-103 0 -158 72.5t-55 203.5q0 128 58 198.5t158 70.5q115 0 162 -87l-2 73h176v-696h-176zM308 134q47 0 75.5 34.5t28.5 91.5q0 58 -27.5 93.5t-76.5 35.5q-50 0 -74 -31t-24 -97t23.5 -96.5t74.5 -30.5z" />
    <glyph glyph-name="r" unicode="r" horiz-adv-x="444" 
d="M64 0v517h176l-2 -63q19 34 51 53t66 19q55 0 87 -28l-71 -158h-2q-21 24 -57 24q-37 0 -54.5 -23.5t-17.5 -73.5v-267h-176z" />
    <glyph glyph-name="s" unicode="s" horiz-adv-x="562" 
d="M291 -15q-185 0 -280 92l92 102q36 -30 75.5 -45.5t105.5 -15.5q47 0 64.5 8.5t17.5 26.5q0 17 -12 21.5t-56 8.5q-29 3 -48 5q-108 13 -161.5 49.5t-53.5 123.5t67 128t177 41q158 0 237 -55l-80 -116q-61 42 -163 42q-77 0 -77 -32q0 -15 19 -22.5t77 -11.5
q41 -3 71.5 -8t65 -16.5t57 -29t37.5 -48t15 -70.5q0 -178 -247 -178z" />
    <glyph glyph-name="t" unicode="t" horiz-adv-x="406" 
d="M99 378h-84v139h84v72q96 62 168 132h8v-204h106v-139h-106v-191q0 -22 8.5 -33t30.5 -11q31 0 49 11h2v-148q-50 -20 -115 -20q-88 0 -119 36q-32 37 -32 114v242z" />
    <glyph glyph-name="u" unicode="u" 
d="M228 -14q-79 0 -123.5 42.5t-44.5 132.5v356h176v-295q0 -87 71 -87q52 0 77 32.5t25 112.5v237h176v-517h-176l2 91q-60 -105 -183 -105z" />
    <glyph glyph-name="v" unicode="v" horiz-adv-x="598" 
d="M204 0l-192 517h189l100 -314l110 314h175l-198 -517h-184z" />
    <glyph glyph-name="w" unicode="w" horiz-adv-x="834" 
d="M166 0l-154 517h188l70 -309l87 309h134l77 -309l80 309h174l-161 -517h-175l-70 281l-75 -281h-175z" />
    <glyph glyph-name="x" unicode="x" horiz-adv-x="631" 
d="M8 0l203 260l-193 257h211l94 -134l97 134h186l-190 -243l207 -274h-211l-107 152l-111 -152h-186z" />
    <glyph glyph-name="y" unicode="y" horiz-adv-x="598" 
d="M215 8l-203 509h189l105 -299l108 299h172l-199 -491q-56 -140 -112 -180q-46 -34 -118 -34q-58 0 -93 23v143h6q18 -22 63 -22q35 0 53.5 12t28.5 40z" />
    <glyph glyph-name="z" unicode="z" horiz-adv-x="537" 
d="M35 0v123l243 258h-233v136h454v-117l-250 -264h253v-136h-467z" />
    <glyph glyph-name="braceleft" unicode="{" horiz-adv-x="461" 
d="M412 -160q-156 4 -226 48t-70 136q0 32 10.5 83t10.5 76q0 38 -27.5 54t-87.5 14v143q60 -2 87.5 13.5t27.5 53.5q0 26 -10.5 73.5t-10.5 75.5q0 92 70 136t226 48l9 -143q-68 -4 -93.5 -20.5t-25.5 -50.5q0 -12 7 -53t7 -77q0 -102 -108 -128q108 -26 108 -128
q0 -32 -7 -77t-7 -63q0 -34 25.5 -50.5t93.5 -20.5z" />
    <glyph glyph-name="bar" unicode="|" horiz-adv-x="299" 
d="M65 -137v950h169v-950h-169z" />
    <glyph glyph-name="braceright" unicode="}" horiz-adv-x="461" 
d="M49 -160l-9 143q68 4 93.5 20.5t25.5 50.5q0 18 -7 63t-7 77q0 102 108 128q-108 26 -108 128q0 36 7 77t7 53q0 34 -25.5 50.5t-93.5 20.5l9 143q156 -4 226 -48t70 -136q0 -28 -10.5 -75.5t-10.5 -73.5q0 -38 27.5 -53.5t87.5 -13.5v-143q-60 2 -87.5 -14t-27.5 -54
q0 -25 10.5 -76t10.5 -83q0 -92 -70 -136t-226 -48z" />
    <glyph glyph-name="asciitilde" unicode="~" horiz-adv-x="572" 
d="M371 223q-43 0 -89 24.5t-60 24.5q-44 0 -53 -43l-141 8q12 87 60 138.5t113 51.5q43 0 89.5 -24.5t60.5 -24.5q43 0 52 43l141 -8q-12 -87 -60 -138.5t-113 -51.5z" />
    <glyph glyph-name="Euro" horiz-adv-x="763" 
d="M93 375h-69v89h84q31 115 122 184.5t220 69.5q210 0 291 -180l-152 -91q-21 60 -54.5 87t-89.5 27q-106 0 -142 -97h184v-89h-200v-23q0 -24 1 -35h199v-89h-181q36 -88 140 -88q110 0 150 119l155 -91q-44 -90 -113 -138t-193 -48q-132 0 -218.5 66.5t-117.5 179.5h-85
v89h70q-1 12 -1 35v23z" />
    <glyph glyph-name="quotesinglbase" horiz-adv-x="361" 
d="M76 -159v84q45 6 72 28.5t30 46.5h-102v168h209v-138q0 -43 -19.5 -81.5t-68.5 -69.5t-121 -38z" />
    <glyph glyph-name="florin" horiz-adv-x="495" 
d="M139 328h-89v139h102l12 137q7 84 55.5 126.5t128.5 42.5q84 0 143 -27l-30 -135h-2q-28 22 -63 22q-25 0 -37.5 -11t-14.5 -39l-10 -116h110v-139h-123l-30 -338q-8 -98 -56 -137.5t-130 -39.5q-78 0 -120 21l23 131h2q18 -12 49 -12q47 0 51 45z" />
    <glyph glyph-name="quotedblbase" 
d="M364 -159v84q45 6 72 28.5t30 46.5h-102v168h209v-138q0 -43 -19.5 -81.5t-68.5 -69.5t-121 -38zM76 -159v84q45 6 72 28.5t30 46.5h-102v168h209v-138q0 -43 -19.5 -81.5t-68.5 -69.5t-121 -38z" />
    <glyph glyph-name="ellipsis" unicode="&#x85;" horiz-adv-x="1009" 
d="M707 0v190h215v-190h-215zM397 0v190h215v-190h-215zM87 0v190h215v-190h-215z" />
    <glyph glyph-name="dagger" horiz-adv-x="554" 
d="M194 433h-158v151h158v172h166v-172h158v-151h-158v-433h-166v433z" />
    <glyph glyph-name="daggerdbl" horiz-adv-x="554" 
d="M194 433h-158v151h158v172h166v-172h158v-151h-158v-110h158v-151h-158v-172h-166v172h-158v151h158v110z" />
    <glyph glyph-name="circumflex" horiz-adv-x="500" 
d="M35 567l118 169h194l118 -169h-132l-85 71l-85 -71h-128z" />
    <glyph glyph-name="perthousand" horiz-adv-x="1586" 
d="M245 274q-102 0 -158.5 63t-56.5 159q0 93 61 155.5t156 62.5q96 0 157 -60t61 -155q0 -96 -59 -160.5t-161 -64.5zM862 -15q-102 0 -158.5 63t-56.5 159q0 93 61 155.5t156 62.5q96 0 157 -60t61 -155q0 -96 -59 -160.5t-161 -64.5zM1336 -15q-102 0 -158.5 63
t-56.5 159q0 93 61 155.5t156 62.5q96 0 157 -60t61 -155q0 -96 -59 -160.5t-161 -64.5zM296 0l365 704h156l-366 -704h-155zM247 392q75 0 75 105q0 102 -76 102q-73 0 -73 -102q0 -105 74 -105zM1338 103q75 0 75 105q0 102 -76 102q-73 0 -73 -102q0 -105 74 -105z
M864 103q75 0 75 105q0 102 -76 102q-73 0 -73 -102q0 -105 74 -105z" />
    <glyph glyph-name="Scaron" horiz-adv-x="776" 
d="M404 -18q-253 0 -388 146l129 115q90 -105 256 -105q79 0 114 17t35 54q0 39 -33.5 53t-142.5 29q-47 7 -77.5 12.5t-73.5 17t-71 28.5t-55 41.5t-40 60.5t-13 82q0 118 87 177.5t239 59.5q123 0 206 -32t145 -98l-121 -115q-72 93 -223 93q-78 0 -111.5 -16t-33.5 -52
q0 -37 36 -51.5t149 -27.5q54 -7 94.5 -15t86.5 -26t76 -43t49.5 -65.5t19.5 -93.5q0 -124 -83 -185t-256 -61zM281 795l-118 169h132l85 -71l85 71h128l-118 -169h-194z" />
    <glyph glyph-name="guilsinglleft" horiz-adv-x="348" 
d="M142 33l-110 208l110 208h168l-115 -208l115 -208h-168z" />
    <glyph glyph-name="OE" horiz-adv-x="1342" 
d="M438 -18q-180 0 -289 111.5t-109 284.5q0 168 117.5 280t285.5 112q127 0 206 -65v51h632v-149h-442v-144h327v-149h-327v-162h460v-152h-650v51q-79 -69 -211 -69zM449 155q94 0 149 58.5t55 165.5t-56 164.5t-150 57.5q-93 0 -148.5 -57t-55.5 -165q0 -109 55.5 -166.5
t150.5 -57.5z" />
    <glyph glyph-name="Zcaron" horiz-adv-x="783" 
d="M46 0v157l446 450h-433v149h663v-155l-445 -449h460v-152h-691zM294 795l-118 169h132l85 -71l85 71h128l-118 -169h-194z" />
    <glyph glyph-name="quoteleft" horiz-adv-x="361" 
d="M76 442v138q0 43 19.5 81.5t68.5 69.5t121 38v-84q-45 -6 -72 -28.5t-30 -46.5h102v-168h-209z" />
    <glyph glyph-name="quoteright" horiz-adv-x="361" 
d="M76 429v84q45 6 72 28.5t30 46.5h-102v168h209v-138q0 -43 -19.5 -81.5t-68.5 -69.5t-121 -38z" />
    <glyph glyph-name="quotedblleft" 
d="M364 442v138q0 43 19.5 81.5t68.5 69.5t121 38v-84q-45 -6 -72 -28.5t-30 -46.5h102v-168h-209zM76 442v138q0 43 19.5 81.5t68.5 69.5t121 38v-84q-45 -6 -72 -28.5t-30 -46.5h102v-168h-209z" />
    <glyph glyph-name="quotedblright" 
d="M364 429v84q45 6 72 28.5t30 46.5h-102v168h209v-138q0 -43 -19.5 -81.5t-68.5 -69.5t-121 -38zM76 429v84q45 6 72 28.5t30 46.5h-102v168h209v-138q0 -43 -19.5 -81.5t-68.5 -69.5t-121 -38z" />
    <glyph glyph-name="bullet" horiz-adv-x="508" 
d="M254 160q-93 0 -152.5 60t-59.5 148q0 90 59.5 151.5t153.5 61.5t153.5 -61.5t57.5 -150.5q-2 -90 -59.5 -149.5t-152.5 -59.5z" />
    <glyph glyph-name="endash" horiz-adv-x="639" 
d="M71 222v150h497v-150h-497z" />
    <glyph glyph-name="emdash" horiz-adv-x="929" 
d="M71 222v150h787v-150h-787z" />
    <glyph glyph-name="tilde" horiz-adv-x="500" 
d="M319 569q-39 0 -78 22t-51 22q-36 0 -44 -39l-112 7q9 76 48 119t99 43q39 0 76 -22t50 -22q18 0 25.5 9t11.5 30l122 -7q-8 -76 -47.5 -119t-99.5 -43z" />
    <glyph glyph-name="trademark" horiz-adv-x="856" 
d="M397 430v326h134l65 -213l60 213h142v-326h-100v194l-60 -194h-90l-58 194v-194h-93zM139 667h-105v89h310v-89h-98v-237h-107v237z" />
    <glyph glyph-name="scaron" horiz-adv-x="562" 
d="M291 -15q-185 0 -280 92l92 102q36 -30 75.5 -45.5t105.5 -15.5q47 0 64.5 8.5t17.5 26.5q0 17 -12 21.5t-56 8.5q-29 3 -48 5q-108 13 -161.5 49.5t-53.5 123.5t67 128t177 41q158 0 237 -55l-80 -116q-61 42 -163 42q-77 0 -77 -32q0 -15 19 -22.5t77 -11.5
q41 -3 71.5 -8t65 -16.5t57 -29t37.5 -48t15 -70.5q0 -178 -247 -178zM179 567l-118 169h132l85 -71l85 71h128l-118 -169h-194z" />
    <glyph glyph-name="guilsinglright" horiz-adv-x="348" 
d="M38 33l115 208l-115 208h168l110 -208l-110 -208h-168z" />
    <glyph glyph-name="oe" horiz-adv-x="974" 
d="M494 57q-70 -75 -187 -75q-124 0 -201 72t-77 198q0 128 77.5 203.5t201.5 75.5q113 0 184 -76q70 76 187 76q51 0 97.5 -16t88.5 -50.5t64 -98.5t15 -150h-371q18 -96 107 -96q44 0 70.5 13.5t43.5 49.5l149 -47q-71 -154 -261 -154q-118 0 -188 75zM308 120q48 0 74 36
t26 101q0 131 -100 131q-101 0 -101 -130q0 -66 26 -102t75 -36zM576 317h200q-13 77 -97 77q-43 0 -68.5 -17.5t-34.5 -59.5z" />
    <glyph glyph-name="zcaron" horiz-adv-x="537" 
d="M35 0v123l243 258h-233v136h454v-117l-250 -264h253v-136h-467zM177 567l-118 169h132l85 -71l85 71h128l-118 -169h-194z" />
    <glyph glyph-name="Ydieresis" horiz-adv-x="810" 
d="M312 318l-297 438h223l181 -278l170 278h206l-287 -440v-316h-196v318zM443 795v159h161v-159h-161zM220 795v159h161v-159h-161z" />
    <glyph glyph-name="nbspace" unicode="&#xa0;" horiz-adv-x="240" 
 />
    <glyph glyph-name="exclamdown" unicode="&#xa1;" horiz-adv-x="387" 
d="M89 0v190l38 296h133l38 -296v-190h-209zM95 581v175h195v-175h-195z" />
    <glyph glyph-name="cent" unicode="&#xa2;" horiz-adv-x="598" 
d="M276 -16q-107 11 -176 82.5t-69 185.5q0 117 69 191t176 86v116h84v-117q155 -18 213 -157l-138 -65q-22 65 -75 81v-267q58 19 75 89l145 -60q-25 -69 -82 -111.5t-138 -52.5v-117h-84v116zM276 387q-76 -21 -76 -129q0 -111 76 -136v265z" />
    <glyph glyph-name="sterling" unicode="&#xa3;" horiz-adv-x="688" 
d="M343 275v-5q0 -81 -60 -122h353v-148h-590v154q56 14 83.5 38t27.5 67q0 11 -1 16h-116v122h68q-31 58 -31 107q0 97 69 155.5t227 58.5q219 0 290 -182l-159 -67q-32 104 -131 104q-104 0 -104 -84q0 -32 32 -92h182v-122h-140z" />
    <glyph glyph-name="currency" unicode="&#xa4;" horiz-adv-x="606" 
d="M387 140q-40 -14 -85 -14q-47 0 -83 13l-77 -82l-105 98l71 77q-23 43 -23 101q0 60 24 105l-72 77l105 98l76 -81q40 14 85 14q46 0 85 -15l76 82l105 -98l-72 -78q24 -46 24 -100q0 -57 -24 -105l72 -77l-105 -98zM303 237q72 0 72 100q0 95 -72 95t-72 -95
q0 -100 72 -100z" />
    <glyph glyph-name="yen" unicode="&#xa5;" horiz-adv-x="753" 
d="M254 349l-240 355h202l172 -263l160 263h191l-231 -355h161v-90h-196v-57h196v-89h-196v-113h-183v113h-196v89h196v57h-196v90h160z" />
    <glyph glyph-name="brokenbar" unicode="&#xa6;" horiz-adv-x="299" 
d="M65 392v421h169v-421h-169zM234 272v-409h-169v409h169z" />
    <glyph glyph-name="section" unicode="&#xa7;" horiz-adv-x="659" 
d="M333 -173q-159 0 -250 91l97 107q55 -55 147 -55q88 0 88 38q0 8 -1 13t-3.5 9.5t-5.5 7t-10 5t-13.5 3.5t-18.5 3t-23 3.5t-30 4t-36 5.5q-129 20 -187 61.5t-58 136.5q0 99 101 144q-50 41 -50 119q0 101 66.5 148t178.5 47q86 0 144 -22t106 -69l-98 -107
q-56 56 -147 56q-85 0 -85 -42q0 -24 15 -31t78 -16q29 -4 47 -7q66 -10 107.5 -22t75.5 -34t48.5 -57t14.5 -87q0 -99 -98 -144q46 -41 46 -117q0 -101 -66.5 -146.5t-179.5 -45.5zM428 210q42 10 42 46q0 27 -21.5 38t-99.5 22l-117 16q-42 -11 -42 -46q0 -29 21.5 -42
t99.5 -21z" />
    <glyph glyph-name="dieresis" unicode="&#xa8;" horiz-adv-x="500" 
d="M281 567v159h161v-159h-161zM58 567v159h161v-159h-161z" />
    <glyph glyph-name="copyright" unicode="&#xa9;" horiz-adv-x="856" 
d="M427 -9q-162 0 -274.5 111t-112.5 274q0 162 113 275t276 113q164 0 275.5 -112t111.5 -274q0 -164 -112.5 -275.5t-276.5 -111.5zM427 69q130 0 216.5 87t86.5 222t-85 221.5t-216 86.5q-132 0 -217.5 -87t-85.5 -223q0 -135 86.5 -221t214.5 -86zM431 142
q-109 0 -173 66.5t-64 171.5q0 103 67.5 169.5t173.5 66.5q74 0 125 -32t76 -87l-121 -71q-24 50 -76 50q-39 0 -62.5 -24.5t-23.5 -70.5q0 -47 24.5 -73t63.5 -26q26 0 46.5 15.5t30.5 38.5l127 -71q-67 -123 -214 -123z" />
    <glyph glyph-name="ordfeminine" unicode="&#xaa;" horiz-adv-x="538" 
d="M311 549q-1 30 -14.5 41.5t-52.5 11.5q-74 0 -113 -50l-96 78q79 88 228 88q197 0 197 -134v-153q0 -26 8 -36t24 -10q14 0 21 5h4l-29 -98q-24 -10 -70 -10q-83 0 -103 54q-45 -61 -137 -61q-67 0 -107.5 30t-40.5 90q0 43 20.5 73t61.5 46.5t87 24t112 10.5zM219 380
q34 0 64 22t30 58q-132 0 -132 -53q0 -27 38 -27z" />
    <glyph glyph-name="guillemotleft" unicode="&#xab;" horiz-adv-x="584" 
d="M378 33l-110 208l110 208h168l-115 -208l115 -208h-168zM142 33l-110 208l110 208h168l-115 -208l115 -208h-168z" />
    <glyph glyph-name="logicalnot" unicode="&#xac;" horiz-adv-x="502" 
d="M283 120v150h-240v145h406v-295h-166z" />
    <glyph glyph-name="registered" unicode="&#xae;" horiz-adv-x="556" 
d="M278 253q-107 0 -181.5 72.5t-74.5 181.5q0 107 74.5 181t182.5 74t181.5 -73.5t73.5 -180.5q0 -108 -74 -181.5t-182 -73.5zM278 314q84 0 136.5 53.5t52.5 140.5t-51 139.5t-137 52.5t-138 -53t-52 -140q0 -86 53 -139.5t136 -53.5zM252 465v-78h-85v249h140
q48 0 73.5 -21t25.5 -57q0 -47 -49 -62q24 -6 34 -27q3 -6 13 -59q3 -18 5 -20v-3h-87q-3 12 -7 51q-2 27 -31 27h-32zM252 528h42q30 0 30 23t-30 23h-42v-46z" />
    <glyph glyph-name="macron" unicode="&#xaf;" horiz-adv-x="500" 
d="M99 581v140h302v-140h-302z" />
    <glyph glyph-name="degree" unicode="&#xb0;" horiz-adv-x="472" 
d="M235 350q-82 0 -134.5 50.5t-52.5 129.5q0 82 53 135t135 53t135 -51.5t53 -131.5q0 -81 -53.5 -133t-135.5 -52zM236 453q30 0 48 21t18 60t-18 60.5t-48 21.5q-66 0 -66 -81q0 -40 18 -61t48 -21z" />
    <glyph glyph-name="plusminus" unicode="&#xb1;" horiz-adv-x="626" 
d="M385 359v-153h-144v153h-170v148h170v153h144v-153h170v-148h-170zM71 0v148h484v-148h-484z" />
    <glyph glyph-name="twosuperior" unicode="&#xb2;" horiz-adv-x="498" 
d="M32 264q2 73 37 119.5t94 83.5q23 14 64.5 33.5t60.5 34t19 32.5q0 19 -13.5 27.5t-46.5 8.5q-57 0 -85 -67l-121 49q47 131 212 131q94 0 149.5 -38.5t55.5 -103.5q0 -31 -10.5 -55t-33.5 -41.5t-41 -27.5t-51 -25q-6 -3 -9 -4q-42 -19 -55.5 -27.5t-16.5 -18.5h211
v-111h-420z" />
    <glyph glyph-name="threesuperior" unicode="&#xb3;" horiz-adv-x="516" 
d="M252 255q-93 0 -149.5 37t-70.5 101l122 33q21 -65 88 -65q77 0 77 43q0 28 -30.5 34.5t-96.5 3.5v99q64 -3 95 2.5t31 31.5q0 37 -73 37q-69 0 -94 -61l-114 42q46 123 213 123q102 0 156.5 -34.5t54.5 -92.5q0 -61 -68 -89q35 -9 57 -34t22 -63q0 -72 -59.5 -110
t-160.5 -38z" />
    <glyph glyph-name="acute" unicode="&#xb4;" horiz-adv-x="500" 
d="M166 567l77 159h231l-176 -159h-132z" />
    <glyph glyph-name="mu" unicode="&#xb5;" horiz-adv-x="653" 
d="M64 -179v696h176v-300q0 -45 16.5 -63.5t54.5 -18.5q52 0 77 32.5t25 112.5v237h176v-517h-176l2 91q-23 -47 -61 -77t-84 -30q-19 0 -30 3v-166h-176z" />
    <glyph glyph-name="paragraph" unicode="&#xb6;" horiz-adv-x="837" 
d="M355 0v298h-78q-122 0 -185 60.5t-63 160.5q0 111 66 174t202 63h456v-756h-161v605h-76v-605h-161z" />
    <glyph glyph-name="periodcentered" unicode="&#xb7;" horiz-adv-x="399" 
d="M87 242v190h225v-190h-225z" />
    <glyph glyph-name="cedilla" unicode="&#xb8;" horiz-adv-x="500" 
d="M273 -249q-105 0 -138 65l84 29q13 -25 47 -25q40 0 40 34q0 14 -9 23t-23 9q-23 0 -32 -14h-62v128h75v-61q13 10 39 10q48 0 78 -26.5t30 -71.5q0 -48 -36 -74t-93 -26z" />
    <glyph glyph-name="onesuperior" unicode="&#xb9;" horiz-adv-x="325" 
d="M113 260v290q-39 -24 -86 -24v98q86 14 100 80h132v-444h-146z" />
    <glyph glyph-name="ordmasculine" unicode="&#xba;" horiz-adv-x="523" 
d="M260 274q-102 0 -166 58.5t-64 159.5q0 105 64 165.5t167 60.5q101 0 166.5 -61.5t65.5 -159.5q0 -104 -65 -163.5t-168 -59.5zM261 392q37 0 56 28.5t19 76.5q0 100 -75 100q-35 0 -54.5 -26t-19.5 -74t19 -76.5t55 -28.5z" />
    <glyph glyph-name="guillemotright" unicode="&#xbb;" horiz-adv-x="584" 
d="M274 33l115 208l-115 208h168l110 -208l-110 -208h-168zM38 33l115 208l-115 208h168l110 -208l-110 -208h-168z" />
    <glyph glyph-name="onequarter" unicode="&#xbc;" horiz-adv-x="1052" 
d="M943 182h80v-105h-80v-77h-145v77h-250v116q46 30 131.5 116.5t117.5 134.5h146v-262zM217 0l365 704h146l-365 -704h-146zM113 260v290q-39 -24 -86 -24v98q86 14 100 80h132v-444h-146zM804 182v112q-18 -25 -52 -58t-63 -54h115z" />
    <glyph glyph-name="onehalf" unicode="&#xbd;" horiz-adv-x="1080" 
d="M614 0q3 73 37.5 119.5t93.5 83.5q23 15 64.5 34t60.5 33t19 32q0 37 -59 37q-58 0 -86 -67l-121 49q47 130 212 130q94 0 149.5 -38.5t55.5 -102.5q0 -40 -22.5 -71t-43.5 -43t-66 -34l-12 -6q-63 -30 -69 -38q-3 -3 -4 -7h211v-111h-420zM217 0l365 704h146l-365 -704
h-146zM113 260v290q-39 -24 -86 -24v98q86 14 100 80h132v-444h-146z" />
    <glyph glyph-name="threequarters" unicode="&#xbe;" horiz-adv-x="1206" 
d="M1097 182h80v-105h-80v-77h-145v77h-250v116q47 31 132.5 117t116.5 134h146v-262zM252 255q-93 0 -149.5 37t-70.5 101l122 33q21 -65 88 -65q77 0 77 43q0 28 -30.5 34.5t-96.5 3.5v99q64 -3 95 2.5t31 31.5q0 37 -73 37q-69 0 -94 -61l-114 42q46 123 213 123
q102 0 156.5 -34.5t54.5 -92.5q0 -61 -68 -89q35 -9 57 -34t22 -63q0 -72 -59.5 -110t-160.5 -38zM371 0l366 704h146l-366 -704h-146zM959 182v112q-18 -25 -52 -58t-63 -54h115z" />
    <glyph glyph-name="questiondown" unicode="&#xbf;" horiz-adv-x="672" 
d="M451 493v-19q0 -63 -31 -97t-105 -75q-27 -15 -36.5 -21t-24.5 -18t-20 -24t-5 -28q0 -36 22.5 -52.5t71.5 -16.5q121 0 174 114l161 -67q-41 -94 -126.5 -148.5t-214.5 -54.5q-289 0 -289 224q0 65 28.5 104.5t79.5 70.5q24 14 51.5 29.5t38.5 21.5t22 15t14 18t3 24
h186zM460 756v-175h-195v175h195z" />
    <glyph glyph-name="Agrave" unicode="&#xc0;" horiz-adv-x="838" 
d="M255 141l-50 -141h-190l286 756h234l288 -756h-207l-50 141h-311zM513 287l-103 290l-103 -290h206zM369 795l-176 159h231l77 -159h-132z" />
    <glyph glyph-name="Aacute" unicode="&#xc1;" horiz-adv-x="838" 
d="M255 141l-50 -141h-190l286 756h234l288 -756h-207l-50 141h-311zM513 287l-103 290l-103 -290h206zM330 795l77 159h231l-176 -159h-132z" />
    <glyph glyph-name="Acircumflex" unicode="&#xc2;" horiz-adv-x="838" 
d="M255 141l-50 -141h-190l286 756h234l288 -756h-207l-50 141h-311zM197 795l118 169h194l118 -169h-132l-85 71l-85 -71h-128zM513 287l-103 290l-103 -290h206z" />
    <glyph glyph-name="Atilde" unicode="&#xc3;" horiz-adv-x="838" 
d="M255 141l-50 -141h-190l286 756h234l288 -756h-207l-50 141h-311zM490 797q-40 0 -78 22t-51 22q-36 0 -44 -39l-112 7q9 76 48 119t99 43q40 0 77 -22t49 -22q18 0 25.5 9t11.5 30l122 -7q-8 -76 -47.5 -119t-99.5 -43zM513 287l-103 290l-103 -290h206z" />
    <glyph glyph-name="Adieresis" unicode="&#xc4;" horiz-adv-x="838" 
d="M255 141l-50 -141h-190l286 756h234l288 -756h-207l-50 141h-311zM513 287l-103 290l-103 -290h206zM452 795v159h161v-159h-161zM229 795v159h161v-159h-161z" />
    <glyph glyph-name="Aring" unicode="&#xc5;" horiz-adv-x="838" 
d="M255 141l-50 -141h-190l286 756h234l288 -756h-207l-50 141h-311zM414 793q-61 0 -101 36t-40 93q0 59 40.5 97t101.5 38q59 0 100 -38t41 -93q0 -59 -40.5 -96t-101.5 -37zM513 287l-103 290l-103 -290h206zM415 870q22 0 35 14t13 41t-13 41.5t-35 14.5t-35.5 -14
t-13.5 -41q0 -56 49 -56z" />
    <glyph glyph-name="AE" unicode="&#xc6;" horiz-adv-x="1299" 
d="M600 131h-285l-83 -131h-221l501 756h726v-149h-442v-144h327v-149h-327v-162h460v-152h-656v131zM407 277h193v305z" />
    <glyph glyph-name="Ccedilla" unicode="&#xc7;" horiz-adv-x="802" 
d="M356 -12q-152 24 -234 130t-82 260q0 171 110 281.5t285 110.5q130 0 212 -51t130 -145l-162 -98q-50 124 -177 124q-90 0 -142.5 -56.5t-52.5 -164.5q0 -109 53.5 -167.5t143.5 -58.5q128 0 183 131l167 -99q-113 -203 -350 -203h-9v-43q13 10 39 10q48 0 78 -26.5
t30 -71.5q0 -48 -36 -74t-93 -26q-105 0 -138 65l84 29q13 -25 47 -25q40 0 40 34q0 14 -9 23t-23 9q-23 0 -32 -14h-62v116z" />
    <glyph glyph-name="Egrave" unicode="&#xc8;" horiz-adv-x="798" 
d="M84 0v756h653v-149h-457v-144h342v-149h-342v-162h475v-152h-671zM363 795l-176 159h231l77 -159h-132z" />
    <glyph glyph-name="Eacute" unicode="&#xc9;" horiz-adv-x="798" 
d="M84 0v756h653v-149h-457v-144h342v-149h-342v-162h475v-152h-671zM315 795l77 159h231l-176 -159h-132z" />
    <glyph glyph-name="Ecircumflex" unicode="&#xca;" horiz-adv-x="798" 
d="M84 0v756h653v-149h-457v-144h342v-149h-342v-162h475v-152h-671zM198 795l118 169h194l118 -169h-132l-85 71l-85 -71h-128z" />
    <glyph glyph-name="Edieresis" unicode="&#xcb;" horiz-adv-x="798" 
d="M84 0v756h653v-149h-457v-144h342v-149h-342v-162h475v-152h-671zM448 795v159h161v-159h-161zM225 795v159h161v-159h-161z" />
    <glyph glyph-name="Igrave" unicode="&#xcc;" horiz-adv-x="372" 
d="M88 0v756h196v-756h-196zM133 795l-176 159h231l77 -159h-132z" />
    <glyph glyph-name="Iacute" unicode="&#xcd;" horiz-adv-x="372" 
d="M88 0v756h196v-756h-196zM102 795l77 159h231l-176 -159h-132z" />
    <glyph glyph-name="Icircumflex" unicode="&#xce;" horiz-adv-x="372" 
d="M88 0v756h196v-756h-196zM-29 795l118 169h194l118 -169h-132l-85 71l-85 -71h-128z" />
    <glyph glyph-name="Idieresis" unicode="&#xcf;" horiz-adv-x="372" 
d="M88 0v756h196v-756h-196zM217 795v159h161v-159h-161zM-6 795v159h161v-159h-161z" />
    <glyph glyph-name="Eth" unicode="&#xd0;" horiz-adv-x="877" 
d="M99 289h-71v168h71v299h331q188 0 297.5 -98.5t109.5 -273.5t-107.5 -279.5t-304.5 -104.5h-326v289zM295 457h130v-168h-130v-128h146q90 0 141.5 55t51.5 163t-52.5 162t-142.5 54h-144v-138z" />
    <glyph glyph-name="Ntilde" unicode="&#xd1;" horiz-adv-x="897" 
d="M84 0v756h248l304 -506l-7 506h184v-756h-229l-324 534l8 -534h-184zM517 797q-39 0 -78 22t-51 22q-36 0 -44 -39l-112 7q9 76 48 119t99 43q39 0 76 -22t50 -22q18 0 25.5 9t11.5 30l122 -7q-8 -76 -47.5 -119t-99.5 -43z" />
    <glyph glyph-name="Ograve" unicode="&#xd2;" horiz-adv-x="896" 
d="M443 -18q-181 0 -292 112t-111 284q0 167 119.5 279.5t288.5 112.5q172 0 290 -107t118 -279q0 -173 -115 -287.5t-298 -114.5zM449 155q94 0 149 58.5t55 165.5t-56 164.5t-150 57.5q-93 0 -148.5 -57t-55.5 -165q0 -109 55.5 -166.5t150.5 -57.5zM386 795l-176 159h231
l77 -159h-132z" />
    <glyph glyph-name="Oacute" unicode="&#xd3;" horiz-adv-x="896" 
d="M443 -18q-181 0 -292 112t-111 284q0 167 119.5 279.5t288.5 112.5q172 0 290 -107t118 -279q0 -173 -115 -287.5t-298 -114.5zM449 155q94 0 149 58.5t55 165.5t-56 164.5t-150 57.5q-93 0 -148.5 -57t-55.5 -165q0 -109 55.5 -166.5t150.5 -57.5zM376 795l77 159h231
l-176 -159h-132z" />
    <glyph glyph-name="Ocircumflex" unicode="&#xd4;" horiz-adv-x="896" 
d="M443 -18q-181 0 -292 112t-111 284q0 167 119.5 279.5t288.5 112.5q172 0 290 -107t118 -279q0 -173 -115 -287.5t-298 -114.5zM449 155q94 0 149 58.5t55 165.5t-56 164.5t-150 57.5q-93 0 -148.5 -57t-55.5 -165q0 -109 55.5 -166.5t150.5 -57.5zM233 795l118 169h194
l118 -169h-132l-85 71l-85 -71h-128z" />
    <glyph glyph-name="Otilde" unicode="&#xd5;" horiz-adv-x="896" 
d="M443 -18q-181 0 -292 112t-111 284q0 167 119.5 279.5t288.5 112.5q172 0 290 -107t118 -279q0 -173 -115 -287.5t-298 -114.5zM449 155q94 0 149 58.5t55 165.5t-56 164.5t-150 57.5q-93 0 -148.5 -57t-55.5 -165q0 -109 55.5 -166.5t150.5 -57.5zM517 797q-39 0 -78 22
t-51 22q-36 0 -44 -39l-112 7q9 76 48 119t99 43q39 0 76 -22t50 -22q18 0 25.5 9t11.5 30l122 -7q-8 -76 -47.5 -119t-99.5 -43z" />
    <glyph glyph-name="Odieresis" unicode="&#xd6;" horiz-adv-x="896" 
d="M443 -18q-181 0 -292 112t-111 284q0 167 119.5 279.5t288.5 112.5q172 0 290 -107t118 -279q0 -173 -115 -287.5t-298 -114.5zM449 155q94 0 149 58.5t55 165.5t-56 164.5t-150 57.5q-93 0 -148.5 -57t-55.5 -165q0 -109 55.5 -166.5t150.5 -57.5zM479 795v159h161v-159
h-161zM256 795v159h161v-159h-161z" />
    <glyph glyph-name="multiply" unicode="&#xd7;" horiz-adv-x="607" 
d="M304 198l-32 -32q-33 -32 -65 -64l-32 -32l-96 96l128 128l-32 32l-64 64l-32 33l96 96q128 -128 128 -129l129 129l96 -96q-122 -122 -129 -128l129 -129l-96 -96z" />
    <glyph glyph-name="Oslash" unicode="&#xd8;" horiz-adv-x="896" 
d="M763 638q93 -104 93 -254q0 -173 -115 -287.5t-298 -114.5q-137 0 -237 67l-47 -49h-143l113 118q-89 108 -89 260q0 167 119.5 279.5t288.5 112.5q133 0 236 -66l49 52h142zM631 499l-300 -317q49 -28 118 -28q94 0 150 59t56 166q0 72 -24 120zM263 260l298 315
q-48 27 -114 27q-94 0 -150 -58t-56 -165q0 -69 22 -119z" />
    <glyph glyph-name="Ugrave" unicode="&#xd9;" horiz-adv-x="881" 
d="M440 -18q-178 0 -269.5 82.5t-91.5 246.5v445h196v-434q0 -92 35 -129.5t131 -37.5q95 0 130 37.5t35 129.5v434h196v-445q0 -167 -95 -248t-267 -81zM387 795l-176 159h231l77 -159h-132z" />
    <glyph glyph-name="Uacute" unicode="&#xda;" horiz-adv-x="881" 
d="M440 -18q-178 0 -269.5 82.5t-91.5 246.5v445h196v-434q0 -92 35 -129.5t131 -37.5q95 0 130 37.5t35 129.5v434h196v-445q0 -167 -95 -248t-267 -81zM356 795l77 159h231l-176 -159h-132z" />
    <glyph glyph-name="Ucircumflex" unicode="&#xdb;" horiz-adv-x="881" 
d="M440 -18q-178 0 -269.5 82.5t-91.5 246.5v445h196v-434q0 -92 35 -129.5t131 -37.5q95 0 130 37.5t35 129.5v434h196v-445q0 -167 -95 -248t-267 -81zM225 795l118 169h194l118 -169h-132l-85 71l-85 -71h-128z" />
    <glyph glyph-name="Udieresis" unicode="&#xdc;" horiz-adv-x="881" 
d="M440 -18q-178 0 -269.5 82.5t-91.5 246.5v445h196v-434q0 -92 35 -129.5t131 -37.5q95 0 130 37.5t35 129.5v434h196v-445q0 -167 -95 -248t-267 -81zM471 795v159h161v-159h-161zM248 795v159h161v-159h-161z" />
    <glyph glyph-name="Yacute" unicode="&#xdd;" horiz-adv-x="810" 
d="M312 318l-297 438h223l181 -278l170 278h206l-287 -440v-316h-196v318zM333 795l77 159h231l-176 -159h-132z" />
    <glyph glyph-name="Thorn" unicode="&#xde;" horiz-adv-x="792" 
d="M280 632h210q141 0 207 -65.5t66 -181.5q0 -105 -62.5 -167.5t-189.5 -62.5h-231v-155h-196v756h196v-124zM280 312h198q54 0 74.5 20t20.5 62q0 38 -21 57.5t-73 19.5h-199v-159z" />
    <glyph glyph-name="germandbls" unicode="&#xdf;" horiz-adv-x="639" 
d="M388 -9q-48 0 -90 17v120h2q29 -8 45 -8q88 0 88 131q0 76 -32.5 105.5t-101.5 27.5v117q100 3 100 79q0 73 -77 73q-39 0 -60.5 -23t-21.5 -60v-570h-176v553q0 217 260 217q110 0 178 -45.5t68 -140.5q0 -51 -28 -85t-74 -47q62 -14 102 -68.5t40 -149.5
q0 -116 -57 -179.5t-165 -63.5z" />
    <glyph glyph-name="agrave" unicode="&#xe0;" horiz-adv-x="630" 
d="M374 320q-1 43 -16 58t-67 15q-93 0 -144 -64l-111 92q98 110 276 110q47 0 83.5 -6.5t71.5 -23.5t54.5 -51.5t19.5 -85.5v-195q0 -33 9.5 -44.5t29.5 -11.5q16 0 26 5h4l-34 -114q-30 -12 -70 -12q-102 0 -126 68q-60 -77 -177 -77q-80 0 -128 37t-48 111q0 44 18 76
t46.5 52t76 33t94.5 18.5t112 9.5zM262 567l-176 159h231l77 -159h-132zM248 109q46 0 87.5 29t41.5 77q-180 0 -180 -69q0 -37 51 -37z" />
    <glyph glyph-name="aacute" unicode="&#xe1;" horiz-adv-x="630" 
d="M374 320q-1 43 -16 58t-67 15q-93 0 -144 -64l-111 92q98 110 276 110q47 0 83.5 -6.5t71.5 -23.5t54.5 -51.5t19.5 -85.5v-195q0 -33 9.5 -44.5t29.5 -11.5q16 0 26 5h4l-34 -114q-30 -12 -70 -12q-102 0 -126 68q-60 -77 -177 -77q-80 0 -128 37t-48 111q0 44 18 76
t46.5 52t76 33t94.5 18.5t112 9.5zM231 567l77 159h231l-176 -159h-132zM248 109q46 0 87.5 29t41.5 77q-180 0 -180 -69q0 -37 51 -37z" />
    <glyph glyph-name="acircumflex" unicode="&#xe2;" horiz-adv-x="630" 
d="M374 320q-1 43 -16 58t-67 15q-93 0 -144 -64l-111 92q98 110 276 110q47 0 83.5 -6.5t71.5 -23.5t54.5 -51.5t19.5 -85.5v-195q0 -33 9.5 -44.5t29.5 -11.5q16 0 26 5h4l-34 -114q-30 -12 -70 -12q-102 0 -126 68q-60 -77 -177 -77q-80 0 -128 37t-48 111q0 44 18 76
t46.5 52t76 33t94.5 18.5t112 9.5zM87 567l118 169h194l118 -169h-132l-85 71l-85 -71h-128zM248 109q46 0 87.5 29t41.5 77q-180 0 -180 -69q0 -37 51 -37z" />
    <glyph glyph-name="atilde" unicode="&#xe3;" horiz-adv-x="630" 
d="M374 320q-1 43 -16 58t-67 15q-93 0 -144 -64l-111 92q98 110 276 110q47 0 83.5 -6.5t71.5 -23.5t54.5 -51.5t19.5 -85.5v-195q0 -33 9.5 -44.5t29.5 -11.5q16 0 26 5h4l-34 -114q-30 -12 -70 -12q-102 0 -126 68q-60 -77 -177 -77q-80 0 -128 37t-48 111q0 44 18 76
t46.5 52t76 33t94.5 18.5t112 9.5zM376 569q-40 0 -78 22t-51 22q-36 0 -44 -39l-112 7q9 76 48 119t99 43q40 0 77 -22t49 -22q18 0 25.5 9t11.5 30l122 -7q-8 -76 -47.5 -119t-99.5 -43zM248 109q46 0 87.5 29t41.5 77q-180 0 -180 -69q0 -37 51 -37z" />
    <glyph glyph-name="adieresis" unicode="&#xe4;" horiz-adv-x="630" 
d="M374 320q-1 43 -16 58t-67 15q-93 0 -144 -64l-111 92q98 110 276 110q47 0 83.5 -6.5t71.5 -23.5t54.5 -51.5t19.5 -85.5v-195q0 -33 9.5 -44.5t29.5 -11.5q16 0 26 5h4l-34 -114q-30 -12 -70 -12q-102 0 -126 68q-60 -77 -177 -77q-80 0 -128 37t-48 111q0 44 18 76
t46.5 52t76 33t94.5 18.5t112 9.5zM111 567v159h161v-159h-161zM334 567v159h161v-159h-161zM248 109q46 0 87.5 29t41.5 77q-180 0 -180 -69q0 -37 51 -37z" />
    <glyph glyph-name="aring" unicode="&#xe5;" horiz-adv-x="630" 
d="M374 320q-1 43 -16 58t-67 15q-93 0 -144 -64l-111 92q98 110 276 110q47 0 83.5 -6.5t71.5 -23.5t54.5 -51.5t19.5 -85.5v-195q0 -33 9.5 -44.5t29.5 -11.5q16 0 26 5h4l-34 -114q-30 -12 -70 -12q-102 0 -126 68q-60 -77 -177 -77q-80 0 -128 37t-48 111q0 44 18 76
t46.5 52t76 33t94.5 18.5t112 9.5zM307 565q-61 0 -101 36t-40 93q0 59 40.5 97t101.5 38q59 0 100 -38t41 -93q0 -59 -40.5 -96t-101.5 -37zM248 109q46 0 87.5 29t41.5 77q-180 0 -180 -69q0 -37 51 -37zM308 642q22 0 35 14t13 41t-13 41.5t-35 14.5t-35.5 -14t-13.5 -41
q0 -56 49 -56z" />
    <glyph glyph-name="ae" unicode="&#xe6;" horiz-adv-x="950" 
d="M374 320q-1 43 -16 58t-67 15q-93 0 -144 -64l-111 92q98 110 276 110q119 0 168 -59q67 59 170 59q52 0 100 -16t90.5 -50.5t64.5 -98.5t15 -150h-377q8 -47 36.5 -71.5t71.5 -24.5q44 0 73 13.5t46 49.5l149 -47q-71 -154 -266 -154q-151 0 -218 107
q-48 -63 -105 -84.5t-127 -21.5q-80 0 -128 37t-48 111q0 44 18 76t46.5 52t76 33t94.5 18.5t112 9.5zM248 109q46 0 87.5 29t41.5 77q-180 0 -180 -69q0 -37 51 -37zM544 317h208q-13 77 -102 77q-44 0 -70.5 -17.5t-35.5 -59.5z" />
    <glyph glyph-name="ccedilla" unicode="&#xe7;" horiz-adv-x="576" 
d="M231 -11q-93 19 -149 88t-56 175q0 128 76 203.5t195 75.5q185 0 251 -160l-142 -70q-30 87 -103 87q-99 0 -99 -130q0 -66 25.5 -102t74.5 -36q79 0 102 94l149 -65q-62 -164 -249 -167v-43q13 10 39 10q48 0 78 -26.5t30 -71.5q0 -48 -36 -74t-93 -26q-105 0 -138 65
l84 29q12 -25 47 -25q40 0 40 34q0 14 -9 23t-23 9q-23 0 -32 -14h-62v117z" />
    <glyph glyph-name="egrave" unicode="&#xe8;" horiz-adv-x="606" 
d="M199 216q8 -47 36.5 -71.5t71.5 -24.5q44 0 73 13.5t46 49.5l149 -47q-71 -154 -266 -154q-124 0 -202 72t-78 198q0 129 75.5 204t201.5 75q52 0 100 -16t90.5 -50.5t64.5 -98.5t15 -150h-377zM247 567l-176 159h231l77 -159h-132zM200 317h208q-13 77 -102 77
q-44 0 -70.5 -17.5t-35.5 -59.5z" />
    <glyph glyph-name="eacute" unicode="&#xe9;" horiz-adv-x="606" 
d="M199 216q8 -47 36.5 -71.5t71.5 -24.5q44 0 73 13.5t46 49.5l149 -47q-71 -154 -266 -154q-124 0 -202 72t-78 198q0 129 75.5 204t201.5 75q52 0 100 -16t90.5 -50.5t64.5 -98.5t15 -150h-377zM228 567l77 159h231l-176 -159h-132zM200 317h208q-13 77 -102 77
q-44 0 -70.5 -17.5t-35.5 -59.5z" />
    <glyph glyph-name="ecircumflex" unicode="&#xea;" horiz-adv-x="606" 
d="M199 216q8 -47 36.5 -71.5t71.5 -24.5q44 0 73 13.5t46 49.5l149 -47q-71 -154 -266 -154q-124 0 -202 72t-78 198q0 129 75.5 204t201.5 75q52 0 100 -16t90.5 -50.5t64.5 -98.5t15 -150h-377zM89 567l118 169h194l118 -169h-132l-85 71l-85 -71h-128zM200 317h208
q-13 77 -102 77q-44 0 -70.5 -17.5t-35.5 -59.5z" />
    <glyph glyph-name="edieresis" unicode="&#xeb;" horiz-adv-x="606" 
d="M199 216q8 -47 36.5 -71.5t71.5 -24.5q44 0 73 13.5t46 49.5l149 -47q-71 -154 -266 -154q-124 0 -202 72t-78 198q0 129 75.5 204t201.5 75q52 0 100 -16t90.5 -50.5t64.5 -98.5t15 -150h-377zM108 567v159h161v-159h-161zM331 567v159h161v-159h-161zM200 317h208
q-13 77 -102 77q-44 0 -70.5 -17.5t-35.5 -59.5z" />
    <glyph glyph-name="igrave" unicode="&#xec;" horiz-adv-x="314" 
d="M69 0v517h176v-517h-176zM92 567l-176 159h231l77 -159h-132z" />
    <glyph glyph-name="iacute" unicode="&#xed;" horiz-adv-x="314" 
d="M69 0v517h176v-517h-176zM85 567l77 159h231l-176 -159h-132z" />
    <glyph glyph-name="icircumflex" unicode="&#xee;" horiz-adv-x="314" 
d="M69 0v517h176v-517h-176zM-58 567l118 169h194l118 -169h-132l-85 71l-85 -71h-128z" />
    <glyph glyph-name="idieresis" unicode="&#xef;" horiz-adv-x="314" 
d="M69 0v517h176v-517h-176zM188 567v159h161v-159h-161zM-35 567v159h161v-159h-161z" />
    <glyph glyph-name="eth" unicode="&#xf0;" horiz-adv-x="608" 
d="M305 573l-55 -47l-55 67l49 41q-23 21 -58 46l83 107q47 -27 87 -57l59 50l55 -67l-48 -41q160 -164 160 -392q0 -139 -77 -218.5t-201 -79.5q-120 0 -199 74.5t-79 187.5q0 123 76 194.5t179 71.5q52 0 81 -28q-19 47 -57 91zM305 120q48 0 74 34.5t26 92.5t-25.5 89.5
t-74.5 31.5q-48 0 -74.5 -31t-26.5 -89t26.5 -93t74.5 -35z" />
    <glyph glyph-name="ntilde" unicode="&#xf1;" 
d="M64 0v517h176l-2 -91q60 105 183 105q79 0 123.5 -42.5t44.5 -132.5v-356h-176v295q0 87 -71 87q-52 0 -77 -32.5t-25 -112.5v-237h-176zM393 569q-39 0 -78 22t-51 22q-36 0 -44 -39l-112 7q9 76 48 119t99 43q39 0 76 -22t50 -22q18 0 25.5 9t11.5 30l122 -7
q-8 -76 -47.5 -119t-99.5 -43z" />
    <glyph glyph-name="ograve" unicode="&#xf2;" horiz-adv-x="612" 
d="M306 -18q-123 0 -200 72t-77 198q0 128 77 203.5t201 75.5q122 0 199 -76t77 -197q0 -129 -77 -202.5t-200 -73.5zM307 120q48 0 74 36t26 101q0 131 -100 131q-101 0 -101 -130q0 -66 26 -102t75 -36zM242 567l-176 159h231l77 -159h-132z" />
    <glyph glyph-name="oacute" unicode="&#xf3;" horiz-adv-x="612" 
d="M306 -18q-123 0 -200 72t-77 198q0 128 77 203.5t201 75.5q122 0 199 -76t77 -197q0 -129 -77 -202.5t-200 -73.5zM307 120q48 0 74 36t26 101q0 131 -100 131q-101 0 -101 -130q0 -66 26 -102t75 -36zM232 567l77 159h231l-176 -159h-132z" />
    <glyph glyph-name="ocircumflex" unicode="&#xf4;" horiz-adv-x="612" 
d="M306 -18q-123 0 -200 72t-77 198q0 128 77 203.5t201 75.5q122 0 199 -76t77 -197q0 -129 -77 -202.5t-200 -73.5zM89 567l118 169h194l118 -169h-132l-85 71l-85 -71h-128zM307 120q48 0 74 36t26 101q0 131 -100 131q-101 0 -101 -130q0 -66 26 -102t75 -36z" />
    <glyph glyph-name="otilde" unicode="&#xf5;" horiz-adv-x="612" 
d="M306 -18q-123 0 -200 72t-77 198q0 128 77 203.5t201 75.5q122 0 199 -76t77 -197q0 -129 -77 -202.5t-200 -73.5zM373 569q-39 0 -78 22t-51 22q-36 0 -44 -39l-112 7q9 76 48 119t99 43q39 0 76 -22t50 -22q18 0 25.5 9t11.5 30l122 -7q-8 -76 -47.5 -119t-99.5 -43z
M307 120q48 0 74 36t26 101q0 131 -100 131q-101 0 -101 -130q0 -66 26 -102t75 -36z" />
    <glyph glyph-name="odieresis" unicode="&#xf6;" horiz-adv-x="612" 
d="M306 -18q-123 0 -200 72t-77 198q0 128 77 203.5t201 75.5q122 0 199 -76t77 -197q0 -129 -77 -202.5t-200 -73.5zM307 120q48 0 74 36t26 101q0 131 -100 131q-101 0 -101 -130q0 -66 26 -102t75 -36zM335 567v159h161v-159h-161zM112 567v159h161v-159h-161z" />
    <glyph glyph-name="divide" unicode="&#xf7;" horiz-adv-x="656" 
d="M71 255v148h514v-148h-514zM238 483v175h185v-175h-185zM238 0v175h185v-175h-185z" />
    <glyph glyph-name="oslash" unicode="&#xf8;" horiz-adv-x="612" 
d="M530 430q55 -72 55 -172q0 -129 -77 -202.5t-201 -73.5q-96 0 -167 45l-26 -27h-113l80 82q-52 69 -52 170q0 128 77.5 203.5t201.5 75.5q95 0 162 -46l31 32h113zM407 303l-161 -166q25 -19 62 -19q49 0 76 37t27 102q0 27 -4 46zM207 213l157 163q-23 14 -56 14
q-49 0 -76.5 -33.5t-27.5 -98.5q0 -24 3 -45z" />
    <glyph glyph-name="ugrave" unicode="&#xf9;" 
d="M228 -14q-79 0 -123.5 42.5t-44.5 132.5v356h176v-295q0 -87 71 -87q52 0 77 32.5t25 112.5v237h176v-517h-176l2 91q-60 -105 -183 -105zM271 567l-176 159h231l77 -159h-132z" />
    <glyph glyph-name="uacute" unicode="&#xfa;" 
d="M228 -14q-79 0 -123.5 42.5t-44.5 132.5v356h176v-295q0 -87 71 -87q52 0 77 32.5t25 112.5v237h176v-517h-176l2 91q-60 -105 -183 -105zM240 567l77 159h231l-176 -159h-132z" />
    <glyph glyph-name="ucircumflex" unicode="&#xfb;" 
d="M228 -14q-79 0 -123.5 42.5t-44.5 132.5v356h176v-295q0 -87 71 -87q52 0 77 32.5t25 112.5v237h176v-517h-176l2 91q-60 -105 -183 -105zM109 567l118 169h194l118 -169h-132l-85 71l-85 -71h-128z" />
    <glyph glyph-name="udieresis" unicode="&#xfc;" 
d="M228 -14q-79 0 -123.5 42.5t-44.5 132.5v356h176v-295q0 -87 71 -87q52 0 77 32.5t25 112.5v237h176v-517h-176l2 91q-60 -105 -183 -105zM355 567v159h161v-159h-161zM132 567v159h161v-159h-161z" />
    <glyph glyph-name="yacute" unicode="&#xfd;" horiz-adv-x="598" 
d="M215 8l-203 509h189l105 -299l108 299h172l-199 -491q-56 -140 -112 -180q-46 -34 -118 -34q-58 0 -93 23v143h6q18 -22 63 -22q35 0 53.5 12t28.5 40zM226 567l77 159h231l-176 -159h-132z" />
    <glyph glyph-name="thorn" unicode="&#xfe;" horiz-adv-x="647" 
d="M64 -179v935h176v-312q54 87 157 87q102 0 159.5 -70.5t57.5 -198.5q0 -130 -54 -203t-151 -73q-117 0 -169 84v-249h-176zM338 132q99 0 99 129q0 128 -99 128q-45 0 -73 -36t-28 -93t28 -92.5t73 -35.5z" />
    <glyph glyph-name="ydieresis" unicode="&#xff;" horiz-adv-x="598" 
d="M215 8l-203 509h189l105 -299l108 299h172l-199 -491q-56 -140 -112 -180q-46 -34 -118 -34q-58 0 -93 23v143h6q18 -22 63 -22q35 0 53.5 12t28.5 40zM338 567v159h161v-159h-161zM115 567v159h161v-159h-161z" />
    <glyph glyph-name="Lslash" horiz-adv-x="742" 
d="M114 277l-91 -26v168l91 26v311h196v-255l170 48v-168l-170 -48v-174h400v-159h-596v277z" />
    <glyph glyph-name="lslash" horiz-adv-x="384" 
d="M280 333v-333h-176v255l-76 -34v168l76 34v333h176v-255l76 34v-168z" />
    <glyph glyph-name="minus" horiz-adv-x="606" 
d="M71 211v148h464v-148h-464z" />
    <glyph glyph-name="fraction" horiz-adv-x="453" 
d="M-34 0l365 704h156l-366 -704h-155z" />
    <glyph glyph-name="fi" horiz-adv-x="729" 
d="M112 378h-97v139h97v96q0 160 173 160q78 0 136 -25l-19 -136h-2q-27 21 -63 21q-49 0 -49 -42v-74h121v-139h-121v-378h-176v378zM484 0v517h176v-517h-176zM484 587v168h176v-168h-176z" />
    <glyph glyph-name="fl" horiz-adv-x="729" 
d="M112 378h-97v139h97v96q0 160 173 160q78 0 136 -25l-19 -136h-2q-27 21 -63 21q-49 0 -49 -42v-74h121v-139h-121v-378h-176v378zM484 0v756h176v-756h-176z" />
    <glyph glyph-name="dotlessi" horiz-adv-x="314" 
d="M69 0v517h176v-517h-176z" />
    <glyph glyph-name="breve" horiz-adv-x="500" 
d="M250 562q-81 0 -130.5 44.5t-57.5 121.5l122 5q9 -56 66 -56q55 0 66 56l122 -5q-10 -79 -59 -122.5t-129 -43.5z" />
    <glyph glyph-name="dotaccent" horiz-adv-x="500" 
d="M169 567v159h161v-159h-161z" />
    <glyph glyph-name="ring" horiz-adv-x="500" 
d="M249 565q-61 0 -101 36t-40 93q0 59 40.5 97t101.5 38q59 0 100 -38t41 -93q0 -59 -40.5 -96t-101.5 -37zM250 642q22 0 35 14t13 41t-13 41.5t-35 14.5t-35.5 -14t-13.5 -41q0 -56 49 -56z" />
    <glyph glyph-name="hungarumlaut" horiz-adv-x="500" 
d="M281 567l57 159h195l-115 -159h-137zM55 567l57 159h195l-115 -159h-137z" />
    <glyph glyph-name="ogonek" horiz-adv-x="500" 
d="M253 -249q-55 0 -93 29t-38 79q0 83 96 141h96q-42 -33 -63 -68.5t-21 -62.5q0 -36 34 -36q25 0 39 17l78 -45q-20 -27 -49 -40.5t-79 -13.5z" />
    <glyph glyph-name="caron" horiz-adv-x="500" 
d="M153 567l-118 169h132l85 -71l85 71h128l-118 -169h-194z" />
    </font>
</defs>
</svg>
