<?xml version="1.0" standalone="no"?>
<!DOCTYPE svg PUBLIC "-//W3C//DTD SVG 1.1//EN" "http://www.w3.org/Graphics/SVG/1.1/DTD/svg11.dtd" >
<svg>
<metadata>
Created by FontForge 20120731 at Wed Oct  5 09:52:56 2016
 By ,,,
2002 Christian Schwartz published by FontShop International for the FontFont library.
</metadata>
<defs>
<font id="Bau-Medium" horiz-adv-x="613" >
  <font-face 
    font-family="Bau-Medium"
    font-weight="400"
    font-stretch="normal"
    units-per-em="1000"
    panose-1="2 11 6 4 4 2 2 2 2 3"
    ascent="800"
    descent="-200"
    x-height="534"
    cap-height="753"
    bbox="-33 -231 1440 959"
    underline-thickness="20"
    underline-position="-113"
    unicode-range="U+0020-22C5"
  />
<missing-glyph 
d="M75 753h463v-753h-463v753zM440 98v557h-267v-557h267z" />
    <glyph glyph-name=".notdef" 
d="M75 753h463v-753h-463v753zM440 98v557h-267v-557h267z" />
    <glyph glyph-name=".null" horiz-adv-x="0" 
 />
    <glyph glyph-name="nonmarkingreturn" horiz-adv-x="247" 
 />
    <glyph glyph-name="space" unicode=" " horiz-adv-x="247" 
 />
    <glyph glyph-name="Yacute" unicode="&#xdd;" horiz-adv-x="704" 
d="M370 955h161l-147 -152h-81zM18 753h159l183 -328l178 328h148l-258 -463v-290h-137v279z" />
    <glyph glyph-name="yacute" unicode="&#xfd;" horiz-adv-x="532" 
d="M290 747h161l-147 -152h-81zM29 534h128l118 -366l111 366h117l-191 -592q-11 -32 -29 -61t-44 -49q-20 -16 -48 -23t-57 -7q-62 0 -100 22l31 101h2q18 -16 52 -16q24 0 44 10.5t32 42.5l18 45z" />
    <glyph glyph-name="Thorn" unicode="&#xde;" horiz-adv-x="762" 
d="M469 294q23 0 43 5t35 16.5t24 30t9 46.5q0 27 -9 45.5t-24.5 29.5t-36 16t-44.5 5h-232v-194h235zM475 613q50 0 95 -13.5t78.5 -40.5t53 -67.5t19.5 -95.5q0 -57 -18.5 -98.5t-52 -69t-79 -41t-99.5 -13.5h-238v-174h-137v753h137v-140h241z" />
    <glyph glyph-name="thorn" unicode="&#xfe;" horiz-adv-x="618" 
d="M192 272q0 -49 10 -83t28.5 -55t45 -30.5t60.5 -9.5q69 0 98 45.5t29 131.5q0 83 -32.5 127t-99.5 44q-60 0 -99.5 -42t-39.5 -128zM352 -9q-65 0 -102.5 23.5t-54.5 50.5v-247h-120v940h120v-302q25 39 63 64t104 25q45 0 85 -17.5t70 -52t47.5 -85t17.5 -117.5
q0 -65 -14 -117t-42.5 -89t-72 -56.5t-101.5 -19.5z" />
    <glyph glyph-name="Zcaron" horiz-adv-x="726" 
d="M442 803h-124l-101 156h78l86 -78l87 78h75zM70 634v119h606v-117l-455 -517h448v-119h-615v124l451 510h-435z" />
    <glyph glyph-name="Zcaron" unicode="&#x17d;" horiz-adv-x="726" 
d="M442 803h-124l-101 156h78l86 -78l87 78h75zM70 634v119h606v-117l-455 -517h448v-119h-615v124l451 510h-435z" />
    <glyph glyph-name="zcaron" horiz-adv-x="522" 
d="M336 595h-124l-101 156h78l86 -78l87 78h75zM68 432v102h408v-89l-286 -344h293v-101h-441v98l279 334h-253z" />
    <glyph glyph-name="zcaron" unicode="&#x17e;" horiz-adv-x="522" 
d="M336 595h-124l-101 156h78l86 -78l87 78h75zM68 432v102h408v-89l-286 -344h293v-101h-441v98l279 334h-253z" />
    <glyph glyph-name="currency" unicode="&#xa4;" horiz-adv-x="587" 
d="M293 225q97 0 97 118q0 55 -25 86t-72 31q-45 0 -70 -29.5t-25 -85.5q0 -57 24.5 -88.5t70.5 -31.5zM392 160q-21 -11 -46 -17.5t-54 -6.5q-27 0 -51.5 6.5t-44.5 17.5l-78 -82l-78 74l76 81q-27 45 -27 108q0 62 28 112l-77 82l78 75l79 -84q42 22 96 22q55 0 98 -23
l78 85l79 -75l-78 -82q28 -48 28 -110q0 -32 -7 -59.5t-19 -50.5l76 -81l-79 -74z" />
    <glyph glyph-name="onehalf" unicode="&#xbd;" horiz-adv-x="911" 
d="M207 716v-413h-100v271q-11 -8 -33.5 -14.5t-45.5 -8.5v75q83 17 100 90h79zM526 716h101l-338 -716h-102zM536 283q6 25 19.5 49t35 43.5t53 31.5t75.5 12q80 0 120.5 -37t40.5 -96q0 -27 -9 -46.5t-25 -34t-36.5 -26t-44.5 -21.5q-48 -21 -74.5 -37.5t-30.5 -36.5h214
v-84h-340q1 40 10 70.5t26 55t44 43.5t64 36q30 13 49 23t30 19t15.5 18t4.5 21q0 22 -14.5 34.5t-44.5 12.5q-42 0 -61.5 -19.5t-30.5 -55.5z" />
    <glyph glyph-name="onequarter" unicode="&#xbc;" horiz-adv-x="859" 
d="M679 300q-8 -15 -21.5 -34t-30 -38.5t-33.5 -38t-32 -32.5h113zM207 716v-413h-100v271q-11 -8 -33.5 -14.5t-45.5 -8.5v75q83 17 100 90h79zM526 716h101l-338 -716h-102zM773 0h-98v83h-206v74q26 26 56.5 59.5t58.5 68t51 68t34 60.5h104v-256h63v-74h-63v-83z" />
    <glyph glyph-name="onesuperior" unicode="&#xb9;" horiz-adv-x="270" 
d="M207 716v-413h-100v271q-11 -8 -33.5 -14.5t-45.5 -8.5v75q83 17 100 90h79z" />
    <glyph glyph-name="threequarters" unicode="&#xbe;" horiz-adv-x="967" 
d="M787 300q-8 -15 -21.5 -34t-30 -38.5t-33.5 -38t-32 -32.5h113zM634 716h101l-338 -716h-102zM121 446q12 -38 32.5 -53t59.5 -15q37 0 53 13t16 36t-12.5 35t-53.5 12h-44v79h51q26 0 40 11t14 35q0 23 -15 35t-49 12q-38 0 -57.5 -15.5t-30.5 -49.5l-81 29
q16 57 61.5 86t108.5 29q81 0 122.5 -33t41.5 -85q0 -39 -21 -60t-50 -29q37 -6 58 -31t21 -65q0 -55 -44.5 -90t-127.5 -35q-69 0 -117.5 31t-60.5 83zM881 0h-98v83h-206v74q26 26 56.5 59.5t58.5 68t51 68t34 60.5h104v-256h63v-74h-63v-83z" />
    <glyph glyph-name="threesuperior" unicode="&#xb3;" horiz-adv-x="428" 
d="M121 446q12 -38 32.5 -53t59.5 -15q37 0 53 13t16 36t-12.5 35t-53.5 12h-44v79h51q26 0 40 11t14 35q0 23 -14.5 35t-49.5 12q-37 0 -57 -15.5t-31 -49.5l-81 29q16 57 61.5 86t108.5 29q81 0 122.5 -33t41.5 -85q0 -39 -21 -60t-50 -29q37 -6 58 -31t21 -65
q0 -55 -44.5 -90t-127.5 -35q-69 0 -117.5 31t-60.5 83z" />
    <glyph glyph-name="twosuperior" unicode="&#xb2;" horiz-adv-x="418" 
d="M37 588q6 25 19.5 49t35 43.5t53 31.5t75.5 12q80 0 120.5 -37t40.5 -96q0 -27 -9 -46.5t-25 -34t-36.5 -26t-44.5 -21.5q-48 -21 -74.5 -37.5t-30.5 -36.5h214v-84h-340q1 40 10 70.5t26 55t44 43.5t64 36q30 13 49 23t30 19t15.5 18t4.5 21q0 22 -14.5 34.5t-44.5 12.5
q-42 0 -61.5 -19.5t-30.5 -55.5z" />
    <glyph glyph-name="brokenbar" unicode="&#xa6;" horiz-adv-x="277" 
d="M196 -148h-115v422h115v-422zM81 813h115v-425h-115v425z" />
    <glyph glyph-name="multiply" unicode="&#xd7;" horiz-adv-x="522" 
d="M261 227l-12 -13.5t-29.5 -31.5t-35.5 -37.5t-29.5 -32t-12.5 -13.5l-72 66l124 133l-124 132l71 65q1 -1 12.5 -13t29.5 -31.5t35.5 -37.5t29.5 -31l12 -13l120 128l72 -66l-124 -133l124 -131l-72 -66z" />
    <glyph glyph-name="exclam" unicode="!" horiz-adv-x="318" 
d="M85 146h148v-146h-148v146zM230 753v-220l-37 -291h-68l-37 291v220h142z" />
    <glyph glyph-name="quotedbl" unicode="&#x22;" horiz-adv-x="492" 
d="M283 754h144l-25 -316h-95zM65 754h145l-25 -316h-95z" />
    <glyph glyph-name="numbersign" unicode="#" horiz-adv-x="534" 
d="M218 498v-97h98v97h-98zM35 498v96h94v122h89v-122h98v122h89v-122h94v-96h-94v-97h94v-96h-94v-129h-89v129h-98v-129h-89v129h-94v96h94v97h-94z" />
    <glyph glyph-name="dollar" unicode="$" horiz-adv-x="653" 
d="M283 611q-68 -5 -93 -31.5t-25 -68.5q0 -22 6.5 -36.5t21 -24.5t36.5 -17t54 -13v191zM361 91q71 3 100 28.5t29 71.5q0 23 -8 39t-23.5 27t-40 18.5t-57.5 13.5v-198zM179 3q-125 97 -151 169l104 45q20 -52 55 -83t96 -40v208q-44 7 -86 19t-74 34.5t-51.5 58
t-19.5 89.5q0 90 57 144.5t174 60.5v88h78v-89q87 -8 142.5 -45.5t87.5 -103.5l-96 -60q-19 45 -50 73t-84 37v-202q53 -9 98.5 -23t78.5 -38t52 -61t19 -93q0 -50 -18 -86.5t-50.5 -61t-78.5 -37t-101 -14.5v-125h-78v126z" />
    <glyph glyph-name="percent" unicode="%" horiz-adv-x="1034" 
d="M234 380q47 0 68 34.5t21 96.5q0 60 -21 94.5t-69 34.5q-47 0 -67 -33.5t-20 -96.5t20.5 -96.5t67.5 -33.5zM799 76q47 0 68 34.5t21 96.5q0 60 -21 94.5t-69 34.5q-47 0 -67 -33.5t-20 -96.5t20.5 -96.5t67.5 -33.5zM638 716h104l-348 -716h-104zM798 -13
q-47 0 -83 16.5t-60.5 46t-37 69t-12.5 86.5q0 46 13 86t38 69.5t61 46t82 16.5t82.5 -16t61.5 -44.5t38 -68t13 -86.5t-13 -87.5t-37.5 -70t-61 -46.5t-84.5 -17zM233 291q-47 0 -83 16.5t-60.5 46t-37 69t-12.5 86.5q0 46 13 86t38 69.5t61 46t82 16.5t82.5 -16
t61.5 -44.5t38 -68t13 -86.5t-13 -87.5t-37.5 -70t-61 -46.5t-84.5 -17z" />
    <glyph glyph-name="ampersand" unicode="&#x26;" horiz-adv-x="746" 
d="M326 496q51 28 72 53t21 55q0 31 -14.5 45t-35.5 14q-25 0 -44 -16.5t-19 -58.5q0 -41 20 -92zM408 137q-41 46 -79.5 100.5t-70.5 110.5q-36 -24 -59.5 -56t-23.5 -83q0 -55 32 -84t86 -29q59 0 115 41zM369 411q26 -43 58 -89t66 -87q23 39 41 88t30 109l110 -13
q-14 -73 -39.5 -141t-63.5 -125q28 -25 43.5 -31.5t31.5 -6.5q13 0 26.5 4.5t21.5 12.5h3l25 -115q-13 -8 -32 -16t-50 -8q-41 0 -76.5 14.5t-77.5 50.5q-42 -32 -91 -50.5t-109 -18.5q-65 0 -111.5 16.5t-76.5 45t-44 67t-14 83.5q0 47 15 83.5t39 65t55.5 50t64.5 39.5
q-30 76 -30 145q0 43 15 76.5t40.5 56.5t60 34.5t74.5 11.5q36 0 65.5 -12t50.5 -33t32.5 -49.5t11.5 -61.5q0 -34 -11.5 -60.5t-33 -49.5t-52 -44t-68.5 -42z" />
    <glyph glyph-name="quotesingle" unicode="'" horiz-adv-x="275" 
d="M65 754h145l-25 -316h-95z" />
    <glyph glyph-name="parenleft" unicode="(" horiz-adv-x="422" 
d="M309 -184q-48 43 -92.5 94t-78.5 112t-54.5 134t-20.5 160q0 85 20 158.5t54 135.5t78.5 113.5t93.5 93.5l71 -67q-35 -37 -67.5 -80.5t-57.5 -96t-39.5 -116.5t-14.5 -141t15 -140.5t40 -116t57.5 -96t66.5 -80.5z" />
    <glyph glyph-name="parenright" unicode=")" horiz-adv-x="422" 
d="M42 -117q34 37 66.5 80.5t57.5 96t40 116t15 140.5t-15 141t-39.5 116.5t-57 96t-67.5 80.5l71 67q49 -42 93.5 -93.5t78.5 -113.5t54 -135.5t20 -158.5q0 -87 -20.5 -160t-54.5 -134t-78.5 -112t-92.5 -94z" />
    <glyph glyph-name="asterisk" unicode="*" horiz-adv-x="450" 
d="M76 445l98 105l-129 25l32 98l115 -61l-19 141h104l-19 -141l115 61l32 -98l-129 -25l97 -105l-82 -59l-67 125l-65 -125z" />
    <glyph glyph-name="plus" unicode="+" horiz-adv-x="546" 
d="M329 88h-111v156h-153v109h153v156h111v-156h152v-109h-152v-156z" />
    <glyph glyph-name="comma" unicode="," horiz-adv-x="318" 
d="M86 -77q28 6 49 22t21 55h-71v146h148v-134q0 -39 -12.5 -67t-33 -46.5t-47 -28.5t-54.5 -13v66z" />
    <glyph glyph-name="hyphen" unicode="-" horiz-adv-x="408" 
d="M65 336h268v-118h-268v118z" />
    <glyph glyph-name="period" unicode="." horiz-adv-x="318" 
d="M85 146h148v-146h-148v146z" />
    <glyph glyph-name="slash" unicode="/" horiz-adv-x="425" 
d="M293 813h120l-302 -961h-121z" />
    <glyph glyph-name="zero" unicode="0" horiz-adv-x="659" 
d="M327 505q-73 0 -114.5 -52t-41.5 -154q0 -58 10.5 -98t31 -65t49.5 -36t66 -11q36 0 65.5 11t50.5 36t32.5 65.5t11.5 99.5q0 108 -44 156t-117 48zM50 298q0 74 22 131.5t59.5 96.5t88.5 59.5t108 20.5q58 0 109 -19t89.5 -57t60.5 -95.5t22 -134.5q0 -78 -20.5 -136.5
t-57 -98t-88 -59t-114.5 -19.5t-114.5 20t-88 59t-56.5 97t-20 135z" />
    <glyph glyph-name="one" unicode="1" horiz-adv-x="360" 
d="M272 595v-595h-114v400q-20 -17 -52 -28t-62 -14v97q24 4 47.5 14t43 26.5t34.5 41t23 58.5h80z" />
    <glyph glyph-name="two" unicode="2" horiz-adv-x="585" 
d="M51 419q9 36 27.5 69.5t49.5 59.5t75 42t106 16q104 0 163 -48.5t59 -137.5q0 -43 -14 -74t-39 -54t-59.5 -39.5t-74.5 -31.5q-46 -17 -75 -32t-45.5 -29t-24 -27t-10.5 -26h348v-107h-494q2 73 22 122.5t52 83.5t74 56.5t89 40.5q38 15 63 26t40 23.5t21.5 29t6.5 41.5
q0 82 -110 82q-61 0 -95.5 -31.5t-49.5 -87.5z" />
    <glyph glyph-name="three" unicode="3" horiz-adv-x="583" 
d="M140 89q8 -27 19.5 -49t28.5 -37t42 -23.5t60 -8.5q37 0 61.5 9.5t38 26t19 38t5.5 45.5q0 51 -27.5 79t-91.5 28h-55v101h62q49 0 72 25.5t23 73.5q0 49 -24.5 79t-83.5 30t-88 -31t-44 -80l-104 40q23 84 84 127.5t155 43.5q111 0 167.5 -57t56.5 -151
q0 -30 -8.5 -53.5t-22 -41.5t-30 -30.5t-32.5 -18.5q49 -18 81 -61.5t32 -106.5q0 -103 -63 -161t-180 -58q-55 0 -98 13.5t-75.5 37.5t-55 57.5t-34.5 73.5z" />
    <glyph glyph-name="four" unicode="4" horiz-adv-x="604" 
d="M365 432q-21 -44 -47.5 -88t-55.5 -86t-59.5 -81t-59.5 -72h216zM472 -122h-114v122h-326v115q43 49 88.5 106.5t88 119.5t80 126.5t65.5 127.5h118v-490h100v-105h-100v-122z" />
    <glyph glyph-name="five" unicode="5" horiz-adv-x="587" 
d="M491 488h-290l-17 -178q23 23 54 35.5t76 12.5q48 0 89 -15.5t71.5 -47t48 -78.5t17.5 -109q0 -56 -18 -100.5t-50.5 -75.5t-78.5 -48t-102 -17t-99.5 13.5t-76 37t-54 54t-32.5 64.5l110 29q12 -40 47 -68.5t103 -28.5q65 0 97.5 39t32.5 105q0 69 -28 108t-94 39
q-55 0 -83.5 -21t-43.5 -53h-98l39 410h380v-107z" />
    <glyph glyph-name="six" unicode="6" horiz-adv-x="614" 
d="M315 378q-69 0 -106 -38t-37 -107q0 -29 9.5 -55.5t28 -46t45 -31t59.5 -11.5q63 0 98.5 41.5t35.5 105.5q0 69 -36 105.5t-97 36.5zM50 307q0 91 19 168t56 133t91 87.5t123 31.5q43 0 77 -10t60.5 -28t46.5 -42.5t34 -53.5l-92 -62q-18 45 -47.5 70t-84.5 25
q-73 0 -115 -63.5t-51 -169.5q23 33 64 57.5t100 24.5q48 0 91 -15t75 -45t51 -73.5t19 -100.5t-18.5 -104t-52.5 -80.5t-80.5 -51.5t-101.5 -18q-63 0 -115.5 23.5t-85.5 68.5q-32 43 -47.5 102t-15.5 126z" />
    <glyph glyph-name="seven" unicode="7" horiz-adv-x="551" 
d="M146 -120q1 96 26.5 186.5t63 169t82 143.5t84.5 110h-371v106h489v-90q-53 -65 -97.5 -136t-76.5 -149t-50.5 -163t-19.5 -177h-130z" />
    <glyph glyph-name="eight" unicode="8" horiz-adv-x="620" 
d="M314 626q-66 0 -95.5 -29t-29.5 -71q0 -99 120 -99q65 0 93 24t28 75q0 48 -28 74t-88 26zM317 330q-69 0 -110 -30t-41 -88q0 -55 33.5 -89t108.5 -34q72 0 109 34.5t37 86.5q0 58 -34.5 89t-102.5 31zM319 727q109 0 166.5 -52t57.5 -146q0 -29 -8.5 -52.5t-22 -41
t-30.5 -30t-33 -20.5q22 -9 44.5 -24t40 -37t28.5 -52t11 -67q0 -49 -16.5 -89t-49.5 -68.5t-83 -44.5t-117 -16t-116 17t-81 46.5t-47.5 69t-15.5 84.5q0 38 11 67t29 50.5t40 36t43 22.5q-19 9 -36 22t-30 31t-20.5 41t-7.5 53q0 47 17 84t49 63t76.5 39.5t100.5 13.5z
" />
    <glyph glyph-name="nine" unicode="9" horiz-adv-x="622" 
d="M299 227q76 0 110 37t34 100t-33 102.5t-107 39.5q-69 0 -102.5 -40.5t-33.5 -102.5q0 -71 33.5 -103.5t98.5 -32.5zM572 292q0 -93 -17 -171.5t-52 -134.5t-90 -87.5t-131 -31.5q-44 0 -81 12t-66 32.5t-50 47.5t-34 58l96 52q11 -24 23.5 -42.5t28.5 -31.5t37.5 -20
t50.5 -7q75 0 115 64t51 178q-26 -37 -66 -58t-100 -21q-50 0 -94 15t-76.5 44t-51 71t-18.5 97q0 56 18.5 101.5t52 78t81 50.5t105.5 18q68 0 118.5 -22.5t83.5 -63.5t49.5 -99t16.5 -129z" />
    <glyph glyph-name="colon" unicode=":" horiz-adv-x="334" 
d="M93 146h148v-146h-148v146zM93 441h148v-146h-148v146z" />
    <glyph glyph-name="semicolon" unicode=";" horiz-adv-x="334" 
d="M93 441h148v-146h-148v146zM94 -77q28 6 49 22t21 55h-71v146h148v-134q0 -39 -12.5 -67t-33 -46.5t-47 -28.5t-54.5 -13v66z" />
    <glyph glyph-name="less" unicode="&#x3c;" horiz-adv-x="502" 
d="M53 243v96l387 175v-114l-255 -106l255 -115v-111z" />
    <glyph glyph-name="equal" unicode="=" horiz-adv-x="546" 
d="M65 249h416v-110h-416v110zM65 456h416v-110h-416v110z" />
    <glyph glyph-name="greater" unicode="&#x3e;" horiz-adv-x="502" 
d="M449 339v-96l-387 -175v114l255 106l-255 115v111z" />
    <glyph glyph-name="question" unicode="?" horiz-adv-x="564" 
d="M173 146h148v-146h-148v146zM27 603q24 74 91 118.5t172 44.5q57 0 99.5 -14t71 -39t43 -58.5t14.5 -72.5q0 -35 -8 -61t-22.5 -46.5t-35 -37t-45.5 -31.5q-29 -17 -48.5 -31t-31.5 -28.5t-17.5 -31.5t-5.5 -40v-33h-118v45q0 39 11 69t29 53.5t41.5 41t48.5 32.5
q26 16 45 36t19 55q0 37 -23 59t-73 22q-63 0 -99.5 -27.5t-56.5 -77.5z" />
    <glyph glyph-name="at" unicode="@" horiz-adv-x="935" 
d="M427 119q51 0 82.5 37.5t39.5 109.5q6 55 -12.5 84.5t-62.5 29.5q-28 0 -50 -14t-37 -37.5t-23 -54.5t-8 -66q0 -42 18 -65.5t53 -23.5zM438 -162q-90 0 -161.5 32t-121.5 86.5t-76.5 127.5t-26.5 154q0 94 35 172t95 134t139 87t166 31q86 0 159 -27t126.5 -76
t84 -116.5t30.5 -149.5q0 -74 -18 -124.5t-46.5 -81.5t-64.5 -44t-72 -13q-52 0 -85.5 20.5t-46.5 63.5q-29 -49 -69 -72t-89 -23q-37 0 -67 13.5t-51 38t-32 58t-11 72.5q0 65 17.5 116.5t47.5 87t69 54.5t83 19q53 0 81 -20.5t39 -48.5l12 58h116l-45 -274q-13 -80 42 -80
q21 0 39.5 11t33 33.5t23 56.5t8.5 79q0 67 -21.5 120t-62 90t-98.5 56.5t-131 19.5t-136 -24t-109.5 -68.5t-73 -107t-26.5 -140.5q0 -66 19.5 -124t57.5 -101t93.5 -68t126.5 -25q39 0 68 4t53 12t45.5 19.5t45.5 26.5l46 -66q-29 -20 -57 -35t-58.5 -25t-66 -14.5
t-78.5 -4.5z" />
    <glyph glyph-name="A" unicode="A" horiz-adv-x="717" 
d="M357 591l-101 -299h199zM158 0h-130l261 753h148l252 -753h-139l-57 176h-276z" />
    <glyph glyph-name="B" unicode="B" horiz-adv-x="796" 
d="M460 444q52 0 83 21.5t31 76.5q0 53 -33 72t-82 19h-229v-189h230zM480 120q24 0 45.5 5.5t37 17.5t25 30.5t9.5 45.5q0 54 -31.5 79.5t-82.5 25.5h-253v-204h250zM595 386q66 -16 104.5 -56.5t38.5 -116.5q0 -57 -18 -97t-51 -66t-79 -38t-102 -12h-391v753h369
q49 0 94 -12t79.5 -37.5t55 -65.5t20.5 -97q0 -64 -31.5 -101t-88.5 -54z" />
    <glyph glyph-name="C" unicode="C" horiz-adv-x="782" 
d="M741 189q-15 -41 -40.5 -77.5t-64 -64.5t-90.5 -44t-120 -16q-91 0 -159 29t-113.5 81t-68.5 123.5t-23 157.5q0 83 24 154t71 123t115.5 81.5t157.5 29.5q118 0 195 -55t111 -152l-117 -65q-11 31 -27 58t-38.5 47t-53 32t-70.5 12q-59 0 -101 -19.5t-68.5 -54
t-39 -83.5t-12.5 -107q0 -63 12 -112.5t38.5 -84t68.5 -52.5t103 -18q42 0 73 10.5t54 29t39 44t28 56.5z" />
    <glyph glyph-name="D" unicode="D" horiz-adv-x="812" 
d="M234 121h173q97 0 151 63.5t54 194.5q0 118 -54 185t-152 67h-172v-510zM97 753h303q88 0 154 -29t109.5 -80t65 -119.5t21.5 -146.5q0 -76 -17 -144.5t-57.5 -120.5t-108 -82.5t-169.5 -30.5h-301v753z" />
    <glyph glyph-name="E" unicode="E" horiz-adv-x="760" 
d="M234 124h463v-124h-600v753h581v-124h-444v-184h377v-121h-377v-200z" />
    <glyph glyph-name="F" unicode="F" horiz-adv-x="709" 
d="M234 0h-137v753h549v-124h-412v-185h349v-124h-349v-320z" />
    <glyph glyph-name="G" unicode="G" horiz-adv-x="842" 
d="M663 82q-38 -48 -94 -71.5t-144 -23.5q-93 0 -161 29t-113 81t-67 123.5t-22 157.5q0 85 25.5 156t74 122.5t118.5 80.5t160 29q116 0 196 -46t122 -142l-120 -66q-26 68 -73.5 99.5t-128.5 31.5q-60 0 -102.5 -19.5t-70.5 -54t-41 -83.5t-13 -107q0 -63 11.5 -113
t38.5 -85t70.5 -54t106.5 -19q50 0 87 12.5t61 34t36 50t12 60.5v26h-164v115h292v-416h-67z" />
    <glyph glyph-name="H" unicode="H" horiz-adv-x="827" 
d="M593 753h137v-753h-137v324h-359v-324h-137v753h137v-305h359v305z" />
    <glyph glyph-name="I" unicode="I" horiz-adv-x="355" 
d="M246 753v-753h-137v753h137z" />
    <glyph glyph-name="J" unicode="J" horiz-adv-x="593" 
d="M172 264v-25q0 -69 23 -99.5t74 -30.5q54 0 77.5 30.5t23.5 105.5v508h137v-497q0 -132 -52.5 -200.5t-177.5 -68.5q-119 0 -177 61.5t-58 177.5v38h130z" />
    <glyph glyph-name="K" unicode="K" horiz-adv-x="744" 
d="M715 0h-165l-226 339l-90 -99v-240h-137v753h137v-351l294 351h161l-20 -23t-49.5 -58t-64.5 -75.5t-65 -75.5t-50 -58l-20 -23z" />
    <glyph glyph-name="L" unicode="L" horiz-adv-x="696" 
d="M651 124v-124h-554v753h137v-629h417z" />
    <glyph glyph-name="M" unicode="M" horiz-adv-x="949" 
d="M852 0h-131v569l-208 -569h-90l-203 569v-569h-123v753h190l188 -518l192 518h185v-753z" />
    <glyph glyph-name="N" unicode="N" horiz-adv-x="805" 
d="M584 753h124v-753h-137l-350 564v-564h-124v753h159l328 -520v520z" />
    <glyph glyph-name="O" unicode="O" horiz-adv-x="877" 
d="M438 643q-56 0 -98.5 -19.5t-71.5 -54t-44 -83.5t-15 -107q0 -126 59 -196.5t171 -70.5q116 0 172.5 64.5t56.5 204.5q0 59 -15 107t-44.5 82.5t-72.5 53.5t-98 19zM62 378q0 81 26.5 151.5t75.5 123t118.5 83t155.5 30.5q85 0 155 -29t119 -80.5t76 -122t27 -154.5
q0 -86 -24 -158.5t-71.5 -124.5t-117 -81t-160.5 -29q-87 0 -157 29t-119.5 81t-76.5 123.5t-27 157.5z" />
    <glyph glyph-name="P" unicode="P" horiz-adv-x="762" 
d="M469 434q23 0 43 5t35 16.5t24 30t9 46.5q0 27 -9 45.5t-24.5 29.5t-36 16t-44.5 5h-232v-194h235zM475 753q50 0 95 -13.5t78.5 -40.5t53 -67.5t19.5 -95.5q0 -57 -18.5 -98.5t-52 -69t-79 -41t-99.5 -13.5h-238v-314h-137v753h378z" />
    <glyph glyph-name="Q" unicode="Q" horiz-adv-x="877" 
d="M458 215l87 91l14.5 -14.5t32 -32.5t32 -33l14.5 -15q30 63 30 170q0 59 -15 107t-44.5 82.5t-72.5 53.5t-98 19q-56 0 -98.5 -19.5t-71.5 -54t-44 -83.5t-15 -107q0 -126 59 -196.5t171 -70.5q61 0 105 16zM735 114q18 -18 34.5 -35.5t25.5 -26.5l10 -10l-87 -91l-80 81
q-40 -22 -88.5 -33.5t-107.5 -11.5q-87 0 -157 29t-119.5 81t-76.5 123.5t-27 157.5q0 81 26.5 151.5t75.5 123t118.5 83t155.5 30.5q85 0 155 -29t119 -80.5t76 -122t27 -154.5q0 -79 -20 -146.5t-60 -119.5z" />
    <glyph glyph-name="R" unicode="R" horiz-adv-x="789" 
d="M444 428q66 0 98 23t32 80q0 27 -9.5 45.5t-26 30t-38 16.5t-45.5 5h-221v-200h210zM575 356q51 -20 80 -65t33 -121q3 -70 12 -107.5t24 -58.5v-4h-148q-11 18 -18.5 51.5t-12.5 101.5q-3 40 -10.5 69.5t-23.5 49t-43.5 29t-69.5 9.5h-164v-310h-137v753h352
q54 0 101.5 -12t83 -38t56.5 -66.5t21 -96.5q0 -81 -37 -124t-99 -60z" />
    <glyph glyph-name="S" unicode="S" horiz-adv-x="738" 
d="M353 766q125 0 202 -44t116 -122l-114 -73q-28 53 -76.5 86.5t-128.5 33.5q-84 0 -120 -22.5t-36 -69.5q0 -28 12 -44.5t36 -26.5t60.5 -16.5t86.5 -14.5q67 -11 122.5 -26.5t95.5 -43t61.5 -70.5t21.5 -108q0 -59 -22.5 -100t-64 -67.5t-99.5 -38.5t-128 -12
q-144 0 -229 54t-113 144l125 56q14 -31 32 -55.5t44 -41.5t62 -26t86 -9q81 0 123 23t42 73q0 29 -12 47.5t-37.5 31t-65.5 21t-96 17.5t-107 22t-89 37t-60.5 63.5t-22.5 102.5q0 49 19 89.5t56 69t91.5 44.5t126.5 16z" />
    <glyph glyph-name="T" unicode="T" horiz-adv-x="750" 
d="M441 0h-137v629h-259v124h660v-124h-264v-629z" />
    <glyph glyph-name="U" unicode="U" horiz-adv-x="805" 
d="M407 -13q-158 0 -239.5 71.5t-81.5 233.5v461h137v-485q0 -45 12.5 -76t35.5 -50t57 -27t78 -8q90 0 133 37t43 131v478h137v-467q0 -77 -17.5 -133t-55 -93t-96.5 -55t-143 -18z" />
    <glyph glyph-name="V" unicode="V" horiz-adv-x="713" 
d="M433 0h-134l-275 753h151l192 -552l181 552h141z" />
    <glyph glyph-name="W" unicode="W" horiz-adv-x="1065" 
d="M375 0h-149l-200 753h147l138 -548l149 548h145l147 -547l148 547h139l-216 -753h-143l-153 569z" />
    <glyph glyph-name="X" unicode="X" horiz-adv-x="687" 
d="M37 753h158l154 -253l147 253h142l-16 -27t-40 -68t-52.5 -88.5t-52.5 -88t-40 -68l-16 -27.5l237 -386h-158l-168 276l-161 -276h-142l232 389z" />
    <glyph glyph-name="Y" unicode="Y" horiz-adv-x="704" 
d="M18 753h159l183 -328l178 328h148l-258 -463v-290h-137v279z" />
    <glyph glyph-name="Z" unicode="Z" horiz-adv-x="726" 
d="M70 634v119h606v-117l-455 -517h448v-119h-615v124l451 510h-435z" />
    <glyph glyph-name="bracketleft" unicode="[" horiz-adv-x="435" 
d="M222 -65h157v-101h-281v965h281v-101h-157v-763z" />
    <glyph glyph-name="backslash" unicode="\" horiz-adv-x="425" 
d="M12 813h120l302 -961h-121z" />
    <glyph glyph-name="bracketright" unicode="]" horiz-adv-x="435" 
d="M213 698h-157v101h281v-965h-281v101h157v763z" />
    <glyph glyph-name="asciicircum" unicode="^" horiz-adv-x="408" 
d="M65 418h268v-118h-268v118z" />
    <glyph glyph-name="underscore" unicode="_" horiz-adv-x="401" 
d="M-1 -54h403v-98h-403v98z" />
    <glyph glyph-name="grave" unicode="`" horiz-adv-x="500" 
d="M75 747h160l67 -152h-81z" />
    <glyph glyph-name="a" unicode="a" horiz-adv-x="584" 
d="M382 246q-51 -4 -93 -9.5t-72 -16t-46.5 -27.5t-16.5 -44q0 -59 78 -59q30 0 57 9t48 25t33 39t12 51v32zM382 359q0 48 -27.5 65t-72.5 17q-50 0 -86 -18t-57 -63l-89 58q36 69 98 98t147 29q43 0 81 -10.5t66 -33t44 -57t16 -83.5v-231q0 -31 20 -37t44 0h2l-17 -98
q-9 -2 -26.5 -3t-32.5 -1q-46 0 -70.5 21.5t-34.5 57.5q-24 -36 -62.5 -57.5t-109.5 -21.5q-35 0 -67 8t-56.5 26t-39.5 46.5t-15 70.5q0 51 22 85.5t65.5 56.5t108 34t149.5 18v23z" />
    <glyph glyph-name="b" unicode="b" horiz-adv-x="623" 
d="M192 272q0 -98 38 -140t106 -42q69 0 98 47.5t29 133.5q0 83 -32.5 127t-99.5 44q-60 0 -99.5 -42t-39.5 -128zM353 -13q-66 0 -104 25t-56 56l2 -68h-120v758h120v-302q25 39 63 64t104 25q45 0 85 -17.5t70 -52t47.5 -85t17.5 -117.5q0 -65 -14.5 -117.5t-43 -90
t-71.5 -58t-100 -20.5z" />
    <glyph glyph-name="c" unicode="c" horiz-adv-x="552" 
d="M417 347q-17 49 -44 73.5t-75 24.5q-63 0 -99.5 -41.5t-36.5 -126.5q0 -86 33 -135.5t103 -49.5q52 0 82 24.5t47 72.5l98 -61q-29 -63 -83 -100t-149 -37q-55 0 -101.5 19.5t-80 56t-52 88t-18.5 116.5q0 62 19 112.5t53.5 86.5t82 55.5t105.5 19.5q82 0 138 -37
t79 -109z" />
    <glyph glyph-name="d" unicode="d" horiz-adv-x="623" 
d="M431 272q0 45 -10 77t-28.5 52.5t-44 30.5t-56.5 10q-66 0 -99 -41t-33 -130q0 -85 30.5 -133t96.5 -48q68 0 106 43.5t38 138.5zM269 -13q-54 0 -96.5 20t-72 57t-44.5 90t-15 119q0 65 17 115.5t47 85.5t72 53t92 18q62 0 99 -20t60 -54v287h120v-758h-120l2 76
q-9 -15 -23 -31t-33.5 -29t-45.5 -21t-59 -8z" />
    <glyph glyph-name="e" unicode="e" horiz-adv-x="573" 
d="M403 333q-5 54 -33 84t-82 30q-53 0 -84 -27t-41 -87h240zM160 241q5 -74 36 -111t100 -37q53 0 83.5 22.5t46.5 69.5l102 -37q-10 -34 -27.5 -62.5t-46 -49.5t-68.5 -33t-94 -12t-100 17.5t-79.5 52.5t-52.5 87.5t-19 122.5q0 63 18.5 113.5t51 86.5t78 55t99.5 19
q53 0 97.5 -17t76.5 -53.5t50 -94t18 -139.5h-370z" />
    <glyph glyph-name="f" unicode="f" horiz-adv-x="370" 
d="M31 432v102h83v66q0 78 39.5 119.5t109.5 41.5q32 0 55.5 -7.5t37.5 -19.5l-19 -94h-3q-10 9 -24 13.5t-27 4.5q-21 0 -35 -11t-14 -38v-75h102v-102h-102v-432h-120v432h-83z" />
    <glyph glyph-name="g" unicode="g" horiz-adv-x="572" 
d="M139 -46q0 -13 7 -22t24 -15t45.5 -8.5t72.5 -2.5q43 0 71 4t44.5 10.5t23 16t6.5 21.5q0 10 -4 20t-14 14q-16 6 -49.5 7t-90.5 1q-74 0 -105 -8.5t-31 -37.5zM276 450q-51 0 -75 -27.5t-24 -68.5q0 -42 24.5 -64.5t72.5 -22.5q49 0 72.5 25t23.5 64q0 38 -22.5 66
t-71.5 28zM442 470q17 38 41 54t53 16q12 0 22 -4.5t15 -9.5l-23 -102h-2q-5 6 -12 10t-16 4q-17 0 -31 -14t-14 -31q0 -11 1.5 -20.5t1.5 -20.5q0 -88 -57 -133t-151 -45q-16 0 -25.5 0.5t-16.5 1.5t-14 1.5t-18 0.5q-22 0 -41 -8.5t-19 -25.5q0 -12 7 -19t25 -10.5
t49.5 -5t81.5 -1.5q70 0 115 -3.5t73 -19.5q29 -17 44.5 -45t15.5 -72q0 -83 -64 -121t-201 -38q-123 0 -187.5 27.5t-64.5 92.5q0 38 26 58.5t67 32.5q-86 16 -86 99q0 37 25 61.5t70 37.5q-30 23 -46.5 56.5t-16.5 77.5t15.5 79.5t43 60t65.5 38t83 13.5q54 0 98 -20.5
t68 -52.5z" />
    <glyph glyph-name="h" unicode="h" 
d="M195 758v-307q10 17 23.5 34t33.5 30.5t46.5 21.5t61.5 8q29 0 61 -10.5t59 -33.5t45 -60t18 -90v-351h-120v323q0 54 -22.5 86t-74.5 32q-56 0 -93.5 -39t-37.5 -121v-281h-120v758h120z" />
    <glyph glyph-name="i" unicode="i" horiz-adv-x="278" 
d="M203 758v-134h-128v134h128zM199 534v-534h-120v534h120z" />
    <glyph glyph-name="j" unicode="j" horiz-adv-x="278" 
d="M203 758v-134h-128v134h128zM199 -40q0 -76 -37 -112t-94 -36q-35 0 -56.5 7t-37.5 15l11 99h2q22 -15 51 -15q17 0 29 11t12 31v574h120v-574z" />
    <glyph glyph-name="k" unicode="k" horiz-adv-x="590" 
d="M195 0h-120v758h120v-467l213 242h136l-183 -211l203 -322h-141l-148 237l-80 -86v-151z" />
    <glyph glyph-name="l" unicode="l" horiz-adv-x="284" 
d="M202 758v-758h-120v758h120z" />
    <glyph glyph-name="m" unicode="m" horiz-adv-x="949" 
d="M512 445q31 52 75.5 76t111.5 24q29 0 60.5 -10.5t58 -33.5t44 -60t17.5 -90v-351h-120v323q0 54 -21 86t-73 32q-57 0 -92.5 -38.5t-35.5 -121.5v-281h-120v323q0 54 -21 86t-73 32q-57 0 -92.5 -38.5t-35.5 -121.5v-281h-120v534h120l-2 -86q9 17 23 34t33.5 31t46 23
t61.5 9q44 0 87 -23.5t68 -76.5z" />
    <glyph glyph-name="n" unicode="n" 
d="M195 534l-2 -86q9 18 23 35t34.5 31t47.5 22.5t62 8.5q29 0 61 -10.5t59 -33.5t45 -60t18 -90v-351h-120v323q0 54 -22.5 86t-74.5 32q-56 0 -93.5 -39t-37.5 -121v-281h-120v534h120z" />
    <glyph glyph-name="o" unicode="o" horiz-adv-x="593" 
d="M298 452q-72 0 -105 -49t-33 -128q0 -41 7 -76t23 -60.5t41.5 -40.5t63.5 -15q40 0 66.5 13.5t42.5 38t22.5 58t6.5 74.5q0 39 -7.5 72.5t-24 58.5t-42 39.5t-61.5 14.5zM297 547q58 0 105 -19.5t80.5 -55.5t51.5 -88t18 -116q-1 -137 -68 -209t-187 -72q-58 0 -105 20
t-80.5 56.5t-52 87.5t-18.5 114q0 66 19 118.5t53 89t81 55.5t103 19z" />
    <glyph glyph-name="p" unicode="p" horiz-adv-x="623" 
d="M192 272q0 -49 10 -83t28.5 -55t45 -30.5t60.5 -9.5q69 0 98 45.5t29 131.5q0 83 -32.5 127t-99.5 44q-60 0 -99.5 -42t-39.5 -128zM352 -9q-65 0 -102.5 23.5t-54.5 50.5v-247h-120v716h120l-2 -84q23 41 63 68t106 27q45 0 85 -17.5t70 -52t47.5 -85t17.5 -117.5
q0 -65 -14 -117t-42.5 -89t-72 -56.5t-101.5 -19.5z" />
    <glyph glyph-name="q" unicode="q" horiz-adv-x="623" 
d="M431 272q0 45 -10 77t-28.5 52.5t-44 30.5t-56.5 10q-66 0 -99 -41t-33 -130q0 -85 30.5 -131t96.5 -46q68 0 106 41.5t38 136.5zM272 -9q-112 0 -171.5 74t-59.5 208q0 65 17 115.5t47 85.5t72 53t92 18q62 0 99.5 -20.5t61.5 -55.5l-2 65h120v-716h-120v256
q-9 -15 -22.5 -29.5t-32.5 -26.5t-44 -19.5t-57 -7.5z" />
    <glyph glyph-name="r" unicode="r" horiz-adv-x="410" 
d="M195 534l-2 -93q14 45 41 73t75 28q30 0 51 -10t33 -23l-44 -118h-4q-8 12 -21 21t-38 9q-23 0 -40 -12.5t-28.5 -33t-17 -47t-5.5 -54.5v-274h-120v534h120z" />
    <glyph glyph-name="s" unicode="s" horiz-adv-x="539" 
d="M256 545q82 0 137 -28.5t90 -81.5l-86 -65q-46 75 -135 75q-51 0 -73 -14t-22 -40q0 -16 7 -26t22 -16.5t38 -11t55 -8.5q39 -5 76 -14.5t66 -28.5t46.5 -50t17.5 -79q0 -36 -11.5 -67t-37 -53t-66.5 -34.5t-100 -12.5q-94 0 -155.5 36.5t-92.5 103.5l92 54
q23 -40 57.5 -66t96.5 -26q43 0 72 13.5t29 46.5q0 16 -7 26.5t-22 17.5t-38.5 11.5t-56.5 10.5q-40 7 -76.5 16t-64.5 27t-44.5 48.5t-16.5 78.5q0 41 16 71t43.5 49t64.5 28t79 9z" />
    <glyph glyph-name="t" unicode="t" horiz-adv-x="395" 
d="M239 132q0 -40 43 -40q25 0 42 5.5t28 14.5h3l-7 -109q-15 -7 -36 -11.5t-53 -4.5q-66 0 -103 36t-37 112v297h-92v102h92v76q31 21 58.5 45t58.5 59h3v-180h112v-102h-112v-300z" />
    <glyph glyph-name="u" unicode="u" 
d="M418 0l2 86q-9 -17 -23 -34t-34.5 -31t-47.5 -23t-62 -9q-29 0 -61 10.5t-59 33.5t-45 60t-18 90v351h120v-323q0 -54 22.5 -86t74.5 -32q56 0 93.5 38.5t37.5 121.5v281h120v-534h-120z" />
    <glyph glyph-name="v" unicode="v" horiz-adv-x="547" 
d="M155 534l124 -401l122 401h117l-172 -534h-139l-178 534h126z" />
    <glyph glyph-name="w" unicode="w" horiz-adv-x="843" 
d="M586 163l107 371h121l-167 -534h-123l-108 397l-112 -397h-123l-152 534h125l96 -371l107 371h123z" />
    <glyph glyph-name="x" unicode="x" horiz-adv-x="554" 
d="M156 0h-130l181 277l-166 257h141l96 -153l97 153h130l-162 -249l185 -285h-141l-115 182z" />
    <glyph glyph-name="y" unicode="y" horiz-adv-x="532" 
d="M29 534h128l118 -366l111 366h117l-191 -592q-11 -32 -29 -61t-44 -49q-20 -16 -48 -23t-57 -7q-62 0 -100 22l31 101h2q18 -16 52 -16q24 0 44 10.5t32 42.5l18 45z" />
    <glyph glyph-name="z" unicode="z" horiz-adv-x="522" 
d="M68 432v102h408v-89l-286 -344h293v-101h-441v98l279 334h-253z" />
    <glyph glyph-name="braceleft" unicode="{" horiz-adv-x="451" 
d="M391 -167q-128 8 -188 52.5t-60 135.5q0 39 8.5 76.5t8.5 75.5q0 21 -6 39.5t-21 32t-41 20t-67 5.5v103q41 -2 67.5 5t41.5 20t20.5 31t5.5 39q0 38 -8.5 72t-8.5 71q0 91 60 135.5t188 52.5l8 -103q-36 -5 -61 -11.5t-40 -18t-21.5 -28t-6.5 -41.5q0 -17 2 -33t5 -32.5
t5 -35t2 -40.5q0 -48 -24.5 -84.5t-80.5 -50.5q56 -14 80.5 -50.5t24.5 -84.5q0 -43 -7 -79t-7 -72q0 -25 6.5 -42t21.5 -28t40 -18t61 -12z" />
    <glyph glyph-name="bar" unicode="|" horiz-adv-x="277" 
d="M81 813h115v-961h-115v961z" />
    <glyph glyph-name="braceright" unicode="}" horiz-adv-x="451" 
d="M52 -65q36 5 61 12t40 18t21.5 28t6.5 42q0 36 -7 72t-7 79q0 48 24.5 84.5t80.5 50.5q-56 14 -80.5 50.5t-24.5 84.5q0 22 2 40.5t5 35t5 32.5t2 33q0 25 -6.5 41.5t-21.5 28t-40 18t-61 11.5l8 103q128 -8 188 -52.5t60 -135.5q0 -37 -8.5 -71t-8.5 -72q0 -21 5.5 -39
t20.5 -31t41.5 -20t67.5 -5v-103q-41 1 -67 -5.5t-41 -20t-21 -32t-6 -39.5q0 -38 8.5 -75.5t8.5 -76.5q0 -91 -60 -135.5t-188 -52.5z" />
    <glyph glyph-name="asciitilde" unicode="~" horiz-adv-x="516" 
d="M337 224q-28 0 -49 9.5t-38 20.5t-31.5 20.5t-29.5 9.5q-23 0 -34 -15t-15 -41l-101 9q11 77 49.5 118.5t93.5 41.5q27 0 47.5 -9.5t37.5 -20.5t31.5 -20.5t31.5 -9.5q23 0 33 14t14 39l100 -8q-9 -71 -46.5 -114.5t-93.5 -43.5z" />
    <glyph glyph-name="Adieresis" unicode="&#xc4;" horiz-adv-x="717" 
d="M210 919h116v-116h-116v116zM394 919h116v-116h-116v116zM357 591l-101 -299h199zM158 0h-130l261 753h148l252 -753h-139l-57 176h-276z" />
    <glyph glyph-name="Aring" unicode="&#xc5;" horiz-adv-x="717" 
d="M359 766q24 0 38.5 15t14.5 46q0 29 -14.5 45t-38.5 16t-38.5 -15t-14.5 -45t14.5 -46t38.5 -16zM357 591l-101 -299h199zM158 0h-130l253 731q-44 33 -44 94q0 52 33 86.5t89 34.5q27 0 49.5 -9.5t38.5 -25.5t24.5 -37.5t8.5 -46.5q-2 -57 -38 -90l247 -737h-139
l-57 176h-276z" />
    <glyph glyph-name="Ccedilla" unicode="&#xc7;" horiz-adv-x="782" 
d="M353 -8q-72 12 -126.5 45t-91 83t-55 115.5t-18.5 142.5q0 83 24 154t71 123t115.5 81.5t157.5 29.5q118 0 195 -55t111 -152l-117 -65q-11 31 -27 58t-38.5 47t-53 32t-70.5 12q-59 0 -101 -19.5t-68.5 -54t-39 -83.5t-12.5 -107q0 -63 12 -112.5t38.5 -84t68.5 -52.5
t103 -18q42 0 73 10.5t54 29t39 44t28 56.5l116 -63q-15 -41 -40.5 -77.5t-64 -64.5t-90.5 -44t-120 -16h-10v-43q8 5 19.5 9t26.5 4q21 0 39.5 -6.5t32.5 -18.5t22.5 -30t8.5 -41q0 -47 -35.5 -69.5t-86.5 -22.5q-85 0 -120 58l56 30q8 -14 22.5 -23.5t37.5 -9.5
q21 0 34.5 9.5t13.5 29.5q0 42 -39 42q-17 0 -26 -5t-15 -14h-54v106z" />
    <glyph glyph-name="Eacute" unicode="&#xc9;" horiz-adv-x="760" 
d="M393 955h161l-147 -152h-81zM234 124h463v-124h-600v753h581v-124h-444v-184h377v-121h-377v-200z" />
    <glyph glyph-name="Ntilde" unicode="&#xd1;" horiz-adv-x="805" 
d="M479 803q-22 0 -39 7t-30.5 16t-25.5 16t-25 7q-17 0 -26 -11.5t-13 -31.5l-79 7q8 62 38.5 95t77.5 33q22 0 38.5 -7t30 -16t25.5 -16t26 -7q18 0 24 10.5t9 30.5l84 -7q-8 -57 -37.5 -91.5t-77.5 -34.5zM584 753h124v-753h-137l-350 564v-564h-124v753h159l328 -520
v520z" />
    <glyph glyph-name="Odieresis" unicode="&#xd6;" horiz-adv-x="877" 
d="M285 919h116v-116h-116v116zM469 919h116v-116h-116v116zM438 643q-56 0 -98.5 -19.5t-71.5 -54t-44 -83.5t-15 -107q0 -126 59 -196.5t171 -70.5q116 0 172.5 64.5t56.5 204.5q0 59 -15 107t-44.5 82.5t-72.5 53.5t-98 19zM62 378q0 81 26.5 151.5t75.5 123t118.5 83
t155.5 30.5q85 0 155 -29t119 -80.5t76 -122t27 -154.5q0 -86 -24 -158.5t-71.5 -124.5t-117 -81t-160.5 -29q-87 0 -157 29t-119.5 81t-76.5 123.5t-27 157.5z" />
    <glyph glyph-name="Udieresis" unicode="&#xdc;" horiz-adv-x="805" 
d="M252 919h116v-116h-116v116zM436 919h116v-116h-116v116zM407 -13q-158 0 -239.5 71.5t-81.5 233.5v461h137v-485q0 -45 12.5 -76t35.5 -50t57 -27t78 -8q90 0 133 37t43 131v478h137v-467q0 -77 -17.5 -133t-55 -93t-96.5 -55t-143 -18z" />
    <glyph glyph-name="aacute" unicode="&#xe1;" horiz-adv-x="584" 
d="M304 747h161l-147 -152h-81zM382 246q-51 -4 -93 -9.5t-72 -16t-46.5 -27.5t-16.5 -44q0 -59 78 -59q30 0 57 9t48 25t33 39t12 51v32zM382 359q0 48 -27.5 65t-72.5 17q-50 0 -86 -18t-57 -63l-89 58q36 69 98 98t147 29q43 0 81 -10.5t66 -33t44 -57t16 -83.5v-231
q0 -31 20 -37t44 0h2l-17 -98q-9 -2 -26.5 -3t-32.5 -1q-46 0 -70.5 21.5t-34.5 57.5q-24 -36 -62.5 -57.5t-109.5 -21.5q-35 0 -67 8t-56.5 26t-39.5 46.5t-15 70.5q0 51 22 85.5t65.5 56.5t108 34t149.5 18v23z" />
    <glyph glyph-name="agrave" unicode="&#xe0;" horiz-adv-x="584" 
d="M116 747h160l67 -152h-81zM382 246q-51 -4 -93 -9.5t-72 -16t-46.5 -27.5t-16.5 -44q0 -59 78 -59q30 0 57 9t48 25t33 39t12 51v32zM382 359q0 48 -27.5 65t-72.5 17q-50 0 -86 -18t-57 -63l-89 58q36 69 98 98t147 29q43 0 81 -10.5t66 -33t44 -57t16 -83.5v-231
q0 -31 20 -37t44 0h2l-17 -98q-9 -2 -26.5 -3t-32.5 -1q-46 0 -70.5 21.5t-34.5 57.5q-24 -36 -62.5 -57.5t-109.5 -21.5q-35 0 -67 8t-56.5 26t-39.5 46.5t-15 70.5q0 51 22 85.5t65.5 56.5t108 34t149.5 18v23z" />
    <glyph glyph-name="acircumflex" unicode="&#xe2;" horiz-adv-x="584" 
d="M382 246q-51 -4 -93 -9.5t-72 -16t-46.5 -27.5t-16.5 -44q0 -59 78 -59q30 0 57 9t48 25t33 39t12 51v32zM219 751h124l101 -156h-78l-86 78l-87 -78h-75zM382 359q0 48 -27.5 65t-72.5 17q-50 0 -86 -18t-57 -63l-89 58q36 69 98 98t147 29q43 0 81 -10.5t66 -33t44 -57
t16 -83.5v-231q0 -31 20 -37t44 0h2l-17 -98q-9 -2 -26.5 -3t-32.5 -1q-46 0 -70.5 21.5t-34.5 57.5q-24 -36 -62.5 -57.5t-109.5 -21.5q-35 0 -67 8t-56.5 26t-39.5 46.5t-15 70.5q0 51 22 85.5t65.5 56.5t108 34t149.5 18v23z" />
    <glyph glyph-name="adieresis" unicode="&#xe4;" horiz-adv-x="584" 
d="M141 711h116v-116h-116v116zM325 711h116v-116h-116v116zM382 246q-51 -4 -93 -9.5t-72 -16t-46.5 -27.5t-16.5 -44q0 -59 78 -59q30 0 57 9t48 25t33 39t12 51v32zM382 359q0 48 -27.5 65t-72.5 17q-50 0 -86 -18t-57 -63l-89 58q36 69 98 98t147 29q43 0 81 -10.5
t66 -33t44 -57t16 -83.5v-231q0 -31 20 -37t44 0h2l-17 -98q-9 -2 -26.5 -3t-32.5 -1q-46 0 -70.5 21.5t-34.5 57.5q-24 -36 -62.5 -57.5t-109.5 -21.5q-35 0 -67 8t-56.5 26t-39.5 46.5t-15 70.5q0 51 22 85.5t65.5 56.5t108 34t149.5 18v23z" />
    <glyph glyph-name="atilde" unicode="&#xe3;" horiz-adv-x="584" 
d="M382 246q-51 -4 -93 -9.5t-72 -16t-46.5 -27.5t-16.5 -44q0 -59 78 -59q30 0 57 9t48 25t33 39t12 51v32zM351 595q-22 0 -39 7t-30.5 16t-25.5 16t-25 7q-17 0 -26 -11.5t-13 -31.5l-79 7q8 62 38.5 95t77.5 33q22 0 38.5 -7t30 -16t25.5 -16t26 -7q18 0 24 10.5t9 30.5
l84 -7q-8 -57 -37.5 -91.5t-77.5 -34.5zM382 359q0 48 -27.5 65t-72.5 17q-50 0 -86 -18t-57 -63l-89 58q36 69 98 98t147 29q43 0 81 -10.5t66 -33t44 -57t16 -83.5v-231q0 -31 20 -37t44 0h2l-17 -98q-9 -2 -26.5 -3t-32.5 -1q-46 0 -70.5 21.5t-34.5 57.5
q-24 -36 -62.5 -57.5t-109.5 -21.5q-35 0 -67 8t-56.5 26t-39.5 46.5t-15 70.5q0 51 22 85.5t65.5 56.5t108 34t149.5 18v23z" />
    <glyph glyph-name="aring" unicode="&#xe5;" horiz-adv-x="584" 
d="M292 636q24 0 38.5 15t14.5 46q0 29 -14.5 45t-38.5 16t-38.5 -15t-14.5 -45t14.5 -46t38.5 -16zM382 246q-51 -4 -93 -9.5t-72 -16t-46.5 -27.5t-16.5 -44q0 -59 78 -59q30 0 57 9t48 25t33 39t12 51v32zM291 577q-55 0 -88 33.5t-33 84.5q0 52 33 86.5t89 34.5
q27 0 49.5 -9.5t38.5 -25.5t24.5 -37.5t8.5 -46.5q-1 -52 -33.5 -86t-88.5 -34zM382 359q0 48 -27.5 65t-72.5 17q-50 0 -86 -18t-57 -63l-89 58q36 69 98 98t147 29q43 0 81 -10.5t66 -33t44 -57t16 -83.5v-231q0 -31 20 -37t44 0h2l-17 -98q-9 -2 -26.5 -3t-32.5 -1
q-46 0 -70.5 21.5t-34.5 57.5q-24 -36 -62.5 -57.5t-109.5 -21.5q-35 0 -67 8t-56.5 26t-39.5 46.5t-15 70.5q0 51 22 85.5t65.5 56.5t108 34t149.5 18v23z" />
    <glyph glyph-name="ccedilla" unicode="&#xe7;" horiz-adv-x="552" 
d="M228 -2q-85 21 -136.5 92t-51.5 181q0 62 19 112.5t53.5 86.5t82 55.5t105.5 19.5q82 0 138 -37t79 -109l-101 -52q-17 49 -44 73.5t-75 24.5q-63 0 -99.5 -41.5t-36.5 -126.5q0 -86 33 -135.5t103 -49.5q52 0 82 24.5t47 72.5l98 -61q-29 -63 -83 -100t-149 -37h-1v-47
q8 5 19.5 9t26.5 4q21 0 39.5 -6.5t32.5 -18.5t22.5 -30t8.5 -41q0 -47 -35.5 -69.5t-86.5 -22.5q-85 0 -120 58l56 30q8 -14 22.5 -23.5t37.5 -9.5q21 0 34.5 9.5t13.5 29.5q0 42 -39 42q-17 0 -26 -5t-15 -14h-54v112z" />
    <glyph glyph-name="eacute" unicode="&#xe9;" horiz-adv-x="573" 
d="M297 747h161l-147 -152h-81zM403 333q-5 54 -33 84t-82 30q-53 0 -84 -27t-41 -87h240zM160 241q5 -74 36 -111t100 -37q53 0 83.5 22.5t46.5 69.5l102 -37q-10 -34 -27.5 -62.5t-46 -49.5t-68.5 -33t-94 -12t-100 17.5t-79.5 52.5t-52.5 87.5t-19 122.5q0 63 18.5 113.5
t51 86.5t78 55t99.5 19q53 0 97.5 -17t76.5 -53.5t50 -94t18 -139.5h-370z" />
    <glyph glyph-name="egrave" unicode="&#xe8;" horiz-adv-x="573" 
d="M106 747h160l67 -152h-81zM403 333q-5 54 -33 84t-82 30q-53 0 -84 -27t-41 -87h240zM160 241q5 -74 36 -111t100 -37q53 0 83.5 22.5t46.5 69.5l102 -37q-10 -34 -27.5 -62.5t-46 -49.5t-68.5 -33t-94 -12t-100 17.5t-79.5 52.5t-52.5 87.5t-19 122.5q0 63 18.5 113.5
t51 86.5t78 55t99.5 19q53 0 97.5 -17t76.5 -53.5t50 -94t18 -139.5h-370z" />
    <glyph glyph-name="ecircumflex" unicode="&#xea;" horiz-adv-x="573" 
d="M403 333q-5 54 -33 84t-82 30q-53 0 -84 -27t-41 -87h240zM219 751h124l101 -156h-78l-86 78l-87 -78h-75zM160 241q5 -74 36 -111t100 -37q53 0 83.5 22.5t46.5 69.5l102 -37q-10 -34 -27.5 -62.5t-46 -49.5t-68.5 -33t-94 -12t-100 17.5t-79.5 52.5t-52.5 87.5
t-19 122.5q0 63 18.5 113.5t51 86.5t78 55t99.5 19q53 0 97.5 -17t76.5 -53.5t50 -94t18 -139.5h-370z" />
    <glyph glyph-name="edieresis" unicode="&#xeb;" horiz-adv-x="573" 
d="M131 711h116v-116h-116v116zM315 711h116v-116h-116v116zM403 333q-5 54 -33 84t-82 30q-53 0 -84 -27t-41 -87h240zM160 241q5 -74 36 -111t100 -37q53 0 83.5 22.5t46.5 69.5l102 -37q-10 -34 -27.5 -62.5t-46 -49.5t-68.5 -33t-94 -12t-100 17.5t-79.5 52.5
t-52.5 87.5t-19 122.5q0 63 18.5 113.5t51 86.5t78 55t99.5 19q53 0 97.5 -17t76.5 -53.5t50 -94t18 -139.5h-370z" />
    <glyph glyph-name="iacute" unicode="&#xed;" horiz-adv-x="278" 
d="M155 747h161l-147 -152h-81zM199 534v-534h-120v534h120z" />
    <glyph glyph-name="igrave" unicode="&#xec;" horiz-adv-x="278" 
d="M-33 747h160l67 -152h-81zM199 534v-534h-120v534h120z" />
    <glyph glyph-name="icircumflex" unicode="&#xee;" horiz-adv-x="278" 
d="M80 751h124l101 -156h-78l-86 78l-87 -78h-75zM199 534v-534h-120v534h120z" />
    <glyph glyph-name="idieresis" unicode="&#xef;" horiz-adv-x="278" 
d="M-8 711h116v-116h-116v116zM176 711h116v-116h-116v116zM199 534v-534h-120v534h120z" />
    <glyph glyph-name="ntilde" unicode="&#xf1;" 
d="M364 595q-22 0 -39 7t-30.5 16t-25.5 16t-25 7q-17 0 -26 -11.5t-13 -31.5l-79 7q8 62 38.5 95t77.5 33q22 0 38.5 -7t30 -16t25.5 -16t26 -7q18 0 24 10.5t9 30.5l84 -7q-8 -57 -37.5 -91.5t-77.5 -34.5zM195 534l-2 -86q9 18 23 35t34.5 31t47.5 22.5t62 8.5
q29 0 61 -10.5t59 -33.5t45 -60t18 -90v-351h-120v323q0 54 -22.5 86t-74.5 32q-56 0 -93.5 -39t-37.5 -121v-281h-120v534h120z" />
    <glyph glyph-name="oacute" unicode="&#xf3;" horiz-adv-x="593" 
d="M308 747h161l-147 -152h-81zM298 452q-72 0 -105 -49t-33 -128q0 -41 7 -76t23 -60.5t41.5 -40.5t63.5 -15q40 0 66.5 13.5t42.5 38t22.5 58t6.5 74.5q0 39 -7.5 72.5t-24 58.5t-42 39.5t-61.5 14.5zM297 547q58 0 105 -19.5t80.5 -55.5t51.5 -88t18 -116
q-1 -137 -68 -209t-187 -72q-58 0 -105 20t-80.5 56.5t-52 87.5t-18.5 114q0 66 19 118.5t53 89t81 55.5t103 19z" />
    <glyph glyph-name="ograve" unicode="&#xf2;" horiz-adv-x="593" 
d="M112 747h160l67 -152h-81zM298 452q-72 0 -105 -49t-33 -128q0 -41 7 -76t23 -60.5t41.5 -40.5t63.5 -15q40 0 66.5 13.5t42.5 38t22.5 58t6.5 74.5q0 39 -7.5 72.5t-24 58.5t-42 39.5t-61.5 14.5zM297 547q58 0 105 -19.5t80.5 -55.5t51.5 -88t18 -116q-1 -137 -68 -209
t-187 -72q-58 0 -105 20t-80.5 56.5t-52 87.5t-18.5 114q0 66 19 118.5t53 89t81 55.5t103 19z" />
    <glyph glyph-name="ocircumflex" unicode="&#xf4;" horiz-adv-x="593" 
d="M227 751h124l101 -156h-78l-86 78l-87 -78h-75zM298 452q-72 0 -105 -49t-33 -128q0 -41 7 -76t23 -60.5t41.5 -40.5t63.5 -15q40 0 66.5 13.5t42.5 38t22.5 58t6.5 74.5q0 39 -7.5 72.5t-24 58.5t-42 39.5t-61.5 14.5zM297 547q58 0 105 -19.5t80.5 -55.5t51.5 -88
t18 -116q-1 -137 -68 -209t-187 -72q-58 0 -105 20t-80.5 56.5t-52 87.5t-18.5 114q0 66 19 118.5t53 89t81 55.5t103 19z" />
    <glyph glyph-name="odieresis" unicode="&#xf6;" horiz-adv-x="593" 
d="M141 711h116v-116h-116v116zM325 711h116v-116h-116v116zM298 452q-72 0 -105 -49t-33 -128q0 -41 7 -76t23 -60.5t41.5 -40.5t63.5 -15q40 0 66.5 13.5t42.5 38t22.5 58t6.5 74.5q0 39 -7.5 72.5t-24 58.5t-42 39.5t-61.5 14.5zM297 547q58 0 105 -19.5t80.5 -55.5
t51.5 -88t18 -116q-1 -137 -68 -209t-187 -72q-58 0 -105 20t-80.5 56.5t-52 87.5t-18.5 114q0 66 19 118.5t53 89t81 55.5t103 19z" />
    <glyph glyph-name="otilde" unicode="&#xf5;" horiz-adv-x="593" 
d="M349 595q-22 0 -39 7t-30.5 16t-25.5 16t-25 7q-17 0 -26 -11.5t-13 -31.5l-79 7q8 62 38.5 95t77.5 33q22 0 38.5 -7t30 -16t25.5 -16t26 -7q18 0 24 10.5t9 30.5l84 -7q-8 -57 -37.5 -91.5t-77.5 -34.5zM298 452q-72 0 -105 -49t-33 -128q0 -41 7 -76t23 -60.5
t41.5 -40.5t63.5 -15q40 0 66.5 13.5t42.5 38t22.5 58t6.5 74.5q0 39 -7.5 72.5t-24 58.5t-42 39.5t-61.5 14.5zM297 547q58 0 105 -19.5t80.5 -55.5t51.5 -88t18 -116q-1 -137 -68 -209t-187 -72q-58 0 -105 20t-80.5 56.5t-52 87.5t-18.5 114q0 66 19 118.5t53 89t81 55.5
t103 19z" />
    <glyph glyph-name="uacute" unicode="&#xfa;" 
d="M319 747h161l-147 -152h-81zM418 0l2 86q-9 -17 -23 -34t-34.5 -31t-47.5 -23t-62 -9q-29 0 -61 10.5t-59 33.5t-45 60t-18 90v351h120v-323q0 -54 22.5 -86t74.5 -32q56 0 93.5 38.5t37.5 121.5v281h120v-534h-120z" />
    <glyph glyph-name="ugrave" unicode="&#xf9;" 
d="M131 747h160l67 -152h-81zM418 0l2 86q-9 -17 -23 -34t-34.5 -31t-47.5 -23t-62 -9q-29 0 -61 10.5t-59 33.5t-45 60t-18 90v351h120v-323q0 -54 22.5 -86t74.5 -32q56 0 93.5 38.5t37.5 121.5v281h120v-534h-120z" />
    <glyph glyph-name="ucircumflex" unicode="&#xfb;" 
d="M244 751h124l101 -156h-78l-86 78l-87 -78h-75zM418 0l2 86q-9 -17 -23 -34t-34.5 -31t-47.5 -23t-62 -9q-29 0 -61 10.5t-59 33.5t-45 60t-18 90v351h120v-323q0 -54 22.5 -86t74.5 -32q56 0 93.5 38.5t37.5 121.5v281h120v-534h-120z" />
    <glyph glyph-name="udieresis" unicode="&#xfc;" 
d="M156 711h116v-116h-116v116zM340 711h116v-116h-116v116zM418 0l2 86q-9 -17 -23 -34t-34.5 -31t-47.5 -23t-62 -9q-29 0 -61 10.5t-59 33.5t-45 60t-18 90v351h120v-323q0 -54 22.5 -86t74.5 -32q56 0 93.5 38.5t37.5 121.5v281h120v-534h-120z" />
    <glyph glyph-name="dagger" unicode="&#x2020;" horiz-adv-x="510" 
d="M39 456v103h158v194h116v-194h158v-103h-158v-456h-116v456h-158z" />
    <glyph glyph-name="degree" unicode="&#xb0;" horiz-adv-x="417" 
d="M209 462q36 0 59 25t23 70q0 43 -23 69.5t-59 26.5t-58.5 -24.5t-22.5 -69.5t22.5 -71t58.5 -26zM208 387q-37 0 -68 13t-53 35.5t-34.5 53t-12.5 66.5t12.5 67.5t34.5 55t53 36.5t69 13q37 0 68.5 -13t53.5 -36t34 -54t12 -67t-12.5 -67.5t-34.5 -54t-53.5 -35.5
t-68.5 -13z" />
    <glyph glyph-name="cent" unicode="&#xa2;" horiz-adv-x="564" 
d="M258 442q-48 -11 -73.5 -52t-25.5 -113q0 -73 23.5 -120.5t75.5 -61.5v347zM336 94q35 8 57 31.5t36 63.5l96 -61q-26 -56 -70 -91.5t-119 -43.5v-126h-78v126q-48 6 -88 28t-68.5 58t-44.5 84.5t-16 107.5q0 56 15.5 102.5t44 82t68.5 57.5t89 29v120h78v-119
q68 -8 114.5 -44t67.5 -100l-99 -52q-25 79 -83 95v-348z" />
    <glyph glyph-name="sterling" unicode="&#xa3;" horiz-adv-x="627" 
d="M228 115q-15 16 -31.5 26.5t-36.5 10.5q-24 0 -36.5 -11t-12.5 -28q0 -19 12.5 -31.5t39.5 -12.5q20 0 38.5 11t26.5 35zM57 320v83h72q-13 28 -21 58t-8 64q0 48 17 86t47.5 63.5t74.5 39t98 13.5q52 0 91.5 -12t68.5 -33t49 -50t34 -64l-105 -49q-20 53 -52 79t-88 26
q-114 0 -114 -101q0 -29 8.5 -58.5t21.5 -61.5h193v-83h-157q17 -40 28.5 -82.5t11.5 -89.5q0 -10 -1 -14q22 -17 44 -27.5t46 -10.5q38 0 56 22t26 76l102 -14q-5 -43 -16.5 -78t-31 -59.5t-48.5 -38t-69 -13.5q-48 0 -82.5 17.5t-60.5 40.5q-24 -29 -59.5 -45.5
t-73.5 -16.5q-30 0 -55 8t-44 23.5t-29.5 38.5t-10.5 53t10.5 52.5t28.5 38.5t41 24t49 8q40 0 77 -26q-7 29 -21 56.5t-31 56.5h-117z" />
    <glyph glyph-name="section" unicode="&#xa7;" horiz-adv-x="604" 
d="M451 284q0 46 -49.5 67.5t-156.5 21.5q-44 0 -68 -21.5t-24 -50.5q0 -45 47 -68t153 -23q51 0 74.5 22t23.5 52zM300 -133q-80 0 -138.5 30t-90.5 102l92 46q17 -42 49 -61.5t84 -19.5t76.5 17t24.5 48q0 18 -6 30t-21.5 21t-42 16.5t-67.5 15.5q-48 9 -87.5 22.5
t-68.5 34t-45 49.5t-16 68q0 57 30.5 91.5t93.5 51.5q-33 20 -52.5 52t-19.5 83q0 41 16.5 71.5t45 51t65 30.5t77.5 10q78 0 132.5 -28t89.5 -88l-90 -57q-20 38 -50 57t-78 19t-72.5 -18t-24.5 -48q0 -18 6 -31.5t22 -24t42.5 -18.5t67.5 -16q50 -10 90.5 -23t68.5 -33.5
t43 -50t15 -71.5q0 -54 -26 -88t-89 -58q28 -17 45.5 -45.5t17.5 -69.5q0 -45 -16 -77t-44.5 -52t-66.5 -29.5t-82 -9.5z" />
    <glyph glyph-name="bullet" unicode="&#x2022;" horiz-adv-x="488" 
d="M244 173q-45 0 -80.5 15.5t-61 41.5t-39 61.5t-13.5 76.5t13.5 77.5t38.5 63.5t61.5 42.5t81.5 15.5t81.5 -15.5t61.5 -42.5t38 -63t12 -77q0 -41 -13.5 -77t-38 -62.5t-60.5 -41.5t-82 -15z" />
    <glyph glyph-name="paragraph" unicode="&#xb6;" horiz-adv-x="728" 
d="M332 325h-39q-56 0 -102 13t-79 39t-51.5 65.5t-18.5 92.5q0 55 19.5 96t53 68t79.5 40.5t99 13.5h411v-109h-65v-644h-112v644h-83v-644h-112v325z" />
    <glyph glyph-name="germandbls" unicode="&#xdf;" horiz-adv-x="592" 
d="M345 -10q-29 0 -55.5 5.5t-39.5 12.5l13 101h2q10 -7 27 -11t35 -4q22 0 41 6t32 21.5t20.5 41t7.5 64.5q0 81 -38 119.5t-119 35.5v93q33 0 57 8.5t40 22t23.5 31.5t7.5 36q0 39 -24 65t-73 26q-52 0 -79.5 -22t-27.5 -75v-567h-120v553q0 56 18.5 96.5t49.5 66
t72.5 37.5t87.5 12q47 0 86 -13.5t66.5 -38t43 -59t15.5 -76.5q0 -49 -24.5 -86t-67.5 -54q58 -19 93.5 -74.5t35.5 -142.5q0 -119 -55 -175t-151 -56z" />
    <glyph glyph-name="registered" unicode="&#xae;" horiz-adv-x="570" 
d="M299 540q39 0 39 31q0 29 -37 29h-54v-60h52zM186 647h121q44 0 67.5 -20t23.5 -53q0 -29 -16.5 -43t-37.5 -19q11 -2 20 -8.5t14 -19.5q5 -11 8 -27.5t8 -33.5q4 -16 8 -19v-3h-64q-2 5 -5 17.5t-8 41.5q-3 20 -14 26.5t-25 6.5h-39v-92h-61v246zM285 326q41 0 76 14
t60.5 39.5t39.5 61.5t14 79t-14 78.5t-38.5 61t-59.5 39.5t-77 14t-77.5 -14t-60.5 -39.5t-39 -61.5t-14 -79t14.5 -78.5t40 -61t60 -39.5t75.5 -14zM285 276q-51 0 -95.5 18.5t-78 51t-52.5 77t-19 96.5q0 51 19 95.5t52 77.5t78 52t97 19t96.5 -19t77.5 -51.5t51.5 -77
t18.5 -95.5q0 -52 -19 -96.5t-52 -77.5t-78 -51.5t-96 -18.5z" />
    <glyph glyph-name="copyright" unicode="&#xa9;" horiz-adv-x="888" 
d="M442 135q-51 0 -92.5 18.5t-71 51t-45.5 77t-16 96.5t17 96.5t47.5 77t72 51t90.5 18.5q77 0 126 -33.5t74 -96.5l-90 -46q-14 40 -39 58.5t-67 18.5q-52 0 -84.5 -36t-32.5 -107q0 -70 32.5 -107t84.5 -37q42 0 70 21t41 59l92 -46q-26 -63 -76 -98.5t-133 -35.5z
M443 54q67 0 125.5 24t102 66.5t68 102t24.5 131.5q0 71 -24 130.5t-66.5 102t-100.5 66.5t-127 24t-128 -24t-102 -67t-67 -103t-24 -131q0 -72 25 -131t68 -101.5t101 -66t125 -23.5zM443 -9q-81 0 -151.5 29.5t-123 81t-82.5 122t-30 152.5q0 81 30 151.5t82.5 123
t123.5 83t153 30.5t153 -30t123 -82.5t81.5 -122.5t29.5 -151q0 -82 -30 -153t-82.5 -123t-123.5 -81.5t-153 -29.5z" />
    <glyph glyph-name="trademark" unicode="&#x2122;" horiz-adv-x="762" 
d="M134 690h-99v63h270v-63h-96v-249h-75v249zM360 753h95l75 -228l72 228h100v-312h-73v207l-68 -207h-66l-68 207v-207h-67v312z" />
    <glyph glyph-name="acute" unicode="&#xb4;" horiz-adv-x="500" 
d="M263 747h161l-147 -152h-81z" />
    <glyph glyph-name="dieresis" unicode="&#xa8;" horiz-adv-x="500" 
d="M100 711h116v-116h-116v116zM284 711h116v-116h-116v116z" />
    <glyph glyph-name="AE" unicode="&#xc6;" horiz-adv-x="1233" 
d="M583 637l-233 -355h233v355zM1151 629h-431v-184h364v-121h-364v-200h450v-124h-587v166h-309l-109 -166h-145l494 753h637v-124z" />
    <glyph glyph-name="Oslash" unicode="&#xd8;" horiz-adv-x="877" 
d="M575 603q-56 42 -137 42q-56 0 -98.5 -19.5t-72 -55t-44.5 -84.5t-15 -107q0 -81 26 -142zM302 150q57 -40 137 -40q116 0 173 65.5t57 205.5q0 75 -26 135zM136 132q-35 49 -54.5 111.5t-19.5 134.5q0 81 26.5 151.5t75.5 123t118.5 83t155.5 30.5q66 0 123 -17.5
t102 -50.5l51 55h150q-1 -1 -12.5 -13.5t-30.5 -32.5t-36.5 -39t-30.5 -32.5l-13 -13.5q36 -49 55 -110t19 -132q0 -86 -24 -158.5t-71.5 -124.5t-117 -81t-160.5 -29q-68 0 -125 18t-103 50l-51 -55h-150z" />
    <glyph glyph-name="plusminus" unicode="&#xb1;" horiz-adv-x="551" 
d="M65 109h416v-109h-416v109zM329 195h-111v146h-153v109h153v146h111v-146h152v-109h-152v-146z" />
    <glyph glyph-name="yen" unicode="&#xa5;" horiz-adv-x="633" 
d="M377 269v-52h188v-81h-188v-136h-120v136h-183v81h183v52l-11 21h-172v81h129l-184 345h134l167 -336l169 336h125l-183 -345h134v-81h-177z" />
    <glyph glyph-name="mu" unicode="&#xb5;" horiz-adv-x="618" 
d="M195 534v-323q0 -54 22.5 -86t74.5 -32q56 0 93.5 38.5t37.5 121.5v281h120v-534h-120l2 86q-9 -17 -22.5 -34t-33 -31t-45 -23t-59.5 -9q-20 0 -39 5t-31 15v-191h-120v716h120z" />
    <glyph glyph-name="ordfeminine" unicode="&#xaa;" horiz-adv-x="486" 
d="M137 402q0 -23 14.5 -34t40.5 -11q24 0 45.5 7t38.5 19.5t27 30.5t10 40v21q-41 -3 -73.5 -7.5t-55 -12t-35 -20t-12.5 -33.5zM313 572q0 37 -21 52t-59 15q-41 0 -66.5 -15.5t-42.5 -51.5l-81 48q31 59 80.5 83t119.5 24q36 0 67.5 -8.5t55 -27.5t37 -48t13.5 -69v-193
q0 -23 15.5 -27t32.5 1h6l-14 -81q-10 -2 -23.5 -3.5t-24.5 -1.5q-38 0 -59 18t-30 47q-20 -28 -52 -46.5t-89 -18.5q-27 0 -53.5 7t-46.5 22t-32.5 39t-12.5 59q0 42 18.5 70t54 46t87.5 28t120 16v16z" />
    <glyph glyph-name="ordmasculine" unicode="&#xba;" horiz-adv-x="505" 
d="M147 501q0 -32 5 -59.5t17 -48t32 -32.5t50 -12q31 0 52 11t33 30.5t17 46.5t5 59q0 30 -6 56.5t-18.5 46.5t-32.5 31.5t-48 11.5q-57 0 -81.5 -39t-24.5 -102zM464 497q-1 -114 -57 -173t-155 -59q-48 0 -86.5 16t-66 46t-43 72.5t-15.5 95.5q0 55 15.5 98t44 73
t67 45.5t84.5 15.5q48 0 87 -16t67 -46t43 -72.5t15 -95.5z" />
    <glyph glyph-name="ae" unicode="&#xe6;" horiz-adv-x="914" 
d="M744 333q-5 54 -33 84t-82 30q-53 0 -84 -27t-41 -87h240zM382 246q-51 -4 -93 -9.5t-72 -16t-46.5 -27.5t-16.5 -44q0 -59 78 -59q30 0 57 9t48 25t33 39t12 51v32zM382 359q0 48 -27.5 65t-72.5 17q-50 0 -86 -18t-57 -63l-89 58q36 69 98 98t147 29q58 0 99 -18
t63 -59q60 77 172 77q53 0 97.5 -17t76.5 -53.5t50 -94t18 -139.5h-370q5 -74 36 -111t100 -37q53 0 83.5 22.5t46.5 69.5l102 -37q-10 -34 -27.5 -62.5t-46 -49.5t-68.5 -33t-94 -12q-70 0 -121 29t-79 87q-39 -65 -90.5 -90.5t-127.5 -25.5q-35 0 -67 8t-56.5 26
t-39.5 46.5t-15 70.5q0 51 22 85.5t65.5 56.5t108 34t149.5 18v23z" />
    <glyph glyph-name="oslash" unicode="&#xf8;" horiz-adv-x="593" 
d="M216 107q31 -25 79 -25q40 0 67 13.5t43 38t22.5 58.5t6.5 75q0 43 -9 79zM377 427q-31 26 -79 26q-72 0 -105.5 -48.5t-33.5 -129.5q0 -50 10 -87zM87 94q-45 71 -46 171q0 66 19 118.5t53 89t81 55.5t103 19q43 0 80 -11t68 -31l25 29h118l-81 -93q46 -71 45 -173
q-1 -137 -68 -209t-187 -72q-85 0 -148 43l-26 -30h-118z" />
    <glyph glyph-name="questiondown" unicode="&#xbf;" horiz-adv-x="564" 
d="M391 607h-148v146h148v-146zM537 150q-24 -74 -91 -118.5t-172 -44.5q-57 0 -99.5 14t-71 39t-43 58.5t-14.5 72.5q0 35 8 61t22.5 46.5t35 37t45.5 31.5q28 17 48 31t32 28.5t17.5 31.5t5.5 40v33h118v-45q0 -39 -11 -69t-29 -53.5t-41.5 -41t-48.5 -32.5
q-26 -16 -45 -36t-19 -55q0 -37 23 -59t73 -22q63 0 99.5 27.5t56.5 77.5z" />
    <glyph glyph-name="exclamdown" unicode="&#xa1;" horiz-adv-x="318" 
d="M233 607h-148v146h148v-146zM88 0v220l37 291h68l37 -291v-220h-142z" />
    <glyph glyph-name="logicalnot" unicode="&#xac;" horiz-adv-x="469" 
d="M293 304h-239v99h347v-249h-108v150z" />
    <glyph glyph-name="florin" unicode="&#x192;" horiz-adv-x="414" 
d="M360 458v-102h-105l-41 -390q-8 -80 -48 -117.5t-99 -37.5q-31 0 -52.5 6.5t-34.5 15.5l29 95h3q19 -14 41 -14q17 0 28.5 8.5t14.5 34.5l42 399h-84v102h95l14 137q9 84 48 125t102 41q37 0 60 -7t37 -19l-29 -94h-3q-9 9 -21.5 13t-26.5 4q-18 0 -31.5 -10.5
t-17.5 -43.5l-15 -146h94z" />
    <glyph glyph-name="guillemotleft" unicode="&#xab;" horiz-adv-x="541" 
d="M46 241l121 202h119l-120 -202l120 -202h-119zM249 241l121 202h119l-120 -202l120 -202h-119z" />
    <glyph glyph-name="guillemotright" unicode="&#xbb;" horiz-adv-x="542" 
d="M173 241l-121 202h119l122 -202l-122 -202h-119zM376 241l-121 202h119l122 -202l-122 -202h-119z" />
    <glyph glyph-name="ellipsis" unicode="&#x2026;" horiz-adv-x="874" 
d="M85 146h148v-146h-148v146zM363 146h148v-146h-148v146zM641 146h148v-146h-148v146z" />
    <glyph glyph-name="Agrave" unicode="&#xc0;" horiz-adv-x="717" 
d="M183 955h160l67 -152h-81zM357 591l-101 -299h199zM158 0h-130l261 753h148l252 -753h-139l-57 176h-276z" />
    <glyph glyph-name="Atilde" unicode="&#xc3;" horiz-adv-x="717" 
d="M357 591l-101 -299h199zM424 803q-22 0 -39 7t-30.5 16t-25.5 16t-25 7q-17 0 -26 -11.5t-13 -31.5l-79 7q8 62 38.5 95t77.5 33q22 0 38.5 -7t30 -16t25.5 -16t26 -7q18 0 24 10.5t9 30.5l84 -7q-8 -57 -37.5 -91.5t-77.5 -34.5zM158 0h-130l261 753h148l252 -753h-139
l-57 176h-276z" />
    <glyph glyph-name="Otilde" unicode="&#xd5;" horiz-adv-x="877" 
d="M502 803q-22 0 -39 7t-30.5 16t-25.5 16t-25 7q-17 0 -26 -11.5t-13 -31.5l-79 7q8 62 38.5 95t77.5 33q22 0 38.5 -7t30 -16t25.5 -16t26 -7q18 0 24 10.5t9 30.5l84 -7q-8 -57 -37.5 -91.5t-77.5 -34.5zM438 643q-56 0 -98.5 -19.5t-71.5 -54t-44 -83.5t-15 -107
q0 -126 59 -196.5t171 -70.5q116 0 172.5 64.5t56.5 204.5q0 59 -15 107t-44.5 82.5t-72.5 53.5t-98 19zM62 378q0 81 26.5 151.5t75.5 123t118.5 83t155.5 30.5q85 0 155 -29t119 -80.5t76 -122t27 -154.5q0 -86 -24 -158.5t-71.5 -124.5t-117 -81t-160.5 -29
q-87 0 -157 29t-119.5 81t-76.5 123.5t-27 157.5z" />
    <glyph glyph-name="OE" unicode="&#x152;" horiz-adv-x="1329" 
d="M438 643q-56 0 -98.5 -19.5t-71.5 -54t-44 -83.5t-15 -107q0 -126 59 -196.5t171 -70.5q116 0 172.5 64.5t56.5 204.5q0 59 -15 107t-44.5 82.5t-72.5 53.5t-98 19zM666 753h581v-124h-444v-184h377v-121h-377v-200h463v-124h-600v68q-39 -39 -94 -60t-130 -21
q-87 0 -157 29t-119.5 81t-76.5 123.5t-27 157.5q0 81 26.5 151.5t75.5 123t118.5 83t155.5 30.5q74 0 130.5 -23t97.5 -65v75z" />
    <glyph glyph-name="oe" unicode="&#x153;" horiz-adv-x="963" 
d="M793 333q-5 54 -33 84t-82 30q-53 0 -84 -27t-41 -87h240zM298 452q-72 0 -105 -49t-33 -128q0 -41 7 -76t23 -60.5t41.5 -40.5t63.5 -15q40 0 66.5 13.5t42.5 38t22.5 58t6.5 74.5q0 39 -7.5 72.5t-24 58.5t-42 39.5t-61.5 14.5zM493 88q-54 -101 -196 -101
q-58 0 -105 20t-80.5 56.5t-52 87.5t-18.5 114q0 66 19 118.5t53 89t81 55.5t103 19q137 0 195 -103q28 49 74.5 75t111.5 26q53 0 97.5 -17t76.5 -53.5t50 -94t18 -139.5h-370q5 -74 36 -111t100 -37q53 0 83.5 22.5t46.5 69.5l102 -37q-10 -34 -27.5 -62.5t-46 -49.5
t-68.5 -33t-94 -12q-131 0 -189 97z" />
    <glyph glyph-name="endash" unicode="&#x2013;" horiz-adv-x="632" 
d="M65 354h502v-106h-502v106z" />
    <glyph glyph-name="emdash" unicode="&#x2014;" horiz-adv-x="916" 
d="M65 354h786v-106h-786v106z" />
    <glyph glyph-name="quotedblleft" unicode="&#x201c;" horiz-adv-x="478" 
d="M199 700q-27 -6 -45.5 -21t-18.5 -51h65v-138h-142v124q0 39 11.5 66.5t31 45.5t45 27.5t53.5 12.5v-66zM419 700q-27 -6 -45.5 -21t-18.5 -51h65v-138h-142v124q0 39 11.5 66.5t31 45.5t45 27.5t53.5 12.5v-66z" />
    <glyph glyph-name="quotedblright" unicode="&#x201d;" horiz-adv-x="478" 
d="M59 543q27 6 45.5 21t18.5 51h-65v138h142v-124q0 -39 -11.5 -66.5t-31 -45.5t-45 -27.5t-53.5 -12.5v66zM279 543q27 6 45.5 21t18.5 51h-65v138h142v-124q0 -39 -11.5 -66.5t-31 -45.5t-45 -27.5t-53.5 -12.5v66z" />
    <glyph glyph-name="quoteleft" unicode="&#x2018;" horiz-adv-x="258" 
d="M199 700q-27 -6 -45.5 -21t-18.5 -51h65v-138h-142v124q0 39 11.5 66.5t31 45.5t45 27.5t53.5 12.5v-66z" />
    <glyph glyph-name="quoteright" unicode="&#x2019;" horiz-adv-x="258" 
d="M59 543q27 6 45.5 21t18.5 51h-65v138h142v-124q0 -39 -11.5 -66.5t-31 -45.5t-45 -27.5t-53.5 -12.5v66z" />
    <glyph glyph-name="divide" unicode="&#xf7;" horiz-adv-x="546" 
d="M207 168h134v-134h-134v134zM207 563h134v-134h-134v134zM65 353h416v-109h-416v109z" />
    <glyph glyph-name="ydieresis" unicode="&#xff;" horiz-adv-x="532" 
d="M115 711h116v-116h-116v116zM299 711h116v-116h-116v116zM29 534h128l118 -366l111 366h117l-191 -592q-11 -32 -29 -61t-44 -49q-20 -16 -48 -23t-57 -7q-62 0 -100 22l31 101h2q18 -16 52 -16q24 0 44 10.5t32 42.5l18 45z" />
    <glyph glyph-name="Ydieresis" unicode="&#x178;" horiz-adv-x="704" 
d="M209 919h116v-116h-116v116zM393 919h116v-116h-116v116zM18 753h159l183 -328l178 328h148l-258 -463v-290h-137v279z" />
    <glyph glyph-name="guilsinglleft" unicode="&#x2039;" horiz-adv-x="338" 
d="M46 241l121 202h119l-120 -202l120 -202h-119z" />
    <glyph glyph-name="guilsinglright" unicode="&#x203a;" horiz-adv-x="339" 
d="M173 241l-121 202h119l122 -202l-122 -202h-119z" />
    <glyph glyph-name="daggerdbl" unicode="&#x2021;" horiz-adv-x="510" 
d="M39 456v103h158v194h116v-194h158v-103h-158v-158h158v-103h-158v-195h-116v195h-158v103h158v158h-158z" />
    <glyph glyph-name="periodcentered" unicode="&#xb7;" horiz-adv-x="318" 
d="M85 401h148v-146h-148v146z" />
    <glyph glyph-name="quotesinglbase" unicode="&#x201a;" horiz-adv-x="258" 
d="M59 -72q27 6 45.5 21t18.5 51h-65v138h142v-124q0 -39 -11.5 -66.5t-31 -45.5t-45 -27.5t-53.5 -12.5v66z" />
    <glyph glyph-name="quotedblbase" unicode="&#x201e;" horiz-adv-x="478" 
d="M59 -72q27 6 45.5 21t18.5 51h-65v138h142v-124q0 -39 -11.5 -66.5t-31 -45.5t-45 -27.5t-53.5 -12.5v66zM279 -72q27 6 45.5 21t18.5 51h-65v138h142v-124q0 -39 -11.5 -66.5t-31 -45.5t-45 -27.5t-53.5 -12.5v66z" />
    <glyph glyph-name="perthousand" unicode="&#x2030;" horiz-adv-x="1480" 
d="M799 76q47 0 68 34.5t21 96.5q0 60 -21 94.5t-69 34.5q-47 0 -67 -33.5t-20 -96.5t20.5 -96.5t67.5 -33.5zM1245 76q47 0 68 34.5t21 96.5q0 60 -21 94.5t-69 34.5q-47 0 -67 -33.5t-20 -96.5t20.5 -96.5t67.5 -33.5zM234 380q47 0 68 34.5t21 96.5q0 60 -21 94.5
t-69 34.5q-47 0 -67 -33.5t-20 -96.5t20.5 -96.5t67.5 -33.5zM638 716h104l-348 -716h-104zM1244 -13q-47 0 -83 16.5t-60.5 46t-37 69t-12.5 86.5q0 46 13 86t38 69.5t61 46t82 16.5t82.5 -16t61.5 -44.5t38 -68t13 -86.5t-13 -87.5t-37.5 -70t-61 -46.5t-84.5 -17z
M798 -13q-47 0 -83 16.5t-60.5 46t-37 69t-12.5 86.5q0 46 13 86t38 69.5t61 46t82 16.5t82.5 -16t61.5 -44.5t38 -68t13 -86.5t-13 -87.5t-37.5 -70t-61 -46.5t-84.5 -17zM233 291q-47 0 -83 16.5t-60.5 46t-37 69t-12.5 86.5q0 46 13 86t38 69.5t61 46t82 16.5t82.5 -16
t61.5 -44.5t38 -68t13 -86.5t-13 -87.5t-37.5 -70t-61 -46.5t-84.5 -17z" />
    <glyph glyph-name="Acircumflex" unicode="&#xc2;" horiz-adv-x="717" 
d="M301 959h124l101 -156h-78l-86 78l-87 -78h-75zM357 591l-101 -299h199zM158 0h-130l261 753h148l252 -753h-139l-57 176h-276z" />
    <glyph glyph-name="Ecircumflex" unicode="&#xca;" horiz-adv-x="760" 
d="M336 959h124l101 -156h-78l-86 78l-87 -78h-75zM234 124h463v-124h-600v753h581v-124h-444v-184h377v-121h-377v-200z" />
    <glyph glyph-name="Aacute" unicode="&#xc1;" horiz-adv-x="717" 
d="M376 955h161l-147 -152h-81zM357 591l-101 -299h199zM158 0h-130l261 753h148l252 -753h-139l-57 176h-276z" />
    <glyph glyph-name="Edieresis" unicode="&#xcb;" horiz-adv-x="760" 
d="M240 919h116v-116h-116v116zM424 919h116v-116h-116v116zM234 124h463v-124h-600v753h581v-124h-444v-184h377v-121h-377v-200z" />
    <glyph glyph-name="Egrave" unicode="&#xc8;" horiz-adv-x="760" 
d="M223 955h160l67 -152h-81zM234 124h463v-124h-600v753h581v-124h-444v-184h377v-121h-377v-200z" />
    <glyph glyph-name="Iacute" unicode="&#xcd;" horiz-adv-x="355" 
d="M194 955h161l-147 -152h-81zM246 753v-753h-137v753h137z" />
    <glyph glyph-name="Icircumflex" unicode="&#xce;" horiz-adv-x="355" 
d="M115 959h124l101 -156h-78l-86 78l-87 -78h-75zM246 753v-753h-137v753h137z" />
    <glyph glyph-name="Idieresis" unicode="&#xcf;" horiz-adv-x="355" 
d="M27 919h116v-116h-116v116zM211 919h116v-116h-116v116zM246 753v-753h-137v753h137z" />
    <glyph glyph-name="Igrave" unicode="&#xcc;" horiz-adv-x="355" 
d="M2 955h160l67 -152h-81zM246 753v-753h-137v753h137z" />
    <glyph glyph-name="Oacute" unicode="&#xd3;" horiz-adv-x="877" 
d="M452 955h161l-147 -152h-81zM438 643q-56 0 -98.5 -19.5t-71.5 -54t-44 -83.5t-15 -107q0 -126 59 -196.5t171 -70.5q116 0 172.5 64.5t56.5 204.5q0 59 -15 107t-44.5 82.5t-72.5 53.5t-98 19zM62 378q0 81 26.5 151.5t75.5 123t118.5 83t155.5 30.5q85 0 155 -29
t119 -80.5t76 -122t27 -154.5q0 -86 -24 -158.5t-71.5 -124.5t-117 -81t-160.5 -29q-87 0 -157 29t-119.5 81t-76.5 123.5t-27 157.5z" />
    <glyph glyph-name="Ocircumflex" unicode="&#xd4;" horiz-adv-x="877" 
d="M376 959h124l101 -156h-78l-86 78l-87 -78h-75zM438 643q-56 0 -98.5 -19.5t-71.5 -54t-44 -83.5t-15 -107q0 -126 59 -196.5t171 -70.5q116 0 172.5 64.5t56.5 204.5q0 59 -15 107t-44.5 82.5t-72.5 53.5t-98 19zM62 378q0 81 26.5 151.5t75.5 123t118.5 83t155.5 30.5
q85 0 155 -29t119 -80.5t76 -122t27 -154.5q0 -86 -24 -158.5t-71.5 -124.5t-117 -81t-160.5 -29q-87 0 -157 29t-119.5 81t-76.5 123.5t-27 157.5z" />
    <glyph glyph-name="Ograve" unicode="&#xd2;" horiz-adv-x="877" 
d="M263 955h160l67 -152h-81zM438 643q-56 0 -98.5 -19.5t-71.5 -54t-44 -83.5t-15 -107q0 -126 59 -196.5t171 -70.5q116 0 172.5 64.5t56.5 204.5q0 59 -15 107t-44.5 82.5t-72.5 53.5t-98 19zM62 378q0 81 26.5 151.5t75.5 123t118.5 83t155.5 30.5q85 0 155 -29
t119 -80.5t76 -122t27 -154.5q0 -86 -24 -158.5t-71.5 -124.5t-117 -81t-160.5 -29q-87 0 -157 29t-119.5 81t-76.5 123.5t-27 157.5z" />
    <glyph glyph-name="Uacute" unicode="&#xda;" horiz-adv-x="805" 
d="M416 955h161l-147 -152h-81zM407 -13q-158 0 -239.5 71.5t-81.5 233.5v461h137v-485q0 -45 12.5 -76t35.5 -50t57 -27t78 -8q90 0 133 37t43 131v478h137v-467q0 -77 -17.5 -133t-55 -93t-96.5 -55t-143 -18z" />
    <glyph glyph-name="Ucircumflex" unicode="&#xdb;" horiz-adv-x="805" 
d="M342 959h124l101 -156h-78l-86 78l-87 -78h-75zM407 -13q-158 0 -239.5 71.5t-81.5 233.5v461h137v-485q0 -45 12.5 -76t35.5 -50t57 -27t78 -8q90 0 133 37t43 131v478h137v-467q0 -77 -17.5 -133t-55 -93t-96.5 -55t-143 -18z" />
    <glyph glyph-name="Ugrave" unicode="&#xd9;" horiz-adv-x="805" 
d="M242 955h160l67 -152h-81zM407 -13q-158 0 -239.5 71.5t-81.5 233.5v461h137v-485q0 -45 12.5 -76t35.5 -50t57 -27t78 -8q90 0 133 37t43 131v478h137v-467q0 -77 -17.5 -133t-55 -93t-96.5 -55t-143 -18z" />
    <glyph glyph-name="circumflex" unicode="&#x2c6;" horiz-adv-x="500" 
d="M188 751h124l101 -156h-78l-86 78l-87 -78h-75z" />
    <glyph glyph-name="tilde" unicode="&#x2dc;" horiz-adv-x="500" 
d="M311 595q-22 0 -39 7t-30.5 16t-25.5 16t-25 7q-17 0 -26 -11.5t-13 -31.5l-79 7q8 62 38.5 95t77.5 33q22 0 38.5 -7t30 -16t25.5 -16t26 -7q18 0 24 10.5t9 30.5l84 -7q-8 -57 -37.5 -91.5t-77.5 -34.5z" />
    <glyph glyph-name="macron" unicode="&#xaf;" horiz-adv-x="500" 
d="M121 688h258v-99h-258v99z" />
    <glyph glyph-name="cedilla" unicode="&#xb8;" horiz-adv-x="497" 
d="M293 -231q-85 0 -120 58l56 30q8 -14 22.5 -23.5t37.5 -9.5q21 0 34.5 9.5t13.5 29.5q0 42 -39 42q-17 0 -26 -5t-15 -14h-54v114h63v-56q8 5 19.5 9t26.5 4q21 0 39.5 -6.5t32.5 -18.5t22.5 -30t8.5 -41q0 -47 -35.5 -69.5t-86.5 -22.5z" />
    <glyph glyph-name="Euro" unicode="&#x20ac;" horiz-adv-x="730" 
d="M229 391q-1 -8 -1 -16v-15v-22q0 -10 1 -21h234v-81h-225q14 -69 54.5 -104.5t120.5 -35.5q37 0 64 9.5t46 26t31.5 37.5t21.5 45l104 -48q-14 -34 -35 -66.5t-53.5 -57.5t-77.5 -40t-106 -15q-62 0 -111.5 18t-86.5 51t-62 78.5t-37 101.5h-87v81h75q-1 10 -1 20v22v16
t1 16h-75v81h86q13 56 38.5 103t63.5 80.5t88 52.5t112 19q99 0 165.5 -44.5t101.5 -140.5l-108 -46q-11 32 -24 55.5t-31 38.5t-43.5 22.5t-60.5 7.5q-78 0 -119 -38t-56 -110h226v-81h-234z" />
    <glyph glyph-name="Delta" unicode="&#x394;" horiz-adv-x="726" 
d="M364 598l-153 -481h304zM293 754h145l254 -754h-658z" />
    <glyph glyph-name="scaron" unicode="&#x161;" horiz-adv-x="539" 
d="M318 595h-124l-101 156h78l86 -78l87 78h75zM256 545q82 0 137 -28.5t90 -81.5l-86 -65q-46 75 -135 75q-51 0 -73 -14t-22 -40q0 -16 7 -26t22 -16.5t38 -11t55 -8.5q39 -5 76 -14.5t66 -28.5t46.5 -50t17.5 -79q0 -36 -11.5 -67t-37 -53t-66.5 -34.5t-100 -12.5
q-94 0 -155.5 36.5t-92.5 103.5l92 54q23 -40 57.5 -66t96.5 -26q43 0 72 13.5t29 46.5q0 16 -7 26.5t-22 17.5t-38.5 11.5t-56.5 10.5q-40 7 -76.5 16t-64.5 27t-44.5 48.5t-16.5 78.5q0 41 16 71t43.5 49t64.5 28t79 9z" />
    <glyph glyph-name="Eth" unicode="&#xd0;" horiz-adv-x="812" 
d="M376 430v-115h-142v-194h173q97 0 151 63.5t54 194.5q0 118 -54 185t-152 67h-172v-201h142zM18 315v115h79v323h303q88 0 154 -29t109.5 -80t65 -119.5t21.5 -146.5q0 -76 -17 -144.5t-57.5 -120.5t-108 -82.5t-169.5 -30.5h-301v315h-79z" />
    <glyph glyph-name="eth" unicode="&#xf0;" horiz-adv-x="573" 
d="M287 83q68 0 103.5 45t35.5 138q0 87 -36 135t-103 48q-70 0 -102 -49t-32 -131q0 -41 8 -75.5t24.5 -59t42 -38t59.5 -13.5zM241 563l-47 49l7.5 7t16.5 16l16 16l7 7q-16 13 -32 24t-30 21l62 77q20 -11 39 -23t37 -26l57 55l47 -49l-51 -49q79 -72 127 -171.5
t48 -229.5q0 -79 -18.5 -136t-52 -93.5t-81.5 -53.5t-107 -17q-57 0 -103.5 20.5t-79.5 57.5t-51 88t-18 113t17 113t47.5 87t72 55.5t91.5 19.5q37 0 63.5 -10t48.5 -30q-16 33 -37 61t-44 51z" />
    <glyph glyph-name="Scaron" unicode="&#x160;" horiz-adv-x="738" 
d="M413 803h-124l-101 156h78l86 -78l87 78h75zM353 766q125 0 202 -44t116 -122l-114 -73q-28 53 -76.5 86.5t-128.5 33.5q-84 0 -120 -22.5t-36 -69.5q0 -28 12 -44.5t36 -26.5t60.5 -16.5t86.5 -14.5q67 -11 122.5 -26.5t95.5 -43t61.5 -70.5t21.5 -108q0 -59 -22.5 -100
t-64 -67.5t-99.5 -38.5t-128 -12q-144 0 -229 54t-113 144l125 56q14 -31 32 -55.5t44 -41.5t62 -26t86 -9q81 0 123 23t42 73q0 29 -12 47.5t-37.5 31t-65.5 21t-96 17.5t-107 22t-89 37t-60.5 63.5t-22.5 102.5q0 49 19 89.5t56 69t91.5 44.5t126.5 16z" />
    <glyph glyph-name="uni00A0" unicode="&#xa0;" horiz-adv-x="247" 
 />
    <glyph glyph-name="uni00AD" unicode="&#xad;" horiz-adv-x="408" 
d="M65 336h268v-118h-268v118z" />
    <glyph glyph-name="uni2219" unicode="&#x2219;" horiz-adv-x="318" 
d="M85 401h148v-146h-148v146z" />
    <glyph glyph-name="uni2224" unicode="&#x2224;" horiz-adv-x="318" 
d="M85 401h148v-146h-148v146z" />
    <glyph glyph-name="uni2227" unicode="&#x2227;" horiz-adv-x="318" 
d="M85 401h148v-146h-148v146z" />
    <glyph glyph-name="uni22C5" unicode="&#x22c5;" horiz-adv-x="318" 
d="M85 401h148v-146h-148v146z" />
    <glyph glyph-name="uni03BC" unicode="&#x3bc;" horiz-adv-x="618" 
d="M195 534v-323q0 -54 22.5 -86t74.5 -32q56 0 93.5 38.5t37.5 121.5v281h120v-534h-120l2 86q-9 -17 -22.5 -34t-33 -31t-45 -23t-59.5 -9q-20 0 -39 5t-31 15v-191h-120v716h120z" />
    <glyph glyph-name="uni02C9" unicode="&#x2c9;" horiz-adv-x="500" 
d="M121 688h258v-99h-258v99z" />
    <glyph glyph-name="uni2206" unicode="&#x2206;" horiz-adv-x="726" 
d="M364 598l-153 -481h304zM293 754h145l254 -754h-658z" />
    </font>
</defs>
</svg>
